<?xml version="1.0" encoding="utf-8"?>
<!-- Generator: Adobe Illustrator 19.0.0, SVG Export Plug-In . SVG Version: 6.00 Build 0)  -->
<svg version="1.1" id="Layer_1" xmlns="http://www.w3.org/2000/svg" xmlns:xlink="http://www.w3.org/1999/xlink" x="0px" y="0px"
	 viewBox="89 -88 277 277" style="enable-background:new 89 -88 277 277;" xml:space="preserve">
<style type="text/css">
	.st0{fill:#FFFFFF;}
	.st1{fill:#6AFFDA;}
	.st2{fill:#323159;}
	.st3{font-family:'BebasNeue-Regular';}
	.st4{font-size:15px;}
	.st5{letter-spacing:4;}
	.st6{font-family:'Amsterdam-1';}
	.st7{font-size:36px;}
	.st8{letter-spacing:9;}
</style>
<title>name</title>
<desc>Created with Sketch.</desc>
<g id="converted">
	<g id="mWeb-Design" transform="translate(-27.000000, -170.000000)">
		<g id="Group-8" transform="translate(27.000000, 170.000000)">
			<g id="name">
				<g id="Group-3">
					<path id="_x26_" class="st0" d="M192.5,67.8c14.7,10.3,30.4,15.8,46.1,11.1c2.5,34.9-19.9,39.3-32.9,39.3
						c-12.6,0-24.1-4.8-34.4-12.4c-8.8,8.2-19.9,12.4-36.9,12.4c-21.4,0-46.9-15.3-44.4-41c1.7-17,14.5-26.3,28.3-30.1
						c-17.2-24.4-14.2-66.4,31.2-66.4c18,0,33.7,7.1,34.2,22.9c0.6,16.4-14,25.9-26.2,29.6c9.8,12.2,21.4,24.8,34.1,33.8L194,60
						c5-11.4,12.2-24,25.1-25.4c9.9-1,19.7,3.2,22,13.2c2.7,11.6-5.5,21.9-16.6,21.4c-23.9-1.3-15.5-29.2-23.1-18.9
						C198.8,53.5,195,61.6,192.5,67.8z M143.7-17c-15.9,5.5,12.4,48.3,12.6,48.6c1.5-6.1,3.8-13.7,2.5-29
						C157.7-10.9,151.3-19.5,143.7-17z M127.8,88.6c11.3,14.1,29.1,22.7,41.9,16c-4.2-3.2-39.8-37.8-50.3-55.9
						C115,62.3,119.6,78.3,127.8,88.6z"/>
					<rect id="Rectangle" x="129.6" y="-88" class="st1" width="139.5" height="24.5"/>
					<path id="Save-the-Date" class="st2" d="M140.8-70.4c-1.7,0-2.5-1-2.5-2.7v-0.6h1.6v0.7c0,0.8,0.3,1,0.9,1s0.9-0.3,0.9-1.1
						c0-0.9-0.3-1.5-1.4-2.4c-1.4-1.2-1.9-2.1-1.9-3.4c0-1.7,0.9-2.7,2.5-2.7c1.7,0,2.5,1,2.5,2.7v0.4h-1.6v-0.6
						c0-0.8-0.3-1.1-0.8-1.1s-0.8,0.3-0.8,1c0,0.8,0.4,1.4,1.5,2.3c1.4,1.2,1.9,2.1,1.9,3.4C143.4-71.4,142.5-70.4,140.8-70.4z
						 M147.3-70.5l1.8-10.8h2.3l1.8,10.8h-1.7l-0.3-2.1v0h-1.9l-0.3,2.1H147.3z M149.4-74.1h1.5l-0.8-5.3h0L149.4-74.1z M158.2-70.5
						l-1.6-10.8h1.7l1.1,8.4h0l1.1-8.4h1.6l-1.6,10.8H158.2z M166.4-70.5v-10.8h4.6v1.5h-2.9v2.8h2.3v1.5h-2.3v3.3h2.9v1.5H166.4z
						 M188.8-70.5v-9.2H187v-1.5h5.2v1.5h-1.8v9.2H188.8z M196.6-70.5v-10.8h1.7v4.4h1.8v-4.4h1.7v10.8h-1.7v-4.8h-1.8v4.8H196.6z
						 M206.5-70.5v-10.8h4.6v1.5h-2.9v2.8h2.3v1.5h-2.3v3.3h2.9v1.5H206.5z M227.6-70.5v-10.8h2.6c1.7,0,2.5,0.9,2.5,2.7v5.4
						c0,1.7-0.8,2.7-2.5,2.7H227.6z M229.3-72.1h0.9c0.5,0,0.9-0.3,0.9-1v-5.6c0-0.8-0.3-1-0.9-1h-0.9V-72.1z M236.8-70.5l1.8-10.8
						h2.3l1.8,10.8H241l-0.3-2.1v0h-1.9l-0.3,2.1H236.8z M238.9-74.1h1.5l-0.8-5.3h0L238.9-74.1z M247.6-70.5v-9.2h-1.8v-1.5h5.2
						v1.5h-1.8v9.2H247.6z M255.4-70.5v-10.8h4.6v1.5h-2.9v2.8h2.3v1.5h-2.3v3.3h2.9v1.5H255.4z"/>
				</g>
			</g>
		</g>
	</g>
</g>
<text transform="matrix(1 0 0 1 230.0254 187.8228)" class="st2 st3 st4 st5">25 . OCT . 2019</text>
<text transform="matrix(1 0 0 1 133.8075 34.383)" class="st2 st6 st7 st8">Malo</text>
<text transform="matrix(1 0 0 1 184.997 150.2438)" class="st2 st6 st7 st8">Seb</text>
</svg>
