<?xml version="1.0" encoding="utf-8"?>
<!-- Generator: Adobe Illustrator 19.0.0, SVG Export Plug-In . SVG Version: 6.00 Build 0)  -->
<svg version="1.1" id="Layer_1" xmlns="http://www.w3.org/2000/svg" xmlns:xlink="http://www.w3.org/1999/xlink" x="0px" y="0px"
	 viewBox="148 -148 395 396" style="enable-background:new 148 -148 395 396;" xml:space="preserve">
<style type="text/css">
	.st0{fill:#6AFFDA;}
	.st1{fill:#323159;}
	.st2{font-family:'BebasNeue-Regular';}
	.st3{font-size:22px;}
	.st4{letter-spacing:5;}
	.st5{font-family:'Amsterdam-1';}
	.st6{font-size:48px;}
	.st7{letter-spacing:12;}
</style>
<title>name</title>
<desc>Created with Sketch.</desc>
<g id="Page-2">
	<g id="one" transform="translate(-889.000000, -269.000000)">
		<g id="name" transform="translate(881.000000, 269.000000)">
			<g id="Group-3">
				<path id="_x26_" class="st0" d="M302.7,75c21,14.7,43.4,22.7,65.8,15.8c3.5,49.9-28.4,56.2-46.9,56.2c-18,0-34.4-6.8-49.1-17.7
					C259.9,141,244.1,147,219.8,147c-30.6,0-66.9-21.8-63.3-58.7c2.5-24.3,20.7-37.7,40.4-43.1c-24.6-34.9-20.2-95,44.5-95
					c25.7,0,48,10.1,48.9,32.7c0.8,23.5-19.9,37.1-37.4,42.3c13.9,17.5,30.6,35.5,48.6,48.3l3.5-9.8c7.1-16.4,17.5-34.4,35.8-36.3
					c14.2-1.4,28.1,4.6,31.4,18.8c3.8,16.6-7.9,31.4-23.7,30.6c-34.1-1.9-22.1-41.8-33-27C311.7,54.5,306.3,65.9,302.7,75z
					 M233.1-46.5c-22.7,7.9,17.7,69,18,69.6c2.2-8.7,5.5-19.6,3.5-41.5C253.1-37.8,244.1-50,233.1-46.5z M210.5,104.7
					c16.1,20.2,41.5,32.5,59.8,22.9c-6-4.6-56.8-54-71.8-80C192.2,67,198.8,90,210.5,104.7z"/>
				<rect id="Rectangle" x="213" y="-148" class="st0" width="199" height="35"/>
				<path id="Save-the-Date" class="st1" d="M229-122.8c-2.4,0-3.6-1.4-3.6-3.9v-0.9h2.3v1.1c0,1.1,0.5,1.5,1.3,1.5
					c0.8,0,1.3-0.4,1.3-1.5c0-1.3-0.5-2.1-2.1-3.5c-2-1.8-2.7-3-2.7-4.8c0-2.4,1.3-3.8,3.6-3.8c2.4,0,3.5,1.4,3.5,3.9v0.6h-2.3v-0.8
					c0-1.1-0.4-1.5-1.2-1.5c-0.8,0-1.2,0.4-1.2,1.5c0,1.1,0.5,1.9,2.1,3.3c2,1.8,2.7,3,2.7,4.9C232.7-124.2,231.4-122.8,229-122.8z
					 M238.4-123l2.5-15.4h3.3l2.5,15.4h-2.4l-0.4-3.1v0h-2.8l-0.4,3H238.4z M241.3-128.1h2.2l-1.1-7.6h0L241.3-128.1z M253.9-123
					l-2.3-15.4h2.4l1.6,11.9h0l1.6-11.9h2.2l-2.3,15.4H253.9z M265.6-123v-15.4h6.6v2.2H268v4.1h3.3v2.2H268v4.7h4.2v2.2H265.6z
					 M297.5-123v-13.2h-2.5v-2.2h7.5v2.2h-2.5v13.2H297.5z M308.6-123v-15.4h2.4v6.3h2.6v-6.3h2.4v15.4h-2.4v-6.9H311v6.9H308.6z
					 M322.8-123v-15.4h6.6v2.2h-4.2v4.1h3.3v2.2h-3.3v4.7h4.2v2.2H322.8z M352.8-123v-15.4h3.7c2.4,0,3.6,1.3,3.6,3.8v7.8
					c0,2.5-1.2,3.8-3.6,3.8H352.8z M355.2-125.2h1.2c0.8,0,1.2-0.4,1.2-1.5v-8c0-1.1-0.5-1.5-1.2-1.5h-1.2V-125.2z M366-123
					l2.5-15.4h3.3l2.5,15.4h-2.4l-0.4-3.1v0h-2.8l-0.4,3H366z M369-128.1h2.2l-1.1-7.6h0L369-128.1z M381.4-123v-13.2h-2.5v-2.2h7.5
					v2.2h-2.5v13.2H381.4z M392.5-123v-15.4h6.6v2.2h-4.2v4.1h3.3v2.2h-3.3v4.7h4.2v2.2H392.5z"/>
			</g>
		</g>
	</g>
</g>
<text transform="matrix(1 0 0 1 348.3128 246.8702)" class="st1 st2 st3 st4">25 . OCT . 2019</text>
<text transform="matrix(1 0 0 1 228.1726 5.6923)" class="st1 st5 st6 st7">Malo</text>
<text transform="matrix(1 0 0 1 279.9953 187.4058)" class="st1 st5 st6 st7">Seb</text>
</svg>
