<?xml version="1.0" encoding="utf-8"?>
<!-- Generator: Adobe Illustrator 19.0.0, SVG Export Plug-In . SVG Version: 6.00 Build 0)  -->
<svg version="1.1" id="Layer_1" width="395px" height="396px" xmlns="http://www.w3.org/2000/svg" xmlns:xlink="http://www.w3.org/1999/xlink" x="0px" y="0px"
	 viewBox="148 -148 395 396" style="enable-background:new 148 -148 395 396;" xml:space="preserve">
<style type="text/css">
	.st0{fill:#6AFFDA;}
	.st1{fill:#323159;}
</style>
<title>name</title>
<desc>Created with Sketch.</desc>
<g id="Page-2">
	<g id="one" transform="translate(-889.000000, -269.000000)">
		<g id="name" transform="translate(881.000000, 269.000000)">
			<g id="Group-3">
				<path id="_x26_" class="st0" d="M302.7,75c21,14.7,43.4,22.7,65.8,15.8c3.5,49.9-28.4,56.2-46.9,56.2c-18,0-34.4-6.8-49.1-17.7
					C259.9,141,244.1,147,219.8,147c-30.6,0-66.9-21.8-63.3-58.7c2.5-24.3,20.7-37.7,40.4-43.1c-24.6-34.9-20.2-95,44.5-95
					c25.7,0,48,10.1,48.9,32.7c0.8,23.5-19.9,37.1-37.4,42.3c13.9,17.5,30.6,35.5,48.6,48.3l3.5-9.8c7.1-16.4,17.5-34.4,35.8-36.3
					c14.2-1.4,28.1,4.6,31.4,18.8c3.8,16.6-7.9,31.4-23.7,30.6c-34.1-1.9-22.1-41.8-33-27C311.7,54.5,306.3,65.9,302.7,75z
					 M233.1-46.5c-22.7,7.9,17.7,69,18,69.6c2.2-8.7,5.5-19.6,3.5-41.5C253.1-37.8,244.1-50,233.1-46.5z M210.5,104.7
					c16.1,20.2,41.5,32.5,59.8,22.9c-6-4.6-56.8-54-71.8-80C192.2,67,198.8,90,210.5,104.7z"/>
				<rect id="Rectangle" x="213" y="-148" class="st0" width="199" height="35"/>
				<path id="Save-the-Date" class="st1" d="M229-122.8c-2.4,0-3.6-1.4-3.6-3.9v-0.9h2.3v1.1c0,1.1,0.5,1.5,1.3,1.5
					c0.8,0,1.3-0.4,1.3-1.5c0-1.3-0.5-2.1-2.1-3.5c-2-1.8-2.7-3-2.7-4.8c0-2.4,1.3-3.8,3.6-3.8c2.4,0,3.5,1.4,3.5,3.9v0.6h-2.3v-0.8
					c0-1.1-0.4-1.5-1.2-1.5c-0.8,0-1.2,0.4-1.2,1.5c0,1.1,0.5,1.9,2.1,3.3c2,1.8,2.7,3,2.7,4.9C232.7-124.2,231.4-122.8,229-122.8z
					 M238.4-123l2.5-15.4h3.3l2.5,15.4h-2.4l-0.4-3.1v0h-2.8l-0.4,3H238.4z M241.3-128.1h2.2l-1.1-7.6h0L241.3-128.1z M253.9-123
					l-2.3-15.4h2.4l1.6,11.9h0l1.6-11.9h2.2l-2.3,15.4H253.9z M265.6-123v-15.4h6.6v2.2H268v4.1h3.3v2.2H268v4.7h4.2v2.2H265.6z
					 M297.5-123v-13.2h-2.5v-2.2h7.5v2.2h-2.5v13.2H297.5z M308.6-123v-15.4h2.4v6.3h2.6v-6.3h2.4v15.4h-2.4v-6.9H311v6.9H308.6z
					 M322.8-123v-15.4h6.6v2.2h-4.2v4.1h3.3v2.2h-3.3v4.7h4.2v2.2H322.8z M352.8-123v-15.4h3.7c2.4,0,3.6,1.3,3.6,3.8v7.8
					c0,2.5-1.2,3.8-3.6,3.8H352.8z M355.2-125.2h1.2c0.8,0,1.2-0.4,1.2-1.5v-8c0-1.1-0.5-1.5-1.2-1.5h-1.2V-125.2z M366-123
					l2.5-15.4h3.3l2.5,15.4h-2.4l-0.4-3.1v0h-2.8l-0.4,3H366z M369-128.1h2.2l-1.1-7.6h0L369-128.1z M381.4-123v-13.2h-2.5v-2.2h7.5
					v2.2h-2.5v13.2H381.4z M392.5-123v-15.4h6.6v2.2h-4.2v4.1h3.3v2.2h-3.3v4.7h4.2v2.2H392.5z"/>
			</g>
		</g>
	</g>
</g>
<g>
	<path class="st1" d="M349,243.2v-8.1c0-2.5,1.3-3.9,3.7-3.9c2.4,0,3.7,1.4,3.7,3.9v8.1c0,2.5-1.3,3.9-3.7,3.9
		C350.3,247.1,349,245.7,349,243.2z M354,243.4V235c0-1.1-0.5-1.5-1.3-1.5c-0.8,0-1.3,0.4-1.3,1.5v8.4c0,1.1,0.5,1.5,1.3,1.5
		C353.5,244.9,354,244.5,354,243.4z"/>
	<path class="st1" d="M363.9,243.2V242h2.3v1.4c0,1.1,0.5,1.5,1.3,1.5c0.8,0,1.3-0.4,1.3-1.5v-3.5c0-1.1-0.5-1.5-1.3-1.5
		c-0.8,0-1.3,0.4-1.3,1.5v0.1h-2.3l0.4-8.6h6.4v2.2h-4.2l-0.2,3.7h0c0.4-0.7,1.1-1.1,2.1-1.1c1.8,0,2.7,1.3,2.7,3.5v3.5
		c0,2.5-1.2,3.9-3.6,3.9C365.1,247.1,363.9,245.7,363.9,243.2z"/>
	<path class="st1" d="M388.1,244.5h2.3v2.3h-2.3V244.5z"/>
	<path class="st1" d="M407.4,243.2v-8.1c0-2.5,1.3-3.9,3.7-3.9c2.4,0,3.7,1.4,3.7,3.9v8.1c0,2.5-1.3,3.9-3.7,3.9
		C408.7,247.1,407.4,245.7,407.4,243.2z M412.3,243.4V235c0-1.1-0.5-1.5-1.3-1.5c-0.8,0-1.3,0.4-1.3,1.5v8.4c0,1.1,0.5,1.5,1.3,1.5
		C411.8,244.9,412.3,244.5,412.3,243.4z"/>
	<path class="st1" d="M422.1,243.3V235c0-2.4,1.2-3.8,3.6-3.8s3.6,1.4,3.6,3.8v1.6H427v-1.8c0-1-0.5-1.4-1.2-1.4
		c-0.7,0-1.2,0.4-1.2,1.4v8.6c0,1,0.5,1.4,1.2,1.4c0.7,0,1.2-0.4,1.2-1.4v-2.4h2.3v2.2c0,2.4-1.2,3.8-3.6,3.8
		S422.1,245.7,422.1,243.3z"/>
	<path class="st1" d="M438.5,233.7H436v-2.2h7.5v2.2H441v13.2h-2.4V233.7z"/>
	<path class="st1" d="M460,244.5h2.3v2.3H460V244.5z"/>
	<path class="st1" d="M479.5,245.2c0-2.2,0.6-3.5,2.4-5.4c1.8-2,2.4-3.1,2.4-4.6c0-1.4-0.5-1.8-1.3-1.8c-0.8,0-1.3,0.4-1.3,1.5v1.6
		h-2.3v-1.5c0-2.5,1.2-3.9,3.6-3.9c2.4,0,3.6,1.4,3.6,3.9c0,1.8-0.7,3.5-3,5.8c-1.5,1.5-1.8,2.3-1.8,3.4v0.3h4.6v2.2h-7V245.2z"/>
	<path class="st1" d="M494,243.2v-8.1c0-2.5,1.3-3.9,3.7-3.9c2.4,0,3.7,1.4,3.7,3.9v8.1c0,2.5-1.3,3.9-3.7,3.9
		C495.3,247.1,494,245.7,494,243.2z M499,243.4V235c0-1.1-0.5-1.5-1.3-1.5c-0.8,0-1.3,0.4-1.3,1.5v8.4c0,1.1,0.5,1.5,1.3,1.5
		C498.5,244.9,499,244.5,499,243.4z"/>
	<path class="st1" d="M512.3,235.1h-2.5v-1.7c2,0,2.8-0.4,3.3-1.9h1.6v15.4h-2.4V235.1z"/>
	<path class="st1" d="M523.5,243.2v-0.3h2.3v0.4c0,1.1,0.5,1.5,1.3,1.5c0.9,0,1.3-0.4,1.3-1.9V240h0c-0.4,0.9-1.1,1.3-2.2,1.3
		c-1.8,0-2.7-1.3-2.7-3.5v-2.8c0-2.5,1.3-3.9,3.7-3.9c2.4,0,3.7,1.4,3.7,3.9v8c0,2.6-1.2,4-3.7,4
		C524.7,247.1,523.5,245.7,523.5,243.2z M528.3,237.7v-2.7c0-1-0.4-1.5-1.3-1.5c-0.8,0-1.3,0.5-1.3,1.5v2.7c0,1,0.4,1.5,1.3,1.5
		C527.9,239.2,528.3,238.7,528.3,237.7z"/>
</g>
<g>
	<path class="st1" d="M335-11.4c0.5,0.2,0.6,0.6,0.5,1.1s-0.4,1.1-0.8,1.6s-0.7,1-1.1,1.4c-0.1,0.2-0.2,0.3-0.3,0.4
		c-2.8,3.8-5.2,7.9-7.2,12.1s-3.9,8.5-5.7,12.9c-0.8,1.7-1.5,3.4-2.2,5.1c-1.6,3.7-3.2,7.4-4.8,11.2c-2.6,6.4-5.4,12.8-8.4,19.1
		c-1,2.2-2.2,4.4-3.5,6.5c-1,1.7-2.6,2.6-4.8,2.5c-1.8,0-2.9-0.8-3.2-2.5c-0.4-1.5-0.6-2.9-0.6-4.4c-0.2-5.7-0.1-11.4,0.4-17.1
		c0.3-3.9,0.6-7.9,0.9-11.7c0.3-4.2,0.6-8.4,1-12.7c0.8-9.6,1.8-19.2,2.7-28.8c1.2-11,2.4-22,3.7-33c2.2-18.6,4.1-37.2,5.8-55.9
		c0.1-1.2,0.1-2.1,0.1-2.9s-0.2-1-0.5-0.8s-0.7,1.1-1.3,2.7c-5.5,15.9-10.6,32-15.3,48.2c-0.2,0.6-0.4,1.2-0.5,1.8
		c-2.8,9.6-5.6,19.2-8.5,28.8c-1.1,3.7-2.3,7.5-3.7,11.2s-3,7.4-4.9,10.8c-0.6,1-1.3,1.7-2.2,2s-1.9,0.5-3,0.3
		c-1.2-0.1-2-0.7-2.6-1.7c-0.5-1-0.8-2-0.8-3.2c-0.1-1.3-0.3-2.6-0.4-4c-0.4-3-0.7-6-0.9-8.9c-0.7-8.3-1.5-16.6-2.6-25
		s-2.5-16.6-4.1-24.8c-0.5-2.1-1.2-2-2.1,0.2s-1.9,5.8-3.1,10.9s-2.4,11-3.7,17.6s-2.5,13.4-3.7,20.3s-2.3,13.2-3.3,18.9
		c-1.5,8.9-2.5,14.5-3,16.9c-0.4,1.7-1,3.4-1.8,5c-0.3,0.7-0.8,1.2-1.4,1.4s-1.3,0.3-2,0.2c-1.5-0.2-2.4-1.1-2.7-2.6
		c-0.1-0.8-0.2-1.6-0.2-2.5c0-0.7-0.1-1.3-0.1-2c-0.1-2.6-0.2-5.2-0.3-7.8c-0.4-20.1-0.3-40.2,0.4-60.4c0.4-12.8,0.8-25.5,1.1-38.3
		c0-1.4,0-2.7,0-4.1c0-1.3,0-2.6,0-4c0-1,0.4-1.7,1.2-2.1s1.6-0.4,2.6,0c0.4,0.1,0.6,0.4,0.8,0.6s0.2,0.6,0.3,1
		c0.4,3.5,0.6,7,0.4,10.5c0,2.1-0.1,4.2-0.2,6.3c-0.1,5.8-0.3,11.5-0.6,17.3c-0.3,7.5-0.5,14.9-0.6,22.3c-0.1,5.5-0.2,11-0.4,16.5
		c-0.1,5.8-0.2,11.6-0.1,17.4c0,4,0,8-0.1,12.1c0,0.2,0,0.6,0.1,1.1s0.1,1,0.2,1.5s0.2,1,0.4,1.3s0.3,0.4,0.4,0.2s0.3-0.7,0.5-1.6
		c0.4-2.6,0.9-5.5,1.4-8.7c1.2-7.6,2.6-16.1,4.2-25.2s3.4-17.9,5.4-26.1s4.2-14.5,6.5-19c1-1.6,2.2-2.4,3.7-2.4s2.6,0.9,3.5,2.7
		c1.2,2.8,2.2,6.2,3,10.2s1.5,8.2,2,12.5s1,8.4,1.4,12.2c0.2,2.1,0.4,3.9,0.6,5.6c0.3,2.7,0.5,5.1,0.8,7.4c0.6,5.3,1.1,9.4,1.5,12.4
		s1.1,4.4,1.9,4.4s1.9-1.8,3.3-5.5s3.3-9.5,5.7-17.5c2.2-7.4,4.2-14.6,6.1-21.4c2.5-9.1,5.2-18.1,7.9-27.1s5.9-18.3,9.6-28.1
		c1.1-2.8,2.2-5.1,3.4-7s2.3-2.8,3.4-2.9c0.4,0,0.8,0,1.3,0.2s0.8,0.6,1.1,1.4s0.5,2.1,0.6,4c0.1,3.1,0,6.3-0.2,9.4
		s-0.5,6.3-0.7,9.4c0,0.4-0.1,0.7-0.1,1.1c-1.5,16.1-3.3,32.1-5.2,48.2c-1.2,10.5-2.4,20.9-3.5,31.4c0,0.2,0,0.5-0.1,0.8
		c-1,9.8-2,19.5-2.9,29.2c-0.8,8.6-1.4,17.2-2,25.7c0,0.8-0.1,1.5-0.1,2.3c-0.1,2.2-0.2,4.4-0.3,6.6c0,0.8,0,1.6,0,2.3
		c0,0.2,0,0.4,0.1,0.6s0.3,0.2,0.6,0.2c0.1,0,0.2,0,0.3-0.1s0.2-0.2,0.2-0.3c2.8-5.8,5.6-11.6,8.2-17.4c2.5-5.6,5.1-11.1,7.8-16.7
		s5.4-11.1,8.4-16.6c2.4-4.6,4.7-8.3,6.8-11S334-11.6,335-11.4z"/>
	<path class="st1" d="M381.5-10.9c-0.6,1.8-1.7,3.8-3.5,6.2s-3.9,3.8-6.5,4.5s-4.9,0.6-6.8-0.3s-2.9-3.1-3.1-6.8
		c-2.2,4.2-4.2,6.8-6.2,8s-4,1.6-6.1,1.3c-2.4-0.4-4-1.3-4.9-2.8s-1.1-3.2-0.8-5.1s0.9-3.8,1.8-5.6c0.7-1.3,1.7-2.5,2.9-3.7
		s2.5-2,3.9-2.7c1.7-0.8,3.4-1.2,5.1-1.2s3.5,0.6,5.4,1.7c0,0,0.1,0,0.1-0.1c0-0.2,0-0.4,0.1-0.7s0.3-0.5,0.5-0.7
		c0.7-0.5,1.4-0.7,2.3-0.7s1.5,0.4,2,1.3c0.1,1.1,0,2.6-0.4,4.3c-0.7,3.8-0.7,6.6,0,8.3s1.9,2.5,3.7,2.4s4.1-1.9,6.9-5.3
		S382.1-12.7,381.5-10.9z M350.1-1.9c1,0.7,2.1,0.6,3.4-0.3s2.5-2.2,3.7-3.8s2.2-3.3,3-4.9s1.2-2.9,1.3-3.7
		c-2.4-1.3-4.4-1.5-6.2-0.6s-3.1,2.2-4.1,4.1s-1.6,3.8-1.8,5.6S349.4-2.6,350.1-1.9z"/>
	<path class="st1" d="M415.2-9.4c0.4-0.9,0.8-1.3,1.2-1.3s0.6,0.4,0.4,1.3c-0.7,2.2-1.5,4.2-2.5,6.2s-2.3,3.8-4,5.4
		c-1.3,1.3-2.8,2.1-4.6,2.5c-2.4,0.3-4.4,0-5.9-0.9s-2.8-2.2-3.7-3.9s-1.6-3.6-2-5.6s-0.7-4-0.9-5.9c-0.3-3.6-0.6-8.4-0.7-14.3
		s-0.1-12.2,0.2-18.7s0.9-12.7,1.9-18.3s2.5-10,4.5-13.1c1.1-1.5,2.4-2.3,3.9-2.3s2.8,0.7,4,2.1c0.8,1.1,1.4,2.2,1.8,3.4
		s0.7,2.5,0.8,3.7c0.4,4.3,0.4,8.9-0.2,13.7s-1.4,9.9-2.5,15.4s-2.5,10.3-4.1,14.4s-2.9,7.4-4,9.9c-0.6,1-0.8,2.5-0.6,4.4
		c0.2,2.2,0.6,4.4,1.2,6.8s1.5,4.2,2.6,5.6c1.1,1.1,2.3,1.5,3.6,1.1s2.6-1.3,3.9-2.7s2.5-2.8,3.5-4.5S414.7-8.2,415.2-9.4z
		 M398.2-42.1c-0.1,1.4-0.3,3.5-0.4,6.4s-0.2,5.7-0.3,8.7c-0.1,3.3-0.2,5.8-0.3,7.7c1-2.3,2.2-5.8,3.6-10.2s2.6-9.8,3.8-15.8
		s1.9-12.6,2.2-19.7c-0.2-4.1-0.7-6.9-1.5-8.4s-1.7-1.6-2.6-0.4s-1.7,3.8-2.2,7.7c-0.8,6.5-1.5,12.9-2,19.4
		C398.4-45.3,398.3-43.7,398.2-42.1z"/>
	<path class="st1" d="M452.3-12c0.3-0.3,0.5,0.1,0.5,1.2s-1,2.6-3,4.6s-4.1,2.9-6.3,2.8c-0.5,0-0.9,0-1.2,0.1s-0.6,0.4-0.8,0.8
		c-0.2,0.4-0.5,0.7-0.8,1.1l-0.1,0.1c-1.3,1.4-2.9,2.3-4.6,2.8s-3.5,0.3-5.1-0.4s-2.7-2.1-3.4-4.1c-0.5-1.8-0.6-3.7-0.1-5.5
		c0.4-1.6,1-3.1,1.8-4.5c1-1.9,2.3-3.2,3.8-4s3.3-1.2,5.3-1.3c3-0.1,4.8,1.2,5.6,4.1c0.5,1.7,0.6,3.4,0.4,5.1c0,0.4-0.1,0.8-0.2,1.2
		c-0.1,0.3-0.2,0.6-0.2,0.8c-0.1,0.9,0.3,1.4,1.2,1.3C447.4-6.2,449.9-8.3,452.3-12z M435-1.1c1.5-0.7,2.6-1.9,3.2-3.6
		c-2.5-1.6-4.2-3.9-5.1-6.9c-0.8,1.4-1.3,3-1.4,4.9s0,3.4,0.6,4.6S433.6-0.5,435-1.1z M439.2-8c0.4-0.6,0.7-1.3,0.7-2.2
		s0-1.7-0.1-2.6s-0.4-1.5-0.7-2s-0.6-0.6-0.9-0.5c-0.6,0.5-0.9,1.3-0.9,2.2s0.1,1.9,0.4,2.9S438.6-8.5,439.2-8z"/>
</g>
<g>
	<path class="st1" d="M418.3,67.1c6.2,5.7,8.1,12.6,5.6,20.7c-0.5,1.4-1.1,2.8-1.8,4.1c-1.3,2.3-2.8,4.5-4.5,6.6s-3.4,4-5.3,5.9
		c-1.3,1.3-2.7,1.8-4.4,1.3c-0.5,0-0.8-0.3-0.9-0.7c-0.1-0.4,0-0.8,0.4-1.1c3-3,5.7-6.2,8-9.8c1.6-2.4,2.8-5,3.6-7.7
		c1.8-7.5-0.2-13.7-6.2-18.6c-2.8-2.2-6-3.8-9.4-4.6c-3.3-0.9-6.6-1.5-9.9-1.7s-6.6-0.3-9.9,0c-5.1,0.3-10.2,0.9-15.2,1.8
		s-10,1.9-15,3.2c-6.5,1.6-12.8,3.6-19.1,5.9s-12.3,5.1-18.1,8.3c-5.7,3-10.9,6.7-15.8,11c-4.3,3.8-7.9,8.2-10.6,13.3
		c-3.6,6.8-3.3,13.3,0.9,19.7c2.6,3.8,5.8,7.2,9.4,10.2c5.7,4.7,11.6,8.9,17.9,12.7c5.3,3.2,10.6,6.3,15.9,9.4c3.5,2,7,4.1,10.5,6.1
		c2.5,1.5,4.9,3,7.3,4.5s4.7,3.2,7,5c1.4,1.1,2.9,1.4,4.5,0.8c5.6-1.6,11.3-2.8,17.2-3.5c0.2,0,0.4,0,0.6-0.1c1.3-0.2,2.6-0.2,3.9,0
		c0.3,0.1,0.6,0.2,0.8,0.5s0.4,0.5,0.4,0.9s-0.1,0.7-0.4,0.9s-0.6,0.3-0.9,0.3c-2,0-4,0.3-5.9,0.6s-3.8,0.8-5.7,1.3
		c-1.5,0.4-3,0.7-4.4,1c-0.2,0-0.4,0.1-0.6,0.1c-0.7,0.1-1.4,0.3-2.1,0.5s-1.3,0.6-1.8,1.1c0.4,0.9,0.9,1.7,1.5,2.3
		c0.3,0.3,0.6,0.7,0.8,1.1c1.2,1.5,2.2,3.2,3.1,4.8s1.5,3.4,1.9,5.3c1,4.8-0.5,8.6-4.7,11.2c-1.4,0.8-2.9,1.5-4.4,2.1
		c-5.4,2-11,2.8-16.8,2.5c-2.2-0.1-4.4-0.7-6.3-1.7c-2.7-1.4-4.4-3.4-5.3-5.9s-0.6-5.2,0.7-7.9c0.9-1.7,2.1-3.2,3.5-4.5
		c1.8-1.6,3.8-3.1,5.9-4.4s4.2-2.5,6.4-3.6c0.9-0.5,1.9-0.9,2.7-1.4c0.5-0.2,0.9-0.5,1.4-0.7c0-0.5,0-0.9-0.2-1.2s-0.5-0.5-0.7-0.7
		c-0.1,0-0.2-0.1-0.3-0.2c-3.8-2.9-7.8-5.6-11.9-7.9c-5-3-10.1-5.9-15.1-8.8c-2.1-1.2-4.2-2.5-6.3-3.7c-7.3-4.2-14.3-8.9-21.1-13.9
		c-4.2-3.1-7.9-6.6-11.3-10.5c-1.6-2-3-4.2-4.1-6.5c-2.4-5-2.6-10.2-0.7-15.5c1-2.7,2.3-5.2,3.9-7.6s3.4-4.5,5.4-6.6
		c4.4-4.5,9.3-8.4,14.6-11.7c8.9-5.4,18.2-9.8,28.1-13.1c12.3-4.1,24.8-7.1,37.7-8.8c4.5-0.6,8.9-1,13.4-1.1s8.9,0.2,13.4,0.9
		c2.7,0.4,5.3,0.9,7.8,1.7s4.9,1.8,7.2,3.2C415.8,65.1,417.1,66,418.3,67.1z M359.6,179.8c-0.8-0.8-1.6-0.9-2.6-0.4
		c-2.5,1.1-4.9,2.4-7.2,3.8s-4.5,2.9-6.6,4.7c-1.1,1-2.1,2.1-2.8,3.4c-1.4,2.7-1.6,5.2-0.5,7.5s3.1,3.7,6.1,4.2
		c0.7,0.1,1.3,0.2,1.9,0.2c0.2,0,0.4,0,0.5,0c4.5-0.1,8.6-1.1,12.3-2.7c4.6-2,6.3-5.4,5-10.2c-0.5-2-1.3-3.9-2.4-5.6
		S361,181.3,359.6,179.8z"/>
	<path class="st1" d="M426.5,171.8c0.5-0.3,0.9-0.5,1.4-0.6s0.7-0.1,0.9,0s0,0.6-0.6,1.2c-1.6,1.8-3.5,3.5-5.7,5s-4.5,2.8-6.9,3.8
		c-1.8,0.8-3.8,1.5-5.8,2s-4.1,0.6-6,0.3s-3.8-1.2-5.4-2.7c-2.5-2.3-3.5-5.1-3.1-8.4c0.4-2.6,1.4-4.9,3.1-6.7s3.8-3.1,6.4-3.8
		c2.2-0.5,4.3-0.5,6.5-0.1c1,0.1,1.9,0.5,2.7,1c0.8,0.6,1.2,1.2,1.2,2s-0.2,1.5-0.9,2.2c-1.4,1.2-2.9,1.9-4.7,2.2
		c-2,0.3-4,0.5-6,0.6c-1,0-1.7,0.2-2.1,0.6s-0.6,1.1-0.7,2.1c-0.3,2.7,0.5,4.9,2.5,6.5c1.3,1,2.8,1.4,4.6,1.3s3.7-0.6,5.7-1.4
		s4-1.8,5.9-2.9s3.7-2.1,5.2-3.1C425.4,172.4,426,172,426.5,171.8z M404.3,166.1C404.3,166.1,404.3,166.1,404.3,166.1
		c-0.2,0.2-0.3,0.3-0.4,0.4s-0.3,0.2-0.4,0.4s-0.2,0.2-0.2,0.2c0,0.1,0.4,0.2,1.2,0.1s1.5-0.2,2.4-0.4s1.6-0.4,2.2-0.7
		s0.8-0.7,0.5-1.1c-0.1-0.1-0.2-0.3-0.4-0.4s-0.3-0.2-0.5-0.2c-0.8,0-1.6,0.2-2.3,0.5S404.9,165.6,404.3,166.1z"/>
	<path class="st1" d="M461.3,175.4c-0.7,1.4-1.4,2.5-2.1,3.5c-1.8,2.1-3.8,3.4-6.2,3.9s-4.5,0.4-6.3-0.4c0,0-0.1-0.1-0.1-0.1
		c-0.5-0.2-0.9-0.4-1.4-0.5s-1,0-1.5,0.3c-0.3,0.1-0.6,0.2-1,0.1c-0.1,0-0.2,0-0.2,0c-1.7,0-2.6-0.8-2.6-2.5s-0.1-3.4-0.1-5
		c0-2-0.1-4-0.2-6c-0.3-7.6-0.4-15.3-0.2-23s0.4-15.4,0.6-23.1c0-0.8,0.1-1.5,0.1-2.2c0-1.7,0.2-3.9,0.6-6.5s0.9-5.1,1.5-7.4
		s1.5-4.1,2.4-5.2c0.8-1.2,1.9-2,3.2-2.3s2.5-0.3,3.8,0.1s2.2,1.1,2.8,2c1.4,2.2,2.2,5.3,2.2,9.4s-0.3,8.6-1.1,13.5
		s-1.8,9.9-3.1,14.9s-2.6,9.5-3.9,13.6s-2.6,7.2-3.7,9.5c1.9-1.1,3.4-1.8,4.5-2s2.5-0.3,4-0.1c5.1,0.7,8.1,3.5,8.9,8.6
		c0,0.2,0,0.4,0,0.6c0,0.2,0.1,0.4,0.1,0.6c0.1,0.7,0.2,1.3,0.3,1.7s1.3,0.3,3.6-0.4s3.9-1.5,5-2.4s1.7-1.3,2-1.2
		c1.1,1.2,0.2,2.7-2.6,4.6C467.9,173.8,464.8,174.9,461.3,175.4z M444.3,155.9c0.2-0.1,0.8-2,1.7-5.6s1.9-8,3-13.2
		s1.9-10.5,2.5-15.8s0.7-9.7,0.3-13.3c-0.2-1.9-0.5-3.5-0.9-4.7s-0.9-1.6-1.5-1.2s-1.1,1.9-1.8,4.6c-0.9,4-1.6,9.4-2,16.3
		s-0.7,13.6-0.9,20.3C444.6,148.4,444.5,152.6,444.3,155.9z M456.9,170.8c0.1-1.6-0.3-3.2-1.2-4.7s-2-2.5-3.4-3s-2.7,0-3.9,1.4
		c-0.9,1.2-1.6,2.8-1.9,4.9s-0.4,4.1-0.4,6.2c1.5-0.8,3.1-1.6,4.7-2.1s3.2-1,4.9-1.2c0.4,0,0.7-0.2,0.9-0.5S456.9,171.2,456.9,170.8
		z M449.8,178.9c-0.2,0.6,0,0.9,0.5,0.9s1.1-0.1,1.9-0.5s1.5-0.8,2-1.4s0.9-1.1,0.8-1.8c0,0,0-0.1-0.1-0.1s-0.1-0.1-0.2-0.1
		c-0.8,0-1.6,0.1-2.3,0.5s-1.4,0.8-2,1.4C450.2,178.1,450,178.5,449.8,178.9z"/>
</g>
</svg>
