<?xml version="1.0" encoding="utf-8"?>
<!-- Generator: Adobe Illustrator 19.0.0, SVG Export Plug-In . SVG Version: 6.00 Build 0)  -->
<svg version="1.1" id="Layer_1" width="277px" height="277px" xmlns="http://www.w3.org/2000/svg" xmlns:xlink="http://www.w3.org/1999/xlink" x="0px" y="0px"
	 viewBox="89 -88 277 277" style="enable-background:new 89 -88 277 277;" xml:space="preserve">
<style type="text/css">
	.st0{fill:#FFFFFF;}
	.st1{fill:#6AFFDA;}
	.st2{fill:#323159;}
</style>
<title>name</title>
<desc>Created with Sketch.</desc>
<g id="converted">
	<g id="mWeb-Design" transform="translate(-27.000000, -170.000000)">
		<g id="Group-8" transform="translate(27.000000, 170.000000)">
			<g id="name">
				<g id="Group-3">
					<path id="_x26_" class="st0" d="M192.5,67.8c14.7,10.3,30.4,15.8,46.1,11.1c2.5,34.9-19.9,39.3-32.9,39.3
						c-12.6,0-24.1-4.8-34.4-12.4c-8.8,8.2-19.9,12.4-36.9,12.4c-21.4,0-46.9-15.3-44.4-41c1.7-17,14.5-26.3,28.3-30.1
						c-17.2-24.4-14.2-66.4,31.2-66.4c18,0,33.7,7.1,34.2,22.9c0.6,16.4-14,25.9-26.2,29.6c9.8,12.2,21.4,24.8,34.1,33.8L194,60
						c5-11.4,12.2-24,25.1-25.4c9.9-1,19.7,3.2,22,13.2c2.7,11.6-5.5,21.9-16.6,21.4c-23.9-1.3-15.5-29.2-23.1-18.9
						C198.8,53.5,195,61.6,192.5,67.8z M143.7-17c-15.9,5.5,12.4,48.3,12.6,48.6c1.5-6.1,3.8-13.7,2.5-29
						C157.7-10.9,151.3-19.5,143.7-17z M127.8,88.6c11.3,14.1,29.1,22.7,41.9,16c-4.2-3.2-39.8-37.8-50.3-55.9
						C115,62.3,119.6,78.3,127.8,88.6z"/>
					<rect id="Rectangle" x="129.6" y="-88" class="st1" width="139.5" height="24.5"/>
					<path id="Save-the-Date" class="st2" d="M140.8-70.4c-1.7,0-2.5-1-2.5-2.7v-0.6h1.6v0.7c0,0.8,0.3,1,0.9,1s0.9-0.3,0.9-1.1
						c0-0.9-0.3-1.5-1.4-2.4c-1.4-1.2-1.9-2.1-1.9-3.4c0-1.7,0.9-2.7,2.5-2.7c1.7,0,2.5,1,2.5,2.7v0.4h-1.6v-0.6
						c0-0.8-0.3-1.1-0.8-1.1s-0.8,0.3-0.8,1c0,0.8,0.4,1.4,1.5,2.3c1.4,1.2,1.9,2.1,1.9,3.4C143.4-71.4,142.5-70.4,140.8-70.4z
						 M147.3-70.5l1.8-10.8h2.3l1.8,10.8h-1.7l-0.3-2.1v0h-1.9l-0.3,2.1H147.3z M149.4-74.1h1.5l-0.8-5.3h0L149.4-74.1z M158.2-70.5
						l-1.6-10.8h1.7l1.1,8.4h0l1.1-8.4h1.6l-1.6,10.8H158.2z M166.4-70.5v-10.8h4.6v1.5h-2.9v2.8h2.3v1.5h-2.3v3.3h2.9v1.5H166.4z
						 M188.8-70.5v-9.2H187v-1.5h5.2v1.5h-1.8v9.2H188.8z M196.6-70.5v-10.8h1.7v4.4h1.8v-4.4h1.7v10.8h-1.7v-4.8h-1.8v4.8H196.6z
						 M206.5-70.5v-10.8h4.6v1.5h-2.9v2.8h2.3v1.5h-2.3v3.3h2.9v1.5H206.5z M227.6-70.5v-10.8h2.6c1.7,0,2.5,0.9,2.5,2.7v5.4
						c0,1.7-0.8,2.7-2.5,2.7H227.6z M229.3-72.1h0.9c0.5,0,0.9-0.3,0.9-1v-5.6c0-0.8-0.3-1-0.9-1h-0.9V-72.1z M236.8-70.5l1.8-10.8
						h2.3l1.8,10.8H241l-0.3-2.1v0h-1.9l-0.3,2.1H236.8z M238.9-74.1h1.5l-0.8-5.3h0L238.9-74.1z M247.6-70.5v-9.2h-1.8v-1.5h5.2
						v1.5h-1.8v9.2H247.6z M255.4-70.5v-10.8h4.6v1.5h-2.9v2.8h2.3v1.5h-2.3v3.3h2.9v1.5H255.4z"/>
				</g>
			</g>
		</g>
	</g>
</g>
<g>
	<path class="st2" d="M230.5,185.3v-5.5c0-1.7,0.9-2.6,2.5-2.6s2.5,1,2.5,2.6v5.5c0,1.7-0.9,2.6-2.5,2.6S230.5,187,230.5,185.3z
		 M233.9,185.4v-5.7c0-0.8-0.3-1-0.9-1c-0.5,0-0.9,0.3-0.9,1v5.7c0,0.8,0.3,1,0.9,1C233.5,186.5,233.9,186.2,233.9,185.4z"/>
	<path class="st2" d="M240.9,185.3v-0.8h1.6v0.9c0,0.8,0.3,1,0.9,1c0.5,0,0.9-0.3,0.9-1v-2.4c0-0.8-0.3-1-0.9-1
		c-0.5,0-0.9,0.3-0.9,1v0.1h-1.6l0.3-5.9h4.3v1.5h-2.9l-0.1,2.5h0c0.3-0.5,0.8-0.8,1.4-0.8c1.2,0,1.8,0.9,1.8,2.4v2.4
		c0,1.7-0.8,2.6-2.5,2.6C241.7,188,240.9,187,240.9,185.3z"/>
	<path class="st2" d="M258,186.2h1.6v1.6H258V186.2z"/>
	<path class="st2" d="M271.7,185.3v-5.5c0-1.7,0.9-2.6,2.5-2.6s2.5,1,2.5,2.6v5.5c0,1.7-0.9,2.6-2.5,2.6S271.7,187,271.7,185.3z
		 M275,185.4v-5.7c0-0.8-0.3-1-0.9-1c-0.5,0-0.9,0.3-0.9,1v5.7c0,0.8,0.3,1,0.9,1C274.7,186.5,275,186.2,275,185.4z"/>
	<path class="st2" d="M282,185.4v-5.6c0-1.6,0.8-2.6,2.4-2.6c1.6,0,2.4,1,2.4,2.6v1.1h-1.6v-1.2c0-0.7-0.3-1-0.8-1
		c-0.5,0-0.8,0.3-0.8,1v5.9c0,0.7,0.3,1,0.8,1c0.5,0,0.8-0.3,0.8-1v-1.6h1.6v1.5c0,1.6-0.8,2.6-2.4,2.6C282.8,188,282,187,282,185.4
		z"/>
	<path class="st2" d="M293.4,178.8h-1.7v-1.5h5.1v1.5h-1.7v9h-1.6V178.8z"/>
	<path class="st2" d="M308.6,186.2h1.6v1.6h-1.6V186.2z"/>
	<path class="st2" d="M322.4,186.7c0-1.5,0.4-2.4,1.7-3.7c1.3-1.3,1.6-2.1,1.6-3.1c0-0.9-0.3-1.2-0.9-1.2c-0.5,0-0.9,0.3-0.9,1v1.1
		h-1.6v-1c0-1.7,0.8-2.6,2.5-2.6s2.5,1,2.5,2.6c0,1.2-0.5,2.4-2,4c-1,1-1.2,1.6-1.2,2.3v0.2h3.1v1.5h-4.8V186.7z"/>
	<path class="st2" d="M332.6,185.3v-5.5c0-1.7,0.9-2.6,2.5-2.6s2.5,1,2.5,2.6v5.5c0,1.7-0.9,2.6-2.5,2.6S332.6,187,332.6,185.3z
		 M336,185.4v-5.7c0-0.8-0.3-1-0.9-1c-0.5,0-0.9,0.3-0.9,1v5.7c0,0.8,0.3,1,0.9,1C335.7,186.5,336,186.2,336,185.4z"/>
	<path class="st2" d="M345.4,179.8h-1.7v-1.2c1.4,0,1.9-0.3,2.3-1.3h1.1v10.5h-1.7V179.8z"/>
	<path class="st2" d="M353.2,185.3v-0.2h1.6v0.3c0,0.8,0.3,1,0.9,1c0.6,0,0.9-0.3,0.9-1.3v-2h0c-0.3,0.6-0.8,0.9-1.5,0.9
		c-1.2,0-1.8-0.9-1.8-2.4v-1.9c0-1.7,0.9-2.6,2.5-2.6s2.5,1,2.5,2.6v5.4c0,1.8-0.8,2.7-2.5,2.7C354.1,188,353.2,187,353.2,185.3z
		 M356.5,181.6v-1.9c0-0.7-0.3-1-0.9-1c-0.6,0-0.9,0.3-0.9,1v1.9c0,0.7,0.3,1,0.9,1C356.3,182.6,356.5,182.3,356.5,181.6z"/>
</g>
<g>
	<path class="st2" d="M213.9,21.6c0.4,0.2,0.5,0.5,0.4,0.8s-0.3,0.8-0.6,1.2s-0.5,0.8-0.8,1.1c-0.1,0.1-0.2,0.2-0.2,0.3
		c-2.1,2.9-3.9,5.9-5.4,9.1s-3,6.4-4.3,9.7c-0.6,1.3-1.1,2.5-1.6,3.8c-1.2,2.8-2.4,5.6-3.6,8.4c-2,4.8-4.1,9.6-6.3,14.3
		c-0.8,1.7-1.7,3.3-2.6,4.9c-0.8,1.3-2,1.9-3.6,1.9c-1.3,0-2.1-0.6-2.4-1.8c-0.3-1.1-0.4-2.2-0.5-3.3c-0.2-4.3-0.1-8.6,0.3-12.8
		c0.2-3,0.5-5.9,0.7-8.8c0.2-3.2,0.5-6.3,0.7-9.5c0.6-7.2,1.3-14.4,2.1-21.6c0.9-8.3,1.8-16.5,2.7-24.7c1.7-13.9,3.1-27.9,4.4-41.9
		c0.1-0.9,0.1-1.6,0.1-2.2s-0.2-0.8-0.4-0.6s-0.5,0.8-1,2c-4.1,12-8,24-11.5,36.1c-0.1,0.5-0.3,0.9-0.4,1.3
		c-2.1,7.2-4.2,14.4-6.4,21.6c-0.8,2.8-1.7,5.6-2.8,8.4s-2.3,5.5-3.6,8.1c-0.4,0.7-1,1.2-1.6,1.5s-1.4,0.3-2.3,0.2
		c-0.9-0.1-1.5-0.5-2-1.3c-0.4-0.7-0.6-1.5-0.6-2.4c-0.1-1-0.2-2-0.3-3c-0.3-2.2-0.5-4.5-0.7-6.7c-0.5-6.2-1.1-12.5-2-18.7
		s-1.8-12.4-3.1-18.6c-0.4-1.5-0.9-1.5-1.6,0.1s-1.5,4.4-2.3,8.2s-1.8,8.2-2.7,13.2s-1.9,10.1-2.8,15.2s-1.7,9.9-2.5,14.2
		c-1.1,6.6-1.9,10.9-2.3,12.7c-0.3,1.3-0.8,2.5-1.3,3.7c-0.2,0.5-0.6,0.9-1.1,1.1s-1,0.2-1.5,0.2c-1.1-0.1-1.8-0.8-2.1-2
		c-0.1-0.6-0.2-1.2-0.2-1.8c0-0.5-0.1-1-0.1-1.5c-0.1-1.9-0.2-3.9-0.2-5.9c-0.3-15.1-0.2-30.2,0.3-45.3c0.3-9.6,0.6-19.1,0.8-28.7
		c0-1,0-2.1,0-3.1c0-1,0-2,0-3c0-0.8,0.3-1.3,0.9-1.6s1.2-0.3,1.9,0c0.3,0.1,0.5,0.3,0.6,0.5s0.2,0.5,0.2,0.7
		c0.3,2.6,0.4,5.3,0.3,7.9c0,1.6-0.1,3.2-0.2,4.7c-0.1,4.3-0.2,8.6-0.4,13c-0.2,5.6-0.4,11.2-0.4,16.7c-0.1,4.1-0.2,8.2-0.3,12.3
		c-0.1,4.4-0.1,8.7-0.1,13.1c0,3,0,6-0.1,9.1c0,0.2,0,0.4,0.1,0.8s0.1,0.8,0.2,1.2s0.2,0.7,0.3,1s0.2,0.3,0.3,0.2s0.2-0.5,0.3-1.2
		c0.3-1.9,0.7-4.1,1.1-6.5c0.9-5.7,1.9-12,3.1-18.9s2.6-13.4,4.1-19.5s3.1-10.9,4.9-14.3c0.7-1.2,1.7-1.8,2.7-1.8s2,0.7,2.6,2
		c0.9,2.1,1.6,4.6,2.2,7.6s1.1,6.1,1.5,9.4s0.7,6.3,1,9.1c0.1,1.5,0.3,3,0.4,4.2c0.2,2,0.4,3.8,0.6,5.5c0.4,4,0.8,7.1,1.2,9.3
		s0.8,3.3,1.4,3.3s1.4-1.4,2.5-4.1s2.5-7.1,4.2-13.2c1.6-5.6,3.1-10.9,4.6-16.1c1.9-6.8,3.9-13.6,5.9-20.3s4.4-13.8,7.2-21.1
		c0.8-2.1,1.7-3.8,2.5-5.2s1.7-2.1,2.6-2.2c0.3,0,0.6,0,0.9,0.1s0.6,0.5,0.8,1.1s0.4,1.6,0.4,3c0.1,2.4,0,4.7-0.1,7.1
		s-0.3,4.7-0.6,7.1c0,0.3-0.1,0.5-0.1,0.8c-1.2,12.1-2.5,24.1-3.9,36.1c-0.9,7.8-1.8,15.7-2.6,23.5c0,0.2,0,0.4-0.1,0.6
		c-0.8,7.3-1.5,14.6-2.2,21.9c-0.6,6.4-1.1,12.9-1.5,19.3c0,0.6-0.1,1.1-0.1,1.7c-0.1,1.7-0.2,3.3-0.2,5c0,0.6,0,1.2,0,1.7
		c0,0.2,0,0.3,0.1,0.4s0.2,0.2,0.4,0.2c0.1,0,0.1,0,0.2-0.1s0.1-0.1,0.2-0.2c2.1-4.4,4.2-8.7,6.2-13.1c1.9-4.2,3.8-8.4,5.8-12.5
		s4.1-8.3,6.3-12.4c1.8-3.4,3.5-6.2,5.1-8.3S213.2,21.4,213.9,21.6z"/>
	<path class="st2" d="M248.8,21.9c-0.4,1.3-1.3,2.9-2.6,4.6s-2.9,2.9-4.9,3.3s-3.6,0.4-5.1-0.2s-2.2-2.3-2.3-5.1
		c-1.6,3.1-3.2,5.1-4.6,6s-3,1.2-4.6,1c-1.8-0.3-3-1-3.6-2.1s-0.8-2.4-0.6-3.8s0.7-2.8,1.3-4.2c0.5-1,1.3-1.9,2.2-2.7s1.9-1.5,2.9-2
		c1.3-0.6,2.5-0.9,3.8-0.9s2.6,0.5,4.1,1.3c0,0,0.1,0,0.1-0.1c0-0.1,0-0.3,0.1-0.5s0.2-0.4,0.4-0.5c0.5-0.4,1.1-0.5,1.7-0.5
		s1.2,0.3,1.5,1c0.1,0.8,0,1.9-0.3,3.2c-0.5,2.9-0.5,5,0,6.2s1.5,1.9,2.8,1.8s3.1-1.4,5.2-4S249.3,20.6,248.8,21.9z M225.2,28.7
		c0.7,0.5,1.6,0.5,2.5-0.2s1.9-1.6,2.7-2.8s1.6-2.5,2.2-3.7s0.9-2.1,1-2.7c-1.8-0.9-3.3-1.1-4.6-0.5s-2.3,1.7-3.1,3.1
		s-1.2,2.8-1.3,4.2S224.7,28.2,225.2,28.7z"/>
	<path class="st2" d="M274.1,23.1c0.3-0.7,0.6-1,0.9-1s0.4,0.3,0.3,1c-0.5,1.6-1.2,3.2-1.9,4.7s-1.7,2.8-3,4
		c-0.9,0.9-2.1,1.6-3.4,1.8c-1.8,0.2-3.3,0-4.5-0.7s-2.1-1.7-2.8-3s-1.2-2.7-1.5-4.2s-0.6-3-0.7-4.5c-0.2-2.7-0.4-6.3-0.6-10.7
		s-0.1-9.1,0.1-14.1s0.7-9.5,1.5-13.7s1.9-7.5,3.3-9.8c0.8-1.1,1.8-1.7,3-1.7s2.1,0.5,3,1.6c0.6,0.8,1,1.7,1.3,2.6s0.5,1.8,0.6,2.8
		c0.3,3.2,0.3,6.7-0.1,10.3s-1,7.5-1.9,11.5s-1.9,7.7-3.1,10.8s-2.2,5.6-3,7.4c-0.4,0.7-0.6,1.8-0.5,3.3c0.1,1.6,0.4,3.3,0.9,5.1
		s1.1,3.1,2,4.2c0.8,0.8,1.7,1.1,2.7,0.8s2-1,3-2s1.9-2.1,2.6-3.3S273.7,24,274.1,23.1z M261.3-1.5c-0.1,1.1-0.2,2.6-0.3,4.8
		s-0.2,4.3-0.2,6.5c-0.1,2.5-0.1,4.4-0.2,5.7c0.8-1.8,1.7-4.3,2.7-7.7s2-7.3,2.8-11.9s1.4-9.5,1.7-14.8c-0.1-3.1-0.5-5.2-1.1-6.3
		s-1.2-1.2-2-0.3s-1.3,2.8-1.7,5.7c-0.6,4.9-1.1,9.7-1.5,14.6C261.5-3.8,261.4-2.7,261.3-1.5z"/>
	<path class="st2" d="M301.9,21.1c0.2-0.2,0.4,0,0.4,0.9s-0.7,2-2.2,3.5s-3.1,2.2-4.7,2.1c-0.4,0-0.7,0-0.9,0.1s-0.5,0.3-0.6,0.6
		c-0.2,0.3-0.4,0.5-0.6,0.8l-0.1,0.1c-1,1.1-2.1,1.7-3.5,2.1s-2.6,0.2-3.8-0.3s-2.1-1.6-2.6-3.1c-0.4-1.4-0.4-2.7-0.1-4.1
		c0.3-1.2,0.7-2.3,1.3-3.4c0.7-1.4,1.7-2.4,2.9-3s2.5-0.9,4-1c2.2-0.1,3.6,0.9,4.2,3.1c0.4,1.3,0.4,2.5,0.3,3.8
		c0,0.3-0.1,0.6-0.2,0.9c-0.1,0.2-0.1,0.4-0.2,0.6c-0.1,0.7,0.2,1,0.9,0.9C298.2,25.4,300.1,23.9,301.9,21.1z M288.9,29.3
		c1.1-0.5,1.9-1.4,2.4-2.7c-1.9-1.2-3.2-2.9-3.8-5.2c-0.6,1.1-1,2.3-1.1,3.7s0,2.6,0.4,3.5S287.9,29.7,288.9,29.3z M292.1,24.1
		c0.3-0.5,0.5-1,0.6-1.7s0-1.3-0.1-2s-0.3-1.2-0.5-1.5s-0.4-0.5-0.7-0.3c-0.4,0.4-0.7,0.9-0.7,1.7s0.1,1.4,0.3,2.2
		S291.6,23.7,292.1,24.1z"/>
</g>
<g>
	<path class="st2" d="M288.7,60c4.7,4.3,6.1,9.5,4.2,15.6c-0.4,1.1-0.8,2.1-1.3,3.1c-1,1.8-2.1,3.4-3.3,5s-2.6,3-4,4.4
		c-0.9,1-2.1,1.3-3.3,1c-0.4,0-0.6-0.2-0.7-0.5c-0.1-0.3,0-0.6,0.3-0.8c2.3-2.2,4.3-4.7,6-7.3c1.2-1.8,2.1-3.7,2.7-5.8
		c1.4-5.6-0.2-10.3-4.6-13.9c-2.1-1.7-4.5-2.8-7.1-3.5c-2.5-0.7-4.9-1.1-7.4-1.3s-5-0.2-7.5,0c-3.8,0.2-7.6,0.7-11.4,1.3
		s-7.5,1.5-11.2,2.4c-4.9,1.2-9.6,2.7-14.3,4.4s-9.2,3.8-13.6,6.2c-4.3,2.3-8.2,5-11.8,8.2c-3.2,2.8-5.9,6.2-8,10
		c-2.7,5.1-2.4,10,0.7,14.8c2,2.9,4.3,5.4,7.1,7.6c4.3,3.5,8.7,6.7,13.4,9.5c4,2.4,7.9,4.7,11.9,7.1c2.6,1.5,5.3,3,7.9,4.6
		c1.9,1.1,3.7,2.2,5.5,3.4s3.5,2.4,5.2,3.7c1,0.8,2.1,1.1,3.4,0.6c4.2-1.2,8.5-2.1,12.9-2.6c0.1,0,0.3,0,0.4-0.1c1-0.2,2-0.2,2.9,0
		c0.2,0.1,0.5,0.2,0.6,0.3s0.3,0.4,0.3,0.7s-0.1,0.6-0.3,0.7s-0.4,0.2-0.7,0.2c-1.5,0-3,0.2-4.4,0.5s-2.9,0.6-4.3,0.9
		c-1.1,0.3-2.2,0.5-3.3,0.7c-0.1,0-0.3,0.1-0.4,0.1c-0.5,0.1-1,0.2-1.6,0.4s-1,0.4-1.3,0.8c0.3,0.7,0.7,1.3,1.2,1.7
		c0.2,0.2,0.4,0.5,0.6,0.8c0.9,1.2,1.6,2.4,2.3,3.6s1.1,2.6,1.5,4c0.8,3.6-0.4,6.4-3.5,8.4c-1.1,0.6-2.2,1.2-3.3,1.6
		c-4.1,1.5-8.3,2.1-12.6,1.8c-1.7-0.1-3.3-0.5-4.7-1.3c-2-1.1-3.3-2.5-4-4.4s-0.5-3.9,0.5-5.9c0.7-1.3,1.5-2.4,2.6-3.4
		c1.4-1.2,2.8-2.3,4.4-3.3s3.2-1.9,4.8-2.7c0.7-0.4,1.4-0.7,2.1-1.1c0.4-0.2,0.7-0.4,1.1-0.5c0-0.4,0-0.7-0.2-0.9s-0.3-0.4-0.6-0.5
		c-0.1,0-0.1-0.1-0.2-0.2c-2.8-2.2-5.8-4.2-8.9-6c-3.8-2.2-7.5-4.4-11.3-6.6c-1.6-0.9-3.2-1.8-4.7-2.8c-5.5-3.2-10.8-6.6-15.8-10.4
		c-3.1-2.3-6-5-8.5-7.9c-1.2-1.5-2.3-3.1-3.1-4.9c-1.8-3.8-2-7.6-0.5-11.6c0.7-2,1.7-3.9,3-5.7s2.6-3.4,4.1-4.9
		c3.3-3.4,7-6.3,11-8.8c6.6-4.1,13.7-7.3,21-9.8c9.2-3.1,18.6-5.3,28.3-6.6c3.3-0.5,6.7-0.7,10-0.8s6.7,0.1,10,0.7
		c2,0.3,3.9,0.7,5.8,1.3s3.7,1.4,5.4,2.4C286.8,58.5,287.8,59.2,288.7,60z M244.7,144.5c-0.6-0.6-1.2-0.7-2-0.3
		c-1.9,0.8-3.7,1.8-5.4,2.8s-3.4,2.2-5,3.5c-0.8,0.7-1.5,1.6-2.1,2.6c-1.1,2-1.2,3.9-0.3,5.6s2.3,2.8,4.6,3.2c0.5,0.1,1,0.1,1.4,0.2
		c0.1,0,0.3,0,0.4,0c3.4-0.1,6.5-0.8,9.2-2.1c3.4-1.5,4.7-4,3.7-7.6c-0.4-1.5-1-2.9-1.8-4.2S245.7,145.7,244.7,144.5z"/>
	<path class="st2" d="M294.9,138.5c0.4-0.2,0.7-0.4,1-0.5s0.6-0.1,0.7,0s0,0.4-0.4,0.9c-1.2,1.4-2.6,2.6-4.3,3.8s-3.4,2.1-5.1,2.9
		c-1.4,0.6-2.8,1.1-4.4,1.5s-3,0.4-4.5,0.2s-2.9-0.9-4.1-2c-1.9-1.7-2.6-3.8-2.3-6.3c0.3-2,1.1-3.6,2.3-5s2.9-2.3,4.8-2.8
		c1.6-0.4,3.2-0.4,4.9-0.1c0.7,0.1,1.4,0.4,2,0.7c0.6,0.4,0.9,0.9,0.9,1.5s-0.2,1.1-0.7,1.7c-1,0.9-2.2,1.5-3.5,1.6
		c-1.5,0.2-3,0.4-4.5,0.5c-0.7,0-1.3,0.1-1.6,0.4s-0.5,0.8-0.5,1.6c-0.2,2,0.4,3.6,1.9,4.9c0.9,0.7,2.1,1.1,3.5,0.9s2.8-0.5,4.3-1.1
		s3-1.3,4.5-2.2s2.8-1.6,3.9-2.3C294,139,294.5,138.7,294.9,138.5z M278.2,134.2C278.2,134.3,278.2,134.3,278.2,134.2
		c-0.1,0.1-0.2,0.2-0.3,0.3s-0.2,0.2-0.3,0.3s-0.1,0.1-0.1,0.2c0,0.1,0.3,0.1,0.9,0.1s1.1-0.1,1.8-0.3s1.2-0.3,1.6-0.6
		s0.6-0.5,0.4-0.8c-0.1-0.1-0.2-0.2-0.3-0.3s-0.3-0.1-0.4-0.2c-0.6,0-1.2,0.1-1.7,0.4S278.7,133.9,278.2,134.2z"/>
	<path class="st2" d="M321,141.2c-0.5,1-1.1,1.9-1.6,2.6c-1.3,1.6-2.9,2.6-4.6,2.9s-3.3,0.3-4.7-0.3c0,0-0.1-0.1-0.1-0.1
		c-0.4-0.2-0.7-0.3-1.1-0.4s-0.7,0-1.1,0.2c-0.2,0.1-0.5,0.1-0.7,0.1c-0.1,0-0.1,0-0.2,0c-1.3,0-1.9-0.6-2-1.9s-0.1-2.5-0.1-3.7
		c0-1.5-0.1-3-0.2-4.5c-0.2-5.7-0.3-11.5-0.2-17.2s0.3-11.5,0.5-17.3c0-0.6,0.1-1.1,0.1-1.7c0-1.3,0.2-2.9,0.4-4.9s0.6-3.8,1.1-5.6
		s1.1-3.1,1.8-3.9c0.6-0.9,1.4-1.5,2.4-1.7s1.9-0.2,2.8,0.1s1.6,0.8,2.1,1.5c1.1,1.7,1.6,4,1.7,7s-0.2,6.4-0.8,10.2
		s-1.4,7.5-2.3,11.2s-1.9,7.1-3,10.2s-1.9,5.4-2.7,7.1c1.4-0.8,2.5-1.3,3.4-1.5s1.9-0.2,3-0.1c3.8,0.5,6.1,2.6,6.7,6.4
		c0,0.2,0,0.3,0,0.5c0,0.1,0.1,0.3,0.1,0.4c0.1,0.5,0.1,0.9,0.2,1.3s1,0.2,2.7-0.3s3-1.1,3.7-1.8s1.3-1,1.5-0.9c0.8,0.9,0.2,2-2,3.4
		C325.9,140,323.6,140.9,321,141.2z M308.2,126.6c0.1-0.1,0.6-1.5,1.3-4.2s1.5-6,2.2-9.9s1.4-7.9,1.9-11.8s0.6-7.3,0.2-10
		c-0.1-1.4-0.4-2.6-0.7-3.5s-0.7-1.2-1.1-0.9s-0.9,1.4-1.3,3.4c-0.7,3-1.2,7.1-1.5,12.2s-0.5,10.2-0.7,15.2
		C308.5,121,308.3,124.1,308.2,126.6z M317.7,137.8c0.1-1.2-0.2-2.4-0.9-3.5s-1.5-1.9-2.5-2.2s-2,0-3,1.1c-0.7,0.9-1.2,2.1-1.4,3.7
		s-0.3,3.1-0.3,4.6c1.2-0.6,2.3-1.2,3.5-1.6s2.4-0.7,3.7-0.9c0.3,0,0.5-0.2,0.7-0.4S317.7,138.1,317.7,137.8z M312.4,143.8
		c-0.1,0.5,0,0.7,0.3,0.7s0.8-0.1,1.4-0.4s1.1-0.6,1.5-1s0.6-0.9,0.6-1.3c0,0,0-0.1-0.1-0.1s-0.1-0.1-0.1-0.1
		c-0.6,0-1.2,0.1-1.7,0.4s-1,0.6-1.5,1.1C312.6,143.3,312.5,143.5,312.4,143.8z"/>
</g>
</svg>
