<?xml version="1.0" encoding="utf-8"?>
<!-- Generator: Adobe Illustrator 19.0.0, SVG Export Plug-In . SVG Version: 6.00 Build 0)  -->
<svg version="1.1" id="Layer_1" xmlns="http://www.w3.org/2000/svg" xmlns:xlink="http://www.w3.org/1999/xlink" x="0px" y="0px"
	 viewBox="153 -165 406 430" style="enable-background:new 153 -165 406 430;" xml:space="preserve">
<style type="text/css">
	.st0{fill:#323159;}
	.st1{fill:#FFFFFF;}
	.st2{fill:none;stroke:#FFFFFF;stroke-width:0.9015;}
	.st3{font-family:'BebasNeue-Regular';}
	.st4{font-size:21.5px;}
	.st5{letter-spacing:4;}
	.st6{font-family:'Amsterdam-1';}
	.st7{font-size:17px;}
	.st8{letter-spacing:3;}
</style>
<title>Group 2</title>
<desc>Created with Sketch.</desc>
<g id="Page-1">
	<g id="Wedding-Invitation_4" transform="translate(-517.000000, -235.000000)">
		<g id="Group-2" transform="translate(517.000000, 235.000000)">
			<rect id="Rectangle" x="153" y="-165" class="st0" width="406" height="430"/>
			<g id="Group-15" transform="translate(81.644444, 72.117400)">
				<path id="Combined-Shape" class="st1" d="M255.3-147.1c0.2-0.6,0.5-1.2,0.9-1.8c-0.4-0.3-0.6-0.6-0.7-0.9
					c-0.1-0.3-0.1-0.6-0.1-0.9c0.1-0.2,0.3-0.5,0.5-0.6c0.3-0.2,0.6-0.3,1.1-0.3c-0.2,0.3-0.2,0.6-0.2,1c0,0.4,0.2,0.7,0.5,0.9
					c0.8-0.4,1.6-0.7,2.5-0.9c0.8-0.2,1.7-0.1,2.7,0.1c0.7,0.2,1.3,0.5,1.7,1c0.4,0.5,0.5,1,0.4,1.5c-0.1,1.2-0.8,1.8-2,1.8
					c-0.5,0-0.9-0.1-1.3-0.4c-0.4-0.3-0.6-0.6-0.6-0.9c-0.1-0.7,0.1-1.4,0.8-2c-1-0.3-2-0.2-2.8,0.2c-0.8,0.4-1.4,0.9-1.8,1.6
					c-0.4,0.7-0.6,1.5-0.5,2.4c0,0.9,0.4,1.7,1.1,2.5c0.2-0.3,0.4-0.6,0.7-0.9c0.3-0.3,0.6-0.5,0.9-0.6c0.2-0.1,0.4-0.1,0.5-0.1
					c0.2,0,0.3,0,0.5,0.1c0.1,0.1,0.2,0.2,0.3,0.3c0,0.1,0,0.3,0,0.5c-0.2,0.4-0.2,0.8-0.1,1.2c0.1,0.4,0.3,0.8,0.7,1.1
					c0.3,0.3,0.7,0.6,1.2,0.8c0.5,0.2,1,0.3,1.5,0.3c0.8,0,1.5-0.2,2.1-0.6c0.6-0.4,1.1-0.8,1.5-1.4c0.4-0.5,0.7-1.1,0.8-1.7
					c0.1-0.6,0.1-1.2,0-1.7c0.3-0.1,0.6,0,0.8,0.1c0.2,0.1,0.4,0.3,0.5,0.6c0.1,0.2,0.2,0.5,0.2,0.9c0,0.3,0,0.6-0.1,1
					c0.6-0.3,1-0.7,1.3-1.2c0.3-0.6,0.4-1.2,0.3-2c-0.1-0.5-0.2-1-0.4-1.4c-0.2-0.4-0.5-0.8-0.8-1.2c-0.3-0.4-0.6-0.7-1-1.1
					c-0.4-0.4-0.7-0.8-1.1-1.2c-0.1-0.2-0.1-0.4,0-0.5c0.1-0.1,0.4-0.1,0.7,0.1c0.4,0.2,0.8,0.4,1.1,0.6c0.4,0.2,0.8,0.4,1.2,0.6
					c0-0.6-0.2-1.2-0.7-1.8c-0.5-0.5-1-1-1.6-1.4c-0.6-0.4-1.3-0.6-1.9-0.7c-0.6-0.1-1.1,0-1.5,0.3c-0.2,0.2-0.3,0.4-0.3,0.6
					c0,0.2,0.2,0.3,0.5,0.3c-0.1,0.8-0.9,1.2-2.2,1.2c-0.4,0-0.7-0.1-1-0.3c-0.3-0.2-0.6-0.4-0.8-0.7c-0.2-0.3-0.4-0.5-0.4-0.9
					c-0.1-0.3,0-0.6,0.2-0.9c-0.4-0.1-0.7-0.4-0.8-0.7c-0.1-0.3-0.2-0.6-0.1-1c0.1-0.6,0.4-1.1,0.8-1.3c0.4-0.3,0.9-0.5,1.5-0.8
					c0-0.5,0-0.8,0.2-1.1c0.2-0.3,0.5-0.5,0.9-0.7c0.4-0.1,0.8-0.2,1.4-0.2c0.5,0,1.1,0,1.7,0.1c0.1-0.2,0-0.4-0.1-0.5
					c-0.1-0.1-0.3-0.2-0.5-0.3c-0.2-0.1-0.4-0.2-0.5-0.3c-0.1-0.1-0.2-0.3-0.1-0.4c0.3-0.9,0.7-1.7,1.2-2.4c0.6-0.7,1.4-1.1,2.6-1.3
					c0.6,0,1.2,0,1.8,0.2c0.6,0.2,1,0.5,1.2,0.9c0.1,0.2,0.1,0.3,0,0.5c-0.1,0.1-0.2,0.3-0.4,0.3c-0.2,0.1-0.4,0.1-0.6,0.1
					c-0.2,0-0.4,0-0.6-0.1c-0.2-0.1-0.3-0.2-0.5-0.3c-0.1-0.1-0.3-0.2-0.4-0.3c-0.1-0.1-0.3-0.2-0.4-0.2c-0.1-0.1-0.3-0.1-0.5,0
					c-0.2,0-0.5,0.2-0.6,0.5c-0.2,0.3-0.3,0.6-0.4,0.9c-0.1,0.3-0.1,0.6-0.1,0.9c0,0.3,0.2,0.4,0.3,0.5c0.3,0,0.5,0,0.6-0.2
					c0.1-0.2,0.3-0.4,0.7-0.7c0.2-0.2,0.4-0.3,0.6-0.2c0.2,0,0.2,0.2,0.1,0.6c-0.1,0.3-0.2,0.6-0.3,1c-0.2,0.4-0.3,0.7-0.4,1
					c-0.1,0.3-0.1,0.6,0,0.9c0.1,0.3,0.3,0.5,0.6,0.6c0.1-0.5,0.3-0.8,0.4-1c0.1-0.2,0.3-0.4,0.7-0.6c0.1-0.1,0.3-0.1,0.5-0.1
					s0.3,0,0.5,0.1c0.1,0.1,0.2,0.2,0.3,0.3s0,0.4-0.2,0.6c-0.4,0.6-0.3,1.5,0.3,2.5c0.5,0.9,1,2,1.3,3.2c0.3,1.2,0.5,2.5,0.5,3.8
					c0,1.3-0.3,2.6-0.9,3.8c-0.6,1.2-1.4,2.3-2.6,3.3c0.4-0.1,0.9-0.1,1.3,0c0.4,0.1,0.8,0.3,1.1,0.5c0.3,0.2,0.5,0.5,0.6,0.8
					c0.1,0.3,0.2,0.7,0.1,1.1c-0.4-0.3-0.8-0.6-1.2-0.7c-0.4-0.1-0.8-0.2-1.2-0.2c-0.6,0-1.2,0.1-1.9,0.2c-0.6,0.2-1.2,0.4-1.9,0.6
					c-0.6,0.2-1.3,0.4-1.9,0.6c-0.6,0.2-1.3,0.3-1.9,0.3c-0.8,0-1.6,0-2.4-0.2c-0.8-0.1-1.5-0.3-2.3-0.7c-0.7-0.3-1.4-0.7-1.9-1.3
					c-0.6-0.5-1-1.2-1.4-2.1c-0.3-0.9-0.5-1.8-0.4-2.8c0-0.1,0-0.1,0-0.2c-1.7,0.1-3.4,0.4-5,0.9c-1.7,0.6-3.4,1.3-4.9,2.2
					c-1,0.5-2.1,1-3.3,1.4c-1.2,0.4-2.4,0.6-3.6,0.7c-1.2,0.1-2.4,0.1-3.6,0c-1.2-0.1-2.2-0.4-3.1-0.8c-1-0.4-1.8-1-2.6-1.7
					c-0.7-0.7-1.3-1.5-1.8-2.4c-0.4-0.9-0.7-1.9-0.9-2.9c-0.2-1.1-0.2-2.2-0.1-3.3c0.1-1,0.3-2,0.6-2.9c0.4-0.9,0.8-1.7,1.4-2.4
					c0.6-0.7,1.3-1.2,2.1-1.6c0.8-0.4,1.8-0.5,2.8-0.3c0.3,0,0.6,0.1,0.9,0.3c0.3,0.1,0.5,0.3,0.7,0.5c0.2,0.2,0.3,0.5,0.5,0.8
					c0.1,0.3,0.1,0.6,0.1,0.9c-0.1,0.6-0.3,1.2-0.8,1.5c-0.5,0.4-1,0.5-1.7,0.5c-0.1,0-0.2-0.1-0.2-0.2c0-0.1-0.1-0.2-0.1-0.3
					c0-0.1,0-0.2,0.1-0.3c0-0.1,0.1-0.2,0.2-0.2c0.5,0,0.7-0.1,0.8-0.5c0-0.1,0-0.2-0.1-0.4c-0.1-0.1-0.2-0.2-0.3-0.3
					c-0.1-0.1-0.2-0.2-0.4-0.3c-0.2-0.1-0.3-0.1-0.5-0.1c-0.9-0.1-1.6,0.1-2.4,0.5c-0.7,0.4-1.4,0.9-1.8,1.6c-0.5,0.7-0.8,1.4-1,2.3
					c-0.2,0.9-0.1,1.7,0.2,2.6c0.3-0.3,0.5-0.7,0.9-1c0.4-0.3,0.8-0.6,1.2-0.8c0.4-0.3,0.9-0.5,1.3-0.6c0.5-0.1,0.9-0.2,1.3-0.2
					c0.3,0,0.6,0,1,0.1c0.4,0.1,0.7,0.2,0.9,0.4c0.3,0.2,0.5,0.4,0.7,0.7c0.2,0.3,0.3,0.6,0.3,0.9c-0.3,0-0.5,0-0.8,0
					c-0.3,0-0.5,0.1-0.8,0.2c-0.3,0.1-0.5,0.1-0.7,0.2c-0.3,0.1-0.5,0.1-0.8,0.1c-0.2,0-0.5,0-0.7-0.1c-0.2-0.1-0.5-0.1-0.8-0.2
					c-0.3,0-0.5-0.1-0.8-0.1s-0.5,0.1-0.7,0.2c-0.3,0.1-0.5,0.4-0.7,0.7c-0.2,0.3-0.4,0.8-0.5,1.4c-0.1,0.5-0.1,1.1,0,1.6
					c0.1,0.6,0.4,1.1,0.7,1.7c0.4,0.5,0.8,1,1.4,1.5c0.5,0.5,1.1,0.8,1.9,1.2c0.8,0.4,1.8,0.6,2.9,0.7c1.1,0.1,2.2,0.1,3.3,0
					c1.2-0.1,2.3-0.4,3.5-0.7c1.2-0.3,2.2-0.8,3.2-1.3c0.8-0.4,1.6-0.8,2.5-1.2c0.9-0.4,1.8-0.7,2.7-1c0.9-0.3,1.9-0.5,2.8-0.7
					C253.6-147.1,254.5-147.1,255.3-147.1z M293.4-147.1c0.8,0,1.7,0,2.5,0.1c1,0.2,1.9,0.4,2.8,0.7c0.9,0.3,1.8,0.6,2.7,1
					c0.9,0.4,1.7,0.8,2.5,1.2c1,0.5,2,1,3.2,1.3c1.2,0.3,2.3,0.6,3.5,0.7c1.2,0.1,2.3,0.1,3.4,0c1.1-0.1,2-0.3,2.9-0.7
					c0.7-0.3,1.3-0.7,1.9-1.2c0.5-0.5,1-1,1.3-1.5c0.4-0.5,0.6-1.1,0.7-1.7c0.1-0.6,0.1-1.1,0-1.6c-0.1-0.6-0.3-1.1-0.5-1.4
					c-0.2-0.3-0.4-0.5-0.7-0.7c-0.2-0.1-0.5-0.2-0.8-0.2c-0.2,0-0.5,0-0.8,0.1c-0.3,0-0.5,0.1-0.8,0.2c-0.3,0.1-0.5,0.1-0.7,0.1
					c-0.3,0-0.5,0-0.8-0.1c-0.2-0.1-0.5-0.2-0.7-0.2c-0.2-0.1-0.5-0.1-0.8-0.2c-0.3-0.1-0.5-0.1-0.8,0c0-0.4,0.1-0.7,0.3-0.9
					c0.2-0.3,0.4-0.5,0.7-0.7c0.3-0.2,0.6-0.3,0.9-0.4c0.4-0.1,0.7-0.1,1-0.1c0.5,0,0.9,0,1.3,0.2c0.5,0.1,0.9,0.3,1.3,0.6
					c0.4,0.2,0.8,0.5,1.2,0.8c0.4,0.3,0.7,0.6,0.9,1c0.3-0.9,0.4-1.8,0.2-2.6c-0.2-0.9-0.5-1.6-1-2.3c-0.5-0.6-1.1-1.2-1.8-1.6
					c-0.7-0.4-1.5-0.5-2.4-0.5c-0.1,0-0.3,0-0.5,0.1c-0.1,0.1-0.3,0.1-0.4,0.3c-0.1,0.1-0.2,0.2-0.3,0.3c-0.1,0.1-0.1,0.3-0.1,0.4
					c0.1,0.4,0.4,0.5,0.9,0.5c0.1,0,0.2,0.1,0.2,0.2c0.1,0.1,0.1,0.2,0.1,0.3c0,0.1,0,0.2-0.1,0.3c0,0.1-0.1,0.2-0.3,0.2
					c-0.7,0-1.2-0.1-1.7-0.5c-0.5-0.4-0.7-0.9-0.8-1.5c0-0.3,0-0.6,0.1-0.9c0.1-0.3,0.3-0.5,0.5-0.8c0.2-0.2,0.4-0.4,0.7-0.5
					c0.3-0.1,0.6-0.2,1-0.3c1-0.1,2,0,2.8,0.3c0.8,0.4,1.5,0.9,2.1,1.6c0.6,0.7,1,1.5,1.4,2.4c0.3,0.9,0.5,1.9,0.6,2.9
					c0.1,1.1,0,2.2-0.1,3.3c-0.2,1.1-0.5,2-0.9,2.9c-0.5,0.9-1,1.7-1.7,2.4c-0.7,0.7-1.6,1.3-2.6,1.7c-0.9,0.4-2,0.7-3.2,0.8
					c-1.2,0.1-2.4,0.1-3.6,0c-1.2-0.1-2.4-0.3-3.6-0.7c-1.2-0.4-2.3-0.8-3.3-1.4c-1.5-0.9-3.2-1.6-4.9-2.2c-1.6-0.5-3.2-0.8-5-0.9
					c0,0.1,0,0.1,0,0.2c0,1-0.1,2-0.4,2.8c-0.3,0.8-0.8,1.5-1.4,2.1c-0.6,0.6-1.2,1-1.9,1.3c-0.7,0.3-1.5,0.5-2.3,0.7
					s-1.6,0.2-2.4,0.2c-0.6,0-1.3-0.1-1.9-0.3c-0.6-0.2-1.3-0.4-1.9-0.6c-0.6-0.2-1.2-0.4-1.9-0.6c-0.6-0.2-1.2-0.2-1.8-0.2
					c-0.4,0-0.8,0.1-1.2,0.2c-0.4,0.1-0.8,0.4-1.2,0.7c-0.1-0.4-0.1-0.8,0-1.1c0.1-0.3,0.4-0.6,0.7-0.8c0.3-0.2,0.6-0.4,1-0.5
					c0.4-0.1,0.8-0.1,1.3,0c-1.1-1-2-2.1-2.6-3.3c-0.6-1.2-0.9-2.5-0.9-3.8c0-1.3,0.2-2.5,0.5-3.8c0.4-1.2,0.8-2.3,1.3-3.2
					c0.3-0.5,0.5-1,0.5-1.4c0-0.4,0-0.8-0.3-1.1c-0.1-0.3-0.2-0.5-0.2-0.6c0-0.1,0.1-0.2,0.2-0.3c0.1,0,0.3-0.1,0.5-0.1
					c0.2,0,0.3,0,0.5,0.1c0.4,0.2,0.6,0.4,0.7,0.6c0.1,0.2,0.2,0.6,0.4,1c0.3-0.2,0.5-0.4,0.6-0.6c0.1-0.3,0-0.5,0-0.9
					c-0.1-0.3-0.2-0.6-0.4-1c-0.1-0.3-0.3-0.7-0.3-1c-0.1-0.4-0.1-0.6,0.1-0.6c0.2,0,0.4,0,0.6,0.2c0.4,0.3,0.6,0.5,0.7,0.7
					c0.1,0.2,0.3,0.2,0.6,0.2c0.2-0.1,0.3-0.2,0.3-0.5c0-0.3,0-0.6,0-0.9c-0.1-0.3-0.2-0.6-0.4-0.9c-0.2-0.3-0.4-0.5-0.7-0.5
					c-0.2,0-0.4,0-0.5,0c-0.1,0-0.3,0.1-0.4,0.2c-0.1,0.1-0.2,0.2-0.4,0.3c-0.1,0.1-0.3,0.2-0.5,0.3c-0.2,0.1-0.4,0.1-0.6,0.1
					c-0.2,0-0.4-0.1-0.6-0.1c-0.2-0.1-0.3-0.2-0.4-0.3c-0.1-0.1-0.1-0.3,0-0.5c0.2-0.4,0.6-0.7,1.2-0.9c0.6-0.2,1.2-0.2,1.8-0.2
					c0.6,0,1.1,0.2,1.5,0.4c0.5,0.2,0.8,0.5,1.1,0.8c0.3,0.3,0.6,0.7,0.8,1.1c0.2,0.4,0.4,0.8,0.5,1.3c0,0.2,0,0.3-0.2,0.4
					c-0.1,0.1-0.3,0.2-0.5,0.3c-0.2,0.1-0.4,0.2-0.5,0.3c-0.1,0.1-0.2,0.3-0.1,0.5c1.2-0.2,2.3-0.2,3.1,0.1s1.2,0.9,1,1.8
					c0.6,0.2,1.1,0.5,1.5,0.8c0.4,0.3,0.7,0.7,0.8,1.3c0.1,0.3,0,0.6-0.1,1c-0.2,0.3-0.5,0.5-0.9,0.7c0.2,0.2,0.2,0.5,0.2,0.9
					c0,0.3-0.2,0.6-0.4,0.9c-0.2,0.3-0.5,0.5-0.8,0.7c-0.3,0.2-0.7,0.3-1,0.3c-1.3,0-2.1-0.4-2.2-1.2c0.3,0,0.5,0,0.5-0.3
					c0-0.2,0-0.4-0.3-0.6c-0.4-0.3-0.9-0.4-1.5-0.3c-0.6,0.1-1.3,0.3-1.9,0.7c-0.6,0.4-1.1,0.8-1.6,1.4c-0.5,0.5-0.7,1.1-0.7,1.8
					c0.4-0.2,0.8-0.4,1.2-0.6c0.4-0.2,0.7-0.4,1.1-0.6c0.4-0.2,0.6-0.2,0.8-0.1c0.1,0.1,0.1,0.3,0,0.5c-0.4,0.4-0.8,0.8-1.1,1.2
					c-0.4,0.4-0.7,0.8-1,1.1c-0.3,0.4-0.6,0.8-0.8,1.2c-0.2,0.4-0.3,0.9-0.4,1.4c-0.1,0.8,0,1.4,0.3,2c0.3,0.5,0.7,1,1.3,1.2
					c-0.1-0.3-0.1-0.6-0.1-1c0-0.3,0.1-0.6,0.2-0.9c0.1-0.3,0.3-0.5,0.5-0.6c0.2-0.1,0.5-0.1,0.8-0.1c-0.2,0.5-0.2,1.1-0.1,1.7
					c0.1,0.6,0.4,1.2,0.8,1.7c0.4,0.5,0.9,1,1.5,1.4c0.6,0.4,1.3,0.6,2.1,0.6c0.5,0,1.1-0.1,1.6-0.3c0.5-0.2,0.9-0.5,1.3-0.8
					c0.3-0.3,0.5-0.7,0.7-1.1c0.1-0.4,0.1-0.8-0.1-1.2c-0.1-0.2-0.1-0.4-0.1-0.5c0-0.1,0.1-0.3,0.3-0.3c0.1-0.1,0.3-0.1,0.5-0.1
					s0.4,0,0.6,0.1c0.3,0.1,0.6,0.3,0.9,0.6c0.3,0.3,0.5,0.5,0.7,0.9c0.7-0.8,1-1.6,1.1-2.5c0-0.9-0.1-1.7-0.5-2.4
					c-0.4-0.7-1-1.3-1.8-1.6c-0.8-0.4-1.7-0.4-2.8-0.2c0.6,0.6,0.9,1.3,0.8,2c0,0.3-0.2,0.6-0.6,0.9c-0.4,0.2-0.8,0.4-1.3,0.4
					c-1.2,0-1.9-0.6-2-1.8c-0.1-0.5,0.1-1.1,0.4-1.5c0.4-0.5,0.9-0.8,1.7-1c1-0.2,1.9-0.3,2.7-0.1c0.8,0.1,1.7,0.4,2.5,0.9
					c0.3-0.2,0.4-0.5,0.5-0.9c0-0.4,0-0.7-0.2-1c0.5,0,0.8,0.1,1.1,0.3c0.3,0.2,0.5,0.4,0.5,0.6c0.1,0.3,0,0.5-0.1,0.9
					c-0.1,0.3-0.4,0.6-0.8,0.9C292.9-148.3,293.3-147.7,293.4-147.1z M272.5-149.4c0.2-0.6,0.3-1.2,0.2-1.9c0-0.6-0.2-1.2-0.4-1.8
					c-0.2-0.6-0.6-1.1-1-1.6c-0.5-0.5-1-0.9-1.6-1.1c-0.6-0.3-1.2-0.5-2-0.7c-0.7-0.1-1.5-0.2-2.3-0.3c-0.8,0-1.5,0-2.2,0.1
					c-0.7,0.1-1.3,0.3-1.7,0.6c-0.4,0.3-0.5,0.5-0.4,0.9c0.1,0.3,0.3,0.4,0.7,0.3c1.1-0.3,2.2-0.4,3.3-0.3c1.1,0.1,2.1,0.4,3.1,0.9
					c1,0.5,1.9,1.1,2.6,2C271.6-151.5,272.2-150.5,272.5-149.4z M270.9-156c0.2,0,0.2,0,0.2-0.2s-0.1-0.2-0.2-0.2
					c-0.1,0-0.2,0.1-0.2,0.2S270.8-156,270.9-156z M271.2-148c0.1,0,0.2,0,0.2-0.2c0-0.1-0.1-0.2-0.2-0.2c-0.1,0-0.2,0.1-0.2,0.2
					C270.9-148,271-148,271.2-148z M282.3-158.7c0.2,0,0.2,0,0.2-0.2c0-0.1-0.1-0.2-0.2-0.2c-0.1,0-0.2,0.1-0.2,0.2
					C282.1-158.8,282.2-158.7,282.3-158.7z M276.2-149.4c0.4-1.1,1-2,1.7-2.9c0.8-0.8,1.6-1.5,2.6-2c1-0.5,2-0.8,3.1-0.9
					c1.1-0.1,2.2,0,3.2,0.3c0.4,0.1,0.6,0,0.7-0.3c0.1-0.3,0-0.6-0.4-0.9c-0.4-0.3-1-0.5-1.7-0.6c-0.7-0.1-1.4-0.1-2.2-0.1
					c-0.8,0-1.5,0.1-2.3,0.3c-0.7,0.1-1.4,0.4-1.9,0.6c-0.6,0.3-1.2,0.7-1.6,1.1c-0.5,0.5-0.8,1-1.1,1.6c-0.2,0.6-0.4,1.2-0.5,1.8
					C275.9-150.7,276-150,276.2-149.4z M286.1-148.9c0.1,0,0.2-0.1,0.2-0.2c0-0.2-0.1-0.2-0.2-0.2c-0.2,0-0.2,0.1-0.2,0.2
					C285.9-149,285.9-148.9,286.1-148.9z M323.9-144.3c0-0.1-0.1-0.1-0.2-0.1c-0.1,0-0.1,0.1-0.1,0.2c0,0.1,0,0.1,0.2,0.1
					C323.9-144.1,323.9-144.2,323.9-144.3z M316.2-152.6c0-0.1-0.1-0.1-0.2-0.1c-0.1,0-0.1,0.1-0.1,0.2c0,0.1,0.1,0.1,0.2,0.1
					C316.2-152.5,316.3-152.5,316.2-152.6z M298.4-141.2c-0.4,0-0.9-0.1-1.3-0.4c-0.5-0.2-0.9-0.5-1.3-0.9c-0.4-0.4-0.7-0.8-1-1.3
					c-0.3-0.5-0.4-1-0.5-1.5c0.2,0.1,0.5,0.1,0.7,0.1c0.3,0,0.5,0.1,0.8,0.1c0.3,0.1,0.5,0.2,0.7,0.3c0.2,0.1,0.4,0.3,0.6,0.6
					c0.1,0.2,0.2,0.4,0.3,0.6c0.1,0.3,0.2,0.5,0.3,0.8c0.1,0.3,0.1,0.5,0.2,0.8C298.2-141.7,298.3-141.4,298.4-141.2z M309.9-137.4
					c0,0.3-0.2,0.5-0.5,0.8c-0.3,0.2-0.6,0.4-1,0.4c-0.4,0-0.8,0-1.2-0.1c-0.4-0.1-0.8-0.3-1.1-0.5c-0.3-0.2-0.6-0.5-0.8-0.8
					c-0.2-0.3-0.3-0.6-0.3-1c0-0.5,0.1-1,0.3-1.3c0.2-0.4,0.6-0.7,1.1-1c0.2-0.1,0.4-0.1,0.5,0c0.2,0,0.3,0.2,0.4,0.3
					c0.1,0.1,0.2,0.3,0.2,0.5c0,0.2,0,0.4-0.1,0.5c0.3,0,0.5,0.1,0.7,0.3c0.2,0.1,0.2,0.3,0.2,0.6c-0.1,0-0.3,0-0.4,0.1
					c-0.1,0-0.2,0.1-0.3,0.2c-0.1,0.1-0.2,0.2-0.2,0.3c-0.1,0.1-0.1,0.2,0,0.4c0,0.3,0.2,0.5,0.3,0.6c0.2,0.1,0.4,0.2,0.6,0.2
					c0.2,0,0.5,0,0.7,0C309.5-137.2,309.7-137.3,309.9-137.4z M299.7-149.9c-0.1,0.3-0.3,0.6-0.6,0.9c-0.3,0.2-0.7,0.5-1.1,0.6
					c-0.4,0.2-0.9,0.3-1.4,0.4c-0.5,0.1-1,0.1-1.4,0.1c-0.5,0-0.9,0-1.2-0.1c-0.3-0.1-0.5-0.2-0.6-0.3c0.4,0,0.7-0.1,0.9-0.3
					c0.3-0.2,0.5-0.4,0.8-0.6c0.3-0.2,0.5-0.4,0.8-0.6c0.3-0.2,0.6-0.2,0.9-0.2c0.1,0.2,0.1,0.4,0,0.5c-0.1,0.1-0.1,0.2-0.2,0.4
					c0.2,0,0.5,0,0.8-0.1c0.3-0.1,0.5-0.1,0.8-0.2c0.3-0.1,0.5-0.1,0.8-0.2C299.3-149.8,299.5-149.9,299.7-149.9z M311.2-145.6
					c-0.3,0.1-0.5,0.1-0.8,0c-0.2-0.1-0.4-0.2-0.6-0.3c-0.2-0.1-0.4-0.3-0.5-0.4c-0.2-0.1-0.3-0.2-0.5-0.1c-0.2,0-0.4,0.1-0.5,0.2
					c-0.2,0.1-0.3,0.2-0.4,0.3c-0.1,0.1-0.2,0.3-0.2,0.4c0,0.1,0,0.3,0.2,0.4c0.1,0,0.3,0.1,0.5,0c0.3,0,0.5,0,0.8,0
					c0.3,0,0.5,0.1,0.7,0.2c0.2,0.1,0.3,0.4,0.4,0.8c-0.1-0.1-0.3-0.2-0.5-0.2c-0.2,0-0.5,0-0.7,0c-0.2,0-0.5,0.1-0.7,0.1
					c-0.2,0-0.3,0.2-0.4,0.3c0,0.2-0.2,0.3-0.4,0.4c-0.2,0-0.5,0-0.7-0.2c-0.3-0.2-0.5-0.4-0.7-0.8c-0.2-0.4-0.3-0.8-0.4-1.3
					c0-0.2,0-0.5,0.1-0.7c0.1-0.2,0.3-0.4,0.5-0.6c0.2-0.2,0.4-0.3,0.7-0.4c0.3-0.1,0.5-0.2,0.8-0.2c0.4,0,0.7,0,1.1,0.1
					c0.4,0.1,0.7,0.2,1,0.4c0.3,0.2,0.6,0.4,0.8,0.7C311.1-146.4,311.2-146,311.2-145.6z M326.6-143.8c-0.2,0.2-0.4,0.3-0.6,0.3
					c-0.2,0-0.5,0-0.7,0.1c-0.2,0-0.4,0-0.6,0c-0.2,0-0.3,0.1-0.3,0.2c-0.1,0.1,0,0.2,0,0.3c0.1,0.1,0.2,0.2,0.3,0.3
					c0.1,0.1,0.2,0.2,0.4,0.3c0.1,0.1,0.2,0.2,0.3,0.3c0.2,0.4,0.3,0.8,0.3,1.2c0,0.4-0.1,0.8-0.3,1.1c-0.2,0.4-0.4,0.7-0.7,1.1
					c-0.3,0.3-0.6,0.6-0.9,0.9c0-0.3,0.1-0.6,0.1-0.9c0.1-0.3,0.2-0.6,0.2-1c0.1-0.3,0.1-0.6,0.1-0.9c0-0.3,0-0.6-0.2-0.9
					c-0.2-0.3-0.5-0.6-0.8-0.7c-0.3-0.2-0.7-0.3-1.1-0.3c-0.4-0.1-0.8-0.1-1.2-0.2c-0.4,0-0.8-0.1-1.2-0.2c0.2-0.5,0.5-0.9,0.9-1.2
					c0.4-0.3,0.8-0.6,1.2-0.8c0.5-0.2,0.9-0.3,1.3-0.3c0.4,0,0.8,0.1,1.2,0.2c0.4,0.1,0.8,0.3,1.2,0.5
					C325.9-144.1,326.2-143.9,326.6-143.8z M327.9-141.3c0.2,0.4,0.4,0.8,0.5,1.2c0.1,0.5,0.1,0.9,0,1.4c0,0.5-0.1,0.9-0.3,1.3
					c-0.1,0.4-0.3,0.8-0.5,1.1c0-0.6-0.1-1.2-0.3-1.8c-0.1-0.6-0.3-1.3-0.5-1.9c-0.2-0.6-0.5-1.2-0.9-1.7c-0.4-0.5-0.8-1-1.3-1.4
					c0.6,0,1.2,0.1,1.7,0.5C327.1-142.2,327.6-141.8,327.9-141.3z M224.8-144.3c0,0.1,0,0.1,0.1,0.2c0.1,0,0.2,0,0.2-0.1
					c0-0.1,0-0.1-0.1-0.2C224.9-144.4,224.8-144.4,224.8-144.3z M232.5-152.6c0,0.1,0,0.2,0.1,0.2c0.1,0,0.1,0,0.2-0.1
					c0-0.1,0-0.2-0.1-0.2C232.5-152.8,232.5-152.7,232.5-152.6z M250.3-141.2c0.1-0.2,0.2-0.5,0.3-0.7c0.1-0.3,0.2-0.5,0.2-0.8
					c0.1-0.3,0.1-0.5,0.2-0.8c0.1-0.2,0.2-0.5,0.3-0.6c0.2-0.2,0.4-0.4,0.6-0.6c0.2-0.1,0.5-0.2,0.7-0.3c0.3-0.1,0.5-0.1,0.8-0.1
					c0.3,0,0.5-0.1,0.7-0.1c0,0.5-0.2,1-0.5,1.5c-0.3,0.5-0.6,0.9-0.9,1.3c-0.4,0.4-0.8,0.7-1.3,0.9
					C251.2-141.3,250.7-141.2,250.3-141.2z M238.8-137.4c0.2,0.1,0.5,0.2,0.7,0.2c0.3,0,0.5,0.1,0.7,0c0.2,0,0.4-0.1,0.6-0.2
					c0.2-0.1,0.3-0.3,0.3-0.6c0-0.1,0-0.3,0-0.4c0-0.1-0.1-0.2-0.2-0.3c-0.1-0.1-0.2-0.1-0.3-0.2c-0.1,0-0.3-0.1-0.4-0.1
					c0-0.2,0-0.4,0.2-0.6c0.2-0.1,0.4-0.2,0.7-0.3c-0.1-0.2-0.1-0.3-0.1-0.5c0-0.2,0.1-0.4,0.2-0.5c0.1-0.1,0.3-0.2,0.4-0.3
					c0.2-0.1,0.4,0,0.5,0c0.5,0.3,0.9,0.6,1.1,1c0.2,0.4,0.3,0.8,0.3,1.3c0,0.3-0.1,0.6-0.3,1c-0.2,0.3-0.5,0.5-0.8,0.8
					c-0.3,0.2-0.7,0.4-1.1,0.5c-0.4,0.1-0.8,0.2-1.2,0.1c-0.4,0-0.7-0.2-1-0.4C239-136.8,238.8-137.1,238.8-137.4z M249-149.9
					c0.2,0,0.5,0.1,0.7,0.2c0.2,0.1,0.5,0.2,0.8,0.2c0.3,0.1,0.5,0.1,0.8,0.2c0.3,0,0.5,0.1,0.8,0.1c-0.1-0.1-0.2-0.3-0.2-0.4
					c0-0.1,0-0.3,0-0.5c0.4-0.1,0.6,0,0.9,0.2s0.5,0.4,0.8,0.6c0.3,0.2,0.5,0.4,0.8,0.6c0.3,0.2,0.6,0.3,0.9,0.3
					c-0.1,0.1-0.3,0.2-0.6,0.3c-0.3,0.1-0.7,0.1-1.2,0.1c-0.5,0-0.9,0-1.4-0.1c-0.5-0.1-1-0.2-1.4-0.4c-0.4-0.2-0.8-0.4-1.1-0.6
					C249.2-149.3,249.1-149.6,249-149.9z M237.5-145.6c0-0.4,0.2-0.7,0.4-1c0.2-0.3,0.5-0.5,0.8-0.7c0.3-0.2,0.7-0.3,1-0.4
					c0.4-0.1,0.7-0.1,1.1-0.1c0.3,0,0.5,0.1,0.8,0.2c0.2,0.1,0.5,0.3,0.7,0.4c0.2,0.2,0.4,0.4,0.5,0.6c0.1,0.2,0.2,0.5,0.1,0.7
					c0,0.5-0.1,0.9-0.4,1.3c-0.2,0.3-0.5,0.6-0.7,0.8c-0.3,0.1-0.5,0.2-0.7,0.2c-0.2,0-0.4-0.1-0.4-0.4c-0.1-0.1-0.2-0.3-0.4-0.3
					c-0.2-0.1-0.4-0.1-0.6-0.1c-0.2,0-0.5,0-0.7,0c-0.2,0-0.4,0.1-0.5,0.2c0-0.4,0.1-0.7,0.3-0.8c0.2-0.1,0.5-0.2,0.7-0.2
					c0.3,0,0.5,0,0.8,0s0.4,0,0.5,0c0.1-0.1,0.2-0.2,0.2-0.4c0-0.1-0.1-0.3-0.2-0.4c-0.1-0.1-0.2-0.2-0.4-0.3
					c-0.2-0.1-0.4-0.2-0.5-0.2c-0.2,0-0.3,0-0.5,0.1c-0.2,0.1-0.3,0.2-0.5,0.4c-0.2,0.1-0.4,0.2-0.6,0.3
					C238-145.5,237.8-145.5,237.5-145.6z M222.1-143.8c0.4-0.1,0.8-0.3,1.1-0.5c0.4-0.2,0.8-0.4,1.2-0.5s0.8-0.2,1.2-0.2
					c0.4,0,0.8,0.1,1.3,0.3c0.5,0.2,0.9,0.5,1.3,0.8c0.3,0.3,0.6,0.7,0.9,1.2c-0.4,0.1-0.8,0.2-1.2,0.2c-0.4,0-0.8,0.1-1.2,0.2
					c-0.4,0.1-0.8,0.2-1.1,0.3c-0.4,0.1-0.6,0.4-0.8,0.7c-0.2,0.3-0.2,0.6-0.2,0.9c0,0.3,0,0.6,0.1,0.9c0.1,0.3,0.2,0.6,0.2,1
					c0.1,0.3,0.1,0.6,0.2,0.9c-0.3-0.3-0.6-0.6-0.9-0.9c-0.3-0.3-0.5-0.7-0.7-1.1c-0.2-0.4-0.2-0.7-0.3-1.1c0-0.4,0.1-0.8,0.3-1.2
					c0.1-0.1,0.2-0.2,0.3-0.3c0.1-0.1,0.2-0.2,0.4-0.3c0.1-0.1,0.2-0.2,0.3-0.3c0.1-0.1,0.1-0.2,0-0.3c0-0.1-0.2-0.2-0.3-0.2
					c-0.2,0-0.4,0-0.6,0c-0.2,0-0.5,0-0.7-0.1C222.5-143.5,222.3-143.6,222.1-143.8z M220.8-141.3c0.4-0.5,0.8-1,1.4-1.3
					c0.5-0.4,1.1-0.5,1.7-0.5c-0.5,0.4-0.9,0.9-1.3,1.4c-0.3,0.5-0.6,1.1-0.9,1.7c-0.2,0.6-0.4,1.2-0.5,1.9
					c-0.1,0.6-0.2,1.2-0.3,1.8c-0.2-0.3-0.3-0.7-0.5-1.1c-0.1-0.4-0.2-0.9-0.3-1.3c0-0.5,0-0.9,0.1-1.4
					C220.4-140.5,220.5-140.9,220.8-141.3z"/>
			</g>
			<rect id="Rectangle_1_" x="189.1" y="-128.9" class="st2" width="333.8" height="357.9"/>
		</g>
	</g>
</g>
<text transform="matrix(1 0 0 1 254.2279 -6.7769)"><tspan x="0" y="0" class="st1 st3 st4 st5">We are positively</tspan><tspan x="29" y="29" class="st1 st3 st4 st5">delighted to</tspan></text>
<text transform="matrix(1 0 0 1 215.2342 74.1102)"><tspan x="0" y="0" class="st1 st6 st7 st8">Invite you to join us as</tspan><tspan x="34.1" y="35" class="st1 st6 st7 st8">we celebrate the</tspan><tspan x="13.1" y="70" class="st1 st6 st7 st8">beginning of our new</tspan><tspan x="55.3" y="105" class="st1 st6 st7 st8">life together</tspan></text>
</svg>
