<?xml version="1.0" encoding="utf-8"?>
<!-- Generator: Adobe Illustrator 19.0.0, SVG Export Plug-In . SVG Version: 6.00 Build 0)  -->
<svg version="1.1" id="Layer_1" width="406px" height="430px" xmlns="http://www.w3.org/2000/svg" xmlns:xlink="http://www.w3.org/1999/xlink" x="0px" y="0px"
	 viewBox="153 -165 406 430" style="enable-background:new 153 -165 406 430;" xml:space="preserve">
<style type="text/css">
	.st0{fill:#323159;}
	.st1{fill:#FFFFFF;}
	.st2{fill:none;stroke:#FFFFFF;stroke-width:0.9015;}
</style>
<title>Group 2</title>
<desc>Created with Sketch.</desc>
<g id="Page-1">
	<g id="Wedding-Invitation_4" transform="translate(-517.000000, -235.000000)">
		<g id="Group-2" transform="translate(517.000000, 235.000000)">
			<rect id="Rectangle" x="153" y="-165" class="st0" width="406" height="430"/>
			<g id="Group-15" transform="translate(81.644444, 72.117400)">
				<path id="Combined-Shape" class="st1" d="M255.3-147.1c0.2-0.6,0.5-1.2,0.9-1.8c-0.4-0.3-0.6-0.6-0.7-0.9
					c-0.1-0.3-0.1-0.6-0.1-0.9c0.1-0.2,0.3-0.5,0.5-0.6c0.3-0.2,0.6-0.3,1.1-0.3c-0.2,0.3-0.2,0.6-0.2,1c0,0.4,0.2,0.7,0.5,0.9
					c0.8-0.4,1.6-0.7,2.5-0.9c0.8-0.2,1.7-0.1,2.7,0.1c0.7,0.2,1.3,0.5,1.7,1c0.4,0.5,0.5,1,0.4,1.5c-0.1,1.2-0.8,1.8-2,1.8
					c-0.5,0-0.9-0.1-1.3-0.4c-0.4-0.3-0.6-0.6-0.6-0.9c-0.1-0.7,0.1-1.4,0.8-2c-1-0.3-2-0.2-2.8,0.2c-0.8,0.4-1.4,0.9-1.8,1.6
					c-0.4,0.7-0.6,1.5-0.5,2.4c0,0.9,0.4,1.7,1.1,2.5c0.2-0.3,0.4-0.6,0.7-0.9c0.3-0.3,0.6-0.5,0.9-0.6c0.2-0.1,0.4-0.1,0.5-0.1
					c0.2,0,0.3,0,0.5,0.1c0.1,0.1,0.2,0.2,0.3,0.3c0,0.1,0,0.3,0,0.5c-0.2,0.4-0.2,0.8-0.1,1.2c0.1,0.4,0.3,0.8,0.7,1.1
					c0.3,0.3,0.7,0.6,1.2,0.8c0.5,0.2,1,0.3,1.5,0.3c0.8,0,1.5-0.2,2.1-0.6c0.6-0.4,1.1-0.8,1.5-1.4c0.4-0.5,0.7-1.1,0.8-1.7
					c0.1-0.6,0.1-1.2,0-1.7c0.3-0.1,0.6,0,0.8,0.1c0.2,0.1,0.4,0.3,0.5,0.6c0.1,0.2,0.2,0.5,0.2,0.9c0,0.3,0,0.6-0.1,1
					c0.6-0.3,1-0.7,1.3-1.2c0.3-0.6,0.4-1.2,0.3-2c-0.1-0.5-0.2-1-0.4-1.4c-0.2-0.4-0.5-0.8-0.8-1.2c-0.3-0.4-0.6-0.7-1-1.1
					c-0.4-0.4-0.7-0.8-1.1-1.2c-0.1-0.2-0.1-0.4,0-0.5c0.1-0.1,0.4-0.1,0.7,0.1c0.4,0.2,0.8,0.4,1.1,0.6c0.4,0.2,0.8,0.4,1.2,0.6
					c0-0.6-0.2-1.2-0.7-1.8c-0.5-0.5-1-1-1.6-1.4c-0.6-0.4-1.3-0.6-1.9-0.7c-0.6-0.1-1.1,0-1.5,0.3c-0.2,0.2-0.3,0.4-0.3,0.6
					c0,0.2,0.2,0.3,0.5,0.3c-0.1,0.8-0.9,1.2-2.2,1.2c-0.4,0-0.7-0.1-1-0.3c-0.3-0.2-0.6-0.4-0.8-0.7c-0.2-0.3-0.4-0.5-0.4-0.9
					c-0.1-0.3,0-0.6,0.2-0.9c-0.4-0.1-0.7-0.4-0.8-0.7c-0.1-0.3-0.2-0.6-0.1-1c0.1-0.6,0.4-1.1,0.8-1.3c0.4-0.3,0.9-0.5,1.5-0.8
					c0-0.5,0-0.8,0.2-1.1c0.2-0.3,0.5-0.5,0.9-0.7c0.4-0.1,0.8-0.2,1.4-0.2c0.5,0,1.1,0,1.7,0.1c0.1-0.2,0-0.4-0.1-0.5
					c-0.1-0.1-0.3-0.2-0.5-0.3c-0.2-0.1-0.4-0.2-0.5-0.3c-0.1-0.1-0.2-0.3-0.1-0.4c0.3-0.9,0.7-1.7,1.2-2.4c0.6-0.7,1.4-1.1,2.6-1.3
					c0.6,0,1.2,0,1.8,0.2c0.6,0.2,1,0.5,1.2,0.9c0.1,0.2,0.1,0.3,0,0.5c-0.1,0.1-0.2,0.3-0.4,0.3c-0.2,0.1-0.4,0.1-0.6,0.1
					c-0.2,0-0.4,0-0.6-0.1c-0.2-0.1-0.3-0.2-0.5-0.3c-0.1-0.1-0.3-0.2-0.4-0.3c-0.1-0.1-0.3-0.2-0.4-0.2c-0.1-0.1-0.3-0.1-0.5,0
					c-0.2,0-0.5,0.2-0.6,0.5c-0.2,0.3-0.3,0.6-0.4,0.9c-0.1,0.3-0.1,0.6-0.1,0.9c0,0.3,0.2,0.4,0.3,0.5c0.3,0,0.5,0,0.6-0.2
					c0.1-0.2,0.3-0.4,0.7-0.7c0.2-0.2,0.4-0.3,0.6-0.2c0.2,0,0.2,0.2,0.1,0.6c-0.1,0.3-0.2,0.6-0.3,1c-0.2,0.4-0.3,0.7-0.4,1
					c-0.1,0.3-0.1,0.6,0,0.9c0.1,0.3,0.3,0.5,0.6,0.6c0.1-0.5,0.3-0.8,0.4-1c0.1-0.2,0.3-0.4,0.7-0.6c0.1-0.1,0.3-0.1,0.5-0.1
					s0.3,0,0.5,0.1c0.1,0.1,0.2,0.2,0.3,0.3s0,0.4-0.2,0.6c-0.4,0.6-0.3,1.5,0.3,2.5c0.5,0.9,1,2,1.3,3.2c0.3,1.2,0.5,2.5,0.5,3.8
					c0,1.3-0.3,2.6-0.9,3.8c-0.6,1.2-1.4,2.3-2.6,3.3c0.4-0.1,0.9-0.1,1.3,0c0.4,0.1,0.8,0.3,1.1,0.5c0.3,0.2,0.5,0.5,0.6,0.8
					c0.1,0.3,0.2,0.7,0.1,1.1c-0.4-0.3-0.8-0.6-1.2-0.7c-0.4-0.1-0.8-0.2-1.2-0.2c-0.6,0-1.2,0.1-1.9,0.2c-0.6,0.2-1.2,0.4-1.9,0.6
					c-0.6,0.2-1.3,0.4-1.9,0.6c-0.6,0.2-1.3,0.3-1.9,0.3c-0.8,0-1.6,0-2.4-0.2c-0.8-0.1-1.5-0.3-2.3-0.7c-0.7-0.3-1.4-0.7-1.9-1.3
					c-0.6-0.5-1-1.2-1.4-2.1c-0.3-0.9-0.5-1.8-0.4-2.8c0-0.1,0-0.1,0-0.2c-1.7,0.1-3.4,0.4-5,0.9c-1.7,0.6-3.4,1.3-4.9,2.2
					c-1,0.5-2.1,1-3.3,1.4c-1.2,0.4-2.4,0.6-3.6,0.7c-1.2,0.1-2.4,0.1-3.6,0c-1.2-0.1-2.2-0.4-3.1-0.8c-1-0.4-1.8-1-2.6-1.7
					c-0.7-0.7-1.3-1.5-1.8-2.4c-0.4-0.9-0.7-1.9-0.9-2.9c-0.2-1.1-0.2-2.2-0.1-3.3c0.1-1,0.3-2,0.6-2.9c0.4-0.9,0.8-1.7,1.4-2.4
					c0.6-0.7,1.3-1.2,2.1-1.6c0.8-0.4,1.8-0.5,2.8-0.3c0.3,0,0.6,0.1,0.9,0.3c0.3,0.1,0.5,0.3,0.7,0.5c0.2,0.2,0.3,0.5,0.5,0.8
					c0.1,0.3,0.1,0.6,0.1,0.9c-0.1,0.6-0.3,1.2-0.8,1.5c-0.5,0.4-1,0.5-1.7,0.5c-0.1,0-0.2-0.1-0.2-0.2c0-0.1-0.1-0.2-0.1-0.3
					c0-0.1,0-0.2,0.1-0.3c0-0.1,0.1-0.2,0.2-0.2c0.5,0,0.7-0.1,0.8-0.5c0-0.1,0-0.2-0.1-0.4c-0.1-0.1-0.2-0.2-0.3-0.3
					c-0.1-0.1-0.2-0.2-0.4-0.3c-0.2-0.1-0.3-0.1-0.5-0.1c-0.9-0.1-1.6,0.1-2.4,0.5c-0.7,0.4-1.4,0.9-1.8,1.6c-0.5,0.7-0.8,1.4-1,2.3
					c-0.2,0.9-0.1,1.7,0.2,2.6c0.3-0.3,0.5-0.7,0.9-1c0.4-0.3,0.8-0.6,1.2-0.8c0.4-0.3,0.9-0.5,1.3-0.6c0.5-0.1,0.9-0.2,1.3-0.2
					c0.3,0,0.6,0,1,0.1c0.4,0.1,0.7,0.2,0.9,0.4c0.3,0.2,0.5,0.4,0.7,0.7c0.2,0.3,0.3,0.6,0.3,0.9c-0.3,0-0.5,0-0.8,0
					c-0.3,0-0.5,0.1-0.8,0.2c-0.3,0.1-0.5,0.1-0.7,0.2c-0.3,0.1-0.5,0.1-0.8,0.1c-0.2,0-0.5,0-0.7-0.1c-0.2-0.1-0.5-0.1-0.8-0.2
					c-0.3,0-0.5-0.1-0.8-0.1s-0.5,0.1-0.7,0.2c-0.3,0.1-0.5,0.4-0.7,0.7c-0.2,0.3-0.4,0.8-0.5,1.4c-0.1,0.5-0.1,1.1,0,1.6
					c0.1,0.6,0.4,1.1,0.7,1.7c0.4,0.5,0.8,1,1.4,1.5c0.5,0.5,1.1,0.8,1.9,1.2c0.8,0.4,1.8,0.6,2.9,0.7c1.1,0.1,2.2,0.1,3.3,0
					c1.2-0.1,2.3-0.4,3.5-0.7c1.2-0.3,2.2-0.8,3.2-1.3c0.8-0.4,1.6-0.8,2.5-1.2c0.9-0.4,1.8-0.7,2.7-1c0.9-0.3,1.9-0.5,2.8-0.7
					C253.6-147.1,254.5-147.1,255.3-147.1z M293.4-147.1c0.8,0,1.7,0,2.5,0.1c1,0.2,1.9,0.4,2.8,0.7c0.9,0.3,1.8,0.6,2.7,1
					c0.9,0.4,1.7,0.8,2.5,1.2c1,0.5,2,1,3.2,1.3c1.2,0.3,2.3,0.6,3.5,0.7c1.2,0.1,2.3,0.1,3.4,0c1.1-0.1,2-0.3,2.9-0.7
					c0.7-0.3,1.3-0.7,1.9-1.2c0.5-0.5,1-1,1.3-1.5c0.4-0.5,0.6-1.1,0.7-1.7c0.1-0.6,0.1-1.1,0-1.6c-0.1-0.6-0.3-1.1-0.5-1.4
					c-0.2-0.3-0.4-0.5-0.7-0.7c-0.2-0.1-0.5-0.2-0.8-0.2c-0.2,0-0.5,0-0.8,0.1c-0.3,0-0.5,0.1-0.8,0.2c-0.3,0.1-0.5,0.1-0.7,0.1
					c-0.3,0-0.5,0-0.8-0.1c-0.2-0.1-0.5-0.2-0.7-0.2c-0.2-0.1-0.5-0.1-0.8-0.2c-0.3-0.1-0.5-0.1-0.8,0c0-0.4,0.1-0.7,0.3-0.9
					c0.2-0.3,0.4-0.5,0.7-0.7c0.3-0.2,0.6-0.3,0.9-0.4c0.4-0.1,0.7-0.1,1-0.1c0.5,0,0.9,0,1.3,0.2c0.5,0.1,0.9,0.3,1.3,0.6
					c0.4,0.2,0.8,0.5,1.2,0.8c0.4,0.3,0.7,0.6,0.9,1c0.3-0.9,0.4-1.8,0.2-2.6c-0.2-0.9-0.5-1.6-1-2.3c-0.5-0.6-1.1-1.2-1.8-1.6
					c-0.7-0.4-1.5-0.5-2.4-0.5c-0.1,0-0.3,0-0.5,0.1c-0.1,0.1-0.3,0.1-0.4,0.3c-0.1,0.1-0.2,0.2-0.3,0.3c-0.1,0.1-0.1,0.3-0.1,0.4
					c0.1,0.4,0.4,0.5,0.9,0.5c0.1,0,0.2,0.1,0.2,0.2c0.1,0.1,0.1,0.2,0.1,0.3c0,0.1,0,0.2-0.1,0.3c0,0.1-0.1,0.2-0.3,0.2
					c-0.7,0-1.2-0.1-1.7-0.5c-0.5-0.4-0.7-0.9-0.8-1.5c0-0.3,0-0.6,0.1-0.9c0.1-0.3,0.3-0.5,0.5-0.8c0.2-0.2,0.4-0.4,0.7-0.5
					c0.3-0.1,0.6-0.2,1-0.3c1-0.1,2,0,2.8,0.3c0.8,0.4,1.5,0.9,2.1,1.6c0.6,0.7,1,1.5,1.4,2.4c0.3,0.9,0.5,1.9,0.6,2.9
					c0.1,1.1,0,2.2-0.1,3.3c-0.2,1.1-0.5,2-0.9,2.9c-0.5,0.9-1,1.7-1.7,2.4c-0.7,0.7-1.6,1.3-2.6,1.7c-0.9,0.4-2,0.7-3.2,0.8
					c-1.2,0.1-2.4,0.1-3.6,0c-1.2-0.1-2.4-0.3-3.6-0.7c-1.2-0.4-2.3-0.8-3.3-1.4c-1.5-0.9-3.2-1.6-4.9-2.2c-1.6-0.5-3.2-0.8-5-0.9
					c0,0.1,0,0.1,0,0.2c0,1-0.1,2-0.4,2.8c-0.3,0.8-0.8,1.5-1.4,2.1c-0.6,0.6-1.2,1-1.9,1.3c-0.7,0.3-1.5,0.5-2.3,0.7
					s-1.6,0.2-2.4,0.2c-0.6,0-1.3-0.1-1.9-0.3c-0.6-0.2-1.3-0.4-1.9-0.6c-0.6-0.2-1.2-0.4-1.9-0.6c-0.6-0.2-1.2-0.2-1.8-0.2
					c-0.4,0-0.8,0.1-1.2,0.2c-0.4,0.1-0.8,0.4-1.2,0.7c-0.1-0.4-0.1-0.8,0-1.1c0.1-0.3,0.4-0.6,0.7-0.8c0.3-0.2,0.6-0.4,1-0.5
					c0.4-0.1,0.8-0.1,1.3,0c-1.1-1-2-2.1-2.6-3.3c-0.6-1.2-0.9-2.5-0.9-3.8c0-1.3,0.2-2.5,0.5-3.8c0.4-1.2,0.8-2.3,1.3-3.2
					c0.3-0.5,0.5-1,0.5-1.4c0-0.4,0-0.8-0.3-1.1c-0.1-0.3-0.2-0.5-0.2-0.6c0-0.1,0.1-0.2,0.2-0.3c0.1,0,0.3-0.1,0.5-0.1
					c0.2,0,0.3,0,0.5,0.1c0.4,0.2,0.6,0.4,0.7,0.6c0.1,0.2,0.2,0.6,0.4,1c0.3-0.2,0.5-0.4,0.6-0.6c0.1-0.3,0-0.5,0-0.9
					c-0.1-0.3-0.2-0.6-0.4-1c-0.1-0.3-0.3-0.7-0.3-1c-0.1-0.4-0.1-0.6,0.1-0.6c0.2,0,0.4,0,0.6,0.2c0.4,0.3,0.6,0.5,0.7,0.7
					c0.1,0.2,0.3,0.2,0.6,0.2c0.2-0.1,0.3-0.2,0.3-0.5c0-0.3,0-0.6,0-0.9c-0.1-0.3-0.2-0.6-0.4-0.9c-0.2-0.3-0.4-0.5-0.7-0.5
					c-0.2,0-0.4,0-0.5,0c-0.1,0-0.3,0.1-0.4,0.2c-0.1,0.1-0.2,0.2-0.4,0.3c-0.1,0.1-0.3,0.2-0.5,0.3c-0.2,0.1-0.4,0.1-0.6,0.1
					c-0.2,0-0.4-0.1-0.6-0.1c-0.2-0.1-0.3-0.2-0.4-0.3c-0.1-0.1-0.1-0.3,0-0.5c0.2-0.4,0.6-0.7,1.2-0.9c0.6-0.2,1.2-0.2,1.8-0.2
					c0.6,0,1.1,0.2,1.5,0.4c0.5,0.2,0.8,0.5,1.1,0.8c0.3,0.3,0.6,0.7,0.8,1.1c0.2,0.4,0.4,0.8,0.5,1.3c0,0.2,0,0.3-0.2,0.4
					c-0.1,0.1-0.3,0.2-0.5,0.3c-0.2,0.1-0.4,0.2-0.5,0.3c-0.1,0.1-0.2,0.3-0.1,0.5c1.2-0.2,2.3-0.2,3.1,0.1s1.2,0.9,1,1.8
					c0.6,0.2,1.1,0.5,1.5,0.8c0.4,0.3,0.7,0.7,0.8,1.3c0.1,0.3,0,0.6-0.1,1c-0.2,0.3-0.5,0.5-0.9,0.7c0.2,0.2,0.2,0.5,0.2,0.9
					c0,0.3-0.2,0.6-0.4,0.9c-0.2,0.3-0.5,0.5-0.8,0.7c-0.3,0.2-0.7,0.3-1,0.3c-1.3,0-2.1-0.4-2.2-1.2c0.3,0,0.5,0,0.5-0.3
					c0-0.2,0-0.4-0.3-0.6c-0.4-0.3-0.9-0.4-1.5-0.3c-0.6,0.1-1.3,0.3-1.9,0.7c-0.6,0.4-1.1,0.8-1.6,1.4c-0.5,0.5-0.7,1.1-0.7,1.8
					c0.4-0.2,0.8-0.4,1.2-0.6c0.4-0.2,0.7-0.4,1.1-0.6c0.4-0.2,0.6-0.2,0.8-0.1c0.1,0.1,0.1,0.3,0,0.5c-0.4,0.4-0.8,0.8-1.1,1.2
					c-0.4,0.4-0.7,0.8-1,1.1c-0.3,0.4-0.6,0.8-0.8,1.2c-0.2,0.4-0.3,0.9-0.4,1.4c-0.1,0.8,0,1.4,0.3,2c0.3,0.5,0.7,1,1.3,1.2
					c-0.1-0.3-0.1-0.6-0.1-1c0-0.3,0.1-0.6,0.2-0.9c0.1-0.3,0.3-0.5,0.5-0.6c0.2-0.1,0.5-0.1,0.8-0.1c-0.2,0.5-0.2,1.1-0.1,1.7
					c0.1,0.6,0.4,1.2,0.8,1.7c0.4,0.5,0.9,1,1.5,1.4c0.6,0.4,1.3,0.6,2.1,0.6c0.5,0,1.1-0.1,1.6-0.3c0.5-0.2,0.9-0.5,1.3-0.8
					c0.3-0.3,0.5-0.7,0.7-1.1c0.1-0.4,0.1-0.8-0.1-1.2c-0.1-0.2-0.1-0.4-0.1-0.5c0-0.1,0.1-0.3,0.3-0.3c0.1-0.1,0.3-0.1,0.5-0.1
					s0.4,0,0.6,0.1c0.3,0.1,0.6,0.3,0.9,0.6c0.3,0.3,0.5,0.5,0.7,0.9c0.7-0.8,1-1.6,1.1-2.5c0-0.9-0.1-1.7-0.5-2.4
					c-0.4-0.7-1-1.3-1.8-1.6c-0.8-0.4-1.7-0.4-2.8-0.2c0.6,0.6,0.9,1.3,0.8,2c0,0.3-0.2,0.6-0.6,0.9c-0.4,0.2-0.8,0.4-1.3,0.4
					c-1.2,0-1.9-0.6-2-1.8c-0.1-0.5,0.1-1.1,0.4-1.5c0.4-0.5,0.9-0.8,1.7-1c1-0.2,1.9-0.3,2.7-0.1c0.8,0.1,1.7,0.4,2.5,0.9
					c0.3-0.2,0.4-0.5,0.5-0.9c0-0.4,0-0.7-0.2-1c0.5,0,0.8,0.1,1.1,0.3c0.3,0.2,0.5,0.4,0.5,0.6c0.1,0.3,0,0.5-0.1,0.9
					c-0.1,0.3-0.4,0.6-0.8,0.9C292.9-148.3,293.3-147.7,293.4-147.1z M272.5-149.4c0.2-0.6,0.3-1.2,0.2-1.9c0-0.6-0.2-1.2-0.4-1.8
					c-0.2-0.6-0.6-1.1-1-1.6c-0.5-0.5-1-0.9-1.6-1.1c-0.6-0.3-1.2-0.5-2-0.7c-0.7-0.1-1.5-0.2-2.3-0.3c-0.8,0-1.5,0-2.2,0.1
					c-0.7,0.1-1.3,0.3-1.7,0.6c-0.4,0.3-0.5,0.5-0.4,0.9c0.1,0.3,0.3,0.4,0.7,0.3c1.1-0.3,2.2-0.4,3.3-0.3c1.1,0.1,2.1,0.4,3.1,0.9
					c1,0.5,1.9,1.1,2.6,2C271.6-151.5,272.2-150.5,272.5-149.4z M270.9-156c0.2,0,0.2,0,0.2-0.2s-0.1-0.2-0.2-0.2
					c-0.1,0-0.2,0.1-0.2,0.2S270.8-156,270.9-156z M271.2-148c0.1,0,0.2,0,0.2-0.2c0-0.1-0.1-0.2-0.2-0.2c-0.1,0-0.2,0.1-0.2,0.2
					C270.9-148,271-148,271.2-148z M282.3-158.7c0.2,0,0.2,0,0.2-0.2c0-0.1-0.1-0.2-0.2-0.2c-0.1,0-0.2,0.1-0.2,0.2
					C282.1-158.8,282.2-158.7,282.3-158.7z M276.2-149.4c0.4-1.1,1-2,1.7-2.9c0.8-0.8,1.6-1.5,2.6-2c1-0.5,2-0.8,3.1-0.9
					c1.1-0.1,2.2,0,3.2,0.3c0.4,0.1,0.6,0,0.7-0.3c0.1-0.3,0-0.6-0.4-0.9c-0.4-0.3-1-0.5-1.7-0.6c-0.7-0.1-1.4-0.1-2.2-0.1
					c-0.8,0-1.5,0.1-2.3,0.3c-0.7,0.1-1.4,0.4-1.9,0.6c-0.6,0.3-1.2,0.7-1.6,1.1c-0.5,0.5-0.8,1-1.1,1.6c-0.2,0.6-0.4,1.2-0.5,1.8
					C275.9-150.7,276-150,276.2-149.4z M286.1-148.9c0.1,0,0.2-0.1,0.2-0.2c0-0.2-0.1-0.2-0.2-0.2c-0.2,0-0.2,0.1-0.2,0.2
					C285.9-149,285.9-148.9,286.1-148.9z M323.9-144.3c0-0.1-0.1-0.1-0.2-0.1c-0.1,0-0.1,0.1-0.1,0.2c0,0.1,0,0.1,0.2,0.1
					C323.9-144.1,323.9-144.2,323.9-144.3z M316.2-152.6c0-0.1-0.1-0.1-0.2-0.1c-0.1,0-0.1,0.1-0.1,0.2c0,0.1,0.1,0.1,0.2,0.1
					C316.2-152.5,316.3-152.5,316.2-152.6z M298.4-141.2c-0.4,0-0.9-0.1-1.3-0.4c-0.5-0.2-0.9-0.5-1.3-0.9c-0.4-0.4-0.7-0.8-1-1.3
					c-0.3-0.5-0.4-1-0.5-1.5c0.2,0.1,0.5,0.1,0.7,0.1c0.3,0,0.5,0.1,0.8,0.1c0.3,0.1,0.5,0.2,0.7,0.3c0.2,0.1,0.4,0.3,0.6,0.6
					c0.1,0.2,0.2,0.4,0.3,0.6c0.1,0.3,0.2,0.5,0.3,0.8c0.1,0.3,0.1,0.5,0.2,0.8C298.2-141.7,298.3-141.4,298.4-141.2z M309.9-137.4
					c0,0.3-0.2,0.5-0.5,0.8c-0.3,0.2-0.6,0.4-1,0.4c-0.4,0-0.8,0-1.2-0.1c-0.4-0.1-0.8-0.3-1.1-0.5c-0.3-0.2-0.6-0.5-0.8-0.8
					c-0.2-0.3-0.3-0.6-0.3-1c0-0.5,0.1-1,0.3-1.3c0.2-0.4,0.6-0.7,1.1-1c0.2-0.1,0.4-0.1,0.5,0c0.2,0,0.3,0.2,0.4,0.3
					c0.1,0.1,0.2,0.3,0.2,0.5c0,0.2,0,0.4-0.1,0.5c0.3,0,0.5,0.1,0.7,0.3c0.2,0.1,0.2,0.3,0.2,0.6c-0.1,0-0.3,0-0.4,0.1
					c-0.1,0-0.2,0.1-0.3,0.2c-0.1,0.1-0.2,0.2-0.2,0.3c-0.1,0.1-0.1,0.2,0,0.4c0,0.3,0.2,0.5,0.3,0.6c0.2,0.1,0.4,0.2,0.6,0.2
					c0.2,0,0.5,0,0.7,0C309.5-137.2,309.7-137.3,309.9-137.4z M299.7-149.9c-0.1,0.3-0.3,0.6-0.6,0.9c-0.3,0.2-0.7,0.5-1.1,0.6
					c-0.4,0.2-0.9,0.3-1.4,0.4c-0.5,0.1-1,0.1-1.4,0.1c-0.5,0-0.9,0-1.2-0.1c-0.3-0.1-0.5-0.2-0.6-0.3c0.4,0,0.7-0.1,0.9-0.3
					c0.3-0.2,0.5-0.4,0.8-0.6c0.3-0.2,0.5-0.4,0.8-0.6c0.3-0.2,0.6-0.2,0.9-0.2c0.1,0.2,0.1,0.4,0,0.5c-0.1,0.1-0.1,0.2-0.2,0.4
					c0.2,0,0.5,0,0.8-0.1c0.3-0.1,0.5-0.1,0.8-0.2c0.3-0.1,0.5-0.1,0.8-0.2C299.3-149.8,299.5-149.9,299.7-149.9z M311.2-145.6
					c-0.3,0.1-0.5,0.1-0.8,0c-0.2-0.1-0.4-0.2-0.6-0.3c-0.2-0.1-0.4-0.3-0.5-0.4c-0.2-0.1-0.3-0.2-0.5-0.1c-0.2,0-0.4,0.1-0.5,0.2
					c-0.2,0.1-0.3,0.2-0.4,0.3c-0.1,0.1-0.2,0.3-0.2,0.4c0,0.1,0,0.3,0.2,0.4c0.1,0,0.3,0.1,0.5,0c0.3,0,0.5,0,0.8,0
					c0.3,0,0.5,0.1,0.7,0.2c0.2,0.1,0.3,0.4,0.4,0.8c-0.1-0.1-0.3-0.2-0.5-0.2c-0.2,0-0.5,0-0.7,0c-0.2,0-0.5,0.1-0.7,0.1
					c-0.2,0-0.3,0.2-0.4,0.3c0,0.2-0.2,0.3-0.4,0.4c-0.2,0-0.5,0-0.7-0.2c-0.3-0.2-0.5-0.4-0.7-0.8c-0.2-0.4-0.3-0.8-0.4-1.3
					c0-0.2,0-0.5,0.1-0.7c0.1-0.2,0.3-0.4,0.5-0.6c0.2-0.2,0.4-0.3,0.7-0.4c0.3-0.1,0.5-0.2,0.8-0.2c0.4,0,0.7,0,1.1,0.1
					c0.4,0.1,0.7,0.2,1,0.4c0.3,0.2,0.6,0.4,0.8,0.7C311.1-146.4,311.2-146,311.2-145.6z M326.6-143.8c-0.2,0.2-0.4,0.3-0.6,0.3
					c-0.2,0-0.5,0-0.7,0.1c-0.2,0-0.4,0-0.6,0c-0.2,0-0.3,0.1-0.3,0.2c-0.1,0.1,0,0.2,0,0.3c0.1,0.1,0.2,0.2,0.3,0.3
					c0.1,0.1,0.2,0.2,0.4,0.3c0.1,0.1,0.2,0.2,0.3,0.3c0.2,0.4,0.3,0.8,0.3,1.2c0,0.4-0.1,0.8-0.3,1.1c-0.2,0.4-0.4,0.7-0.7,1.1
					c-0.3,0.3-0.6,0.6-0.9,0.9c0-0.3,0.1-0.6,0.1-0.9c0.1-0.3,0.2-0.6,0.2-1c0.1-0.3,0.1-0.6,0.1-0.9c0-0.3,0-0.6-0.2-0.9
					c-0.2-0.3-0.5-0.6-0.8-0.7c-0.3-0.2-0.7-0.3-1.1-0.3c-0.4-0.1-0.8-0.1-1.2-0.2c-0.4,0-0.8-0.1-1.2-0.2c0.2-0.5,0.5-0.9,0.9-1.2
					c0.4-0.3,0.8-0.6,1.2-0.8c0.5-0.2,0.9-0.3,1.3-0.3c0.4,0,0.8,0.1,1.2,0.2c0.4,0.1,0.8,0.3,1.2,0.5
					C325.9-144.1,326.2-143.9,326.6-143.8z M327.9-141.3c0.2,0.4,0.4,0.8,0.5,1.2c0.1,0.5,0.1,0.9,0,1.4c0,0.5-0.1,0.9-0.3,1.3
					c-0.1,0.4-0.3,0.8-0.5,1.1c0-0.6-0.1-1.2-0.3-1.8c-0.1-0.6-0.3-1.3-0.5-1.9c-0.2-0.6-0.5-1.2-0.9-1.7c-0.4-0.5-0.8-1-1.3-1.4
					c0.6,0,1.2,0.1,1.7,0.5C327.1-142.2,327.6-141.8,327.9-141.3z M224.8-144.3c0,0.1,0,0.1,0.1,0.2c0.1,0,0.2,0,0.2-0.1
					c0-0.1,0-0.1-0.1-0.2C224.9-144.4,224.8-144.4,224.8-144.3z M232.5-152.6c0,0.1,0,0.2,0.1,0.2c0.1,0,0.1,0,0.2-0.1
					c0-0.1,0-0.2-0.1-0.2C232.5-152.8,232.5-152.7,232.5-152.6z M250.3-141.2c0.1-0.2,0.2-0.5,0.3-0.7c0.1-0.3,0.2-0.5,0.2-0.8
					c0.1-0.3,0.1-0.5,0.2-0.8c0.1-0.2,0.2-0.5,0.3-0.6c0.2-0.2,0.4-0.4,0.6-0.6c0.2-0.1,0.5-0.2,0.7-0.3c0.3-0.1,0.5-0.1,0.8-0.1
					c0.3,0,0.5-0.1,0.7-0.1c0,0.5-0.2,1-0.5,1.5c-0.3,0.5-0.6,0.9-0.9,1.3c-0.4,0.4-0.8,0.7-1.3,0.9
					C251.2-141.3,250.7-141.2,250.3-141.2z M238.8-137.4c0.2,0.1,0.5,0.2,0.7,0.2c0.3,0,0.5,0.1,0.7,0c0.2,0,0.4-0.1,0.6-0.2
					c0.2-0.1,0.3-0.3,0.3-0.6c0-0.1,0-0.3,0-0.4c0-0.1-0.1-0.2-0.2-0.3c-0.1-0.1-0.2-0.1-0.3-0.2c-0.1,0-0.3-0.1-0.4-0.1
					c0-0.2,0-0.4,0.2-0.6c0.2-0.1,0.4-0.2,0.7-0.3c-0.1-0.2-0.1-0.3-0.1-0.5c0-0.2,0.1-0.4,0.2-0.5c0.1-0.1,0.3-0.2,0.4-0.3
					c0.2-0.1,0.4,0,0.5,0c0.5,0.3,0.9,0.6,1.1,1c0.2,0.4,0.3,0.8,0.3,1.3c0,0.3-0.1,0.6-0.3,1c-0.2,0.3-0.5,0.5-0.8,0.8
					c-0.3,0.2-0.7,0.4-1.1,0.5c-0.4,0.1-0.8,0.2-1.2,0.1c-0.4,0-0.7-0.2-1-0.4C239-136.8,238.8-137.1,238.8-137.4z M249-149.9
					c0.2,0,0.5,0.1,0.7,0.2c0.2,0.1,0.5,0.2,0.8,0.2c0.3,0.1,0.5,0.1,0.8,0.2c0.3,0,0.5,0.1,0.8,0.1c-0.1-0.1-0.2-0.3-0.2-0.4
					c0-0.1,0-0.3,0-0.5c0.4-0.1,0.6,0,0.9,0.2s0.5,0.4,0.8,0.6c0.3,0.2,0.5,0.4,0.8,0.6c0.3,0.2,0.6,0.3,0.9,0.3
					c-0.1,0.1-0.3,0.2-0.6,0.3c-0.3,0.1-0.7,0.1-1.2,0.1c-0.5,0-0.9,0-1.4-0.1c-0.5-0.1-1-0.2-1.4-0.4c-0.4-0.2-0.8-0.4-1.1-0.6
					C249.2-149.3,249.1-149.6,249-149.9z M237.5-145.6c0-0.4,0.2-0.7,0.4-1c0.2-0.3,0.5-0.5,0.8-0.7c0.3-0.2,0.7-0.3,1-0.4
					c0.4-0.1,0.7-0.1,1.1-0.1c0.3,0,0.5,0.1,0.8,0.2c0.2,0.1,0.5,0.3,0.7,0.4c0.2,0.2,0.4,0.4,0.5,0.6c0.1,0.2,0.2,0.5,0.1,0.7
					c0,0.5-0.1,0.9-0.4,1.3c-0.2,0.3-0.5,0.6-0.7,0.8c-0.3,0.1-0.5,0.2-0.7,0.2c-0.2,0-0.4-0.1-0.4-0.4c-0.1-0.1-0.2-0.3-0.4-0.3
					c-0.2-0.1-0.4-0.1-0.6-0.1c-0.2,0-0.5,0-0.7,0c-0.2,0-0.4,0.1-0.5,0.2c0-0.4,0.1-0.7,0.3-0.8c0.2-0.1,0.5-0.2,0.7-0.2
					c0.3,0,0.5,0,0.8,0s0.4,0,0.5,0c0.1-0.1,0.2-0.2,0.2-0.4c0-0.1-0.1-0.3-0.2-0.4c-0.1-0.1-0.2-0.2-0.4-0.3
					c-0.2-0.1-0.4-0.2-0.5-0.2c-0.2,0-0.3,0-0.5,0.1c-0.2,0.1-0.3,0.2-0.5,0.4c-0.2,0.1-0.4,0.2-0.6,0.3
					C238-145.5,237.8-145.5,237.5-145.6z M222.1-143.8c0.4-0.1,0.8-0.3,1.1-0.5c0.4-0.2,0.8-0.4,1.2-0.5s0.8-0.2,1.2-0.2
					c0.4,0,0.8,0.1,1.3,0.3c0.5,0.2,0.9,0.5,1.3,0.8c0.3,0.3,0.6,0.7,0.9,1.2c-0.4,0.1-0.8,0.2-1.2,0.2c-0.4,0-0.8,0.1-1.2,0.2
					c-0.4,0.1-0.8,0.2-1.1,0.3c-0.4,0.1-0.6,0.4-0.8,0.7c-0.2,0.3-0.2,0.6-0.2,0.9c0,0.3,0,0.6,0.1,0.9c0.1,0.3,0.2,0.6,0.2,1
					c0.1,0.3,0.1,0.6,0.2,0.9c-0.3-0.3-0.6-0.6-0.9-0.9c-0.3-0.3-0.5-0.7-0.7-1.1c-0.2-0.4-0.2-0.7-0.3-1.1c0-0.4,0.1-0.8,0.3-1.2
					c0.1-0.1,0.2-0.2,0.3-0.3c0.1-0.1,0.2-0.2,0.4-0.3c0.1-0.1,0.2-0.2,0.3-0.3c0.1-0.1,0.1-0.2,0-0.3c0-0.1-0.2-0.2-0.3-0.2
					c-0.2,0-0.4,0-0.6,0c-0.2,0-0.5,0-0.7-0.1C222.5-143.5,222.3-143.6,222.1-143.8z M220.8-141.3c0.4-0.5,0.8-1,1.4-1.3
					c0.5-0.4,1.1-0.5,1.7-0.5c-0.5,0.4-0.9,0.9-1.3,1.4c-0.3,0.5-0.6,1.1-0.9,1.7c-0.2,0.6-0.4,1.2-0.5,1.9
					c-0.1,0.6-0.2,1.2-0.3,1.8c-0.2-0.3-0.3-0.7-0.5-1.1c-0.1-0.4-0.2-0.9-0.3-1.3c0-0.5,0-0.9,0.1-1.4
					C220.4-140.5,220.5-140.9,220.8-141.3z"/>
			</g>
			<rect id="Rectangle_1_" x="189.1" y="-128.9" class="st2" width="333.8" height="357.9"/>
		</g>
	</g>
</g>
<g>
	<path class="st1" d="M255.5-21.8h2.3l1.1,11.6h0l1.1-11.6h2.6l1.1,11.6h0l1.1-11.6h2l-1.5,15h-2.9l-1.1-10.1h0l-1.1,10.1H257
		L255.5-21.8z"/>
	<path class="st1" d="M272.7-21.8h6.5v2.1H275v4h3.2v2.1H275v4.6h4.1v2.1h-6.5V-21.8z"/>
	<path class="st1" d="M295-21.8h3.2l2.5,15h-2.4l-0.4-3v0h-2.7l-0.4,2.9h-2.2L295-21.8z M297.5-11.8l-1.1-7.4h0l-1,7.4H297.5z"/>
	<path class="st1" d="M306.4-21.8h3.5c2.5,0,3.5,1.1,3.5,3.5v0.9c0,1.5-0.5,2.5-1.5,3v0c1.2,0.4,1.6,1.5,1.6,3.2v2.6
		c0,0.7,0,1.3,0.3,1.8h-2.4c-0.1-0.4-0.2-0.6-0.2-1.8v-2.8c0-1.4-0.4-1.8-1.5-1.8h-0.8v6.4h-2.4V-21.8z M309.6-15.4
		c0.9,0,1.4-0.4,1.4-1.6v-1.2c0-1.1-0.4-1.5-1.2-1.5h-1.1v4.3H309.6z"/>
	<path class="st1" d="M319.7-21.8h6.5v2.1H322v4h3.2v2.1H322v4.6h4.1v2.1h-6.5V-21.8z"/>
	<path class="st1" d="M340.2-21.8h3.5c2.4,0,3.5,1.3,3.5,3.7v1.5c0,2.4-1.2,3.7-3.5,3.7h-1.1v6.1h-2.4V-21.8z M343.6-15.1
		c0.8,0,1.2-0.3,1.2-1.4v-1.8c0-1.1-0.4-1.4-1.2-1.4h-1.1v4.6H343.6z"/>
	<path class="st1" d="M352.9-10.3v-7.9c0-2.4,1.3-3.8,3.6-3.8c2.3,0,3.6,1.4,3.6,3.8v7.9c0,2.4-1.3,3.8-3.6,3.8
		C354.2-6.6,352.9-7.9,352.9-10.3z M357.7-10.2v-8.2c0-1.1-0.5-1.5-1.2-1.5c-0.8,0-1.2,0.4-1.2,1.5v8.2c0,1.1,0.5,1.5,1.2,1.5
		C357.3-8.7,357.7-9.1,357.7-10.2z"/>
	<path class="st1" d="M365.9-10.3v-0.9h2.2v1c0,1.1,0.5,1.5,1.2,1.5c0.8,0,1.2-0.4,1.2-1.5c0-1.2-0.5-2-2-3.4c-2-1.7-2.6-3-2.6-4.7
		c0-2.4,1.2-3.7,3.5-3.7c2.3,0,3.4,1.4,3.4,3.8v0.6h-2.2v-0.8c0-1.1-0.4-1.5-1.2-1.5c-0.8,0-1.2,0.4-1.2,1.4c0,1.1,0.5,1.9,2,3.2
		c2,1.7,2.6,2.9,2.6,4.8c0,2.5-1.2,3.8-3.6,3.8C367.1-6.6,365.9-7.9,365.9-10.3z"/>
	<path class="st1" d="M378.9-21.8h2.4v15h-2.4V-21.8z"/>
	<path class="st1" d="M389.5-19.7h-2.5v-2.1h7.3v2.1h-2.5v12.9h-2.4V-19.7z"/>
	<path class="st1" d="M400.1-21.8h2.4v15h-2.4V-21.8z"/>
	<path class="st1" d="M408.3-21.8h2.4l1.5,11.7h0l1.5-11.7h2.2l-2.3,15h-3.1L408.3-21.8z"/>
	<path class="st1" d="M421.7-21.8h6.4v2.1h-4.1v4h3.2v2.1h-3.2v4.6h4.1v2.1h-6.4V-21.8z"/>
	<path class="st1" d="M434.1-21.8h2.4v12.9h3.9v2.1h-6.3V-21.8z"/>
	<path class="st1" d="M446.4-13.2l-2.9-8.6h2.5l1.6,5.5h0l1.6-5.5h2.3l-2.9,8.6v6.4h-2.4V-13.2z"/>
	<path class="st1" d="M284.2,7.2h3.6c2.4,0,3.5,1.3,3.5,3.7v7.6c0,2.4-1.2,3.7-3.5,3.7h-3.6V7.2z M287.7,20.1c0.8,0,1.2-0.4,1.2-1.5
		v-7.8c0-1.1-0.5-1.5-1.2-1.5h-1.2v10.8H287.7z"/>
	<path class="st1" d="M297.5,7.2h6.5v2.1h-4.1v4h3.2v2.1h-3.2v4.6h4.1v2.1h-6.5V7.2z"/>
	<path class="st1" d="M309.9,7.2h2.4v12.9h3.9v2.1h-6.3V7.2z"/>
	<path class="st1" d="M322,7.2h2.4v15H322V7.2z"/>
	<path class="st1" d="M330.5,18.7v-7.9c0-2.4,1.2-3.8,3.5-3.8c2.3,0,3.5,1.4,3.5,3.8V12h-2.2v-1.4c0-1.1-0.5-1.5-1.2-1.5
		s-1.2,0.4-1.2,1.5v8.2c0,1.1,0.5,1.5,1.2,1.5s1.2-0.4,1.2-1.5v-2.9h-1.2v-2.1h3.4v4.9c0,2.4-1.2,3.8-3.5,3.8
		C331.7,22.4,330.5,21.1,330.5,18.7z"/>
	<path class="st1" d="M343.7,7.2h2.4v6.1h2.5V7.2h2.4v15h-2.4v-6.8h-2.5v6.8h-2.4V7.2z"/>
	<path class="st1" d="M359.2,9.3h-2.5V7.2h7.3v2.1h-2.5v12.9h-2.4V9.3z"/>
	<path class="st1" d="M369.8,7.2h6.5v2.1h-4.1v4h3.2v2.1h-3.2v4.6h4.1v2.1h-6.5V7.2z"/>
	<path class="st1" d="M382.3,7.2h3.6c2.4,0,3.5,1.3,3.5,3.7v7.6c0,2.4-1.2,3.7-3.5,3.7h-3.6V7.2z M385.8,20.1c0.8,0,1.2-0.4,1.2-1.5
		v-7.8c0-1.1-0.5-1.5-1.2-1.5h-1.2v10.8H385.8z"/>
	<path class="st1" d="M405.5,9.3H403V7.2h7.3v2.1h-2.5v12.9h-2.4V9.3z"/>
	<path class="st1" d="M415.9,18.7v-7.9c0-2.4,1.3-3.8,3.6-3.8s3.6,1.4,3.6,3.8v7.9c0,2.4-1.3,3.8-3.6,3.8S415.9,21.1,415.9,18.7z
		 M420.7,18.8v-8.2c0-1.1-0.5-1.5-1.2-1.5c-0.8,0-1.2,0.4-1.2,1.5v8.2c0,1.1,0.5,1.5,1.2,1.5C420.2,20.3,420.7,19.9,420.7,18.8z"/>
</g>
<g>
	<path class="st1" d="M230.6,67c0.2-0.1,0.5-0.2,0.8-0.3c0.3-0.1,0.5-0.1,0.6,0c0.1,0,0.2,0.1,0.1,0.2c-0.1,0.1-0.3,0.2-0.7,0.4
		c-0.6,0.3-1.3,0.7-2.1,1.2c-0.7,0.5-1.4,1.1-1.9,1.8s-0.9,1.4-1.1,2.1c-0.6,3.2-1.4,6.4-2.5,9.5c-0.5,1.5-1.1,2.9-1.9,4.2
		c-0.3,0.6-0.7,1.1-1.2,1.6c-0.3,0.3-0.6,0.5-1,0.5c-0.6,0.1-1.1,0-1.5-0.2s-0.6-0.6-0.7-1.3c-0.1-0.8-0.1-1.6,0-2.4
		c0.3-1.8,0.9-3.5,1.7-5.2c0.6-1.3,1.4-2.6,2.2-3.8c0.8-1.2,1.7-2.4,2.7-3.5c0.2-0.3,0.4-0.6,0.5-0.9c0.1-0.3,0.2-0.6,0.2-1
		c0-0.4,0.1-0.8,0.1-1.2c0.2-1.7,0.4-3.5,0.5-5.2c0.2-3.7,0.1-7.4-0.2-11.1c-0.2-2-0.6-3.9-1.2-5.8c-0.3-0.9-0.7-1.7-1.2-2.4
		c-0.1-0.2-0.3-0.4-0.5-0.5c-0.4-0.4-0.8-0.7-1.2-0.7c-0.4,0-0.8,0.1-1.3,0.5c-1.6,1.2-2.6,2.8-3,4.8c-0.1,0.7-0.5,1-1.2,0.8
		c-0.3-0.1-0.5-0.3-0.5-0.6c0-0.3,0-0.6,0.1-0.8c0.5-1.7,1.4-3.2,2.7-4.4c0.6-0.5,1.2-0.9,1.9-1.1c0.7-0.2,1.4-0.2,2.2,0
		c0.4,0.1,0.8,0.2,1.2,0.5c0.3,0.2,0.7,0.5,1,0.9c0.7,0.9,1.3,1.8,1.6,2.9c0.4,1.1,0.7,2.2,0.9,3.3c0.2,1.1,0.4,2.2,0.5,3.3
		c0.1,1.6,0.2,3.1,0.3,4.6c0,0.5,0,1.1,0.1,1.6c0,3.1-0.2,6-0.5,8.6c0,0.3-0.1,0.7-0.1,1c0,0.1,0,0.1,0,0.2s0.1,0.1,0.1,0.1
		c0,0,0.1,0,0.1,0s0.1,0,0.1,0c0.7-0.5,1.4-0.9,2-1.2C229.8,67.5,230.2,67.3,230.6,67z M223.9,75.8c0-0.1,0.1-0.3,0.1-0.5
		c0-0.1,0-0.1,0-0.2c-1,1.2-1.8,2.5-2.5,3.8c-0.7,1.3-1.3,2.7-1.7,4.2c-0.1,0.5-0.3,1.1-0.4,1.6c-0.1,0.5-0.1,1.1-0.1,1.6
		c0,0.1,0,0.2,0,0.2s0.1,0.1,0.2,0.1c0.1,0,0.3,0,0.3-0.1c0.5-0.8,1-1.6,1.4-2.5c0.6-1.3,1.1-2.7,1.5-4
		C223.1,78.6,223.5,77.2,223.9,75.8z"/>
	<path class="st1" d="M245.2,69.7c0.6-0.9,0.9-1.5,1-1.8c0.1-0.2,0.2-0.2,0.3,0c0.1,0.3-0.1,0.9-0.6,1.8c-0.4,1-1,1.7-1.6,2.2
		s-1.3,0.7-1.8,0.6s-1-0.5-1.2-1.2c-0.2-0.6-0.3-1.5-0.2-2.4c0,0,0-0.1,0-0.1c0-0.2,0-0.4,0.1-0.7c0-0.3,0.1-0.7,0.1-1s0-0.6,0-0.9
		c0-0.2-0.1-0.3-0.3-0.2c-0.4,0.2-0.8,0.6-1.2,1.3c-0.4,0.6-0.7,1.3-1,2c-0.3,0.7-0.5,1.3-0.7,1.7c0,0.1-0.1,0.3-0.1,0.4
		c-0.1,0.2-0.1,0.4-0.2,0.6c-0.2,0.6-0.6,0.8-1.1,0.6c-0.3-0.1-0.5-0.2-0.5-0.5c0-0.2,0-0.5,0-0.7c0-0.1,0-0.3,0-0.4
		c0-1.7-0.1-3.4-0.1-5.1c0-0.2,0.1-0.3,0.3-0.4c0.2-0.1,0.3-0.1,0.6-0.1c0.2,0,0.3,0,0.5,0.1c0.1,0.1,0.2,0.3,0.3,0.6
		c0,0.1,0,0.2,0,0.3c0,0,0,0.1,0,0.1c0,0.2,0,0.4,0,0.6c0,0.2,0,0.4,0,0.5c0,0.1,0.1,0.1,0.2,0c0.1-0.1,0.3-0.3,0.5-0.7
		c0.4-0.7,1-1.2,1.6-1.7c0.6-0.4,1.2-0.6,1.9-0.5c0.6,0.1,1,0.4,1.2,0.9c0.1,0.3,0.1,0.6,0.1,0.9c0,0.3,0,0.6,0,0.9
		c0,0.3,0,0.6-0.1,0.9c0,0.1,0,0.2,0,0.3c-0.1,1.1-0.1,1.8,0.1,2.2s0.4,0.5,0.8,0.4C244.2,71.1,244.7,70.6,245.2,69.7z"/>
	<path class="st1" d="M257.9,68.1c0.6-0.1,0.8-0.1,0.7,0c-0.1,0.2-0.5,0.3-1.1,0.5c-0.5,0.1-0.9,0.2-1.2,0.2c-0.3,0-0.7-0.1-0.9-0.3
		c-0.1,0.2-0.1,0.5-0.2,0.7c-0.1,0.4-0.3,0.9-0.4,1.3c-0.2,0.6-0.4,1.1-0.7,1.6c-0.3,0.4-0.6,0.7-1,0.9s-0.9,0.1-1.3,0
		c-0.4-0.2-0.8-0.5-1-1c-0.3-0.7-0.6-1.4-0.7-2.2c-0.2-1.1-0.4-2.3-0.4-3.4c0-0.3,0-0.5,0-0.8c0-0.3,0.3-0.5,0.6-0.5
		c0.3,0,0.4,0.2,0.5,0.5c0.1,0.3,0.1,0.6,0.1,0.9c0,0.1,0,0.2,0,0.3c0,0.1,0,0.5,0.1,1.1c0.1,0.6,0.2,1.3,0.3,2
		c0.1,0.7,0.3,1.3,0.5,1.7s0.5,0.4,0.8,0c0.3-0.4,0.5-0.9,0.6-1.4c0.3-1,0.5-2,0.8-3c0.1-0.5,0.3-0.9,0.6-1.3
		c0.3-0.4,0.7-0.5,1.2-0.3c0.1,0,0.2,0.1,0.3,0.2s0.1,0.2,0.1,0.3c0,0.1,0,0.2-0.1,0.4c-0.1,0.2-0.1,0.5-0.2,0.7c0,0.2,0,0.4,0,0.6
		c0.1,0.2,0.4,0.3,0.8,0.3S257.5,68.2,257.9,68.1z"/>
	<path class="st1" d="M267.4,69.4c-0.2,0.5-0.6,1-1.2,1.6c-0.6,0.6-1.2,1-1.9,1.1c-0.7,0.2-1.4-0.1-2-0.7c-0.2-0.3-0.4-0.6-0.5-1
		c-0.1-0.4-0.2-0.7-0.1-1.1c0-0.1,0-0.2,0-0.4c0-0.4,0-0.8,0-1.3c0-0.5,0.1-1,0.2-1.4c0.1-0.4,0.3-0.7,0.5-0.7
		c0.7-0.2,1.1,0.1,1.2,0.7c0,0.2,0,0.4,0,0.6c0,0.1,0,0.2,0,0.3c0,0.3,0,0.6,0,0.9c0,0.2,0,0.5,0,0.7c0,1.1,0.2,1.7,0.7,2
		c0.5,0.2,1.1,0,1.7-0.7s1.1-1.2,1.3-1.6s0.3-0.5,0.4-0.3C267.7,68.6,267.6,69,267.4,69.4z M263.4,63.2c-0.1,0.1-0.2,0.1-0.4,0.2
		c-0.1,0-0.3,0-0.4,0c-0.1-0.1-0.1-0.2-0.2-0.3c0-0.1,0-0.2,0-0.4c0,0,0-0.1,0-0.1c0-0.1,0-0.3,0.1-0.4c0.1-0.4,0.5-0.5,0.9-0.5
		c0.2,0,0.3,0.1,0.4,0.2c0.1,0.1,0.1,0.2,0.1,0.4C263.9,62.6,263.7,62.9,263.4,63.2z"/>
	<path class="st1" d="M279.1,68.6c0.4-0.4,0.6-0.5,0.5-0.3c-0.1,0.2-0.3,0.6-0.7,1.1c-0.4,0.5-0.9,1.1-1.5,1.7s-1.2,1.1-1.9,1.6
		s-1.3,0.7-1.9,0.7c-0.7,0-1.3-0.2-1.8-0.6c-0.4-0.4-0.8-1-0.9-1.7c-0.2-0.7-0.3-1.5-0.2-2.3c0-0.9,0.1-1.9,0.1-2.8
		c0-0.5,0-0.9,0-1.4c0-0.7,0.1-1.5,0.1-2.2c0-0.2,0-0.4-0.1-0.6c-0.1-0.2-0.3-0.2-0.5-0.3c-0.3,0-0.6,0-1,0c-0.3,0-0.6,0-0.9,0
		c-0.3,0-0.6-0.1-0.7-0.3s0-0.3,0.3-0.4c0.2-0.1,0.5-0.1,0.8-0.1c0.3,0,0.6,0,0.9,0c0.2,0,0.3,0,0.5,0c0.4,0,0.7-0.1,0.8-0.2
		c0.1-0.1,0.2-0.4,0.2-0.8c0-0.4,0.1-0.9,0.1-1.3c0-0.2,0-0.5,0-0.7c0-0.3,0.1-0.7,0.3-0.9c0.2-0.3,0.4-0.4,0.7-0.3
		c0.3,0.1,0.4,0.2,0.4,0.5c0,0.4,0,0.9,0,1.3c0,0.2,0,0.5,0,0.7c0,0.3,0,0.5,0,0.8c0,0.4,0,0.6,0.1,0.7c0.1,0.1,0.4,0.1,0.8,0.1
		c0.7,0,1.4,0,2,0c0.3,0,1.2,0,2.7-0.1c1.5,0,2.3,0.1,2.4,0.4s-0.8,0.4-2.8,0.5c-1.2,0.1-2.1,0.1-2.8,0.1c-0.4,0-0.8,0-1.2,0
		c-0.6,0-1,0.1-1.1,0.3c-0.1,0.2-0.2,0.6-0.2,1.3c0,0.5,0,1.2-0.1,1.9c-0.1,1.6-0.1,3.2-0.1,4.8c0,1.1,0.2,1.8,0.6,2.2
		s0.8,0.4,1.4,0.2c0.6-0.2,1.2-0.6,1.9-1.1c0.7-0.5,1.3-1.1,2-1.7c0.1-0.2,0.3-0.4,0.5-0.5C278.9,68.7,279,68.6,279.1,68.6z"/>
	<path class="st1" d="M293.5,68.6c0.2-0.1,0.3-0.2,0.5-0.2c0.2,0,0.3,0,0.3,0c0,0.1,0,0.2-0.2,0.4c-0.6,0.6-1.2,1.2-2,1.8
		c-0.8,0.5-1.6,1-2.4,1.4c-0.6,0.3-1.3,0.5-2.1,0.7c-0.7,0.2-1.4,0.2-2.1,0.1c-0.7-0.1-1.3-0.4-1.9-0.9c-0.9-0.8-1.2-1.8-1.1-3
		c0.1-0.9,0.5-1.7,1.1-2.4c0.6-0.7,1.4-1.1,2.3-1.3c0.8-0.2,1.5-0.2,2.3,0c0.3,0,0.7,0.2,0.9,0.3c0.3,0.2,0.4,0.4,0.4,0.7
		c0,0.3-0.1,0.5-0.3,0.8c-0.5,0.4-1,0.7-1.7,0.8c-0.7,0.1-1.4,0.2-2.1,0.2c-0.3,0-0.6,0.1-0.7,0.2c-0.1,0.1-0.2,0.4-0.2,0.7
		c-0.1,0.9,0.2,1.7,0.9,2.3c0.4,0.3,1,0.5,1.6,0.4c0.6,0,1.3-0.2,2-0.5c0.7-0.3,1.4-0.6,2.1-1c0.7-0.4,1.3-0.8,1.9-1.1
		C293.1,68.8,293.3,68.7,293.5,68.6z M285.6,66.5C285.6,66.6,285.6,66.6,285.6,66.5c-0.1,0.1-0.1,0.1-0.1,0.1c0,0-0.1,0.1-0.1,0.1
		c0,0-0.1,0.1-0.1,0.1c0,0,0.2,0.1,0.4,0c0.3,0,0.5-0.1,0.8-0.1c0.3-0.1,0.6-0.2,0.8-0.3c0.2-0.1,0.3-0.2,0.2-0.4
		c0,0-0.1-0.1-0.1-0.1c-0.1,0-0.1-0.1-0.2-0.1c-0.3,0-0.6,0.1-0.8,0.2S285.8,66.4,285.6,66.5z"/>
	<path class="st1" d="M317.8,68.3c0.3,0,0.3,0.1,0.1,0.4c-0.2,0.2-0.5,0.6-0.9,0.9s-0.9,0.8-1.3,1.2c-0.6,0.5-1.2,1-1.6,1.4
		c-0.4,0.4-0.8,0.9-1.1,1.6c-0.3,0.7-0.4,1.3-0.4,1.9c0,0.3,0,0.7,0,1.1c0,0.8,0,1.9,0,3.1c0,1.2-0.1,2.4-0.2,3.7
		c-0.1,1.3-0.3,2.5-0.6,3.6c-0.3,1.1-0.7,2-1.3,2.7c-0.6,0.7-1.3,1.1-2.2,1.2c-1.7,0-2.8-0.6-3.5-2.1c-0.5-1.2-0.6-2.5-0.5-3.7
		c0.2-1.3,0.5-2.5,1.1-3.7c0.6-1.2,1.2-2.3,1.9-3.3c0.7-1,1.4-1.9,2-2.6c0.6-0.7,1.1-1.2,1.3-1.4c0.1-0.4,0.2-0.8,0.2-1.3s0-1,0-1.4
		c0-0.1,0-0.3,0-0.4c-0.3,0.5-0.7,0.9-1,1.1c-0.4,0.2-0.7,0.3-1.1,0.3c-0.4,0-0.7,0-1,0c0,0-0.1,0-0.1,0c-0.7-0.1-1.3-0.4-1.7-1
		c-0.4-0.6-0.7-1.3-0.8-2c-0.1-0.8-0.1-1.4,0.1-2c0.2-0.6,0.5-0.9,1-1c0.2,0,0.4-0.1,0.7-0.1s0.5,0,0.6,0.1s0.2,0.2,0.2,0.4
		c-0.1,0.6-0.2,1.3-0.3,2c0,0.7,0,1.3,0.2,1.9s0.4,0.8,0.8,0.9c0.4,0,0.9-0.3,1.5-1c0.3-0.4,0.5-0.8,0.6-1.2
		c0.1-0.4,0.2-0.8,0.3-1.3c0-0.2,0-0.3,0.1-0.5c0-0.2,0-0.3,0.1-0.5c0-0.2,0-0.4,0.1-0.6c0.1-0.3,0.3-0.6,0.6-0.7
		c0.3-0.1,0.6-0.1,1,0c0.2,0.1,0.3,0.2,0.3,0.4c0,0.4,0,0.8,0,1.1c0,1.3,0,3,0,5c0,0,0.2-0.2,0.5-0.4c0.4-0.4,0.9-0.8,1.5-1.3
		s1.2-1,1.7-1.4C317.3,68.5,317.6,68.3,317.8,68.3z M310.5,79.8c0-0.2,0-0.4,0-0.6c0-0.7,0-1.4,0.1-2.2c0,0,0-0.1,0-0.1
		c0,0-0.1-0.1-0.1-0.1c-0.1-0.1-0.2-0.1-0.2,0c-0.1,0-0.1,0.1-0.2,0.1c-0.7,0.9-1.4,1.9-2,3.1c-0.6,1.1-1.1,2.3-1.4,3.5
		s-0.5,2.4-0.4,3.6c0,0.7,0.3,1.4,0.7,2c0.5,0.7,0.9,0.9,1.3,0.7c0.4-0.2,0.7-0.7,0.9-1.4c0.3-0.8,0.5-1.6,0.6-2.7
		c0.2-1,0.3-2,0.4-3c0.1-1,0.2-1.8,0.2-2.4C310.4,80.2,310.4,80,310.5,79.8z"/>
	<path class="st1" d="M329.4,67.8c0.1-0.1,0.2,0,0.2,0.4c0,0.4-0.3,0.9-1.1,1.6s-1.5,1-2.2,1c-0.2,0-0.3,0-0.4,0
		c-0.1,0-0.2,0.1-0.3,0.3c-0.1,0.1-0.2,0.3-0.3,0.4l0,0c-0.5,0.5-1,0.8-1.6,1c-0.6,0.2-1.2,0.1-1.8-0.1c-0.6-0.3-1-0.7-1.2-1.5
		c-0.2-0.6-0.2-1.3,0-1.9c0.1-0.6,0.3-1.1,0.6-1.6c0.3-0.7,0.8-1.1,1.4-1.4c0.6-0.3,1.2-0.4,1.9-0.5c1,0,1.7,0.4,2,1.5
		c0.2,0.6,0.2,1.2,0.1,1.8c0,0.1,0,0.3-0.1,0.4c0,0.1-0.1,0.2-0.1,0.3c0,0.3,0.1,0.5,0.4,0.4C327.6,69.9,328.5,69.2,329.4,67.8z
		 M323.2,71.7c0.5-0.2,0.9-0.7,1.1-1.3c-0.9-0.6-1.5-1.4-1.8-2.4c-0.3,0.5-0.5,1.1-0.5,1.7c-0.1,0.7,0,1.2,0.2,1.6
		C322.4,71.8,322.8,71.9,323.2,71.7z M324.7,69.3c0.1-0.2,0.2-0.5,0.3-0.8c0-0.3,0-0.6,0-0.9c-0.1-0.3-0.1-0.5-0.2-0.7
		c-0.1-0.2-0.2-0.2-0.3-0.2c-0.2,0.2-0.3,0.4-0.3,0.8c0,0.3,0,0.7,0.1,1C324.3,68.8,324.5,69.1,324.7,69.3z"/>
	<path class="st1" d="M344.5,68.3c0.2,0,0.1,0.2-0.1,0.7c-0.2,0.4-0.6,0.9-1.1,1.5c-0.5,0.6-1.1,1.1-1.7,1.5s-1.3,0.6-1.9,0.6
		c-0.5,0-0.8-0.2-1-0.4c-0.2-0.2-0.4-0.5-0.5-0.8s-0.1-0.5-0.1-0.7c0-0.1,0-0.3-0.1-0.3c0-0.1-0.1-0.1-0.1,0
		c-0.5,1.1-1.3,1.7-2.5,1.7c-0.7,0-1.2-0.3-1.6-0.9c-0.4-0.6-0.7-1.3-0.8-2.2c-0.1-0.9,0-1.8,0.3-2.7c0.1-0.3,0.2-0.5,0.5-0.6
		c0.2-0.1,0.4-0.1,0.7,0c0.2,0.1,0.3,0.2,0.4,0.4c0,0.2,0,0.4,0,0.6c0,0.1-0.1,0.3-0.1,0.4c0,0.5,0,1.1,0,1.8s0.2,1.2,0.5,1.7
		c0.3,0.4,0.6,0.4,0.9,0.1c0.3-0.3,0.7-0.7,0.9-1.3c0.2-0.5,0.4-0.9,0.5-1.4c0.1-0.5,0.2-0.8,0.2-1.1c0-0.1,0-0.2,0-0.2
		c0-0.2,0.1-0.4,0.1-0.6c0.1-0.3,0.2-0.6,0.2-0.8c0.1-0.5,0.5-0.7,1.1-0.6c0.3,0,0.5,0.2,0.6,0.5c0,0.4,0,0.9,0,1.3
		c0,0.4,0,0.9-0.1,1.3c0,0.6-0.1,1.3-0.1,1.9c0,0.9,0.2,1.4,0.5,1.6c0.4,0.1,0.8,0.1,1.4-0.3c0.5-0.3,1.1-0.8,1.6-1.4
		c0,0,0.1-0.1,0.2-0.2c0.1-0.1,0.2-0.3,0.4-0.4c0.1-0.2,0.3-0.3,0.4-0.4S344.4,68.4,344.5,68.3z"/>
	<path class="st1" d="M363.7,68.6c0.4-0.4,0.6-0.5,0.5-0.3c-0.1,0.2-0.3,0.6-0.7,1.1c-0.4,0.5-0.9,1.1-1.5,1.7s-1.2,1.1-1.9,1.6
		s-1.3,0.7-1.9,0.7c-0.7,0-1.3-0.2-1.8-0.6c-0.4-0.4-0.8-1-0.9-1.7c-0.2-0.7-0.3-1.5-0.2-2.3c0-0.9,0.1-1.9,0.1-2.8
		c0-0.5,0-0.9,0-1.4c0-0.7,0.1-1.5,0.1-2.2c0-0.2,0-0.4-0.1-0.6c-0.1-0.2-0.3-0.2-0.5-0.3c-0.3,0-0.6,0-1,0c-0.3,0-0.6,0-0.9,0
		c-0.3,0-0.6-0.1-0.7-0.3s0-0.3,0.3-0.4c0.2-0.1,0.5-0.1,0.8-0.1c0.3,0,0.6,0,0.9,0c0.2,0,0.3,0,0.5,0c0.4,0,0.7-0.1,0.8-0.2
		c0.1-0.1,0.2-0.4,0.2-0.8c0-0.4,0.1-0.9,0.1-1.3c0-0.2,0-0.5,0-0.7c0-0.3,0.1-0.7,0.3-0.9c0.2-0.3,0.4-0.4,0.7-0.3
		c0.3,0.1,0.4,0.2,0.4,0.5c0,0.4,0,0.9,0,1.3c0,0.2,0,0.5,0,0.7c0,0.3,0,0.5,0,0.8c0,0.4,0,0.6,0.1,0.7c0.1,0.1,0.4,0.1,0.8,0.1
		c0.7,0,1.4,0,2,0c0.3,0,1.2,0,2.7-0.1c1.5,0,2.3,0.1,2.4,0.4s-0.8,0.4-2.8,0.5c-1.2,0.1-2.1,0.1-2.8,0.1c-0.4,0-0.8,0-1.2,0
		c-0.6,0-1,0.1-1.1,0.3c-0.1,0.2-0.2,0.6-0.2,1.3c0,0.5,0,1.2-0.1,1.9c-0.1,1.6-0.1,3.2-0.1,4.8c0,1.1,0.2,1.8,0.6,2.2
		s0.8,0.4,1.4,0.2c0.6-0.2,1.2-0.6,1.9-1.1c0.7-0.5,1.3-1.1,2-1.7c0.1-0.2,0.3-0.4,0.5-0.5C363.5,68.7,363.6,68.6,363.7,68.6z"/>
	<path class="st1" d="M375.9,67.8c0.1-0.1,0.2,0,0.2,0.4c0,0.4-0.3,0.9-1.1,1.6s-1.5,1-2.2,1c-0.2,0-0.3,0-0.4,0
		c-0.1,0-0.2,0.1-0.3,0.3c-0.1,0.1-0.2,0.3-0.3,0.4l0,0c-0.5,0.5-1,0.8-1.6,1c-0.6,0.2-1.2,0.1-1.8-0.1c-0.6-0.3-1-0.7-1.2-1.5
		c-0.2-0.6-0.2-1.3,0-1.9c0.1-0.6,0.3-1.1,0.6-1.6c0.3-0.7,0.8-1.1,1.4-1.4c0.6-0.3,1.2-0.4,1.9-0.5c1,0,1.7,0.4,2,1.5
		c0.2,0.6,0.2,1.2,0.1,1.8c0,0.1,0,0.3-0.1,0.4c0,0.1-0.1,0.2-0.1,0.3c0,0.3,0.1,0.5,0.4,0.4C374.1,69.9,375,69.2,375.9,67.8z
		 M369.7,71.7c0.5-0.2,0.9-0.7,1.1-1.3c-0.9-0.6-1.5-1.4-1.8-2.4c-0.3,0.5-0.5,1.1-0.5,1.7c-0.1,0.7,0,1.2,0.2,1.6
		C368.9,71.8,369.2,71.9,369.7,71.7z M371.2,69.3c0.1-0.2,0.2-0.5,0.3-0.8c0-0.3,0-0.6,0-0.9c-0.1-0.3-0.1-0.5-0.2-0.7
		c-0.1-0.2-0.2-0.2-0.3-0.2c-0.2,0.2-0.3,0.4-0.3,0.8c0,0.3,0,0.7,0.1,1C370.8,68.8,371,69.1,371.2,69.3z"/>
	<path class="st1" d="M395.7,68.4c0.1,0,0.2,0.1,0.1,0.2s-0.1,0.2-0.2,0.2c-0.2,0.2-0.5,0.4-0.7,0.6c-0.8,0.7-1.6,1.4-2.4,2.1
		c-0.8,0.7-1.6,1.5-2.4,2.3c-0.5,0.5-0.9,1-1.2,1.3c-0.2,0.3-0.4,0.6-0.4,1c-0.1,0.4-0.1,0.9-0.1,1.7c-0.1,3.1-0.4,6.2-0.9,9.2
		c-0.2,1-0.5,2-0.9,3c-0.2,0.5-0.5,1-0.9,1.5c-0.4,0.4-0.9,0.6-1.5,0.6c-0.8,0-1.3-0.3-1.6-0.9c-0.3-0.6-0.5-1.2-0.5-1.9
		c-0.1-1.1-0.1-2.2,0.1-3.3c0.1-1.1,0.4-2.1,0.7-3.2c0.7-2.4,1.8-4.6,3.5-6.5c0.5-0.6,0.8-1.4,0.7-2.1c0.1-2,0.1-4,0.2-6
		c0-0.6,0.1-1.3,0.1-1.9c0-0.3,0-0.5,0.1-0.8c0.1-0.3,0.3-0.5,0.7-0.5c0.3,0,0.6,0.1,0.6,0.4c0.1,0.4,0.2,0.9,0.2,1.4
		c0,0.5,0,0.9,0,1.4c0,0.4,0,0.8-0.1,1.2c-0.1,1-0.1,2.1-0.1,3.3c0,0,0,0.1,0.1,0.1c0,0,0.1,0.1,0.1,0.1s0.1,0,0.2,0
		c0.1-0.1,0.2-0.2,0.3-0.3c0.2-0.2,0.4-0.3,0.6-0.5c0.3-0.3,0.9-0.8,1.7-1.4s1.6-1.2,2.4-1.7C394.9,68.6,395.4,68.4,395.7,68.4z
		 M385.6,87.9c0.4-1.6,0.6-3.4,0.8-5.3s0.3-3.7,0.4-5.4c-0.6,0.6-1.1,1.4-1.5,2.4s-0.8,2.1-1.1,3.3s-0.5,2.3-0.6,3.4
		s-0.2,1.9-0.2,2.4c0,1.2,0.2,2,0.4,2.1c0.3,0.2,0.6,0,0.9-0.6C385.1,89.7,385.4,88.9,385.6,87.9z M388.4,62.8
		c-0.3,0-0.5-0.1-0.6-0.3c-0.1-0.2-0.1-0.4,0.1-0.6c0.2-0.2,0.4-0.3,0.7-0.3c0.3,0,0.5,0,0.7,0.2c0,0,0.1,0.1,0.1,0.1
		c0,0,0,0.1,0,0.1c0,0,0,0,0,0.1c0,0,0,0.1-0.1,0.1C389.1,62.6,388.8,62.8,388.4,62.8z"/>
	<path class="st1" d="M407.2,67.8c0.1-0.1,0.2,0,0.2,0.4c0,0.4-0.3,0.9-1.1,1.6s-1.5,1-2.2,1c-0.2,0-0.3,0-0.4,0
		c-0.1,0-0.2,0.1-0.3,0.3c-0.1,0.1-0.2,0.3-0.3,0.4l0,0c-0.5,0.5-1,0.8-1.6,1c-0.6,0.2-1.2,0.1-1.8-0.1c-0.6-0.3-1-0.7-1.2-1.5
		c-0.2-0.6-0.2-1.3,0-1.9c0.1-0.6,0.3-1.1,0.6-1.6c0.3-0.7,0.8-1.1,1.4-1.4c0.6-0.3,1.2-0.4,1.9-0.5c1,0,1.7,0.4,2,1.5
		c0.2,0.6,0.2,1.2,0.1,1.8c0,0.1,0,0.3-0.1,0.4c0,0.1-0.1,0.2-0.1,0.3c0,0.3,0.1,0.5,0.4,0.4C405.5,69.9,406.3,69.2,407.2,67.8z
		 M401,71.7c0.5-0.2,0.9-0.7,1.1-1.3c-0.9-0.6-1.5-1.4-1.8-2.4c-0.3,0.5-0.5,1.1-0.5,1.7c-0.1,0.7,0,1.2,0.2,1.6
		C400.3,71.8,400.6,71.9,401,71.7z M402.6,69.3c0.1-0.2,0.2-0.5,0.3-0.8c0-0.3,0-0.6,0-0.9c-0.1-0.3-0.1-0.5-0.2-0.7
		c-0.1-0.2-0.2-0.2-0.3-0.2c-0.2,0.2-0.3,0.4-0.3,0.8c0,0.3,0,0.7,0.1,1C402.2,68.8,402.3,69.1,402.6,69.3z"/>
	<path class="st1" d="M417.6,67.9c-0.1,0.2-0.2,0.3-0.3,0.5c-0.7,1.3-1.4,2.2-2,2.8s-1.2,1-2,1.1c-0.7,0.1-1.4-0.2-2.1-0.9
		c-0.2-0.3-0.4-0.6-0.5-1c-0.1-0.4-0.2-0.7-0.1-1.1V69c0-0.4,0-0.8,0-1.3c0-0.5,0.1-1,0.2-1.4c0.1-0.4,0.3-0.7,0.5-0.7
		c0.7-0.2,1.1,0.1,1.2,0.7c0,0.2,0,0.4,0,0.6c0,0.1,0,0.2,0,0.3l0,0.9c0,0.2,0,0.5,0,0.7c0,1.1,0.2,1.7,0.7,2c0.5,0.2,1.1-0.1,1.8-1
		c0.7-0.9,1.3-1.9,2-3.1c0.2-0.4,0.4-0.7,0.5-0.9c0.1-0.2,0.2-0.3,0.3-0.4c0.2-0.1,0.4-0.1,0.6-0.1c0.2,0,0.3,0,0.5,0.1
		c0.1,0.1,0.2,0.3,0.3,0.6c0,0.1,0,0.2,0,0.3c0,0,0,0.1,0,0.1c0,0.2,0,0.4,0,0.6c0,0.2,0,0.4,0,0.5c0,0.1,0.1,0.1,0.2,0
		c0.1-0.1,0.3-0.3,0.5-0.7c0.4-0.7,1-1.2,1.6-1.7c0.6-0.4,1.2-0.6,1.9-0.5c0.6,0.1,1,0.4,1.2,0.9c0.1,0.3,0.1,0.6,0.1,0.9
		c0,0.3,0,0.6,0,0.9c0,0.3,0,0.6-0.1,0.9l0,0.3c-0.1,1.1-0.1,1.8,0.1,2.2s0.4,0.5,0.8,0.4c0.3-0.1,0.8-0.6,1.4-1.6
		c0.6-0.9,0.9-1.5,1-1.8c0.1-0.2,0.2-0.2,0.3,0c0.1,0.3-0.1,0.9-0.6,1.8c-0.4,1-1,1.7-1.6,2.2s-1.3,0.7-1.8,0.6s-1-0.5-1.2-1.2
		c-0.2-0.6-0.3-1.5-0.2-2.4c0,0,0-0.1,0-0.1c0-0.2,0-0.4,0.1-0.7c0-0.3,0.1-0.7,0.1-1s0-0.6,0-0.9c0-0.2-0.1-0.3-0.3-0.2
		c-0.4,0.2-0.8,0.6-1.2,1.3c-0.4,0.6-0.7,1.3-1,2c-0.3,0.7-0.5,1.3-0.7,1.7c0,0.1-0.1,0.3-0.1,0.4c-0.1,0.2-0.1,0.4-0.2,0.6
		c-0.2,0.6-0.6,0.8-1.1,0.6c-0.3-0.1-0.5-0.2-0.5-0.5c0-0.2,0-0.5,0-0.7c0-0.1,0-0.3,0-0.4C417.7,70,417.7,68.9,417.6,67.9z
		 M412.5,63.2c-0.1,0.1-0.2,0.1-0.4,0.2c-0.1,0-0.3,0-0.4,0c-0.1-0.1-0.1-0.2-0.2-0.3c0-0.1,0-0.2,0-0.4c0,0,0-0.1,0-0.1
		c0-0.1,0-0.3,0.1-0.4c0.1-0.4,0.5-0.5,0.9-0.5c0.2,0,0.3,0.1,0.4,0.2c0.1,0.1,0.1,0.2,0.1,0.4C413,62.6,412.8,62.9,412.5,63.2z"/>
	<path class="st1" d="M451,68.1c-0.2,0.3-0.4,0.6-0.6,1c-1.1,1.7-2.1,2.7-2.8,3c-0.7,0.3-1.3,0.4-1.7,0.3s-0.8-0.4-1.1-0.8
		c-0.3-0.4-0.5-0.8-0.6-1.2c-0.5,1.1-1.3,1.7-2.5,1.7c-0.7,0-1.2-0.3-1.6-0.9c-0.4-0.6-0.7-1.3-0.8-2.2c-0.1-0.9,0-1.8,0.3-2.7
		c0.1-0.3,0.2-0.5,0.5-0.6c0.2-0.1,0.4-0.1,0.7,0c0.2,0.1,0.3,0.2,0.4,0.4c0,0.2,0,0.4,0,0.6c0,0.1-0.1,0.3-0.1,0.4
		c0,0.5,0,1.1,0,1.8c0.1,0.6,0.2,1.2,0.5,1.7c0.3,0.4,0.6,0.4,0.9,0.1c0.3-0.3,0.7-0.7,0.9-1.3c0.2-0.5,0.4-0.9,0.5-1.4
		c0.1-0.5,0.2-0.8,0.2-1.1l0.1-0.2c0-0.2,0.1-0.4,0.1-0.6c0.1-0.3,0.2-0.6,0.2-0.8c0.1-0.5,0.5-0.7,1.1-0.6c0.3,0,0.5,0.2,0.6,0.5
		c0,0.4,0,0.9,0,1.3c0,0.4,0,0.9-0.1,1.3c0,0.6-0.1,1.3-0.1,1.9c0,0.9,0.4,1.3,1.1,1.1c0.8-0.2,1.8-1.3,3-3.3
		c0.1-0.2,0.2-0.4,0.2-0.7c0-0.3,0.2-0.6,0.4-0.9c0.3-0.4,0.8-0.6,1.4-0.7c0.3,0,0.6,0,0.9,0s0.6,0.2,0.8,0.4c0.1,0,0.1,0.1,0.1,0.2
		c0,0.1,0,0.1,0,0.2c-0.1,0.1-0.2,0.2-0.4,0.2c-0.1,0-0.2,0-0.3,0c-0.1,0-0.2-0.1-0.3-0.1l-0.2-0.1c-0.2-0.1-0.4-0.1-0.5,0
		c-0.1,0.1-0.2,0.3-0.2,0.5c0,0.4,0.2,0.8,0.5,1.2c0.3,0.4,0.6,0.8,0.9,1.2c0.1,0.1,0.2,0.3,0.3,0.4c0.1,0.1,0.3,0.1,0.7,0
		c0.4-0.1,1-0.4,2-0.9c0.9-0.5,1.4-0.7,1.4-0.5c0,0.2-0.4,0.5-1.1,0.9c-0.7,0.4-1.3,0.8-1.6,1c-0.3,0.2-0.5,0.4-0.5,0.4
		c0.1,0.1,0.1,0.4,0.2,0.8c0.1,0.4,0.1,0.7,0.1,1.2c0,0.4-0.2,0.8-0.4,1.1c-0.2,0.3-0.7,0.5-1.2,0.6c-0.6,0-1.1,0-1.6-0.3
		c-0.5-0.2-0.7-0.5-0.9-1c-0.1-0.4,0-0.9,0.4-1.5c0.3-0.3,0.6-0.6,0.9-0.8c0.1-0.1,0.3-0.2,0.4-0.3c-0.4-0.5-0.9-1-1.3-1.5
		C451.2,68.3,451.1,68.2,451,68.1z M452.8,72.9c0.2,0,0.4-0.1,0.4-0.4c0.1-0.2,0.1-0.5,0.1-0.7c0-0.3,0-0.5,0-0.6
		c0-0.1-0.1-0.1-0.2-0.2c-0.1,0-0.1,0-0.2,0c-0.2,0.2-0.4,0.4-0.5,0.7c-0.1,0.3-0.1,0.6,0,0.8c0,0.1,0.1,0.2,0.2,0.2
		C452.6,72.9,452.7,72.9,452.8,72.9z"/>
	<path class="st1" d="M481.5,65.6c0.2-0.2,0.6-0.4,1.1-0.4c0.3,0,0.7,0,1,0c0.3,0.1,0.6,0.2,0.8,0.4c0.1,0,0.1,0.1,0.1,0.2
		c0,0.1,0,0.1,0,0.2c-0.1,0.1-0.2,0.2-0.4,0.2c-0.1,0-0.2,0-0.3,0c-0.1,0-0.2-0.1-0.3-0.1l-0.2-0.1c-0.2-0.1-0.4-0.1-0.5,0
		c-0.1,0.1-0.2,0.3-0.2,0.5c0,0.4,0.2,0.8,0.5,1.2c0.3,0.4,0.6,0.8,0.9,1.2c0.1,0.1,0.2,0.3,0.3,0.4c0.1,0.1,0.3,0.1,0.7,0
		c0.4-0.1,1-0.4,2-0.9c0.9-0.5,1.4-0.7,1.4-0.5c0,0.2-0.4,0.5-1.1,0.9c-0.7,0.4-1.3,0.8-1.6,1c-0.3,0.2-0.5,0.4-0.5,0.4
		c0.1,0.1,0.1,0.4,0.2,0.8c0.1,0.4,0.1,0.7,0.1,1.2s-0.1,0.8-0.4,1.1c-0.2,0.3-0.7,0.5-1.2,0.6c-0.6,0-1.1,0-1.6-0.3
		c-0.5-0.2-0.7-0.5-0.9-1c-0.1-0.4,0-0.9,0.4-1.5c0.3-0.3,0.6-0.6,0.9-0.8c0.1-0.1,0.3-0.2,0.4-0.3c-0.4-0.5-0.9-1-1.3-1.5
		c-0.2-0.2-0.3-0.4-0.4-0.6c-0.5,0.9-1,1.6-1.5,2.2c-0.8,1-1.6,1.6-2.2,1.9c-0.7,0.2-1.4,0.2-2-0.1s-1-1.1-1.1-2.4
		c-0.8,1.5-1.5,2.4-2.2,2.8c-0.7,0.4-1.4,0.6-2.1,0.5c-0.9-0.1-1.4-0.5-1.7-1c-0.3-0.5-0.4-1.1-0.3-1.8s0.3-1.3,0.6-2
		c0.2-0.5,0.6-0.9,1-1.3s0.9-0.7,1.4-0.9c0.6-0.3,1.2-0.4,1.8-0.4c0.6,0,1.2,0.2,1.9,0.6c0,0,0,0,0,0c0-0.1,0-0.1,0.1-0.2
		s0.1-0.2,0.2-0.2c0.2-0.2,0.5-0.2,0.8-0.2c0.3,0,0.6,0.2,0.7,0.5c0,0.4,0,0.9-0.1,1.5c-0.2,1.4-0.2,2.3,0,2.9s0.8,0.6,1.5,0.1
		c0.7-0.5,1.7-1.8,3-4.1C481.1,66,481.2,65.8,481.5,65.6z M470.3,71.4c0.3,0.2,0.7,0.2,1.2-0.1c0.4-0.3,0.9-0.8,1.3-1.3
		c0.4-0.6,0.8-1.2,1.1-1.7c0.3-0.6,0.4-1,0.5-1.3c-0.8-0.4-1.6-0.5-2.2-0.2s-1.1,0.8-1.4,1.5c-0.3,0.7-0.6,1.3-0.6,2
		C470,70.8,470.1,71.2,470.3,71.4z M483.1,72.9c0.2,0,0.4-0.1,0.4-0.4c0.1-0.2,0.1-0.5,0.1-0.7c0-0.3,0-0.5-0.1-0.6
		c0-0.1-0.1-0.1-0.2-0.2c-0.1,0-0.2,0-0.2,0c-0.2,0.2-0.4,0.4-0.5,0.7c-0.1,0.3-0.1,0.6,0,0.8c0,0.1,0.1,0.2,0.2,0.2
		C483,72.9,483,72.9,483.1,72.9z"/>
	<path class="st1" d="M262.8,103c-0.2,0.3-0.7,0.5-1.2,0.5c-0.6,0.1-1.1-0.2-1.6-0.7c0,0.3-0.1,0.5-0.1,0.8
		c-0.1,0.5-0.2,1.1-0.3,1.6c-0.1,0.6-0.3,1.1-0.6,1.7c-0.4,0.6-0.9,1-1.5,1.2c-0.6,0.2-1.2,0.2-1.7,0.1c-0.5-0.1-1-0.4-1.3-0.8
		l-0.4-0.6c0-0.1-0.1-0.2-0.2-0.2c-0.1,0-0.2,0.1-0.3,0.1c-0.1,0.1-0.2,0.2-0.2,0.2s-0.1,0.1-0.2,0.2c-0.6,0.4-1.2,0.6-1.7,0.4
		c-0.6-0.1-1-0.5-1.3-1.2c-0.1-0.3-0.2-0.6-0.3-0.9c-0.1-0.6-0.2-1.2-0.3-1.8c0-0.6,0-1.2,0-1.9c0-0.4,0.2-0.6,0.4-0.7
		c0.3-0.1,0.5-0.1,0.8,0c0.3,0.1,0.4,0.4,0.4,0.8v0.8c0,1,0.1,1.9,0.3,2.8c0.1,0.2,0.1,0.4,0.2,0.6c0,0.1,0.1,0.2,0.2,0.2
		c0.1,0,0.2,0,0.2-0.1c0.2-0.3,0.4-0.7,0.6-1.1c0.1-0.4,0.2-0.8,0.3-1.3c0,0,0-0.1,0-0.1c0-0.2,0.1-0.4,0.1-0.6l0.1-0.7
		c0.1-0.4,0.5-0.6,1-0.5c0.5,0,0.7,0.3,0.7,0.7c0,1,0.1,1.9,0.3,2.8c0.1,0.3,0.2,0.7,0.3,1c0.1,0.3,0.3,0.6,0.6,0.9
		c0.3,0.2,0.5,0.2,0.8,0c0.4-0.4,0.7-0.9,0.8-1.4c0.3-1,0.5-2.1,0.4-3.2v-0.2c0-0.5,0-0.9,0-1.4c0-0.6,0.3-0.9,1-0.7
		c0.2,0,0.3,0.1,0.4,0.1s0.2,0.2,0.3,0.4c0.5,1.1,1.1,1.7,1.8,1.8c0.7,0.1,1.4-0.3,2.1-1.1c0.2-0.3,0.5-0.5,0.9-0.7
		c0.3-0.2,0.8-0.4,1.4-0.5c0.8-0.2,1.5-0.2,2.3,0c0.3,0,0.7,0.2,0.9,0.3c0.3,0.2,0.4,0.4,0.4,0.7c0,0.3-0.1,0.5-0.3,0.8
		c-0.5,0.4-1,0.7-1.7,0.8c-0.7,0.1-1.4,0.2-2.1,0.2c-0.3,0-0.6,0.1-0.7,0.2c-0.1,0.1-0.2,0.4-0.2,0.7c-0.1,0.9,0.2,1.7,0.9,2.3
		c0.4,0.3,1,0.5,1.6,0.4c0.6-0.1,1.3-0.2,2-0.5c0.7-0.3,1.4-0.6,2.1-1c0.7-0.4,1.3-0.8,1.9-1.1c0.2-0.1,0.4-0.3,0.6-0.4
		c0.2-0.1,0.3-0.2,0.5-0.2c0.2,0,0.3,0,0.3,0c0,0.1,0,0.2-0.2,0.4c-0.6,0.6-1.2,1.2-2,1.8c-0.8,0.5-1.6,1-2.4,1.4
		c-0.6,0.3-1.3,0.5-2.1,0.7c-0.7,0.2-1.4,0.2-2.1,0.1c-0.7-0.1-1.3-0.4-1.9-0.9c-0.9-0.8-1.2-1.8-1.1-3
		C262.6,103.7,262.7,103.4,262.8,103z M265.8,101.5L265.8,101.5c-0.1,0.1-0.1,0.1-0.2,0.1c-0.1,0-0.1,0.1-0.1,0.1
		c0,0-0.1,0.1-0.1,0.1c0,0,0.2,0.1,0.4,0c0.2,0,0.5-0.1,0.8-0.1s0.6-0.2,0.8-0.3c0.2-0.1,0.3-0.2,0.2-0.4c0,0-0.1-0.1-0.1-0.1
		s-0.1-0.1-0.2-0.1c-0.3,0-0.6,0.1-0.8,0.2C266.3,101.2,266.1,101.4,265.8,101.5z"/>
	<path class="st1" d="M295.8,103.5c0.3-0.2,0.5-0.3,0.6-0.2c0.1,0.1,0,0.3-0.2,0.6c-0.7,0.8-1.5,1.6-2.5,2.3c-1,0.7-2,1.2-3,1.5
		c-0.6,0.2-1.3,0.3-2.1,0.3c-0.5,0-1-0.1-1.5-0.2c-1.1-0.4-1.8-1.1-1.9-2.3c-0.1-0.6,0-1.3,0.1-1.9c0.2-0.7,0.5-1.2,1-1.7
		c0.4-0.5,1-0.9,1.6-1.1c0.6-0.2,1.2-0.3,1.9-0.3c0.7,0.1,1.2,0.3,1.6,0.6c0.1,0.1,0.1,0.1,0.1,0.2s0,0.2,0,0.3
		c-0.1,0.3-0.2,0.4-0.4,0.4c-0.2,0-0.4-0.1-0.6-0.2c-0.2-0.1-0.4-0.2-0.6-0.3c-0.2-0.1-0.4-0.1-0.7,0c-0.6,0.1-1.2,0.4-1.6,1
		c-0.3,0.5-0.6,1.1-0.7,1.7c-0.1,0.6-0.1,1.2,0.1,1.6c0.3,0.5,0.7,0.8,1.3,0.8s1.3,0,2-0.2c0.8-0.2,1.5-0.5,2.3-0.9s1.4-0.7,2-1.1
		C295.1,104.1,295.5,103.8,295.8,103.5z"/>
	<path class="st1" d="M310.2,103.6c0.2-0.1,0.3-0.2,0.5-0.2c0.2,0,0.3,0,0.3,0c0,0.1,0,0.2-0.2,0.4c-0.6,0.6-1.2,1.2-2,1.8
		c-0.8,0.5-1.6,1-2.4,1.4c-0.6,0.3-1.3,0.5-2.1,0.7c-0.7,0.2-1.4,0.2-2.1,0.1c-0.7-0.1-1.3-0.4-1.9-0.9c-0.9-0.8-1.2-1.8-1.1-3
		c0.1-0.9,0.5-1.7,1.1-2.4c0.6-0.7,1.4-1.1,2.3-1.3c0.8-0.2,1.5-0.2,2.3,0c0.3,0,0.7,0.2,0.9,0.3c0.3,0.2,0.4,0.4,0.4,0.7
		c0,0.3-0.1,0.5-0.3,0.8c-0.5,0.4-1,0.7-1.7,0.8c-0.7,0.1-1.4,0.2-2.1,0.2c-0.3,0-0.6,0.1-0.7,0.2c-0.1,0.1-0.2,0.4-0.2,0.7
		c-0.1,0.9,0.2,1.7,0.9,2.3c0.4,0.3,1,0.5,1.6,0.4c0.6-0.1,1.3-0.2,2-0.5c0.7-0.3,1.4-0.6,2.1-1c0.7-0.4,1.3-0.8,1.9-1.1
		C309.8,103.8,310.1,103.7,310.2,103.6z M302.4,101.5C302.4,101.6,302.4,101.6,302.4,101.5c-0.1,0.1-0.1,0.1-0.1,0.1
		c0,0-0.1,0.1-0.1,0.1c0,0-0.1,0.1-0.1,0.1c0,0,0.2,0.1,0.4,0c0.3,0,0.5-0.1,0.8-0.1c0.3-0.1,0.6-0.2,0.8-0.3
		c0.2-0.1,0.3-0.2,0.2-0.4c0,0-0.1-0.1-0.1-0.1c-0.1,0-0.1-0.1-0.2-0.1c-0.3,0-0.6,0.1-0.8,0.2S302.6,101.4,302.4,101.5z"/>
	<path class="st1" d="M322.1,103.8c0.1-0.3,0.3-0.5,0.4-0.5s0.2,0.2,0.1,0.5c-0.2,0.8-0.5,1.5-0.9,2.2c-0.3,0.7-0.8,1.3-1.4,1.9
		c-0.4,0.4-1,0.7-1.6,0.9c-0.8,0.1-1.5,0-2.1-0.3c-0.6-0.3-1-0.8-1.3-1.4c-0.3-0.6-0.6-1.3-0.7-2c-0.2-0.7-0.3-1.4-0.3-2.1
		c-0.1-1.3-0.2-3-0.3-5.1c-0.1-2.1,0-4.3,0.1-6.6c0.1-2.3,0.3-4.5,0.7-6.5c0.4-2,0.9-3.5,1.6-4.6c0.4-0.5,0.9-0.8,1.4-0.8
		c0.5,0,1,0.2,1.4,0.7c0.3,0.4,0.5,0.8,0.6,1.2c0.1,0.4,0.2,0.9,0.3,1.3c0.1,1.5,0.1,3.1-0.1,4.8c-0.2,1.7-0.5,3.5-0.9,5.5
		c-0.4,1.9-0.9,3.6-1.5,5.1c-0.6,1.5-1,2.6-1.4,3.5c-0.2,0.3-0.3,0.9-0.2,1.6c0.1,0.8,0.2,1.6,0.4,2.4c0.2,0.8,0.5,1.5,0.9,2
		c0.4,0.4,0.8,0.5,1.3,0.4s0.9-0.5,1.4-0.9s0.9-1,1.2-1.6C321.7,104.7,321.9,104.2,322.1,103.8z M316.1,92.2c0,0.5-0.1,1.2-0.1,2.3
		c0,1-0.1,2-0.1,3.1c0,1.2-0.1,2.1-0.1,2.7c0.4-0.8,0.8-2,1.3-3.6c0.5-1.6,0.9-3.5,1.3-5.6c0.4-2.1,0.7-4.5,0.8-7
		c-0.1-1.5-0.2-2.5-0.5-3c-0.3-0.5-0.6-0.6-0.9-0.1s-0.6,1.3-0.8,2.7c-0.3,2.3-0.5,4.6-0.7,6.9C316.2,91.1,316.1,91.6,316.1,92.2z"
		/>
	<path class="st1" d="M336.5,103.6c0.2-0.1,0.3-0.2,0.5-0.2c0.2,0,0.3,0,0.3,0c0,0.1,0,0.2-0.2,0.4c-0.6,0.6-1.2,1.2-2,1.8
		c-0.8,0.5-1.6,1-2.4,1.4c-0.6,0.3-1.3,0.5-2.1,0.7c-0.7,0.2-1.4,0.2-2.1,0.1c-0.7-0.1-1.3-0.4-1.9-0.9c-0.9-0.8-1.2-1.8-1.1-3
		c0.1-0.9,0.5-1.7,1.1-2.4c0.6-0.7,1.4-1.1,2.3-1.3c0.8-0.2,1.5-0.2,2.3,0c0.3,0,0.7,0.2,0.9,0.3c0.3,0.2,0.4,0.4,0.4,0.7
		c0,0.3-0.1,0.5-0.3,0.8c-0.5,0.4-1,0.7-1.7,0.8c-0.7,0.1-1.4,0.2-2.1,0.2c-0.3,0-0.6,0.1-0.7,0.2c-0.1,0.1-0.2,0.4-0.2,0.7
		c-0.1,0.9,0.2,1.7,0.9,2.3c0.4,0.3,1,0.5,1.6,0.4c0.6-0.1,1.3-0.2,2-0.5c0.7-0.3,1.4-0.6,2.1-1c0.7-0.4,1.3-0.8,1.9-1.1
		C336.2,103.8,336.4,103.7,336.5,103.6z M328.7,101.5C328.7,101.6,328.7,101.6,328.7,101.5c-0.1,0.1-0.1,0.1-0.1,0.1
		c0,0-0.1,0.1-0.1,0.1c0,0-0.1,0.1-0.1,0.1c0,0,0.2,0.1,0.4,0c0.3,0,0.5-0.1,0.8-0.1c0.3-0.1,0.6-0.2,0.8-0.3
		c0.2-0.1,0.3-0.2,0.2-0.4c0,0-0.1-0.1-0.1-0.1c-0.1,0-0.1-0.1-0.2-0.1c-0.3,0-0.6,0.1-0.8,0.2S328.9,101.4,328.7,101.5z"/>
	<path class="st1" d="M347.9,104.9c-0.2,0.5-0.5,0.9-0.7,1.2c-0.6,0.7-1.4,1.2-2.2,1.4c-0.8,0.2-1.6,0.1-2.2-0.1c0,0,0,0,0,0
		c-0.2-0.1-0.3-0.1-0.5-0.2s-0.3,0-0.5,0.1c-0.1,0-0.2,0.1-0.3,0c0,0-0.1,0-0.1,0c-0.6,0-0.9-0.3-0.9-0.9s0-1.2,0-1.8
		c0-0.7,0-1.4-0.1-2.1c-0.1-2.7-0.1-5.4-0.1-8.1s0.1-5.4,0.2-8.2c0-0.3,0-0.5,0-0.8c0-0.6,0.1-1.4,0.2-2.3c0.1-0.9,0.3-1.8,0.5-2.6
		c0.2-0.8,0.5-1.5,0.8-1.9c0.3-0.4,0.7-0.7,1.1-0.8c0.5-0.1,0.9-0.1,1.3,0s0.8,0.4,1,0.7c0.5,0.8,0.8,1.9,0.8,3.3
		c0,1.4-0.1,3-0.4,4.8s-0.6,3.5-1.1,5.3c-0.4,1.8-0.9,3.4-1.4,4.8c-0.5,1.4-0.9,2.6-1.3,3.4c0.7-0.4,1.2-0.6,1.6-0.7
		c0.4-0.1,0.9-0.1,1.4,0c1.8,0.2,2.9,1.2,3.2,3c0,0.1,0,0.2,0,0.2c0,0.1,0,0.1,0,0.2c0,0.2,0.1,0.4,0.1,0.6c0,0.1,0.5,0.1,1.3-0.1
		c0.8-0.2,1.4-0.5,1.8-0.8c0.4-0.3,0.6-0.5,0.7-0.4c0.4,0.4,0.1,1-0.9,1.6C350.3,104.3,349.2,104.7,347.9,104.9z M341.9,98
		c0.1,0,0.3-0.7,0.6-2s0.7-2.8,1.1-4.7c0.4-1.9,0.7-3.7,0.9-5.6c0.2-1.9,0.3-3.4,0.1-4.7c-0.1-0.7-0.2-1.2-0.3-1.7
		c-0.1-0.4-0.3-0.6-0.5-0.4s-0.4,0.7-0.6,1.6c-0.3,1.4-0.6,3.3-0.7,5.8c-0.1,2.4-0.2,4.8-0.3,7.2C342,95.3,342,96.8,341.9,98z
		 M346.4,103.2c0-0.6-0.1-1.1-0.4-1.7s-0.7-0.9-1.2-1s-0.9,0-1.4,0.5c-0.3,0.4-0.6,1-0.7,1.7c-0.1,0.7-0.2,1.4-0.1,2.2
		c0.5-0.3,1.1-0.6,1.7-0.8c0.6-0.2,1.1-0.3,1.7-0.4c0.1,0,0.2-0.1,0.3-0.2C346.4,103.5,346.4,103.4,346.4,103.2z M343.9,106.1
		c-0.1,0.2,0,0.3,0.2,0.3c0.2,0,0.4,0,0.7-0.2c0.3-0.1,0.5-0.3,0.7-0.5c0.2-0.2,0.3-0.4,0.3-0.6c0,0,0,0,0,0c0,0,0,0-0.1,0
		c-0.3,0-0.6,0-0.8,0.2s-0.5,0.3-0.7,0.5C344,105.8,343.9,105.9,343.9,106.1z"/>
	<path class="st1" d="M362.1,103.6c0.1-0.3,0.2-0.4,0.3-0.4c0,0,0.1,0.1,0,0.4c0,0.2-0.1,0.5-0.1,0.7c-0.1,0.4-0.3,0.9-0.5,1.4
		c-0.2,0.5-0.5,1-0.8,1.5c-0.4,0.6-1,1.1-1.6,1.4c-0.6,0.3-1.2,0.4-1.8,0.2c-0.5-0.2-0.8-0.7-0.9-1.5c0-0.7,0-1.5,0.2-2.3
		c0-0.3,0.1-0.7,0.1-1c0-0.1,0-0.2-0.1-0.3c-0.1-0.1-0.1-0.1-0.2-0.1c-0.1,0-0.1,0-0.2,0c-0.4,0.1-0.8,0.1-1.3,0
		c-0.5-0.2-0.8-0.4-0.9-0.8c-0.1-0.4-0.1-0.8,0-1.4c0-0.4,0.2-0.7,0.5-0.9c0.3-0.2,0.6-0.3,0.9-0.3c0.5,0,0.7,0.2,0.7,0.6
		c0,0.3-0.1,0.7-0.3,1c-0.1,0.3-0.2,0.6-0.2,0.8c0,0.2,0.2,0.3,0.5,0.2c0.1,0,0.2,0,0.3-0.1c0.1,0,0.3-0.1,0.5-0.1
		c0.2,0,0.4-0.1,0.7,0c0.3,0,0.6,0.2,0.7,0.5c0.1,0.3,0.2,0.7,0.1,1.1c0,0.4-0.1,0.9-0.1,1.3c-0.1,0.6-0.1,1-0.1,1.5
		c0,0.4,0.1,0.6,0.3,0.7c0.3,0.1,0.8-0.2,1.4-0.8C360.8,106.2,361.4,105.1,362.1,103.6z"/>
	<path class="st1" d="M378.3,103.2c-0.2,0.6-0.6,1.4-1.2,2.2c-0.6,0.8-1.4,1.3-2.3,1.6c-0.9,0.2-1.7,0.2-2.4-0.1
		c-0.7-0.3-1-1.1-1.1-2.4c-0.8,1.5-1.5,2.4-2.2,2.8c-0.7,0.4-1.4,0.6-2.2,0.5c-0.8-0.1-1.4-0.5-1.7-1c-0.3-0.5-0.4-1.1-0.3-1.8
		s0.3-1.3,0.6-2c0.2-0.5,0.6-0.9,1-1.3c0.4-0.4,0.9-0.7,1.4-0.9c0.6-0.3,1.2-0.4,1.8-0.4c0.6,0,1.2,0.2,1.9,0.6c0,0,0,0,0,0
		c0-0.1,0-0.1,0-0.2s0.1-0.2,0.2-0.2c0.2-0.2,0.5-0.2,0.8-0.2c0.3,0,0.5,0.2,0.7,0.5c0,0.4,0,0.9-0.1,1.5c-0.2,1.4-0.2,2.3,0,2.9
		s0.7,0.9,1.3,0.8c0.6,0,1.4-0.7,2.5-1.9C378.1,102.9,378.5,102.6,378.3,103.2z M367.1,106.4c0.3,0.2,0.7,0.2,1.2-0.1
		s0.9-0.8,1.3-1.3s0.8-1.2,1-1.7s0.4-1,0.5-1.3c-0.8-0.4-1.6-0.5-2.2-0.2c-0.6,0.3-1.1,0.8-1.4,1.5c-0.4,0.7-0.6,1.3-0.6,2
		C366.8,105.8,366.9,106.2,367.1,106.4z"/>
	<path class="st1" d="M389.4,103.6c0.4-0.4,0.6-0.5,0.5-0.3c-0.1,0.2-0.3,0.6-0.7,1.1c-0.4,0.5-0.9,1.1-1.5,1.7
		c-0.6,0.6-1.2,1.1-1.9,1.6c-0.7,0.4-1.3,0.7-1.9,0.7c-0.7,0-1.3-0.2-1.8-0.6c-0.4-0.4-0.8-1-0.9-1.7c-0.2-0.7-0.3-1.5-0.2-2.3
		c0-0.9,0.1-1.9,0.1-2.8c0-0.5,0-0.9,0-1.4c0-0.7,0.1-1.5,0.1-2.2c0-0.2,0-0.4-0.1-0.6c-0.1-0.2-0.3-0.2-0.5-0.3c-0.3,0-0.6,0-1,0
		c-0.3,0-0.6,0-0.9,0c-0.3,0-0.6-0.1-0.7-0.3c-0.1-0.1,0-0.3,0.3-0.4c0.2-0.1,0.5-0.1,0.8-0.1c0.3,0,0.6,0,0.9,0c0.2,0,0.3,0,0.5,0
		c0.4,0,0.7-0.1,0.8-0.2c0.1-0.1,0.2-0.4,0.2-0.8c0-0.4,0.1-0.9,0.1-1.3c0-0.2,0-0.5,0-0.7c0-0.3,0.1-0.7,0.3-0.9
		c0.2-0.3,0.4-0.4,0.7-0.3c0.3,0.1,0.4,0.2,0.4,0.5c0,0.4,0,0.9,0,1.3c0,0.2,0,0.5,0,0.7c0,0.3,0,0.5,0,0.8c0,0.4,0,0.6,0.1,0.7
		c0.1,0.1,0.4,0.1,0.8,0.1c0.7,0,1.4,0,2,0c0.3,0,1.2,0,2.7-0.1c1.5,0,2.3,0.1,2.4,0.4s-0.8,0.4-2.8,0.5c-1.2,0.1-2.2,0.1-2.8,0.1
		c-0.4,0-0.8,0-1.2,0c-0.6,0-1,0.1-1.1,0.3c-0.1,0.2-0.2,0.6-0.2,1.3c0,0.5,0,1.2-0.1,1.9c-0.1,1.6-0.1,3.2-0.1,4.8
		c0,1.1,0.2,1.8,0.6,2.2s0.8,0.4,1.4,0.2c0.6-0.2,1.2-0.6,1.9-1.1c0.7-0.5,1.3-1.1,2-1.7c0.1-0.2,0.3-0.4,0.5-0.5
		C389.3,103.7,389.4,103.6,389.4,103.6z"/>
	<path class="st1" d="M403.9,103.6c0.2-0.1,0.3-0.2,0.5-0.2c0.2,0,0.3,0,0.3,0c0,0.1,0,0.2-0.2,0.4c-0.6,0.6-1.2,1.2-2,1.8
		c-0.8,0.5-1.6,1-2.4,1.4c-0.6,0.3-1.3,0.5-2.1,0.7c-0.7,0.2-1.4,0.2-2.1,0.1c-0.7-0.1-1.3-0.4-1.9-0.9c-0.9-0.8-1.2-1.8-1.1-3
		c0.1-0.9,0.5-1.7,1.1-2.4c0.6-0.7,1.4-1.1,2.3-1.3c0.8-0.2,1.5-0.2,2.3,0c0.3,0,0.7,0.2,0.9,0.3c0.3,0.2,0.4,0.4,0.4,0.7
		c0,0.3-0.1,0.5-0.3,0.8c-0.5,0.4-1,0.7-1.7,0.8c-0.7,0.1-1.4,0.2-2.1,0.2c-0.3,0-0.6,0.1-0.7,0.2c-0.1,0.1-0.2,0.4-0.2,0.7
		c-0.1,0.9,0.2,1.7,0.9,2.3c0.4,0.3,1,0.5,1.6,0.4c0.6-0.1,1.3-0.2,2-0.5c0.7-0.3,1.4-0.6,2.1-1c0.7-0.4,1.3-0.8,1.9-1.1
		C403.5,103.8,403.7,103.7,403.9,103.6z M396,101.5C396,101.6,396,101.6,396,101.5c-0.1,0.1-0.1,0.1-0.1,0.1c0,0-0.1,0.1-0.1,0.1
		c0,0-0.1,0.1-0.1,0.1c0,0,0.2,0.1,0.4,0c0.3,0,0.5-0.1,0.8-0.1c0.3-0.1,0.6-0.2,0.8-0.3c0.2-0.1,0.3-0.2,0.2-0.4
		c0,0-0.1-0.1-0.1-0.1c-0.1,0-0.1-0.1-0.2-0.1c-0.3,0-0.6,0.1-0.8,0.2S396.2,101.4,396,101.5z"/>
	<path class="st1" d="M423.7,103.6c0.4-0.4,0.6-0.5,0.5-0.3c-0.1,0.2-0.3,0.6-0.7,1.1c-0.4,0.5-0.9,1.1-1.5,1.7
		c-0.6,0.6-1.2,1.1-1.9,1.6c-0.7,0.4-1.3,0.7-1.9,0.7c-0.7,0-1.3-0.2-1.8-0.6c-0.4-0.4-0.8-1-0.9-1.7c-0.2-0.7-0.3-1.5-0.2-2.3
		c0-0.9,0.1-1.9,0.1-2.8c0-0.5,0-0.9,0-1.4c0-0.7,0.1-1.5,0.1-2.2c0-0.2,0-0.4-0.1-0.6c-0.1-0.2-0.3-0.2-0.5-0.3c-0.3,0-0.6,0-1,0
		c-0.3,0-0.6,0-0.9,0c-0.3,0-0.6-0.1-0.7-0.3c-0.1-0.1,0-0.3,0.3-0.4c0.2-0.1,0.5-0.1,0.8-0.1c0.3,0,0.6,0,0.9,0c0.2,0,0.3,0,0.5,0
		c0.4,0,0.7-0.1,0.8-0.2c0.1-0.1,0.2-0.4,0.2-0.8c0-0.4,0.1-0.9,0.1-1.3c0-0.2,0-0.5,0-0.7c0-0.3,0.1-0.7,0.3-0.9
		c0.2-0.3,0.4-0.4,0.7-0.3c0.3,0.1,0.4,0.2,0.4,0.5c0,0.4,0,0.9,0,1.3c0,0.2,0,0.5,0,0.7c0,0.3,0,0.5,0,0.8c0,0.4,0,0.6,0.1,0.7
		c0.1,0.1,0.4,0.1,0.8,0.1c0.7,0,1.4,0,2,0c0.3,0,1.2,0,2.7-0.1c1.5,0,2.3,0.1,2.4,0.4s-0.8,0.4-2.8,0.5c-1.2,0.1-2.2,0.1-2.8,0.1
		c-0.4,0-0.8,0-1.2,0c-0.6,0-1,0.1-1.1,0.3c-0.1,0.2-0.2,0.6-0.2,1.3c0,0.5,0,1.2-0.1,1.9c-0.1,1.6-0.1,3.2-0.1,4.8
		c0,1.1,0.2,1.8,0.6,2.2s0.8,0.4,1.4,0.2c0.6-0.2,1.2-0.6,1.9-1.1c0.7-0.5,1.3-1.1,2-1.7c0.1-0.2,0.3-0.4,0.5-0.5
		C423.6,103.7,423.7,103.6,423.7,103.6z"/>
	<path class="st1" d="M438.3,103.5c0.6-0.7,1-1,1-0.8s-0.1,0.6-0.4,1.2c-0.3,0.6-0.8,1.1-1.4,1.6c-0.5,0.3-0.9,0.5-1.2,0.6
		c-0.3,0.1-0.7,0.2-0.9,0.2c-0.5,0-1-0.1-1.3-0.5c-0.3-0.3-0.5-0.8-0.6-1.3c-0.1-0.5-0.2-1.1-0.2-1.7c0-0.4-0.1-0.7-0.1-1
		c-0.1-0.5-0.2-0.7-0.4-0.8s-0.5,0.2-0.9,0.9c-0.4,0.7-0.8,1.5-1.1,2.3c-0.3,0.8-0.6,1.7-0.9,2.5c0,0,0,0.1,0,0.1
		c0,0.1-0.1,0.2-0.1,0.3c-0.1,0.3-0.2,0.7-0.3,1c-0.1,0.3-0.3,0.4-0.6,0.5c-0.3,0.1-0.6,0.1-0.9,0c-0.2-0.1-0.3-0.2-0.4-0.4
		c-0.1-0.3-0.1-0.6-0.1-0.9c0,0,0-0.1,0-0.1c0.1-1.3,0.1-3.5,0-6.5c0-2.4,0-5.1,0-7.9s0.1-5.5,0.2-7.9c0.1-2.5,0.4-4.5,0.7-6
		c0.1-0.5,0.4-1,0.7-1.5s0.7-0.7,1.2-0.7c0.4,0,0.8,0.2,1.2,0.9c0.2,0.5,0.4,1.1,0.5,1.7c0.2,1.8,0,4.5-0.4,8.1
		c-0.5,3.7-1,6.9-1.5,9.6c-0.5,2.7-0.8,5-0.8,6.9c0.2-0.3,0.3-0.6,0.5-0.9c0.2-0.5,0.5-0.9,0.8-1.4c0.3-0.5,0.6-0.9,1-1.2
		c0.4-0.3,0.9-0.5,1.4-0.6c0.4-0.1,0.8,0,1.2,0.1s0.7,0.4,0.8,0.8c0.2,0.8,0.2,1.6,0.2,2.4c0,0.9,0.2,1.5,0.5,1.7
		c0.3,0.2,0.7,0.3,1.2,0.1C437.2,104.7,437.7,104.3,438.3,103.5z M429.9,80.1c-0.1,0.9-0.2,2.5-0.3,4.7c-0.1,2.2-0.2,4.4-0.3,6.6
		c-0.1,2.2-0.1,4.1-0.1,5.5c0.2-1.3,0.4-3.1,0.7-5.2c0.3-2.1,0.5-4.3,0.7-6.6s0.3-4,0.3-5.1c0-0.6-0.1-1-0.1-1.3
		c-0.1-0.3-0.2-0.4-0.3-0.3c-0.2,0.1-0.3,0.3-0.4,0.6C430,79.5,429.9,79.8,429.9,80.1z"/>
	<path class="st1" d="M453.3,103.6c0.2-0.1,0.3-0.2,0.5-0.2c0.2,0,0.3,0,0.3,0c0,0.1,0,0.2-0.2,0.4c-0.6,0.6-1.2,1.2-2,1.8
		c-0.8,0.5-1.6,1-2.4,1.4c-0.6,0.3-1.3,0.5-2.1,0.7c-0.7,0.2-1.4,0.2-2.1,0.1c-0.7-0.1-1.3-0.4-1.9-0.9c-0.9-0.8-1.2-1.8-1.1-3
		c0.1-0.9,0.5-1.7,1.1-2.4c0.6-0.7,1.4-1.1,2.3-1.3c0.8-0.2,1.5-0.2,2.3,0c0.3,0,0.7,0.2,0.9,0.3c0.3,0.2,0.4,0.4,0.4,0.7
		c0,0.3-0.1,0.5-0.3,0.8c-0.5,0.4-1,0.7-1.7,0.8c-0.7,0.1-1.4,0.2-2.1,0.2c-0.3,0-0.6,0.1-0.7,0.2c-0.1,0.1-0.2,0.4-0.2,0.7
		c-0.1,0.9,0.2,1.7,0.9,2.3c0.4,0.3,1,0.5,1.6,0.4c0.6-0.1,1.3-0.2,2-0.5c0.7-0.3,1.4-0.6,2.1-1c0.7-0.4,1.3-0.8,1.9-1.1
		C452.9,103.8,453.1,103.7,453.3,103.6z M445.4,101.5C445.4,101.6,445.4,101.6,445.4,101.5c-0.1,0.1-0.1,0.1-0.1,0.1
		c0,0-0.1,0.1-0.1,0.1c0,0-0.1,0.1-0.1,0.1c0,0,0.2,0.1,0.4,0c0.3,0,0.5-0.1,0.8-0.1c0.3-0.1,0.6-0.2,0.8-0.3
		c0.2-0.1,0.3-0.2,0.2-0.4c0,0-0.1-0.1-0.1-0.1c-0.1,0-0.1-0.1-0.2-0.1c-0.3,0-0.6,0.1-0.8,0.2C445.9,101.2,445.7,101.4,445.4,101.5
		z"/>
	<path class="st1" d="M236.1,139.9c-0.2,0.5-0.5,0.9-0.7,1.2c-0.6,0.7-1.4,1.2-2.2,1.4c-0.8,0.2-1.6,0.1-2.2-0.1c0,0,0,0,0,0
		c-0.2-0.1-0.3-0.1-0.5-0.2s-0.3,0-0.5,0.1c-0.1,0-0.2,0.1-0.3,0c0,0-0.1,0-0.1,0c-0.6,0-0.9-0.3-0.9-0.9s0-1.2,0-1.8
		c0-0.7,0-1.4-0.1-2.1c-0.1-2.7-0.1-5.4-0.1-8.1s0.1-5.4,0.2-8.2c0-0.3,0-0.5,0-0.8c0-0.6,0.1-1.4,0.2-2.3c0.1-0.9,0.3-1.8,0.5-2.6
		c0.2-0.8,0.5-1.5,0.8-1.9c0.3-0.4,0.7-0.7,1.1-0.8c0.5-0.1,0.9-0.1,1.3,0s0.8,0.4,1,0.7c0.5,0.8,0.8,1.9,0.8,3.3
		c0,1.4-0.1,3-0.4,4.8s-0.6,3.5-1.1,5.3c-0.4,1.8-0.9,3.4-1.4,4.8c-0.5,1.4-0.9,2.6-1.3,3.4c0.7-0.4,1.2-0.6,1.6-0.7
		c0.4-0.1,0.9-0.1,1.4,0c1.8,0.2,2.9,1.2,3.2,3c0,0.1,0,0.2,0,0.2c0,0.1,0,0.1,0,0.2c0,0.2,0.1,0.4,0.1,0.6c0,0.1,0.5,0.1,1.3-0.1
		c0.8-0.2,1.4-0.5,1.8-0.8c0.4-0.3,0.6-0.5,0.7-0.4c0.4,0.4,0.1,1-0.9,1.6C238.4,139.3,237.3,139.7,236.1,139.9z M230,133
		c0.1,0,0.3-0.7,0.6-2s0.7-2.8,1.1-4.7c0.4-1.9,0.7-3.7,0.9-5.6c0.2-1.9,0.3-3.4,0.1-4.7c-0.1-0.7-0.2-1.2-0.3-1.7
		c-0.1-0.4-0.3-0.6-0.5-0.4s-0.4,0.7-0.6,1.6c-0.3,1.4-0.6,3.3-0.7,5.8c-0.1,2.4-0.2,4.8-0.3,7.2C230.2,130.3,230.1,131.8,230,133z
		 M234.5,138.2c0-0.6-0.1-1.1-0.4-1.7s-0.7-0.9-1.2-1s-0.9,0-1.4,0.5c-0.3,0.4-0.6,1-0.7,1.7c-0.1,0.7-0.2,1.4-0.1,2.2
		c0.5-0.3,1.1-0.6,1.7-0.8c0.6-0.2,1.1-0.3,1.7-0.4c0.1,0,0.2-0.1,0.3-0.2C234.5,138.5,234.5,138.4,234.5,138.2z M232,141.1
		c-0.1,0.2,0,0.3,0.2,0.3c0.2,0,0.4,0,0.7-0.2c0.3-0.1,0.5-0.3,0.7-0.5c0.2-0.2,0.3-0.4,0.3-0.6c0,0,0,0,0,0c0,0,0,0-0.1,0
		c-0.3,0-0.6,0-0.8,0.2s-0.5,0.3-0.7,0.5C232.1,140.8,232.1,140.9,232,141.1z"/>
	<path class="st1" d="M253.9,138.6c0.2-0.1,0.3-0.2,0.5-0.2c0.2,0,0.3,0,0.3,0c0,0.1,0,0.2-0.2,0.4c-0.6,0.6-1.2,1.2-2,1.8
		c-0.8,0.5-1.6,1-2.4,1.4c-0.6,0.3-1.3,0.5-2.1,0.7c-0.7,0.2-1.4,0.2-2.1,0.1c-0.7-0.1-1.3-0.4-1.9-0.9c-0.9-0.8-1.2-1.8-1.1-3
		c0.1-0.9,0.5-1.7,1.1-2.4c0.6-0.7,1.4-1.1,2.3-1.3c0.8-0.2,1.5-0.2,2.3,0c0.3,0,0.7,0.2,0.9,0.3c0.3,0.2,0.4,0.4,0.4,0.7
		c0,0.3-0.1,0.5-0.3,0.8c-0.5,0.4-1,0.7-1.7,0.8c-0.7,0.1-1.4,0.2-2.1,0.2c-0.3,0-0.6,0.1-0.7,0.2c-0.1,0.1-0.2,0.4-0.2,0.7
		c-0.1,0.9,0.2,1.7,0.9,2.3c0.4,0.3,1,0.5,1.6,0.4c0.6-0.1,1.3-0.2,2-0.5c0.7-0.3,1.4-0.6,2.1-1c0.7-0.4,1.3-0.8,1.9-1.1
		C253.5,138.8,253.7,138.7,253.9,138.6z M246,136.5C246,136.6,246,136.6,246,136.5c-0.1,0.1-0.1,0.1-0.1,0.1c0,0-0.1,0.1-0.1,0.1
		c0,0-0.1,0.1-0.1,0.1c0,0,0.2,0.1,0.4,0c0.3,0,0.5-0.1,0.8-0.1c0.3-0.1,0.6-0.2,0.8-0.3c0.2-0.1,0.3-0.2,0.2-0.4
		c0,0-0.1-0.1-0.1-0.1c-0.1,0-0.1-0.1-0.2-0.1c-0.3,0-0.6,0.1-0.8,0.2S246.3,136.4,246,136.5z"/>
	<path class="st1" d="M269.9,138.3c0.1,0,0.3,0,0.4,0c0.1,0,0.2,0,0.2,0.1c0,0.1-0.1,0.2-0.3,0.3c-0.1,0-0.2,0.1-0.3,0.2
		c-0.4,0.3-0.9,0.6-1.4,0.9c-0.6,0.4-1.1,0.7-1.5,1.1c-0.5,0.3-0.8,0.6-0.9,0.7c-0.2,0.2-0.3,0.5-0.3,0.8c0,0.3-0.1,0.6-0.1,0.9
		c0,0.2,0,0.5-0.1,0.7c-0.4,2.7-1.2,5-2.2,6.8c-1,1.9-2.2,3.4-3.4,4.5c-1.3,1.1-2.5,1.9-3.7,2.2c-1.2,0.3-2.2,0.3-3.1-0.1
		c-0.8-0.4-1.3-1.3-1.5-2.5c-0.1-1,0.1-2,0.6-3c0.5-1,1.1-2,1.9-2.9c0.8-0.9,1.7-1.8,2.6-2.6c0.9-0.8,1.7-1.4,2.5-1.9
		c0.2-0.1,0.4-0.3,0.7-0.4c1.1-0.7,2.2-1.5,3.3-2.2c0.7-0.4,1-1,1-1.7c0-0.1,0-0.2,0-0.3c0-0.2,0-0.4,0-0.7c-0.4,0.7-1,1.3-1.8,1.8
		s-1.6,0.9-2.4,1.2c-0.8,0.2-1.5,0.2-2.1,0s-0.9-0.9-0.9-1.8c0-0.5,0.2-1,0.4-1.4c0.6-1.1,1.5-2,2.6-2.6c0.4-0.2,0.9-0.4,1.5-0.5
		c0.6-0.1,1.2-0.1,1.7,0c0.5,0.1,1,0.4,1.3,0.8c0.1-0.1,0.2-0.2,0.4-0.3c0.2,0,0.3-0.1,0.4-0.1c0,0,0.1,0,0.1,0
		c0.6-0.1,0.9,0.2,0.9,0.8c0,0.4,0,0.9,0,1.3c0,0.3,0,0.7,0,1c0,0.4,0.2,0.5,0.6,0.4s0.9-0.4,1.4-0.7
		C268.8,138.8,269.4,138.5,269.9,138.3z M263.6,143.9C263.6,143.9,263.6,143.9,263.6,143.9c0-0.1,0.1-0.3,0.1-0.4c0-0.2,0-0.3,0-0.4
		c0-0.1-0.1-0.1-0.2,0c-0.7,0.5-1.4,1-2.2,1.6c-0.4,0.3-0.9,0.6-1.3,0.9c-0.6,0.4-1.2,1-2,1.6s-1.5,1.4-2.2,2.2
		c-0.7,0.8-1.3,1.7-1.8,2.5s-0.7,1.7-0.7,2.5c0,1.1,0.4,1.8,0.9,2s1.3,0.1,2.2-0.4s1.8-1.3,2.7-2.5s1.8-2.5,2.6-4.2
		S263.2,145.9,263.6,143.9z M262.6,138.9c0.7-0.7,1.1-1.2,1.1-1.6c-0.2-0.3-0.4-0.5-0.8-0.5s-0.7-0.1-1.1,0
		c-0.4,0.1-0.7,0.2-0.9,0.3c-0.7,0.4-1.2,1-1.5,1.6c-0.3,0.6-0.4,1.1-0.4,1.6s0.4,0.6,1,0.4S261.5,140,262.6,138.9z"/>
	<path class="st1" d="M280.3,137.9c-0.1,0.2-0.2,0.3-0.3,0.5c-0.7,1.3-1.4,2.2-2,2.8s-1.2,1-2,1.1c-0.7,0.1-1.4-0.2-2.1-0.9
		c-0.2-0.3-0.4-0.6-0.5-1c-0.1-0.4-0.2-0.7-0.1-1.1V139c0-0.4,0-0.8,0-1.3c0-0.5,0.1-1,0.2-1.4c0.1-0.4,0.3-0.7,0.5-0.7
		c0.7-0.2,1.1,0.1,1.2,0.7c0,0.2,0,0.4,0,0.6c0,0.1,0,0.2,0,0.3l0,0.9c0,0.2,0,0.5,0,0.7c0,1.1,0.2,1.7,0.7,2c0.5,0.2,1.1-0.1,1.8-1
		c0.7-0.9,1.3-1.9,2-3.1c0.2-0.4,0.4-0.7,0.5-0.9c0.1-0.2,0.2-0.3,0.3-0.4c0.2-0.1,0.4-0.1,0.6-0.1c0.2,0,0.3,0,0.5,0.1
		c0.1,0.1,0.2,0.3,0.3,0.6c0,0.1,0,0.2,0,0.3c0,0,0,0.1,0,0.1c0,0.2,0,0.4,0,0.6c0,0.2,0,0.4,0,0.5c0,0.1,0.1,0.1,0.2,0
		c0.1-0.1,0.3-0.3,0.5-0.7c0.4-0.7,1-1.2,1.6-1.7c0.6-0.4,1.2-0.6,1.9-0.5c0.6,0.1,1,0.4,1.2,0.9c0.1,0.3,0.1,0.6,0.1,0.9
		c0,0.3,0,0.6,0,0.9c0,0.3,0,0.6-0.1,0.9l0,0.3c-0.1,1.1-0.1,1.8,0.1,2.2s0.4,0.5,0.8,0.4c0.3-0.1,0.8-0.6,1.4-1.6
		c0.6-0.9,0.9-1.5,1-1.8c0.1-0.2,0.2-0.2,0.3,0c0.1,0.3-0.1,0.9-0.6,1.8c-0.4,1-1,1.7-1.6,2.2s-1.3,0.7-1.8,0.6s-1-0.5-1.2-1.2
		c-0.2-0.6-0.3-1.5-0.2-2.4c0,0,0-0.1,0-0.1c0-0.2,0-0.4,0.1-0.7c0-0.3,0.1-0.7,0.1-1c0-0.3,0-0.6,0-0.9c0-0.2-0.1-0.3-0.3-0.2
		c-0.4,0.2-0.8,0.6-1.2,1.3c-0.4,0.6-0.7,1.3-1,2c-0.3,0.7-0.5,1.3-0.7,1.7c0,0.1-0.1,0.3-0.1,0.4c-0.1,0.2-0.1,0.4-0.2,0.6
		c-0.2,0.6-0.6,0.8-1.1,0.6c-0.3-0.1-0.5-0.2-0.5-0.5c0-0.2,0-0.5,0-0.7c0-0.1,0-0.3,0-0.4C280.3,140,280.3,138.9,280.3,137.9z
		 M275.1,133.2c-0.1,0.1-0.2,0.1-0.4,0.2c-0.1,0-0.3,0-0.4,0c-0.1-0.1-0.1-0.2-0.2-0.3c0-0.1,0-0.2,0-0.4c0,0,0-0.1,0-0.1
		c0-0.1,0-0.3,0.1-0.4c0.1-0.4,0.5-0.5,0.9-0.5c0.2,0,0.3,0.1,0.4,0.2c0.1,0.1,0.1,0.2,0.1,0.4C275.6,132.6,275.4,132.9,275.1,133.2
		z"/>
	<path class="st1" d="M303.2,139.7c0.6-0.9,0.9-1.5,1-1.8c0.1-0.2,0.2-0.2,0.3,0c0.1,0.3-0.1,0.9-0.6,1.8c-0.4,1-1,1.7-1.6,2.2
		s-1.3,0.7-1.8,0.6s-1-0.5-1.2-1.2c-0.2-0.6-0.3-1.5-0.2-2.4c0,0,0-0.1,0-0.1c0-0.2,0-0.4,0.1-0.7c0-0.3,0.1-0.7,0.1-1
		c0-0.3,0-0.6,0-0.9c0-0.2-0.1-0.3-0.3-0.2c-0.4,0.2-0.8,0.6-1.2,1.3c-0.4,0.6-0.7,1.3-1,2c-0.3,0.7-0.5,1.3-0.7,1.7
		c0,0.1-0.1,0.3-0.1,0.4c-0.1,0.2-0.1,0.4-0.2,0.6c-0.2,0.6-0.6,0.8-1.1,0.6c-0.3-0.1-0.5-0.2-0.5-0.5c0-0.2,0-0.5,0-0.7
		c0-0.1,0-0.3,0-0.4c0-1.7-0.1-3.4-0.1-5.1c0-0.2,0.1-0.3,0.3-0.4c0.2-0.1,0.3-0.1,0.6-0.1c0.2,0,0.3,0,0.5,0.1
		c0.1,0.1,0.2,0.3,0.3,0.6c0,0.1,0,0.2,0,0.3c0,0,0,0.1,0,0.1c0,0.2,0,0.4,0,0.6c0,0.2,0,0.4,0,0.5c0,0.1,0.1,0.1,0.2,0
		c0.1-0.1,0.3-0.3,0.5-0.7c0.4-0.7,1-1.2,1.6-1.7c0.6-0.4,1.2-0.6,1.9-0.5c0.6,0.1,1,0.4,1.2,0.9c0.1,0.3,0.1,0.6,0.1,0.9
		c0,0.3,0,0.6,0,0.9c0,0.3,0,0.6-0.1,0.9c0,0.1,0,0.2,0,0.3c-0.1,1.1-0.1,1.8,0.1,2.2s0.4,0.5,0.8,0.4
		C302.2,141.1,302.6,140.6,303.2,139.7z"/>
	<path class="st1" d="M314.5,137.9c-0.1,0.2-0.2,0.3-0.3,0.5c-0.7,1.3-1.4,2.2-2,2.8s-1.2,1-2,1.1c-0.7,0.1-1.4-0.2-2.1-0.9
		c-0.2-0.3-0.4-0.6-0.5-1c-0.1-0.4-0.2-0.7-0.1-1.1V139c0-0.4,0-0.8,0-1.3c0-0.5,0.1-1,0.2-1.4c0.1-0.4,0.3-0.7,0.5-0.7
		c0.7-0.2,1.1,0.1,1.2,0.7c0,0.2,0,0.4,0,0.6c0,0.1,0,0.2,0,0.3l0,0.9c0,0.2,0,0.5,0,0.7c0,1.1,0.2,1.7,0.7,2c0.5,0.2,1.1-0.1,1.8-1
		c0.7-0.9,1.3-1.9,2-3.1c0.2-0.4,0.4-0.7,0.5-0.9c0.1-0.2,0.2-0.3,0.3-0.4c0.2-0.1,0.4-0.1,0.6-0.1c0.2,0,0.3,0,0.5,0.1
		c0.1,0.1,0.2,0.3,0.3,0.6c0,0.1,0,0.2,0,0.3c0,0,0,0.1,0,0.1c0,0.2,0,0.4,0,0.6c0,0.2,0,0.4,0,0.5c0,0.1,0.1,0.1,0.2,0
		c0.1-0.1,0.3-0.3,0.5-0.7c0.4-0.7,1-1.2,1.6-1.7c0.6-0.4,1.2-0.6,1.9-0.5c0.6,0.1,1,0.4,1.2,0.9c0.1,0.3,0.1,0.6,0.1,0.9
		c0,0.3,0,0.6,0,0.9c0,0.3,0,0.6-0.1,0.9l0,0.3c-0.1,1.1-0.1,1.8,0.1,2.2s0.4,0.5,0.8,0.4c0.3-0.1,0.8-0.6,1.4-1.6
		c0.6-0.9,0.9-1.5,1-1.8c0.1-0.2,0.2-0.2,0.3,0c0.1,0.3-0.1,0.9-0.6,1.8c-0.4,1-1,1.7-1.6,2.2s-1.3,0.7-1.8,0.6s-1-0.5-1.2-1.2
		c-0.2-0.6-0.3-1.5-0.2-2.4c0,0,0-0.1,0-0.1c0-0.2,0-0.4,0.1-0.7c0-0.3,0.1-0.7,0.1-1c0-0.3,0-0.6,0-0.9c0-0.2-0.1-0.3-0.3-0.2
		c-0.4,0.2-0.8,0.6-1.2,1.3c-0.4,0.6-0.7,1.3-1,2c-0.3,0.7-0.5,1.3-0.7,1.7c0,0.1-0.1,0.3-0.1,0.4c-0.1,0.2-0.1,0.4-0.2,0.6
		c-0.2,0.6-0.6,0.8-1.1,0.6c-0.3-0.1-0.5-0.2-0.5-0.5c0-0.2,0-0.5,0-0.7c0-0.1,0-0.3,0-0.4C314.5,140,314.5,138.9,314.5,137.9z
		 M309.3,133.2c-0.1,0.1-0.2,0.1-0.4,0.2c-0.1,0-0.3,0-0.4,0c-0.1-0.1-0.1-0.2-0.2-0.3c0-0.1,0-0.2,0-0.4c0,0,0-0.1,0-0.1
		c0-0.1,0-0.3,0.1-0.4c0.1-0.4,0.5-0.5,0.9-0.5c0.2,0,0.3,0.1,0.4,0.2c0.1,0.1,0.1,0.2,0.1,0.4C309.8,132.6,309.6,132.9,309.3,133.2
		z"/>
	<path class="st1" d="M340.3,138.3c0.1,0,0.3,0,0.4,0c0.1,0,0.2,0,0.2,0.1c0,0.1-0.1,0.2-0.3,0.3c-0.1,0-0.2,0.1-0.3,0.2
		c-0.4,0.3-0.9,0.6-1.4,0.9c-0.6,0.4-1.1,0.7-1.5,1.1c-0.5,0.3-0.8,0.6-0.9,0.7c-0.2,0.2-0.3,0.5-0.3,0.8c0,0.3-0.1,0.6-0.1,0.9
		c0,0.2,0,0.5-0.1,0.7c-0.4,2.7-1.2,5-2.2,6.8c-1,1.9-2.2,3.4-3.4,4.5c-1.3,1.1-2.5,1.9-3.7,2.2c-1.2,0.3-2.2,0.3-3.1-0.1
		c-0.8-0.4-1.3-1.3-1.5-2.5c-0.1-1,0.1-2,0.6-3c0.5-1,1.1-2,1.9-2.9c0.8-0.9,1.7-1.8,2.6-2.6c0.9-0.8,1.7-1.4,2.5-1.9
		c0.2-0.1,0.4-0.3,0.7-0.4c1.1-0.7,2.2-1.5,3.3-2.2c0.7-0.4,1-1,1-1.7c0-0.1,0-0.2,0-0.3c0-0.2,0-0.4,0-0.7c-0.4,0.7-1,1.3-1.8,1.8
		s-1.6,0.9-2.4,1.2c-0.8,0.2-1.5,0.2-2.1,0s-0.9-0.9-0.9-1.8c0-0.5,0.2-1,0.4-1.4c0.6-1.1,1.5-2,2.6-2.6c0.4-0.2,0.9-0.4,1.5-0.5
		c0.6-0.1,1.2-0.1,1.7,0c0.5,0.1,1,0.4,1.3,0.8c0.1-0.1,0.2-0.2,0.4-0.3c0.2,0,0.3-0.1,0.4-0.1c0,0,0.1,0,0.1,0
		c0.6-0.1,0.9,0.2,0.9,0.8c0,0.4,0,0.9,0,1.3c0,0.3,0,0.7,0,1c0,0.4,0.2,0.5,0.6,0.4s0.9-0.4,1.4-0.7
		C339.3,138.8,339.8,138.5,340.3,138.3z M334,143.9C334,143.9,334,143.9,334,143.9c0-0.1,0.1-0.3,0.1-0.4c0-0.2,0-0.3,0-0.4
		c0-0.1-0.1-0.1-0.2,0c-0.7,0.5-1.4,1-2.2,1.6c-0.4,0.3-0.9,0.6-1.3,0.9c-0.6,0.4-1.2,1-2,1.6s-1.5,1.4-2.2,2.2
		c-0.7,0.8-1.3,1.7-1.8,2.5s-0.7,1.7-0.7,2.5c0,1.1,0.4,1.8,0.9,2s1.3,0.1,2.2-0.4s1.8-1.3,2.7-2.5s1.8-2.5,2.6-4.2
		S333.6,145.9,334,143.9z M333.1,138.9c0.7-0.7,1.1-1.2,1.1-1.6c-0.2-0.3-0.4-0.5-0.8-0.5s-0.7-0.1-1.1,0c-0.4,0.1-0.7,0.2-0.9,0.3
		c-0.7,0.4-1.2,1-1.5,1.6c-0.3,0.6-0.4,1.1-0.4,1.6s0.4,0.6,1,0.4S332,140,333.1,138.9z"/>
	<path class="st1" d="M360.2,137.8c0.1-0.1,0.2,0,0.2,0.4c0,0.4-0.3,0.9-1.1,1.6s-1.5,1-2.2,1c-0.2,0-0.3,0-0.4,0
		c-0.1,0-0.2,0.1-0.3,0.3c-0.1,0.1-0.2,0.3-0.3,0.4l0,0c-0.5,0.5-1,0.8-1.6,1c-0.6,0.2-1.2,0.1-1.8-0.1c-0.6-0.3-1-0.7-1.2-1.5
		c-0.2-0.6-0.2-1.3,0-1.9c0.1-0.6,0.3-1.1,0.6-1.6c0.3-0.7,0.8-1.1,1.4-1.4c0.6-0.3,1.2-0.4,1.9-0.5c1,0,1.7,0.4,2,1.5
		c0.2,0.6,0.2,1.2,0.1,1.8c0,0.1,0,0.3-0.1,0.4c0,0.1-0.1,0.2-0.1,0.3c0,0.3,0.1,0.5,0.4,0.4C358.5,139.9,359.4,139.2,360.2,137.8z
		 M354.1,141.7c0.5-0.2,0.9-0.7,1.1-1.3c-0.9-0.6-1.5-1.4-1.8-2.4c-0.3,0.5-0.5,1.1-0.5,1.7c-0.1,0.7,0,1.2,0.2,1.6
		C353.3,141.8,353.6,141.9,354.1,141.7z M355.6,139.3c0.1-0.2,0.2-0.5,0.3-0.8c0-0.3,0-0.6,0-0.9c-0.1-0.3-0.1-0.5-0.2-0.7
		c-0.1-0.2-0.2-0.2-0.3-0.2c-0.2,0.2-0.3,0.4-0.3,0.8c0,0.3,0,0.7,0.1,1C355.2,138.8,355.4,139.1,355.6,139.3z"/>
	<path class="st1" d="M375.5,139.7c-0.9,1.1-1.7,1.9-2.5,2.2c-0.8,0.3-1.5,0.4-2.1,0.2s-1.1-0.4-1.6-0.8c-0.4-0.4-0.8-0.7-1-1
		c-0.1-0.1-0.1-0.1-0.2-0.2c0.6,0.9,1,2,1.2,3.4c0.2,1.4,0.2,2.6,0,3.7c-0.2,0.8-0.6,1.3-1.3,1.5s-1.3,0-2-0.5
		c-0.4-0.3-0.7-0.8-0.9-1.2c-0.4-0.8-0.7-1.6-0.9-2.4c-0.3-1.2-0.5-2.4-0.6-3.7c-0.1-1.2-0.1-2.5-0.1-3.8c0.1-1.8,0.2-3.6,0.5-5.4
		c0.3-1.8,0.7-3.5,1.2-5.3c0.3-1.1,0.7-2.4,1.2-3.9c0.5-1.5,1.1-2.9,1.9-4.3c0.8-1.4,1.6-2.4,2.7-3.1c0.4-0.3,0.9-0.5,1.4-0.6
		c1.4-0.2,2.3-0.1,2.9,0.5c0.6,0.5,0.8,1.3,0.8,2.4c-0.1,1.1-0.3,2.3-0.8,3.7c-0.5,1.4-1.1,2.9-1.8,4.3c-0.7,1.5-1.5,2.9-2.3,4.3
		c-0.8,1.4-1.5,2.6-2.2,3.6c-0.7,1-1.2,1.8-1.6,2.3c-0.1,0.1-0.2,0.3-0.3,0.5c0,0.1-0.1,0.2-0.2,0.3c1.2,1.7,2.2,2.9,3.1,3.5
		c0.9,0.6,1.7,0.9,2.4,0.8c0.7-0.1,1.2-0.3,1.7-0.7c0.5-0.4,0.9-0.8,1.2-1.2c0.3-0.4,0.5-0.6,0.7-0.6c0.2,0.1,0.3,0.2,0.1,0.5
		C376,139,375.8,139.3,375.5,139.7z M366.4,144.7c0.3,1.1,0.6,2,0.8,2.5c0.2,0.5,0.4,0.5,0.4,0.1c0.1-0.4,0.1-1.4-0.1-2.9
		c-0.1-1.2-0.3-2.4-0.6-3.7s-0.7-2.3-1.1-3.1c-0.2,0.8-0.2,1.9-0.1,3.2C365.9,142.3,366.1,143.5,366.4,144.7z M365.8,134.5
		c-0.1,0.5-0.1,0.8,0,0.9c0.1,0.1,0.3,0,0.6-0.5c0.5-0.7,1.2-1.7,1.9-2.9c0.8-1.2,1.6-2.6,2.4-4c0.8-1.5,1.6-3,2.2-4.5
		s1.1-2.9,1.4-4.2s0.3-2.4,0-3.3c-0.1-0.4-0.4-0.6-0.7-0.7c-0.3-0.1-0.7,0-1.1,0.2c-0.8,0.5-1.6,1.3-2.2,2.5
		c-0.7,1.2-1.3,2.5-1.8,4.1c-0.5,1.6-1,3.1-1.4,4.8c-0.4,1.6-0.7,3.1-1,4.5C366.1,132.6,365.9,133.7,365.8,134.5z"/>
	<path class="st1" d="M395.7,137.8c0.1-0.1,0.2,0,0.2,0.4c0,0.4-0.3,0.9-1.1,1.6s-1.5,1-2.2,1c-0.2,0-0.3,0-0.4,0
		c-0.1,0-0.2,0.1-0.3,0.3c-0.1,0.1-0.2,0.3-0.3,0.4l0,0c-0.5,0.5-1,0.8-1.6,1c-0.6,0.2-1.2,0.1-1.8-0.1c-0.6-0.3-1-0.7-1.2-1.5
		c-0.2-0.6-0.2-1.3,0-1.9c0.1-0.6,0.3-1.1,0.6-1.6c0.3-0.7,0.8-1.1,1.4-1.4c0.6-0.3,1.2-0.4,1.9-0.5c1,0,1.7,0.4,2,1.5
		c0.2,0.6,0.2,1.2,0.1,1.8c0,0.1,0,0.3-0.1,0.4c0,0.1-0.1,0.2-0.1,0.3c0,0.3,0.1,0.5,0.4,0.4C394,139.9,394.9,139.2,395.7,137.8z
		 M389.6,141.7c0.5-0.2,0.9-0.7,1.1-1.3c-0.9-0.6-1.5-1.4-1.8-2.4c-0.3,0.5-0.5,1.1-0.5,1.7c-0.1,0.7,0,1.2,0.2,1.6
		C388.8,141.8,389.1,141.9,389.6,141.7z M391.1,139.3c0.1-0.2,0.2-0.5,0.3-0.8c0-0.3,0-0.6,0-0.9c-0.1-0.3-0.1-0.5-0.2-0.7
		c-0.1-0.2-0.2-0.2-0.3-0.2c-0.2,0.2-0.3,0.4-0.3,0.8c0,0.3,0,0.7,0.1,1C390.7,138.8,390.9,139.1,391.1,139.3z"/>
	<path class="st1" d="M410.8,138.3c0.2,0,0.1,0.2-0.1,0.7c-0.2,0.4-0.6,0.9-1.1,1.5c-0.5,0.6-1.1,1.1-1.7,1.5
		c-0.6,0.4-1.3,0.6-1.9,0.6c-0.5,0-0.8-0.2-1-0.4c-0.2-0.2-0.4-0.5-0.5-0.8s-0.1-0.5-0.1-0.7c0-0.1,0-0.3-0.1-0.3
		c0-0.1-0.1-0.1-0.1,0c-0.5,1.1-1.3,1.7-2.5,1.7c-0.7,0-1.2-0.3-1.6-0.9c-0.4-0.6-0.7-1.3-0.8-2.2c-0.1-0.9,0-1.8,0.3-2.7
		c0.1-0.3,0.2-0.5,0.5-0.6c0.2-0.1,0.4-0.1,0.7,0c0.2,0.1,0.3,0.2,0.4,0.4c0,0.2,0,0.4,0,0.6c0,0.1-0.1,0.3-0.1,0.4
		c0,0.5,0,1.1,0,1.8c0,0.6,0.2,1.2,0.5,1.7c0.3,0.4,0.6,0.4,0.9,0.1c0.3-0.3,0.7-0.7,0.9-1.3c0.2-0.5,0.4-0.9,0.5-1.4
		c0.1-0.5,0.2-0.8,0.2-1.1c0-0.1,0-0.2,0-0.2c0-0.2,0.1-0.4,0.1-0.6c0.1-0.3,0.2-0.6,0.2-0.8c0.1-0.5,0.5-0.7,1.1-0.6
		c0.3,0,0.5,0.2,0.6,0.5c0,0.4,0,0.9,0,1.3c0,0.4,0,0.9-0.1,1.3c0,0.6-0.1,1.3-0.1,1.9c0,0.9,0.2,1.4,0.5,1.6
		c0.4,0.1,0.8,0.1,1.4-0.3c0.5-0.3,1.1-0.8,1.6-1.4c0-0.1,0.1-0.1,0.2-0.2c0.1-0.1,0.2-0.3,0.4-0.4c0.1-0.2,0.3-0.3,0.4-0.4
		C410.6,138.4,410.7,138.4,410.8,138.3z"/>
	<path class="st1" d="M421,138.6c0.1-0.3,0.2-0.4,0.3-0.4c0,0,0.1,0.1,0,0.4c0,0.2-0.1,0.5-0.1,0.7c-0.1,0.4-0.3,0.9-0.5,1.4
		c-0.2,0.5-0.5,1-0.8,1.5c-0.4,0.6-1,1.1-1.6,1.4c-0.6,0.3-1.2,0.4-1.8,0.2c-0.5-0.2-0.8-0.7-0.9-1.5c0-0.7,0-1.5,0.2-2.3
		c0-0.3,0.1-0.7,0.1-1c0-0.1,0-0.2-0.1-0.3c-0.1-0.1-0.1-0.1-0.2-0.1c-0.1,0-0.1,0-0.2,0c-0.4,0.1-0.8,0.1-1.3,0
		c-0.5-0.2-0.8-0.4-0.9-0.8c-0.1-0.4-0.1-0.8,0-1.4c0-0.4,0.2-0.7,0.5-0.9c0.3-0.2,0.6-0.3,0.9-0.3c0.5,0,0.7,0.2,0.7,0.6
		c0,0.3-0.1,0.7-0.3,1c-0.1,0.3-0.2,0.6-0.2,0.8c0,0.2,0.2,0.3,0.5,0.2c0.1,0,0.2,0,0.3-0.1c0.1,0,0.3-0.1,0.5-0.1
		c0.2,0,0.4-0.1,0.7,0c0.3,0,0.6,0.2,0.7,0.5c0.1,0.3,0.2,0.7,0.1,1.1c0,0.4-0.1,0.9-0.1,1.3c-0.1,0.6-0.1,1-0.1,1.5
		c0,0.4,0.1,0.6,0.3,0.7c0.3,0.1,0.8-0.2,1.4-0.8C419.7,141.2,420.3,140.1,421,138.6z"/>
	<path class="st1" d="M441.6,139.7c0.6-0.9,0.9-1.5,1-1.8c0.1-0.2,0.2-0.2,0.3,0c0.1,0.3-0.1,0.9-0.6,1.8c-0.4,1-1,1.7-1.6,2.2
		s-1.3,0.7-1.8,0.6s-1-0.5-1.2-1.2c-0.2-0.6-0.3-1.5-0.2-2.4c0,0,0-0.1,0-0.1c0-0.2,0-0.4,0.1-0.7c0-0.3,0.1-0.7,0.1-1
		c0-0.3,0-0.6,0-0.9c0-0.2-0.1-0.3-0.3-0.2c-0.4,0.2-0.8,0.6-1.2,1.3c-0.4,0.6-0.7,1.3-1,2c-0.3,0.7-0.5,1.3-0.7,1.7
		c0,0.1-0.1,0.3-0.1,0.4c-0.1,0.2-0.1,0.4-0.2,0.6c-0.2,0.6-0.6,0.8-1.1,0.6c-0.3-0.1-0.5-0.2-0.5-0.5c0-0.2,0-0.5,0-0.7
		c0-0.1,0-0.3,0-0.4c0-1.7-0.1-3.4-0.1-5.1c0-0.2,0.1-0.3,0.3-0.4c0.2-0.1,0.3-0.1,0.6-0.1c0.2,0,0.3,0,0.5,0.1
		c0.1,0.1,0.2,0.3,0.3,0.6c0,0.1,0,0.2,0,0.3c0,0,0,0.1,0,0.1c0,0.2,0,0.4,0,0.6c0,0.2,0,0.4,0,0.5c0,0.1,0.1,0.1,0.2,0
		c0.1-0.1,0.3-0.3,0.5-0.7c0.4-0.7,1-1.2,1.6-1.7c0.6-0.4,1.2-0.6,1.9-0.5c0.6,0.1,1,0.4,1.2,0.9c0.1,0.3,0.1,0.6,0.1,0.9
		c0,0.3,0,0.6,0,0.9c0,0.3,0,0.6-0.1,0.9c0,0.1,0,0.2,0,0.3c-0.1,1.1-0.1,1.8,0.1,2.2s0.4,0.5,0.8,0.4
		C440.6,141.1,441,140.6,441.6,139.7z"/>
	<path class="st1" d="M456.8,138.6c0.2-0.1,0.3-0.2,0.5-0.2c0.2,0,0.3,0,0.3,0c0,0.1,0,0.2-0.2,0.4c-0.6,0.6-1.2,1.2-2,1.8
		c-0.8,0.5-1.6,1-2.4,1.4c-0.6,0.3-1.3,0.5-2.1,0.7c-0.7,0.2-1.4,0.2-2.1,0.1c-0.7-0.1-1.3-0.4-1.9-0.9c-0.9-0.8-1.2-1.8-1.1-3
		c0.1-0.9,0.5-1.7,1.1-2.4c0.6-0.7,1.4-1.1,2.3-1.3c0.8-0.2,1.5-0.2,2.3,0c0.3,0,0.7,0.2,0.9,0.3c0.3,0.2,0.4,0.4,0.4,0.7
		c0,0.3-0.1,0.5-0.3,0.8c-0.5,0.4-1,0.7-1.7,0.8c-0.7,0.1-1.4,0.2-2.1,0.2c-0.3,0-0.6,0.1-0.7,0.2c-0.1,0.1-0.2,0.4-0.2,0.7
		c-0.1,0.9,0.2,1.7,0.9,2.3c0.4,0.3,1,0.5,1.6,0.4c0.6-0.1,1.3-0.2,2-0.5c0.7-0.3,1.4-0.6,2.1-1c0.7-0.4,1.3-0.8,1.9-1.1
		C456.4,138.8,456.6,138.7,456.8,138.6z M448.9,136.5C448.9,136.6,448.9,136.6,448.9,136.5c-0.1,0.1-0.1,0.1-0.1,0.1
		c0,0-0.1,0.1-0.1,0.1c0,0-0.1,0.1-0.1,0.1c0,0,0.2,0.1,0.4,0c0.3,0,0.5-0.1,0.8-0.1c0.3-0.1,0.6-0.2,0.8-0.3
		c0.2-0.1,0.3-0.2,0.2-0.4c0,0-0.1-0.1-0.1-0.1c-0.1,0-0.1-0.1-0.2-0.1c-0.3,0-0.6,0.1-0.8,0.2C449.4,136.2,449.1,136.4,448.9,136.5
		z"/>
	<path class="st1" d="M475.3,137.8c0,0,0.1,0.1,0.2,0.1c0.1,0.1,0.1,0.1,0.1,0.2s0,0.1-0.1,0.2c-0.6,0.3-1.4,0.5-2.2,0.4
		c-0.9-0.1-1.6-0.3-2.1-0.9c0,0.3-0.1,0.5-0.1,0.8c-0.1,0.5-0.2,1.1-0.2,1.6c-0.1,0.6-0.3,1.1-0.6,1.7c-0.4,0.6-0.9,1-1.5,1.2
		s-1.2,0.2-1.7,0.1c-0.6-0.1-1-0.4-1.4-0.8c-0.1-0.2-0.3-0.4-0.4-0.6c-0.1-0.1-0.1-0.2-0.2-0.2c-0.1,0-0.3,0.1-0.3,0.1
		c-0.1,0.1-0.2,0.2-0.2,0.2s-0.1,0.1-0.2,0.2c-0.6,0.4-1.2,0.6-1.7,0.4c-0.6-0.1-1-0.5-1.3-1.2c-0.1-0.3-0.2-0.6-0.3-0.9
		c-0.1-0.6-0.2-1.2-0.3-1.8c0-0.6-0.1-1.2,0-1.9c0-0.4,0.2-0.6,0.4-0.7c0.3-0.1,0.5-0.1,0.8,0c0.3,0.1,0.4,0.4,0.4,0.8
		c0,0.3,0,0.5,0,0.8c0,1,0.1,1.9,0.3,2.8c0.1,0.2,0.1,0.4,0.2,0.6c0,0.1,0.1,0.2,0.2,0.2c0.1,0,0.2,0,0.2-0.1
		c0.2-0.3,0.4-0.7,0.6-1.1c0.1-0.4,0.2-0.8,0.3-1.3c0,0,0-0.1,0-0.1c0-0.2,0.1-0.4,0.1-0.6c0-0.2,0.1-0.5,0.1-0.7
		c0.1-0.4,0.4-0.6,1-0.5c0.4,0,0.7,0.3,0.7,0.7c0,1,0.1,1.9,0.3,2.8c0.1,0.3,0.2,0.7,0.3,1c0.1,0.3,0.3,0.6,0.6,0.9
		c0.3,0.2,0.5,0.2,0.8,0c0.4-0.4,0.7-0.9,0.8-1.4c0.3-1,0.5-2.1,0.4-3.2c0-0.1,0-0.2,0-0.2c0-0.5,0-0.9,0-1.4c0-0.6,0.4-0.9,1-0.7
		c0.1,0,0.3,0.1,0.4,0.1c0.1,0.1,0.2,0.2,0.3,0.4c0.5,1.1,1.1,1.9,1.6,2.2s1.1,0.5,1.5,0.4C474.6,138.1,475,138,475.3,137.8
		C475.2,137.9,475.2,137.9,475.3,137.8z"/>
	<path class="st1" d="M278.7,173.8c0.1-0.3,0.3-0.5,0.4-0.5s0.2,0.2,0.1,0.5c-0.2,0.8-0.5,1.5-0.9,2.2c-0.3,0.7-0.8,1.3-1.4,1.9
		c-0.4,0.4-1,0.7-1.6,0.9c-0.8,0.1-1.5,0-2.1-0.3c-0.6-0.3-1-0.8-1.3-1.4c-0.3-0.6-0.6-1.3-0.7-2c-0.2-0.7-0.3-1.4-0.3-2.1
		c-0.1-1.3-0.2-3-0.3-5.1c-0.1-2.1,0-4.3,0.1-6.6c0.1-2.3,0.3-4.5,0.7-6.5c0.4-2,0.9-3.5,1.6-4.6c0.4-0.5,0.9-0.8,1.4-0.8
		c0.5,0,1,0.2,1.4,0.7c0.3,0.4,0.5,0.8,0.6,1.2c0.1,0.4,0.2,0.9,0.3,1.3c0.1,1.5,0.1,3.1-0.1,4.8c-0.2,1.7-0.5,3.5-0.9,5.5
		c-0.4,1.9-0.9,3.6-1.5,5.1c-0.6,1.5-1,2.6-1.4,3.5c-0.2,0.3-0.3,0.9-0.2,1.6c0.1,0.8,0.2,1.6,0.4,2.4c0.2,0.8,0.5,1.5,0.9,2
		c0.4,0.4,0.8,0.5,1.3,0.4s0.9-0.5,1.4-0.9s0.9-1,1.2-1.6C278.3,174.7,278.5,174.2,278.7,173.8z M272.7,162.2c0,0.5-0.1,1.2-0.1,2.3
		c0,1-0.1,2-0.1,3.1c0,1.2-0.1,2.1-0.1,2.7c0.4-0.8,0.8-2,1.3-3.6c0.5-1.6,0.9-3.5,1.3-5.6c0.4-2.1,0.7-4.5,0.8-7
		c-0.1-1.5-0.2-2.5-0.5-3c-0.3-0.5-0.6-0.6-0.9-0.1s-0.6,1.3-0.8,2.7c-0.3,2.3-0.5,4.6-0.7,6.9C272.8,161.1,272.7,161.6,272.7,162.2
		z"/>
	<path class="st1" d="M288.1,174.4c-0.2,0.5-0.6,1-1.2,1.6c-0.6,0.6-1.2,1-1.9,1.1c-0.7,0.2-1.4-0.1-2-0.7c-0.2-0.3-0.4-0.6-0.5-1
		c-0.1-0.4-0.2-0.7-0.1-1.1c0-0.1,0-0.2,0-0.4c0-0.4,0-0.8,0-1.3c0-0.5,0.1-1,0.2-1.4c0.1-0.4,0.3-0.7,0.5-0.7
		c0.7-0.2,1.1,0.1,1.2,0.7c0,0.2,0,0.4,0,0.6c0,0.1,0,0.2,0,0.3c0,0.3,0,0.6,0,0.9c0,0.2,0,0.5,0,0.7c0,1.1,0.2,1.7,0.7,2
		c0.5,0.2,1.1,0,1.7-0.7c0.6-0.6,1.1-1.2,1.3-1.6s0.3-0.5,0.4-0.3C288.4,173.6,288.4,174,288.1,174.4z M284.1,168.2
		c-0.1,0.1-0.2,0.1-0.4,0.2c-0.1,0-0.3,0-0.4,0c-0.1-0.1-0.1-0.2-0.2-0.3c0-0.1,0-0.2,0-0.4c0,0,0-0.1,0-0.1c0-0.1,0-0.3,0.1-0.4
		c0.1-0.4,0.5-0.5,0.9-0.5c0.2,0,0.3,0.1,0.4,0.2c0.1,0.1,0.1,0.2,0.1,0.4C284.6,167.6,284.4,167.9,284.1,168.2z"/>
	<path class="st1" d="M303.3,174.7c-0.9,1.1-1.7,1.9-2.5,2.2c-0.8,0.3-1.5,0.4-2.1,0.2s-1.1-0.4-1.6-0.8c-0.4-0.4-0.8-0.7-1-1
		c-0.1-0.1-0.1-0.1-0.2-0.2c0.6,0.9,1,2,1.2,3.4c0.2,1.4,0.2,2.6,0,3.7c-0.2,0.8-0.6,1.3-1.3,1.5s-1.3,0-2-0.5
		c-0.4-0.3-0.7-0.8-0.9-1.2c-0.4-0.8-0.7-1.6-0.9-2.4c-0.3-1.2-0.5-2.4-0.6-3.7c-0.1-1.2-0.1-2.5-0.1-3.8c0.1-1.8,0.2-3.6,0.5-5.4
		c0.3-1.8,0.7-3.5,1.2-5.3c0.3-1.1,0.7-2.4,1.2-3.9c0.5-1.5,1.1-2.9,1.9-4.3c0.8-1.4,1.6-2.4,2.7-3.1c0.4-0.3,0.9-0.5,1.4-0.6
		c1.4-0.2,2.3-0.1,2.9,0.5c0.6,0.5,0.8,1.3,0.8,2.4c-0.1,1.1-0.3,2.3-0.8,3.7c-0.5,1.4-1.1,2.9-1.8,4.3c-0.7,1.5-1.5,2.9-2.3,4.3
		c-0.8,1.4-1.5,2.6-2.2,3.6c-0.7,1-1.2,1.8-1.6,2.3c-0.1,0.1-0.2,0.3-0.3,0.5c0,0.1-0.1,0.2-0.2,0.3c1.2,1.7,2.2,2.9,3.1,3.5
		c0.9,0.6,1.7,0.9,2.4,0.8c0.7-0.1,1.2-0.3,1.7-0.7c0.5-0.4,0.9-0.8,1.2-1.2c0.3-0.4,0.5-0.6,0.7-0.6c0.2,0.1,0.3,0.2,0.1,0.5
		C303.8,174,303.6,174.3,303.3,174.7z M294.2,179.7c0.3,1.1,0.6,2,0.8,2.5c0.2,0.5,0.4,0.5,0.4,0.1c0.1-0.4,0.1-1.4-0.1-2.9
		c-0.1-1.2-0.3-2.4-0.6-3.7s-0.7-2.3-1.1-3.1c-0.2,0.8-0.2,1.9-0.1,3.2C293.7,177.3,293.9,178.5,294.2,179.7z M293.6,169.5
		c-0.1,0.5-0.1,0.8,0,0.9c0.1,0.1,0.3,0,0.6-0.5c0.5-0.7,1.2-1.7,1.9-2.9c0.8-1.2,1.6-2.6,2.4-4c0.8-1.5,1.6-3,2.2-4.5
		s1.1-2.9,1.4-4.2s0.3-2.4,0-3.3c-0.1-0.4-0.4-0.6-0.7-0.7c-0.3-0.1-0.7,0-1.1,0.2c-0.8,0.5-1.6,1.3-2.2,2.5
		c-0.7,1.2-1.3,2.5-1.8,4.1c-0.5,1.6-1,3.1-1.4,4.8c-0.4,1.6-0.7,3.1-1,4.5C293.9,167.6,293.7,168.7,293.6,169.5z"/>
	<path class="st1" d="M317.9,173.6c0.2-0.1,0.3-0.2,0.5-0.2c0.2,0,0.3,0,0.3,0c0,0.1,0,0.2-0.2,0.4c-0.6,0.6-1.2,1.2-2,1.8
		c-0.8,0.5-1.6,1-2.4,1.4c-0.6,0.3-1.3,0.5-2.1,0.7c-0.7,0.2-1.4,0.2-2.1,0.1c-0.7-0.1-1.3-0.4-1.9-0.9c-0.9-0.8-1.2-1.8-1.1-3
		c0.1-0.9,0.5-1.7,1.1-2.4c0.6-0.7,1.4-1.1,2.3-1.3c0.8-0.2,1.5-0.2,2.3,0c0.3,0,0.7,0.2,0.9,0.3c0.3,0.2,0.4,0.4,0.4,0.7
		c0,0.3-0.1,0.5-0.3,0.8c-0.5,0.4-1,0.7-1.7,0.8c-0.7,0.1-1.4,0.2-2.1,0.2c-0.3,0-0.6,0.1-0.7,0.2c-0.1,0.1-0.2,0.4-0.2,0.7
		c-0.1,0.9,0.2,1.7,0.9,2.3c0.4,0.3,1,0.5,1.6,0.4c0.6-0.1,1.3-0.2,2-0.5c0.7-0.3,1.4-0.6,2.1-1c0.7-0.4,1.3-0.8,1.9-1.1
		C317.5,173.8,317.7,173.7,317.9,173.6z M310,171.5C310,171.6,310,171.6,310,171.5c-0.1,0.1-0.1,0.1-0.1,0.1c0,0-0.1,0.1-0.1,0.1
		c0,0-0.1,0.1-0.1,0.1c0,0,0.2,0.1,0.4,0c0.3,0,0.5-0.1,0.8-0.1c0.3-0.1,0.6-0.2,0.8-0.3c0.2-0.1,0.3-0.2,0.2-0.4
		c0,0-0.1-0.1-0.1-0.1c-0.1,0-0.1-0.1-0.2-0.1c-0.3,0-0.6,0.1-0.8,0.2S310.2,171.4,310,171.5z"/>
	<path class="st1" d="M337.8,173.6c0.4-0.4,0.6-0.5,0.5-0.3c-0.1,0.2-0.3,0.6-0.7,1.1c-0.4,0.5-0.9,1.1-1.5,1.7
		c-0.6,0.6-1.2,1.1-1.9,1.6c-0.7,0.4-1.3,0.7-1.9,0.7c-0.7,0-1.3-0.2-1.8-0.6c-0.4-0.4-0.8-1-0.9-1.7c-0.2-0.7-0.3-1.5-0.2-2.3
		c0-0.9,0.1-1.9,0.1-2.8c0-0.5,0-0.9,0-1.4c0-0.7,0.1-1.5,0.1-2.2c0-0.2,0-0.4-0.1-0.6c-0.1-0.2-0.3-0.2-0.5-0.3c-0.3,0-0.6,0-1,0
		c-0.3,0-0.6,0-0.9,0c-0.3,0-0.6-0.1-0.7-0.3c-0.1-0.1,0-0.3,0.3-0.4c0.2-0.1,0.5-0.1,0.8-0.1c0.3,0,0.6,0,0.9,0c0.2,0,0.3,0,0.5,0
		c0.4,0,0.7-0.1,0.8-0.2c0.1-0.1,0.2-0.4,0.2-0.8c0-0.4,0.1-0.9,0.1-1.3c0-0.2,0-0.5,0-0.7c0-0.3,0.1-0.7,0.3-0.9
		c0.2-0.3,0.4-0.4,0.7-0.3c0.3,0.1,0.4,0.2,0.4,0.5c0,0.4,0,0.9,0,1.3c0,0.2,0,0.5,0,0.7c0,0.3,0,0.5,0,0.8c0,0.4,0,0.6,0.1,0.7
		c0.1,0.1,0.4,0.1,0.8,0.1c0.7,0,1.4,0,2,0c0.3,0,1.2,0,2.7-0.1c1.5,0,2.3,0.1,2.4,0.4s-0.8,0.4-2.8,0.5c-1.2,0.1-2.1,0.1-2.8,0.1
		c-0.4,0-0.8,0-1.2,0c-0.6,0-1,0.1-1.1,0.3c-0.1,0.2-0.2,0.6-0.2,1.3c0,0.5,0,1.2-0.1,1.9c-0.1,1.6-0.1,3.2-0.1,4.8
		c0,1.1,0.2,1.8,0.6,2.2s0.8,0.4,1.4,0.2c0.6-0.2,1.2-0.6,1.9-1.1c0.7-0.5,1.3-1.1,2-1.7c0.1-0.2,0.3-0.4,0.5-0.5
		C337.6,173.7,337.7,173.6,337.8,173.6z"/>
	<path class="st1" d="M350,172.8c0.1-0.1,0.2,0,0.2,0.4c0,0.4-0.3,0.9-1.1,1.6s-1.5,1-2.2,1c-0.2,0-0.3,0-0.4,0
		c-0.1,0-0.2,0.1-0.3,0.3c-0.1,0.1-0.2,0.3-0.3,0.4l0,0c-0.5,0.5-1,0.8-1.6,1c-0.6,0.2-1.2,0.1-1.8-0.1c-0.6-0.3-1-0.7-1.2-1.5
		c-0.2-0.6-0.2-1.3,0-1.9c0.1-0.6,0.3-1.1,0.6-1.6c0.3-0.7,0.8-1.1,1.4-1.4c0.6-0.3,1.2-0.4,1.9-0.5c1,0,1.7,0.4,2,1.5
		c0.2,0.6,0.2,1.2,0.1,1.8c0,0.1,0,0.3-0.1,0.4c0,0.1-0.1,0.2-0.1,0.3c0,0.3,0.1,0.5,0.4,0.4C348.2,174.9,349.1,174.2,350,172.8z
		 M343.8,176.7c0.5-0.2,0.9-0.7,1.1-1.3c-0.9-0.6-1.5-1.4-1.8-2.4c-0.3,0.5-0.5,1.1-0.5,1.7c-0.1,0.7,0,1.2,0.2,1.6
		C343,176.8,343.3,176.9,343.8,176.7z M345.3,174.3c0.1-0.2,0.2-0.5,0.3-0.8c0-0.3,0-0.6,0-0.9c-0.1-0.3-0.1-0.5-0.2-0.7
		c-0.1-0.2-0.2-0.2-0.3-0.2c-0.2,0.2-0.3,0.4-0.3,0.8c0,0.3,0,0.7,0.1,1C344.9,173.8,345.1,174.1,345.3,174.3z"/>
	<path class="st1" d="M365.7,173.3c0.1,0,0.3,0,0.4,0c0.1,0,0.2,0,0.2,0.1c0,0.1-0.1,0.2-0.3,0.3c-0.1,0-0.2,0.1-0.3,0.2
		c-0.4,0.3-0.9,0.6-1.4,0.9c-0.6,0.4-1.1,0.7-1.5,1.1c-0.5,0.3-0.8,0.6-0.9,0.7c-0.2,0.2-0.3,0.5-0.3,0.8c0,0.3-0.1,0.6-0.1,0.9
		c0,0.2,0,0.5-0.1,0.7c-0.4,2.7-1.2,5-2.2,6.8c-1,1.9-2.2,3.4-3.4,4.5c-1.3,1.1-2.5,1.9-3.7,2.2c-1.2,0.3-2.2,0.3-3.1-0.1
		c-0.8-0.4-1.3-1.3-1.5-2.5c-0.1-1,0.1-2,0.6-3c0.5-1,1.1-2,1.9-2.9c0.8-0.9,1.7-1.8,2.6-2.6c0.9-0.8,1.7-1.4,2.5-1.9
		c0.2-0.1,0.4-0.3,0.7-0.4c1.1-0.7,2.2-1.5,3.3-2.2c0.7-0.4,1-1,1-1.7c0-0.1,0-0.2,0-0.3c0-0.2,0-0.4,0-0.7c-0.4,0.7-1,1.3-1.8,1.8
		s-1.6,0.9-2.4,1.2c-0.8,0.2-1.5,0.2-2.1,0s-0.9-0.9-0.9-1.8c0-0.5,0.2-1,0.4-1.4c0.6-1.1,1.5-2,2.6-2.6c0.4-0.2,0.9-0.4,1.5-0.5
		c0.6-0.1,1.2-0.1,1.7,0c0.5,0.1,1,0.4,1.3,0.8c0.1-0.1,0.2-0.2,0.4-0.3c0.2,0,0.3-0.1,0.4-0.1c0,0,0.1,0,0.1,0
		c0.6-0.1,0.9,0.2,0.9,0.8c0,0.4,0,0.9,0,1.3c0,0.3,0,0.7,0,1c0,0.4,0.2,0.5,0.6,0.4s0.9-0.4,1.4-0.7
		C364.6,173.8,365.2,173.5,365.7,173.3z M359.3,178.9C359.3,178.9,359.4,178.9,359.3,178.9c0-0.1,0.1-0.3,0.1-0.4c0-0.2,0-0.3,0-0.4
		c0-0.1-0.1-0.1-0.2,0c-0.7,0.5-1.4,1-2.2,1.6c-0.4,0.3-0.9,0.6-1.3,0.9c-0.6,0.4-1.2,1-2,1.6s-1.5,1.4-2.2,2.2
		c-0.7,0.8-1.3,1.7-1.8,2.5s-0.7,1.7-0.7,2.5c0,1.1,0.4,1.8,0.9,2s1.3,0.1,2.2-0.4s1.8-1.3,2.7-2.5s1.8-2.5,2.6-4.2
		S359,180.9,359.3,178.9z M358.4,173.9c0.7-0.7,1.1-1.2,1.1-1.6c-0.2-0.3-0.4-0.5-0.8-0.5s-0.7-0.1-1.1,0c-0.4,0.1-0.7,0.2-0.9,0.3
		c-0.7,0.4-1.2,1-1.5,1.6c-0.3,0.6-0.4,1.1-0.4,1.6s0.4,0.6,1,0.4S357.3,175,358.4,173.9z"/>
	<path class="st1" d="M379.9,173.6c0.2-0.1,0.3-0.2,0.5-0.2c0.2,0,0.3,0,0.3,0c0,0.1,0,0.2-0.2,0.4c-0.6,0.6-1.2,1.2-2,1.8
		c-0.8,0.5-1.6,1-2.4,1.4c-0.6,0.3-1.3,0.5-2.1,0.7c-0.7,0.2-1.4,0.2-2.1,0.1c-0.7-0.1-1.3-0.4-1.9-0.9c-0.9-0.8-1.2-1.8-1.1-3
		c0.1-0.9,0.5-1.7,1.1-2.4c0.6-0.7,1.4-1.1,2.3-1.3c0.8-0.2,1.5-0.2,2.3,0c0.3,0,0.7,0.2,0.9,0.3c0.3,0.2,0.4,0.4,0.4,0.7
		c0,0.3-0.1,0.5-0.3,0.8c-0.5,0.4-1,0.7-1.7,0.8c-0.7,0.1-1.4,0.2-2.1,0.2c-0.3,0-0.6,0.1-0.7,0.2c-0.1,0.1-0.2,0.4-0.2,0.7
		c-0.1,0.9,0.2,1.7,0.9,2.3c0.4,0.3,1,0.5,1.6,0.4c0.6-0.1,1.3-0.2,2-0.5c0.7-0.3,1.4-0.6,2.1-1c0.7-0.4,1.3-0.8,1.9-1.1
		C379.5,173.8,379.7,173.7,379.9,173.6z M372,171.5C372,171.6,372,171.6,372,171.5c-0.1,0.1-0.1,0.1-0.1,0.1c0,0-0.1,0.1-0.1,0.1
		c0,0-0.1,0.1-0.1,0.1c0,0,0.2,0.1,0.4,0c0.3,0,0.5-0.1,0.8-0.1c0.3-0.1,0.6-0.2,0.8-0.3c0.2-0.1,0.3-0.2,0.2-0.4
		c0,0-0.1-0.1-0.1-0.1c-0.1,0-0.1-0.1-0.2-0.1c-0.3,0-0.6,0.1-0.8,0.2S372.3,171.4,372,171.5z"/>
	<path class="st1" d="M391.9,173.6c0.4-0.4,0.6-0.5,0.5-0.3c-0.1,0.2-0.3,0.6-0.7,1.1c-0.4,0.5-0.9,1.1-1.5,1.7
		c-0.6,0.6-1.2,1.1-1.9,1.6c-0.7,0.4-1.3,0.7-1.9,0.7c-0.7,0-1.3-0.2-1.8-0.6c-0.4-0.4-0.8-1-0.9-1.7c-0.2-0.7-0.3-1.5-0.2-2.3
		c0-0.9,0.1-1.9,0.1-2.8c0-0.5,0-0.9,0-1.4c0-0.7,0.1-1.5,0.1-2.2c0-0.2,0-0.4-0.1-0.6c-0.1-0.2-0.3-0.2-0.5-0.3c-0.3,0-0.6,0-1,0
		c-0.3,0-0.6,0-0.9,0c-0.3,0-0.6-0.1-0.7-0.3c-0.1-0.1,0-0.3,0.3-0.4c0.2-0.1,0.5-0.1,0.8-0.1c0.3,0,0.6,0,0.9,0c0.2,0,0.3,0,0.5,0
		c0.4,0,0.7-0.1,0.8-0.2c0.1-0.1,0.2-0.4,0.2-0.8c0-0.4,0.1-0.9,0.1-1.3c0-0.2,0-0.5,0-0.7c0-0.3,0.1-0.7,0.3-0.9
		c0.2-0.3,0.4-0.4,0.7-0.3c0.3,0.1,0.4,0.2,0.4,0.5c0,0.4,0,0.9,0,1.3c0,0.2,0,0.5,0,0.7c0,0.3,0,0.5,0,0.8c0,0.4,0,0.6,0.1,0.7
		c0.1,0.1,0.4,0.1,0.8,0.1c0.7,0,1.4,0,2,0c0.3,0,1.2,0,2.7-0.1c1.5,0,2.3,0.1,2.4,0.4s-0.8,0.4-2.8,0.5c-1.2,0.1-2.1,0.1-2.8,0.1
		c-0.4,0-0.8,0-1.2,0c-0.6,0-1,0.1-1.1,0.3c-0.1,0.2-0.2,0.6-0.2,1.3c0,0.5,0,1.2-0.1,1.9c-0.1,1.6-0.1,3.2-0.1,4.8
		c0,1.1,0.2,1.8,0.6,2.2s0.8,0.4,1.4,0.2c0.6-0.2,1.2-0.6,1.9-1.1c0.7-0.5,1.3-1.1,2-1.7c0.1-0.2,0.3-0.4,0.5-0.5
		C391.8,173.7,391.9,173.6,391.9,173.6z"/>
	<path class="st1" d="M406.5,173.5c0.6-0.7,1-1,1-0.8s-0.1,0.6-0.4,1.2c-0.3,0.6-0.8,1.1-1.4,1.6c-0.5,0.3-0.9,0.5-1.2,0.6
		c-0.3,0.1-0.7,0.2-0.9,0.2c-0.5,0-1-0.1-1.3-0.5c-0.3-0.3-0.5-0.8-0.6-1.3c-0.1-0.5-0.2-1.1-0.2-1.7c0-0.4-0.1-0.7-0.1-1
		c-0.1-0.5-0.2-0.7-0.4-0.8s-0.5,0.2-0.9,0.9c-0.4,0.7-0.8,1.5-1.1,2.3c-0.3,0.8-0.6,1.7-0.9,2.5c0,0,0,0.1,0,0.1
		c0,0.1-0.1,0.2-0.1,0.3c-0.1,0.3-0.2,0.7-0.3,1c-0.1,0.3-0.3,0.4-0.6,0.5c-0.3,0.1-0.6,0.1-0.9,0c-0.2-0.1-0.3-0.2-0.4-0.4
		c-0.1-0.3-0.1-0.6-0.1-0.9c0,0,0-0.1,0-0.1c0.1-1.3,0.1-3.5,0-6.5c0-2.4,0-5.1,0-7.9s0.1-5.5,0.2-7.9c0.1-2.5,0.4-4.5,0.7-6
		c0.1-0.5,0.4-1,0.7-1.5s0.7-0.7,1.2-0.7c0.4,0,0.8,0.2,1.2,0.9c0.2,0.5,0.4,1.1,0.5,1.7c0.2,1.8,0,4.5-0.4,8.1
		c-0.5,3.7-1,6.9-1.5,9.6c-0.5,2.7-0.8,5-0.8,6.9c0.2-0.3,0.3-0.6,0.5-0.9c0.2-0.5,0.5-0.9,0.8-1.4c0.3-0.5,0.6-0.9,1-1.2
		c0.4-0.3,0.9-0.5,1.4-0.6c0.4-0.1,0.8,0,1.2,0.1s0.7,0.4,0.8,0.8c0.2,0.8,0.2,1.6,0.2,2.4c0,0.9,0.2,1.5,0.5,1.7
		c0.3,0.2,0.7,0.3,1.2,0.1C405.3,174.7,405.9,174.3,406.5,173.5z M398.1,150.1c-0.1,0.9-0.2,2.5-0.3,4.7c-0.1,2.2-0.2,4.4-0.3,6.6
		c-0.1,2.2-0.1,4.1-0.1,5.5c0.2-1.3,0.4-3.1,0.7-5.2c0.3-2.1,0.5-4.3,0.7-6.6s0.3-4,0.3-5.1c0-0.6-0.1-1-0.1-1.3
		c-0.1-0.3-0.2-0.4-0.3-0.3c-0.2,0.1-0.3,0.3-0.4,0.6C398.1,149.5,398.1,149.8,398.1,150.1z"/>
	<path class="st1" d="M421.5,173.6c0.2-0.1,0.3-0.2,0.5-0.2c0.2,0,0.3,0,0.3,0c0,0.1,0,0.2-0.2,0.4c-0.6,0.6-1.2,1.2-2,1.8
		c-0.8,0.5-1.6,1-2.4,1.4c-0.6,0.3-1.3,0.5-2.1,0.7c-0.7,0.2-1.4,0.2-2.1,0.1c-0.7-0.1-1.3-0.4-1.9-0.9c-0.9-0.8-1.2-1.8-1.1-3
		c0.1-0.9,0.5-1.7,1.1-2.4c0.6-0.7,1.4-1.1,2.3-1.3c0.8-0.2,1.5-0.2,2.3,0c0.3,0,0.7,0.2,0.9,0.3c0.3,0.2,0.4,0.4,0.4,0.7
		c0,0.3-0.1,0.5-0.3,0.8c-0.5,0.4-1,0.7-1.7,0.8c-0.7,0.1-1.4,0.2-2.1,0.2c-0.3,0-0.6,0.1-0.7,0.2c-0.1,0.1-0.2,0.4-0.2,0.7
		c-0.1,0.9,0.2,1.7,0.9,2.3c0.4,0.3,1,0.5,1.6,0.4c0.6-0.1,1.3-0.2,2-0.5c0.7-0.3,1.4-0.6,2.1-1c0.7-0.4,1.3-0.8,1.9-1.1
		C421.1,173.8,421.3,173.7,421.5,173.6z M413.6,171.5C413.6,171.6,413.6,171.6,413.6,171.5c-0.1,0.1-0.1,0.1-0.1,0.1
		c0,0-0.1,0.1-0.1,0.1c0,0-0.1,0.1-0.1,0.1c0,0,0.2,0.1,0.4,0c0.3,0,0.5-0.1,0.8-0.1c0.3-0.1,0.6-0.2,0.8-0.3
		c0.2-0.1,0.3-0.2,0.2-0.4c0,0-0.1-0.1-0.1-0.1c-0.1,0-0.1-0.1-0.2-0.1c-0.3,0-0.6,0.1-0.8,0.2S413.8,171.4,413.6,171.5z"/>
	<path class="st1" d="M432.4,173.6c0.1-0.3,0.2-0.4,0.3-0.4c0,0,0.1,0.1,0,0.4c0,0.2-0.1,0.5-0.1,0.7c-0.1,0.4-0.3,0.9-0.5,1.4
		c-0.2,0.5-0.5,1-0.8,1.5c-0.4,0.6-1,1.1-1.6,1.4c-0.6,0.3-1.2,0.4-1.8,0.2c-0.5-0.2-0.8-0.7-0.9-1.5c0-0.7,0-1.5,0.2-2.3
		c0-0.3,0.1-0.7,0.1-1c0-0.1,0-0.2-0.1-0.3c-0.1-0.1-0.1-0.1-0.2-0.1c-0.1,0-0.1,0-0.2,0c-0.4,0.1-0.8,0.1-1.3,0
		c-0.5-0.2-0.8-0.4-0.9-0.8c-0.1-0.4-0.1-0.8,0-1.4c0-0.4,0.2-0.7,0.5-0.9c0.3-0.2,0.6-0.3,0.9-0.3c0.5,0,0.7,0.2,0.7,0.6
		c0,0.3-0.1,0.7-0.3,1c-0.1,0.3-0.2,0.6-0.2,0.8c0,0.2,0.2,0.3,0.5,0.2c0.1,0,0.2,0,0.3-0.1c0.1,0,0.3-0.1,0.5-0.1
		c0.2,0,0.4-0.1,0.7,0c0.3,0,0.6,0.2,0.7,0.5c0.1,0.3,0.2,0.7,0.1,1.1c0,0.4-0.1,0.9-0.1,1.3c-0.1,0.6-0.1,1-0.1,1.5
		c0,0.4,0.1,0.6,0.3,0.7c0.3,0.1,0.8-0.2,1.4-0.8C431.1,176.2,431.7,175.1,432.4,173.6z"/>
</g>
</svg>
