<?xml version="1.0" encoding="utf-8"?>
<!-- Generator: Adobe Illustrator 19.0.0, SVG Export Plug-In . SVG Version: 6.00 Build 0)  -->
<svg width="406px" height="430px" version="1.1" id="Layer_1" xmlns="http://www.w3.org/2000/svg" xmlns:xlink="http://www.w3.org/1999/xlink" x="0px" y="0px"
	 viewBox="-296 286 406 430" style="enable-background:new -296 286 406 430;" xml:space="preserve">
<style type="text/css">
	.st0{fill:#323159;}
	.st1{fill:#FFFFFF;}
	.st2{fill:none;stroke:#FFFFFF;stroke-width:0.9015;}
	.st3{display:none;}
	.st4{display:inline;fill:#FFFFFF;}
</style>
<title>Group 2</title>
<desc>Created with Sketch.</desc>
<g id="Page-1">
	<g id="Wedding-Invitation_4" transform="translate(-517.000000, -235.000000)">
		<g id="Group-2" transform="translate(517.000000, 235.000000)">
			<rect id="Rectangle" x="-296" y="286" class="st0" width="406" height="430"/>
			<g id="Group-15" transform="translate(81.644444, 72.117400)">
				<path id="Combined-Shape" class="st1" d="M-193.7,303.9c0.2-0.6,0.5-1.2,0.9-1.8c-0.4-0.3-0.6-0.6-0.7-0.9
					c-0.1-0.3-0.1-0.6-0.1-0.9c0.1-0.2,0.3-0.5,0.5-0.6c0.3-0.2,0.6-0.3,1.1-0.3c-0.2,0.3-0.2,0.6-0.2,1s0.2,0.7,0.5,0.9
					c0.8-0.4,1.6-0.7,2.5-0.9c0.8-0.2,1.7-0.1,2.7,0.1c0.7,0.2,1.3,0.5,1.7,1c0.4,0.5,0.5,1,0.4,1.5c-0.1,1.2-0.8,1.8-2,1.8
					c-0.5,0-0.9-0.1-1.3-0.4c-0.4-0.3-0.6-0.6-0.6-0.9c-0.1-0.7,0.1-1.4,0.8-2c-1-0.3-2-0.2-2.8,0.2s-1.4,0.9-1.8,1.6
					s-0.6,1.5-0.5,2.4c0,0.9,0.4,1.7,1.1,2.5c0.2-0.3,0.4-0.6,0.7-0.9c0.3-0.3,0.6-0.5,0.9-0.6c0.2-0.1,0.4-0.1,0.5-0.1
					c0.2,0,0.3,0,0.5,0.1c0.1,0.1,0.2,0.2,0.3,0.3c0,0.1,0,0.3,0,0.5c-0.2,0.4-0.2,0.8-0.1,1.2s0.3,0.8,0.7,1.1
					c0.3,0.3,0.7,0.6,1.2,0.8c0.5,0.2,1,0.3,1.5,0.3c0.8,0,1.5-0.2,2.1-0.6c0.6-0.4,1.1-0.8,1.5-1.4c0.4-0.5,0.7-1.1,0.8-1.7
					c0.1-0.6,0.1-1.2,0-1.7c0.3-0.1,0.6,0,0.8,0.1c0.2,0.1,0.4,0.3,0.5,0.6c0.1,0.2,0.2,0.5,0.2,0.9c0,0.3,0,0.6-0.1,1
					c0.6-0.3,1-0.7,1.3-1.2c0.3-0.6,0.4-1.2,0.3-2c-0.1-0.5-0.2-1-0.4-1.4c-0.2-0.4-0.5-0.8-0.8-1.2s-0.6-0.7-1-1.1
					c-0.4-0.4-0.7-0.8-1.1-1.2c-0.1-0.2-0.1-0.4,0-0.5s0.4-0.1,0.7,0.1c0.4,0.2,0.8,0.4,1.1,0.6c0.4,0.2,0.8,0.4,1.2,0.6
					c0-0.6-0.2-1.2-0.7-1.8c-0.5-0.5-1-1-1.6-1.4s-1.3-0.6-1.9-0.7c-0.6-0.1-1.1,0-1.5,0.3c-0.2,0.2-0.3,0.4-0.3,0.6
					s0.2,0.3,0.5,0.3c-0.1,0.8-0.9,1.2-2.2,1.2c-0.4,0-0.7-0.1-1-0.3c-0.3-0.2-0.6-0.4-0.8-0.7c-0.2-0.3-0.4-0.5-0.4-0.9
					c-0.1-0.3,0-0.6,0.2-0.9c-0.4-0.1-0.7-0.4-0.8-0.7c-0.1-0.3-0.2-0.6-0.1-1c0.1-0.6,0.4-1.1,0.8-1.3c0.4-0.3,0.9-0.5,1.5-0.8
					c0-0.5,0-0.8,0.2-1.1c0.2-0.3,0.5-0.5,0.9-0.7c0.4-0.1,0.8-0.2,1.4-0.2c0.5,0,1.1,0,1.7,0.1c0.1-0.2,0-0.4-0.1-0.5
					s-0.3-0.2-0.5-0.3s-0.4-0.2-0.5-0.3s-0.2-0.3-0.1-0.4c0.3-0.9,0.7-1.7,1.2-2.4c0.6-0.7,1.4-1.1,2.6-1.3c0.6,0,1.2,0,1.8,0.2
					c0.6,0.2,1,0.5,1.2,0.9c0.1,0.2,0.1,0.3,0,0.5c-0.1,0.1-0.2,0.3-0.4,0.3c-0.2,0.1-0.4,0.1-0.6,0.1s-0.4,0-0.6-0.1
					s-0.3-0.2-0.5-0.3c-0.1-0.1-0.3-0.2-0.4-0.3s-0.3-0.2-0.4-0.2c-0.1-0.1-0.3-0.1-0.5,0c-0.2,0-0.5,0.2-0.6,0.5
					c-0.2,0.3-0.3,0.6-0.4,0.9s-0.1,0.6-0.1,0.9s0.2,0.4,0.3,0.5c0.3,0,0.5,0,0.6-0.2c0.1-0.2,0.3-0.4,0.7-0.7
					c0.2-0.2,0.4-0.3,0.6-0.2c0.2,0,0.2,0.2,0.1,0.6c-0.1,0.3-0.2,0.6-0.3,1c-0.2,0.4-0.3,0.7-0.4,1c-0.1,0.3-0.1,0.6,0,0.9
					c0.1,0.3,0.3,0.5,0.6,0.6c0.1-0.5,0.3-0.8,0.4-1c0.1-0.2,0.3-0.4,0.7-0.6c0.1-0.1,0.3-0.1,0.5-0.1s0.3,0,0.5,0.1
					c0.1,0.1,0.2,0.2,0.3,0.3s0,0.4-0.2,0.6c-0.4,0.6-0.3,1.5,0.3,2.5c0.5,0.9,1,2,1.3,3.2c0.3,1.2,0.5,2.5,0.5,3.8
					c0,1.3-0.3,2.6-0.9,3.8c-0.6,1.2-1.4,2.3-2.6,3.3c0.4-0.1,0.9-0.1,1.3,0s0.8,0.3,1.1,0.5c0.3,0.2,0.5,0.5,0.6,0.8
					c0.1,0.3,0.2,0.7,0.1,1.1c-0.4-0.3-0.8-0.6-1.2-0.7c-0.4-0.1-0.8-0.2-1.2-0.2c-0.6,0-1.2,0.1-1.9,0.2c-0.6,0.2-1.2,0.4-1.9,0.6
					c-0.6,0.2-1.3,0.4-1.9,0.6c-0.6,0.2-1.3,0.3-1.9,0.3c-0.8,0-1.6,0-2.4-0.2c-0.8-0.1-1.5-0.3-2.3-0.7c-0.7-0.3-1.4-0.7-1.9-1.3
					c-0.6-0.5-1-1.2-1.4-2.1c-0.3-0.9-0.5-1.8-0.4-2.8c0-0.1,0-0.1,0-0.2c-1.7,0.1-3.4,0.4-5,0.9c-1.7,0.6-3.4,1.3-4.9,2.2
					c-1,0.5-2.1,1-3.3,1.4s-2.4,0.6-3.6,0.7c-1.2,0.1-2.4,0.1-3.6,0c-1.2-0.1-2.2-0.4-3.1-0.8c-1-0.4-1.8-1-2.6-1.7
					c-0.7-0.7-1.3-1.5-1.8-2.4c-0.4-0.9-0.7-1.9-0.9-2.9c-0.2-1.1-0.2-2.2-0.1-3.3c0.1-1,0.3-2,0.6-2.9c0.4-0.9,0.8-1.7,1.4-2.4
					c0.6-0.7,1.3-1.2,2.1-1.6c0.8-0.4,1.8-0.5,2.8-0.3c0.3,0,0.6,0.1,0.9,0.3c0.3,0.1,0.5,0.3,0.7,0.5c0.2,0.2,0.3,0.5,0.5,0.8
					c0.1,0.3,0.1,0.6,0.1,0.9c-0.1,0.6-0.3,1.2-0.8,1.5c-0.5,0.4-1,0.5-1.7,0.5c-0.1,0-0.2-0.1-0.2-0.2s-0.1-0.2-0.1-0.3
					s0-0.2,0.1-0.3c0-0.1,0.1-0.2,0.2-0.2c0.5,0,0.7-0.1,0.8-0.5c0-0.1,0-0.2-0.1-0.4c-0.1-0.1-0.2-0.2-0.3-0.3s-0.2-0.2-0.4-0.3
					s-0.3-0.1-0.5-0.1c-0.9-0.1-1.6,0.1-2.4,0.5c-0.7,0.4-1.4,0.9-1.8,1.6c-0.5,0.7-0.8,1.4-1,2.3s-0.1,1.7,0.2,2.6
					c0.3-0.3,0.5-0.7,0.9-1c0.4-0.3,0.8-0.6,1.2-0.8c0.4-0.3,0.9-0.5,1.3-0.6c0.5-0.1,0.9-0.2,1.3-0.2c0.3,0,0.6,0,1,0.1
					s0.7,0.2,0.9,0.4c0.3,0.2,0.5,0.4,0.7,0.7c0.2,0.3,0.3,0.6,0.3,0.9c-0.3,0-0.5,0-0.8,0s-0.5,0.1-0.8,0.2
					c-0.3,0.1-0.5,0.1-0.7,0.2c-0.3,0.1-0.5,0.1-0.8,0.1c-0.2,0-0.5,0-0.7-0.1s-0.5-0.1-0.8-0.2c-0.3,0-0.5-0.1-0.8-0.1
					s-0.5,0.1-0.7,0.2c-0.3,0.1-0.5,0.4-0.7,0.7c-0.2,0.3-0.4,0.8-0.5,1.4c-0.1,0.5-0.1,1.1,0,1.6c0.1,0.6,0.4,1.1,0.7,1.7
					c0.4,0.5,0.8,1,1.4,1.5c0.5,0.5,1.1,0.8,1.9,1.2c0.8,0.4,1.8,0.6,2.9,0.7c1.1,0.1,2.2,0.1,3.3,0c1.2-0.1,2.3-0.4,3.5-0.7
					c1.2-0.3,2.2-0.8,3.2-1.3c0.8-0.4,1.6-0.8,2.5-1.2s1.8-0.7,2.7-1c0.9-0.3,1.9-0.5,2.8-0.7C-195.4,303.9-194.5,303.9-193.7,303.9
					z M-155.6,303.9c0.8,0,1.7,0,2.5,0.1c1,0.2,1.9,0.4,2.8,0.7c0.9,0.3,1.8,0.6,2.7,1c0.9,0.4,1.7,0.8,2.5,1.2c1,0.5,2,1,3.2,1.3
					c1.2,0.3,2.3,0.6,3.5,0.7c1.2,0.1,2.3,0.1,3.4,0s2-0.3,2.9-0.7c0.7-0.3,1.3-0.7,1.9-1.2c0.5-0.5,1-1,1.3-1.5
					c0.4-0.5,0.6-1.1,0.7-1.7c0.1-0.6,0.1-1.1,0-1.6c-0.1-0.6-0.3-1.1-0.5-1.4c-0.2-0.3-0.4-0.5-0.7-0.7c-0.2-0.1-0.5-0.2-0.8-0.2
					c-0.2,0-0.5,0-0.8,0.1c-0.3,0-0.5,0.1-0.8,0.2c-0.3,0.1-0.5,0.1-0.7,0.1c-0.3,0-0.5,0-0.8-0.1c-0.2-0.1-0.5-0.2-0.7-0.2
					c-0.2-0.1-0.5-0.1-0.8-0.2s-0.5-0.1-0.8,0c0-0.4,0.1-0.7,0.3-0.9c0.2-0.3,0.4-0.5,0.7-0.7c0.3-0.2,0.6-0.3,0.9-0.4
					c0.4-0.1,0.7-0.1,1-0.1c0.5,0,0.9,0,1.3,0.2c0.5,0.1,0.9,0.3,1.3,0.6c0.4,0.2,0.8,0.5,1.2,0.8c0.4,0.3,0.7,0.6,0.9,1
					c0.3-0.9,0.4-1.8,0.2-2.6c-0.2-0.9-0.5-1.6-1-2.3c-0.5-0.6-1.1-1.2-1.8-1.6c-0.7-0.4-1.5-0.5-2.4-0.5c-0.1,0-0.3,0-0.5,0.1
					c-0.1,0.1-0.3,0.1-0.4,0.3c-0.1,0.1-0.2,0.2-0.3,0.3c-0.1,0.1-0.1,0.3-0.1,0.4c0.1,0.4,0.4,0.5,0.9,0.5c0.1,0,0.2,0.1,0.2,0.2
					c0.1,0.1,0.1,0.2,0.1,0.3s0,0.2-0.1,0.3c0,0.1-0.1,0.2-0.3,0.2c-0.7,0-1.2-0.1-1.7-0.5s-0.7-0.9-0.8-1.5c0-0.3,0-0.6,0.1-0.9
					s0.3-0.5,0.5-0.8c0.2-0.2,0.4-0.4,0.7-0.5c0.3-0.1,0.6-0.2,1-0.3c1-0.1,2,0,2.8,0.3c0.8,0.4,1.5,0.9,2.1,1.6
					c0.6,0.7,1,1.5,1.4,2.4c0.3,0.9,0.5,1.9,0.6,2.9c0.1,1.1,0,2.2-0.1,3.3c-0.2,1.1-0.5,2-0.9,2.9c-0.5,0.9-1,1.7-1.7,2.4
					c-0.7,0.7-1.6,1.3-2.6,1.7c-0.9,0.4-2,0.7-3.2,0.8s-2.4,0.1-3.6,0s-2.4-0.3-3.6-0.7s-2.3-0.8-3.3-1.4c-1.5-0.9-3.2-1.6-4.9-2.2
					c-1.6-0.5-3.2-0.8-5-0.9c0,0.1,0,0.1,0,0.2c0,1-0.1,2-0.4,2.8c-0.3,0.8-0.8,1.5-1.4,2.1s-1.2,1-1.9,1.3
					c-0.7,0.3-1.5,0.5-2.3,0.7c-0.8,0.2-1.6,0.2-2.4,0.2c-0.6,0-1.3-0.1-1.9-0.3c-0.6-0.2-1.3-0.4-1.9-0.6c-0.6-0.2-1.2-0.4-1.9-0.6
					c-0.6-0.2-1.2-0.2-1.8-0.2c-0.4,0-0.8,0.1-1.2,0.2c-0.4,0.1-0.8,0.4-1.2,0.7c-0.1-0.4-0.1-0.8,0-1.1c0.1-0.3,0.4-0.6,0.7-0.8
					c0.3-0.2,0.6-0.4,1-0.5s0.8-0.1,1.3,0c-1.1-1-2-2.1-2.6-3.3c-0.6-1.2-0.9-2.5-0.9-3.8c0-1.3,0.2-2.5,0.5-3.8
					c0.4-1.2,0.8-2.3,1.3-3.2c0.3-0.5,0.5-1,0.5-1.4s0-0.8-0.3-1.1c-0.1-0.3-0.2-0.5-0.2-0.6s0.1-0.2,0.2-0.3c0.1,0,0.3-0.1,0.5-0.1
					s0.3,0,0.5,0.1c0.4,0.2,0.6,0.4,0.7,0.6c0.1,0.2,0.2,0.6,0.4,1c0.3-0.2,0.5-0.4,0.6-0.6c0.1-0.3,0-0.5,0-0.9
					c-0.1-0.3-0.2-0.6-0.4-1c-0.1-0.3-0.3-0.7-0.3-1c-0.1-0.4-0.1-0.6,0.1-0.6s0.4,0,0.6,0.2c0.4,0.3,0.6,0.5,0.7,0.7
					c0.1,0.2,0.3,0.2,0.6,0.2c0.2-0.1,0.3-0.2,0.3-0.5c0-0.3,0-0.6,0-0.9c-0.1-0.3-0.2-0.6-0.4-0.9c-0.2-0.3-0.4-0.5-0.7-0.5
					c-0.2,0-0.4,0-0.5,0s-0.3,0.1-0.4,0.2s-0.2,0.2-0.4,0.3c-0.1,0.1-0.3,0.2-0.5,0.3s-0.4,0.1-0.6,0.1s-0.4-0.1-0.6-0.1
					c-0.2-0.1-0.3-0.2-0.4-0.3s-0.1-0.3,0-0.5c0.2-0.4,0.6-0.7,1.2-0.9c0.6-0.2,1.2-0.2,1.8-0.2c0.6,0,1.1,0.2,1.5,0.4
					c0.5,0.2,0.8,0.5,1.1,0.8c0.3,0.3,0.6,0.7,0.8,1.1c0.2,0.4,0.4,0.8,0.5,1.3c0,0.2,0,0.3-0.2,0.4c-0.1,0.1-0.3,0.2-0.5,0.3
					s-0.4,0.2-0.5,0.3s-0.2,0.3-0.1,0.5c1.2-0.2,2.3-0.2,3.1,0.1c0.8,0.3,1.2,0.9,1,1.8c0.6,0.2,1.1,0.5,1.5,0.8
					c0.4,0.3,0.7,0.7,0.8,1.3c0.1,0.3,0,0.6-0.1,1c-0.2,0.3-0.5,0.5-0.9,0.7c0.2,0.2,0.2,0.5,0.2,0.9c0,0.3-0.2,0.6-0.4,0.9
					c-0.2,0.3-0.5,0.5-0.8,0.7c-0.3,0.2-0.7,0.3-1,0.3c-1.3,0-2.1-0.4-2.2-1.2c0.3,0,0.5,0,0.5-0.3c0-0.2,0-0.4-0.3-0.6
					c-0.4-0.3-0.9-0.4-1.5-0.3c-0.6,0.1-1.3,0.3-1.9,0.7s-1.1,0.8-1.6,1.4c-0.5,0.5-0.7,1.1-0.7,1.8c0.4-0.2,0.8-0.4,1.2-0.6
					c0.4-0.2,0.7-0.4,1.1-0.6c0.4-0.2,0.6-0.2,0.8-0.1c0.1,0.1,0.1,0.3,0,0.5c-0.4,0.4-0.8,0.8-1.1,1.2c-0.4,0.4-0.7,0.8-1,1.1
					c-0.3,0.4-0.6,0.8-0.8,1.2c-0.2,0.4-0.3,0.9-0.4,1.4c-0.1,0.8,0,1.4,0.3,2c0.3,0.5,0.7,1,1.3,1.2c-0.1-0.3-0.1-0.6-0.1-1
					c0-0.3,0.1-0.6,0.2-0.9c0.1-0.3,0.3-0.5,0.5-0.6s0.5-0.1,0.8-0.1c-0.2,0.5-0.2,1.1-0.1,1.7c0.1,0.6,0.4,1.2,0.8,1.7
					s0.9,1,1.5,1.4s1.3,0.6,2.1,0.6c0.5,0,1.1-0.1,1.6-0.3c0.5-0.2,0.9-0.5,1.3-0.8c0.3-0.3,0.5-0.7,0.7-1.1
					c0.1-0.4,0.1-0.8-0.1-1.2c-0.1-0.2-0.1-0.4-0.1-0.5s0.1-0.3,0.3-0.3c0.1-0.1,0.3-0.1,0.5-0.1s0.4,0,0.6,0.1
					c0.3,0.1,0.6,0.3,0.9,0.6c0.3,0.3,0.5,0.5,0.7,0.9c0.7-0.8,1-1.6,1.1-2.5c0-0.9-0.1-1.7-0.5-2.4c-0.4-0.7-1-1.3-1.8-1.6
					c-0.8-0.4-1.7-0.4-2.8-0.2c0.6,0.6,0.9,1.3,0.8,2c0,0.3-0.2,0.6-0.6,0.9c-0.4,0.2-0.8,0.4-1.3,0.4c-1.2,0-1.9-0.6-2-1.8
					c-0.1-0.5,0.1-1.1,0.4-1.5c0.4-0.5,0.9-0.8,1.7-1c1-0.2,1.9-0.3,2.7-0.1c0.8,0.1,1.7,0.4,2.5,0.9c0.3-0.2,0.4-0.5,0.5-0.9
					c0-0.4,0-0.7-0.2-1c0.5,0,0.8,0.1,1.1,0.3c0.3,0.2,0.5,0.4,0.5,0.6c0.1,0.3,0,0.5-0.1,0.9c-0.1,0.3-0.4,0.6-0.8,0.9
					C-156.1,302.7-155.7,303.3-155.6,303.9z M-176.5,301.6c0.2-0.6,0.3-1.2,0.2-1.9c0-0.6-0.2-1.2-0.4-1.8c-0.2-0.6-0.6-1.1-1-1.6
					c-0.5-0.5-1-0.9-1.6-1.1c-0.6-0.3-1.2-0.5-2-0.7c-0.7-0.1-1.5-0.2-2.3-0.3c-0.8,0-1.5,0-2.2,0.1s-1.3,0.3-1.7,0.6
					c-0.4,0.3-0.5,0.5-0.4,0.9c0.1,0.3,0.3,0.4,0.7,0.3c1.1-0.3,2.2-0.4,3.3-0.3c1.1,0.1,2.1,0.4,3.1,0.9s1.9,1.1,2.6,2
					C-177.4,299.5-176.8,300.5-176.5,301.6z M-178.1,295c0.2,0,0.2,0,0.2-0.2c0-0.2-0.1-0.2-0.2-0.2s-0.2,0.1-0.2,0.2
					C-178.3,294.9-178.2,295-178.1,295z M-177.8,303c0.1,0,0.2,0,0.2-0.2c0-0.1-0.1-0.2-0.2-0.2s-0.2,0.1-0.2,0.2
					C-178.1,303-178,303-177.8,303z M-166.7,292.3c0.2,0,0.2,0,0.2-0.2c0-0.1-0.1-0.2-0.2-0.2s-0.2,0.1-0.2,0.2
					C-166.9,292.2-166.8,292.3-166.7,292.3z M-172.8,301.6c0.4-1.1,1-2,1.7-2.9c0.8-0.8,1.6-1.5,2.6-2s2-0.8,3.1-0.9s2.2,0,3.2,0.3
					c0.4,0.1,0.6,0,0.7-0.3c0.1-0.3,0-0.6-0.4-0.9s-1-0.5-1.7-0.6s-1.4-0.1-2.2-0.1c-0.8,0-1.5,0.1-2.3,0.3
					c-0.7,0.1-1.4,0.4-1.9,0.6c-0.6,0.3-1.2,0.7-1.6,1.1c-0.5,0.5-0.8,1-1.1,1.6c-0.2,0.6-0.4,1.2-0.5,1.8
					C-173.1,300.3-173,301-172.8,301.6z M-162.9,302.1c0.1,0,0.2-0.1,0.2-0.2c0-0.2-0.1-0.2-0.2-0.2c-0.2,0-0.2,0.1-0.2,0.2
					C-163.1,302-163.1,302.1-162.9,302.1z M-125.1,306.7c0-0.1-0.1-0.1-0.2-0.1s-0.1,0.1-0.1,0.2c0,0.1,0,0.1,0.2,0.1
					C-125.1,306.9-125.1,306.8-125.1,306.7z M-132.8,298.4c0-0.1-0.1-0.1-0.2-0.1s-0.1,0.1-0.1,0.2s0.1,0.1,0.2,0.1
					C-132.8,298.5-132.7,298.5-132.8,298.4z M-150.6,309.8c-0.4,0-0.9-0.1-1.3-0.4c-0.5-0.2-0.9-0.5-1.3-0.9s-0.7-0.8-1-1.3
					s-0.4-1-0.5-1.5c0.2,0.1,0.5,0.1,0.7,0.1c0.3,0,0.5,0.1,0.8,0.1c0.3,0.1,0.5,0.2,0.7,0.3s0.4,0.3,0.6,0.6
					c0.1,0.2,0.2,0.4,0.3,0.6c0.1,0.3,0.2,0.5,0.3,0.8c0.1,0.3,0.1,0.5,0.2,0.8C-150.8,309.3-150.7,309.6-150.6,309.8z
					 M-139.1,313.6c0,0.3-0.2,0.5-0.5,0.8c-0.3,0.2-0.6,0.4-1,0.4s-0.8,0-1.2-0.1c-0.4-0.1-0.8-0.3-1.1-0.5
					c-0.3-0.2-0.6-0.5-0.8-0.8c-0.2-0.3-0.3-0.6-0.3-1c0-0.5,0.1-1,0.3-1.3c0.2-0.4,0.6-0.7,1.1-1c0.2-0.1,0.4-0.1,0.5,0
					c0.2,0,0.3,0.2,0.4,0.3s0.2,0.3,0.2,0.5c0,0.2,0,0.4-0.1,0.5c0.3,0,0.5,0.1,0.7,0.3c0.2,0.1,0.2,0.3,0.2,0.6
					c-0.1,0-0.3,0-0.4,0.1c-0.1,0-0.2,0.1-0.3,0.2c-0.1,0.1-0.2,0.2-0.2,0.3c-0.1,0.1-0.1,0.2,0,0.4c0,0.3,0.2,0.5,0.3,0.6
					c0.2,0.1,0.4,0.2,0.6,0.2s0.5,0,0.7,0C-139.5,313.8-139.3,313.7-139.1,313.6z M-149.3,301.1c-0.1,0.3-0.3,0.6-0.6,0.9
					c-0.3,0.2-0.7,0.5-1.1,0.6c-0.4,0.2-0.9,0.3-1.4,0.4c-0.5,0.1-1,0.1-1.4,0.1c-0.5,0-0.9,0-1.2-0.1c-0.3-0.1-0.5-0.2-0.6-0.3
					c0.4,0,0.7-0.1,0.9-0.3c0.3-0.2,0.5-0.4,0.8-0.6c0.3-0.2,0.5-0.4,0.8-0.6c0.3-0.2,0.6-0.2,0.9-0.2c0.1,0.2,0.1,0.4,0,0.5
					s-0.1,0.2-0.2,0.4c0.2,0,0.5,0,0.8-0.1s0.5-0.1,0.8-0.2s0.5-0.1,0.8-0.2C-149.7,301.2-149.5,301.1-149.3,301.1z M-137.8,305.4
					c-0.3,0.1-0.5,0.1-0.8,0c-0.2-0.1-0.4-0.2-0.6-0.3s-0.4-0.3-0.5-0.4c-0.2-0.1-0.3-0.2-0.5-0.1c-0.2,0-0.4,0.1-0.5,0.2
					c-0.2,0.1-0.3,0.2-0.4,0.3s-0.2,0.3-0.2,0.4s0,0.3,0.2,0.4c0.1,0,0.3,0.1,0.5,0c0.3,0,0.5,0,0.8,0s0.5,0.1,0.7,0.2
					c0.2,0.1,0.3,0.4,0.4,0.8c-0.1-0.1-0.3-0.2-0.5-0.2s-0.5,0-0.7,0s-0.5,0.1-0.7,0.1s-0.3,0.2-0.4,0.3c0,0.2-0.2,0.3-0.4,0.4
					c-0.2,0-0.5,0-0.7-0.2c-0.3-0.2-0.5-0.4-0.7-0.8s-0.3-0.8-0.4-1.3c0-0.2,0-0.5,0.1-0.7c0.1-0.2,0.3-0.4,0.5-0.6s0.4-0.3,0.7-0.4
					c0.3-0.1,0.5-0.2,0.8-0.2c0.4,0,0.7,0,1.1,0.1s0.7,0.2,1,0.4c0.3,0.2,0.6,0.4,0.8,0.7C-137.9,304.6-137.8,305-137.8,305.4z
					 M-122.4,307.2c-0.2,0.2-0.4,0.3-0.6,0.3s-0.5,0-0.7,0.1c-0.2,0-0.4,0-0.6,0s-0.3,0.1-0.3,0.2c-0.1,0.1,0,0.2,0,0.3
					c0.1,0.1,0.2,0.2,0.3,0.3c0.1,0.1,0.2,0.2,0.4,0.3c0.1,0.1,0.2,0.2,0.3,0.3c0.2,0.4,0.3,0.8,0.3,1.2s-0.1,0.8-0.3,1.1
					c-0.2,0.4-0.4,0.7-0.7,1.1c-0.3,0.3-0.6,0.6-0.9,0.9c0-0.3,0.1-0.6,0.1-0.9c0.1-0.3,0.2-0.6,0.2-1c0.1-0.3,0.1-0.6,0.1-0.9
					s0-0.6-0.2-0.9s-0.5-0.6-0.8-0.7c-0.3-0.2-0.7-0.3-1.1-0.3c-0.4-0.1-0.8-0.1-1.2-0.2c-0.4,0-0.8-0.1-1.2-0.2
					c0.2-0.5,0.5-0.9,0.9-1.2c0.4-0.3,0.8-0.6,1.2-0.8c0.5-0.2,0.9-0.3,1.3-0.3s0.8,0.1,1.2,0.2c0.4,0.1,0.8,0.3,1.2,0.5
					C-123.1,306.9-122.8,307.1-122.4,307.2z M-121.1,309.7c0.2,0.4,0.4,0.8,0.5,1.2c0.1,0.5,0.1,0.9,0,1.4c0,0.5-0.1,0.9-0.3,1.3
					c-0.1,0.4-0.3,0.8-0.5,1.1c0-0.6-0.1-1.2-0.3-1.8c-0.1-0.6-0.3-1.3-0.5-1.9s-0.5-1.2-0.9-1.7s-0.8-1-1.3-1.4
					c0.6,0,1.2,0.1,1.7,0.5C-121.9,308.8-121.4,309.2-121.1,309.7z M-224.2,306.7c0,0.1,0,0.1,0.1,0.2c0.1,0,0.2,0,0.2-0.1
					s0-0.1-0.1-0.2C-224.1,306.6-224.2,306.6-224.2,306.7z M-216.5,298.4c0,0.1,0,0.2,0.1,0.2s0.1,0,0.2-0.1c0-0.1,0-0.2-0.1-0.2
					C-216.5,298.2-216.5,298.3-216.5,298.4z M-198.7,309.8c0.1-0.2,0.2-0.5,0.3-0.7c0.1-0.3,0.2-0.5,0.2-0.8
					c0.1-0.3,0.1-0.5,0.2-0.8c0.1-0.2,0.2-0.5,0.3-0.6c0.2-0.2,0.4-0.4,0.6-0.6c0.2-0.1,0.5-0.2,0.7-0.3c0.3-0.1,0.5-0.1,0.8-0.1
					s0.5-0.1,0.7-0.1c0,0.5-0.2,1-0.5,1.5s-0.6,0.9-0.9,1.3c-0.4,0.4-0.8,0.7-1.3,0.9C-197.8,309.7-198.3,309.8-198.7,309.8z
					 M-210.2,313.6c0.2,0.1,0.5,0.2,0.7,0.2c0.3,0,0.5,0.1,0.7,0c0.2,0,0.4-0.1,0.6-0.2c0.2-0.1,0.3-0.3,0.3-0.6c0-0.1,0-0.3,0-0.4
					s-0.1-0.2-0.2-0.3c-0.1-0.1-0.2-0.1-0.3-0.2c-0.1,0-0.3-0.1-0.4-0.1c0-0.2,0-0.4,0.2-0.6c0.2-0.1,0.4-0.2,0.7-0.3
					c-0.1-0.2-0.1-0.3-0.1-0.5c0-0.2,0.1-0.4,0.2-0.5c0.1-0.1,0.3-0.2,0.4-0.3c0.2-0.1,0.4,0,0.5,0c0.5,0.3,0.9,0.6,1.1,1
					c0.2,0.4,0.3,0.8,0.3,1.3c0,0.3-0.1,0.6-0.3,1c-0.2,0.3-0.5,0.5-0.8,0.8c-0.3,0.2-0.7,0.4-1.1,0.5c-0.4,0.1-0.8,0.2-1.2,0.1
					c-0.4,0-0.7-0.2-1-0.4C-210,314.2-210.2,313.9-210.2,313.6z M-200,301.1c0.2,0,0.5,0.1,0.7,0.2s0.5,0.2,0.8,0.2
					c0.3,0.1,0.5,0.1,0.8,0.2c0.3,0,0.5,0.1,0.8,0.1c-0.1-0.1-0.2-0.3-0.2-0.4c0-0.1,0-0.3,0-0.5c0.4-0.1,0.6,0,0.9,0.2
					c0.3,0.2,0.5,0.4,0.8,0.6s0.5,0.4,0.8,0.6s0.6,0.3,0.9,0.3c-0.1,0.1-0.3,0.2-0.6,0.3s-0.7,0.1-1.2,0.1s-0.9,0-1.4-0.1
					s-1-0.2-1.4-0.4c-0.4-0.2-0.8-0.4-1.1-0.6C-199.8,301.7-199.9,301.4-200,301.1z M-211.5,305.4c0-0.4,0.2-0.7,0.4-1
					c0.2-0.3,0.5-0.5,0.8-0.7c0.3-0.2,0.7-0.3,1-0.4c0.4-0.1,0.7-0.1,1.1-0.1c0.3,0,0.5,0.1,0.8,0.2c0.2,0.1,0.5,0.3,0.7,0.4
					c0.2,0.2,0.4,0.4,0.5,0.6s0.2,0.5,0.1,0.7c0,0.5-0.1,0.9-0.4,1.3c-0.2,0.3-0.5,0.6-0.7,0.8c-0.3,0.1-0.5,0.2-0.7,0.2
					s-0.4-0.1-0.4-0.4c-0.1-0.1-0.2-0.3-0.4-0.3c-0.2-0.1-0.4-0.1-0.6-0.1c-0.2,0-0.5,0-0.7,0s-0.4,0.1-0.5,0.2
					c0-0.4,0.1-0.7,0.3-0.8s0.5-0.2,0.7-0.2c0.3,0,0.5,0,0.8,0s0.4,0,0.5,0c0.1-0.1,0.2-0.2,0.2-0.4c0-0.1-0.1-0.3-0.2-0.4
					c-0.1-0.1-0.2-0.2-0.4-0.3s-0.4-0.2-0.5-0.2c-0.2,0-0.3,0-0.5,0.1s-0.3,0.2-0.5,0.4c-0.2,0.1-0.4,0.2-0.6,0.3
					C-211,305.5-211.2,305.5-211.5,305.4z M-226.9,307.2c0.4-0.1,0.8-0.3,1.1-0.5c0.4-0.2,0.8-0.4,1.2-0.5s0.8-0.2,1.2-0.2
					s0.8,0.1,1.3,0.3c0.5,0.2,0.9,0.5,1.3,0.8c0.3,0.3,0.6,0.7,0.9,1.2c-0.4,0.1-0.8,0.2-1.2,0.2s-0.8,0.1-1.2,0.2s-0.8,0.2-1.1,0.3
					c-0.4,0.1-0.6,0.4-0.8,0.7c-0.2,0.3-0.2,0.6-0.2,0.9s0,0.6,0.1,0.9s0.2,0.6,0.2,1c0.1,0.3,0.1,0.6,0.2,0.9
					c-0.3-0.3-0.6-0.6-0.9-0.9c-0.3-0.3-0.5-0.7-0.7-1.1s-0.2-0.7-0.3-1.1c0-0.4,0.1-0.8,0.3-1.2c0.1-0.1,0.2-0.2,0.3-0.3
					s0.2-0.2,0.4-0.3c0.1-0.1,0.2-0.2,0.3-0.3s0.1-0.2,0-0.3c0-0.1-0.2-0.2-0.3-0.2c-0.2,0-0.4,0-0.6,0c-0.2,0-0.5,0-0.7-0.1
					C-226.5,307.5-226.7,307.4-226.9,307.2z M-228.2,309.7c0.4-0.5,0.8-1,1.4-1.3c0.5-0.4,1.1-0.5,1.7-0.5c-0.5,0.4-0.9,0.9-1.3,1.4
					c-0.3,0.5-0.6,1.1-0.9,1.7c-0.2,0.6-0.4,1.2-0.5,1.9c-0.1,0.6-0.2,1.2-0.3,1.8c-0.2-0.3-0.3-0.7-0.5-1.1
					c-0.1-0.4-0.2-0.9-0.3-1.3c0-0.5,0-0.9,0.1-1.4C-228.6,310.5-228.5,310.1-228.2,309.7z"/>
			</g>
			<rect id="Rectangle_1_" x="-259.9" y="322.1" class="st2" width="333.8" height="357.9"/>
		</g>
	</g>
</g>
<g>
	<path class="st1" d="M-182.6,519.4v-8.8c0-2.7,1.4-4.2,4-4.2s4,1.5,4,4.2v8.8c0,2.7-1.4,4.2-4,4.2S-182.6,522.1-182.6,519.4z
		 M-177.2,519.5v-9.2c0-1.2-0.5-1.7-1.4-1.7c-0.8,0-1.4,0.5-1.4,1.7v9.2c0,1.2,0.5,1.7,1.4,1.7S-177.2,520.7-177.2,519.5z"/>
	<path class="st1" d="M-167.7,519.4v-1.3h2.5v1.5c0,1.2,0.5,1.6,1.4,1.6c0.8,0,1.4-0.4,1.4-1.6v-3.8c0-1.2-0.5-1.7-1.4-1.7
		c-0.8,0-1.4,0.5-1.4,1.7v0.1h-2.5l0.5-9.4h7v2.5h-4.6l-0.2,4l0,0c0.5-0.8,1.2-1.2,2.3-1.2c1.9,0,2.9,1.4,2.9,3.8v3.8
		c0,2.7-1.3,4.2-3.9,4.2C-166.3,523.6-167.7,522.1-167.7,519.4z"/>
	<path class="st1" d="M-143.9,520.8h2.5v2.5h-2.5V520.8z"/>
	<path class="st1" d="M-125.4,519.4v-8.8c0-2.7,1.4-4.2,4-4.2s4,1.5,4,4.2v8.8c0,2.7-1.4,4.2-4,4.2S-125.4,522.1-125.4,519.4z
		 M-120,519.5v-9.2c0-1.2-0.5-1.7-1.4-1.7c-0.8,0-1.4,0.5-1.4,1.7v9.2c0,1.2,0.5,1.7,1.4,1.7S-120,520.7-120,519.5z"/>
	<path class="st1" d="M-110.6,519.5v-9c0-2.6,1.3-4.1,3.9-4.1c2.5,0,3.9,1.5,3.9,4.1v1.8h-2.5v-1.9c0-1.1-0.5-1.6-1.3-1.6
		s-1.3,0.5-1.3,1.6v9.4c0,1.1,0.5,1.5,1.3,1.5s1.3-0.4,1.3-1.5v-2.6h2.5v2.4c0,2.6-1.3,4.1-3.9,4.1
		C-109.3,523.6-110.6,522.1-110.6,519.5z"/>
	<path class="st1" d="M-94,509h-2.8v-2.4h8.2v2.4h-2.8v14.4H-94V509z"/>
	<path class="st1" d="M-73.2,520.8h2.5v2.5h-2.5V520.8z"/>
	<path class="st1" d="M-54.6,521.5c0-2.4,0.7-3.9,2.6-5.9c2-2.1,2.6-3.4,2.6-5c0-1.5-0.5-1.9-1.4-1.9s-1.4,0.5-1.4,1.7v1.8h-2.5
		v-1.6c0-2.7,1.3-4.2,3.9-4.2s3.9,1.5,3.9,4.2c0,2-0.8,3.8-3.3,6.4c-1.6,1.7-2,2.5-2,3.7v0.3h5v2.4h-7.6v-1.9H-54.6z"/>
	<path class="st1" d="M-39.9,519.4v-8.8c0-2.7,1.4-4.2,4-4.2s4,1.5,4,4.2v8.8c0,2.7-1.4,4.2-4,4.2S-39.9,522.1-39.9,519.4z
		 M-34.6,519.5v-9.2c0-1.2-0.5-1.7-1.4-1.7c-0.8,0-1.4,0.5-1.4,1.7v9.2c0,1.2,0.5,1.7,1.4,1.7S-34.6,520.7-34.6,519.5z"/>
	<path class="st1" d="M-21.3,510.5h-2.8v-1.9c2.2,0,3-0.5,3.6-2.1h1.8v16.8h-2.6V510.5z"/>
	<path class="st1" d="M-10.4,519.4v-0.3h2.5v0.5c0,1.2,0.5,1.7,1.4,1.7s1.5-0.5,1.5-2.1V516l0,0c-0.5,1-1.2,1.5-2.4,1.5
		c-1.9,0-2.9-1.4-2.9-3.8v-3c0-2.7,1.4-4.2,4-4.2s4,1.5,4,4.2v8.7c0,2.8-1.3,4.4-4,4.4C-9.1,523.6-10.4,522.1-10.4,519.4z
		 M-5.1,513.3v-3c0-1.1-0.5-1.6-1.4-1.6s-1.4,0.5-1.4,1.6v3c0,1.1,0.5,1.7,1.4,1.7S-5.1,514.5-5.1,513.3z"/>
</g>
<g class="st3">
	<path class="st4" d="M-193.4,560.7l-0.3,0.8c-0.3,1-0.8,1.6-1.4,1.9c-1.2,0.6-2.8,0-2.3-1.8c0.1-0.2,0.6-2.3,0.6-2.5
		c0.3-1-1.1-1.3-2.2-1.2l-1.4,5.6h-1.3l2.5-9.4h1.2l-0.8,3c1.8,0.3,2.6-1.2,2.8-2c0.3-1.8-1.9-2.4-3.4-1.5c-1.3,0.8-1.4,2.7-1.3,3.6
		l-1.1-1.1c0.1-1,0.7-2.4,2-3c2.1-0.9,5.4-0.3,5.1,2c-0.2,1-0.8,1.9-2,2.2c0.8,0.3,1.3,1,1.1,1.8c-0.1,0.3,0,0.1-0.6,2.5
		c-0.2,0.9,0.4,1.2,0.9,1.1c0.4-0.1,0.9-0.6,1.1-1.3l0.2-0.7H-193.4z"/>
	<path class="st4" d="M-183.5,563.5c-1.9,0.2-2.8-1.4-2.3-2.7c0.5-1.1,1.7-0.6,1.5,0.3c-0.1,0.3-0.4,0.5-0.7,0.4
		c-0.2,0-0.3-0.2-0.4-0.3c-0.2,0.3,0.1,1.7,1.5,1.5c0.7-0.1,1.1-0.6,0.8-1.7c-0.4-1.5-0.6-2.5-0.6-3.3c-0.7,0.8-1.6,1.6-2.3,1.7
		c-0.2,2.2-1.6,4.6-3.6,4.1c-1.2-0.3-1.8-2.1-1.3-4.2c0.7-2.6,2.7-3.6,3.9-2.8c0.6,0.4,0.9,1.2,1,2.1c1,0,2.1-1.6,2.5-2.4h1.3
		c-0.4,1.7,0.1,3.1,0.5,4.8C-181.2,562.4-182.2,563.4-183.5,563.5z M-186.3,559.3c-0.1,0-0.2-0.1-0.4-0.2c-0.3-0.3-0.1-0.9,0.3-0.8
		c-0.1-0.5-0.4-1-0.8-1.1c-0.8-0.2-1.6,0.4-2.1,2c-0.5,1.6-0.2,3.1,0.8,3.3C-187.3,562.9-186.4,560.9-186.3,559.3z"/>
	<path class="st4" d="M-171.8,560.7h0.4c-1.2,4.9-7.2,3.6-5.8-1.7c1.2-4.7,5.5-3.4,4.4-0.7c-0.4,1-1.5,1.7-3.2,1.1
		C-176.7,563.2-172.7,564-171.8,560.7L-171.8,560.7z M-173.3,558.2c0.7-1.6-1.7-2.4-2.6,0.8C-174.5,559.5-173.6,558.9-173.3,558.2z"
		/>
	<path class="st4" d="M-165.2,560.7l-0.3,0.8c-0.3,1-0.8,1.6-1.4,1.9c-1.2,0.6-2.8,0-2.3-1.8l2.3-9h1.2l-2.3,9
		c-0.2,0.9,0.4,1.2,0.9,1.1c0.5-0.1,0.9-0.6,1.1-1.3l0.2-0.7H-165.2z"/>
	<path class="st4" d="M-155.5,560.7l-0.3,0.8c-0.4,1.4-1.7,2-3,2.5l-0.4,1.3c-0.5,2.2-3.3,1.9-2.7,0c0.2-0.6,0.9-1,1.8-1.4l0.4-1.4
		c-0.3,0.4-0.7,0.7-1.1,0.9c-1.2,0.6-2.7-0.1-2.3-1.9l1.4-5.4h1.3l-1.4,5.6c-0.2,0.9,0.4,1.1,0.9,1c0.8-0.2,1.4-1.1,1.6-1.9l1.2-4.7
		h1.3l-1.9,7.3c1.1-0.4,2.1-1,2.3-1.9l0.2-0.7L-155.5,560.7L-155.5,560.7z M-160.1,564.6c-0.5,0.2-0.9,0.5-1,0.8
		c-0.3,0.7,0.4,1.4,0.7,0.4L-160.1,564.6z"/>
	<path class="st4" d="M-145.2,560.7l-0.3,0.8c-0.3,1-0.8,1.6-1.4,1.9c-1.2,0.6-2.8,0-2.3-1.8c0.2-0.8,0.3-1.2,0.4-1.5
		c0.3-1.3,0.5-3-0.8-2.9c-1,0.1-1.7,1.3-2,2.5l-1,3.7h-1.3l1.9-7.4h1.3l-0.3,1.1c0.5-0.6,1-1,1.7-1.1c1.1-0.2,2.5,0.7,1.7,4.2
		c-0.1,0.5-0.3,1.2-0.3,1.4c-0.2,0.9,0.4,1.2,0.9,1.1c0.5-0.1,0.9-0.6,1.1-1.3l0.2-0.7C-145.7,560.7-145.2,560.7-145.2,560.7z"/>
	<path class="st4" d="M-127.3,558.2c-0.1,0.2-0.3,0.4-0.6,0.6c-0.2,0.1-0.5,0.2-0.8,0.2c0.2,1.9-1,4.6-3.3,4.6
		c-1.7,0-3.2-1.7-2.9-3.9c0.4-2.5,2-2.4,2.2-2.4c-1.4-1.1-0.9-3.7,1-4.3c1.5-0.5,3.3,0.2,3.1,2.7l-1.4,0.4c0.4-0.6,0.5-2.8-1.2-2.5
		c-0.9,0.2-1.7,1.4-1.2,2.8c0.2,0.6,0.6,1,1.2,1.1c-1.4,0-2.2,1.1-2.4,2.4c-0.3,1.7,0.6,2.9,1.7,2.9c1.8,0,2.9-2.3,2.7-3.7
		c-0.3,0-0.7,0.1-0.9,0.2c-0.3,0.1-0.4,0.3-0.4,0.6v0.2l-0.4-0.3c-0.2-0.6,0-1,0.5-1.2c0.4-0.2,0.8-0.2,1.2-0.2
		c0.3,0,0.8-0.1,1.1-0.2c0.4-0.2,0.4-0.3,0.3-0.4l0,0l0.2-0.3l0.1,0.1C-127.3,557.7-127.3,558-127.3,558.2z"/>
	<path class="st4" d="M-115.3,563.5h-1.3l2.5-9.8c-0.4,0-0.9,0.2-1.2,0.6c-0.6,0.8-0.7,2.2-0.6,2.9l-1.1-1.1c0-0.6,0.5-1.7,1.1-2.3
		c1.8-2,4.8-0.4,6.5-1.2l-0.2,0.7c-0.2,0.5-0.7,0.9-1.2,0.9c-0.7,0-1.4-0.2-2-0.4l-0.8,3.2h1.9l-0.2,0.6h-1.9L-115.3,563.5z"/>
	<path class="st4" d="M-101.5,560.7l-0.3,0.8c-0.3,1-0.8,1.6-1.4,1.9c-1.2,0.6-2.8,0-2.3-1.8c0.1-0.3,0.4-1.5,0.7-2.7
		c0.2-0.8,0.4-1.4-1.1-1.8c-0.5-0.1-0.9-0.2-0.9-0.2l-1.1,3.9h-0.5l1.2-4.1c-0.3-0.2-0.4-0.5-0.3-0.8c0.2-0.6,1.1-0.5,1.1,0.3
		c0,0,0,0,1.6,0.4c1.6,0.4,1.6,1.3,1.4,2.3l-0.7,2.8c-0.2,0.9,0.4,1.2,0.9,1.1c0.5-0.1,0.9-0.6,1.1-1.3l0.2-0.7L-101.5,560.7
		L-101.5,560.7z"/>
	<path class="st4" d="M-91.3,560.7l-0.3,0.8c-0.3,1-0.8,1.6-1.4,1.9c-1.1,0.5-2.4,0.1-2.4-1.3c-0.7,0.9-1.6,1.5-2.4,1.2
		c-1.2-0.4-1.7-2.2-1-4.3c0.9-2.6,2.9-3.4,4.1-2.6c0.3,0.2,0.4,0.5,0.6,0.8l0.3-1.2h1.3l-1.4,5.6c-0.2,0.9,0.4,1.2,0.9,1.1
		c0.4-0.1,0.9-0.6,1.1-1.3l0.2-0.7H-91.3z M-94.9,560.2l0.2-0.8c0.2-0.9,0.1-1.7-0.5-2c-0.6-0.4-1.8,0.3-2.4,1.8
		c-0.5,1.6-0.4,3.2,0.4,3.4C-96.3,562.9-95.3,561.6-94.9,560.2z"/>
	<path class="st4" d="M-80.9,560.7l-0.3,0.8c-0.3,1-0.8,1.6-1.4,1.9c-1.2,0.6-2.8,0-2.3-1.8c0.2-0.8,0.3-1.2,0.4-1.5
		c0.3-1.3,0.5-3-0.8-2.9c-1,0.1-1.7,1.3-2,2.5l-1,3.7h-1.3l1.9-7.4h1.3l-0.3,1.1c0.5-0.6,1-1,1.7-1.1c1.1-0.2,2.5,0.7,1.7,4.2
		c-0.1,0.5-0.3,1.2-0.3,1.4c-0.2,0.9,0.4,1.2,0.9,1.1c0.5-0.1,0.9-0.6,1.1-1.3l0.2-0.7C-81.4,560.7-80.9,560.7-80.9,560.7z"/>
	<path class="st4" d="M-72.3,560.7c-0.4,1.7-1.7,3.1-3.5,3c-1.9,0-3.5-2-2.3-5c1.5-3.9,4.8-3.1,4.7-1.1l-0.5,0.1
		c0-1.3-1.8-1.4-2.9,1.2c-1,2.4,0.3,3.9,1.6,3.9c1.3,0,2-1,2.4-2.1H-72.3z"/>
	<path class="st4" d="M-66.2,560.7c-0.3,1-0.6,2.3-1.7,2.8c-1.2,0.6-2.8,0-2.3-1.8l1.4-5.5h1.3l-1.4,5.6c-0.2,0.9,0.4,1.2,0.9,1.1
		c0.9-0.2,1.1-1.3,1.3-2.1L-66.2,560.7L-66.2,560.7z M-68.6,554.2c0.1-0.4,0.4-0.6,0.9-0.6l0,0c0.6,0,1,0.5,0.9,1.1
		c-0.1,0.4-0.5,0.7-0.9,0.7l0,0C-68.3,555.3-68.8,554.8-68.6,554.2z"/>
	<path class="st4" d="M-58.1,560.8c-0.2,0.3-0.5,0.5-0.8,0.6c-0.2,0.1-0.4,0.1-0.6,0.1c-0.1,1.1-1,1.8-2,2c-2,0.2-2.8-1.4-2.3-2.7
		c0.1-0.3,0.3-0.4,0.5-0.5c0.7-0.9,1.6-2.6,1.9-4.2h1.3c-0.4,1.7,0.1,3,0.5,4.6c0.2,0.1,0.3,0.3,0.6,0.2c0.3-0.1,0.5-0.3,0.7-0.4
		C-58.2,560.6-58.2,560.6-58.1,560.8z M-60.9,561c-0.2-0.9-0.4-1.8-0.5-3c-0.4,0.9-0.8,1.7-1.2,2.3c0.2,0.1,0.4,0.2,0.4,0.5
		c0.2,0.6-0.7,1.2-1,0.5c-0.2,0.3,0.1,1.6,1.5,1.4C-61,562.6-60.6,562-60.9,561z"/>
	<path class="st4" d="M-45.2,565.6c-0.6-0.3-1.3-0.9-1.9-1.2c-0.6-0.3-1.5-0.5-2.1-0.4l2.7-10.3c-0.4,0-0.9,0.2-1.2,0.6
		c-0.6,0.8-0.7,2.2-0.6,2.9l-1.1-1.1c0-0.6,0.5-1.7,1-2.3c0.9-1,2.1-1.1,3.3-1l-1.1,4.3l-0.2,0.6l-1.5,5.8c0.3-0.1,0.7,0,1,0
		c0.6,0.1,1.1,0.5,1.7,0.8c1,0.5,2,0.4,3.2-0.1C-41.9,564.2-43,566.7-45.2,565.6z"/>
	<path class="st4" d="M-36.4,560.7h0.4c-1.2,4.9-7.2,3.6-5.8-1.7c1.2-4.7,5.5-3.4,4.4-0.7c-0.4,1-1.5,1.7-3.2,1.1
		C-41.3,563.2-37.3,564-36.4,560.7L-36.4,560.7z M-37.9,558.2c0.7-1.6-1.7-2.4-2.6,0.8C-39.1,559.5-38.2,558.9-37.9,558.2z"/>
	<path class="st4" d="M-27.1,560.7c-0.4,0.5-1.3,0.9-2,0.9c-0.6,1.3-1.7,2.2-3,1.9c-1.2-0.3-1.8-2.1-1.3-4.2
		c0.7-2.6,2.7-3.6,3.9-2.8c1.1,0.7,1.2,2.7,0.7,4.4c0.4,0.2,1.1-0.1,1.4-0.5C-27.3,560.5-27.2,560.5-27.1,560.7z M-29.5,561.4
		c-0.1,0-0.1-0.1-0.2-0.2c-0.2-0.4,0.2-0.9,0.5-0.7c0.4-1.4,0.3-3-0.6-3.2c-0.8-0.2-1.6,0.4-2.1,2c-0.5,1.6-0.2,3.1,0.8,3.3
		C-30.4,562.8-29.9,562.2-29.5,561.4z"/>
	<path class="st4" d="M-16.6,560.7l-0.3,0.8c-0.3,1-0.8,1.6-1.4,1.9c-1.2,0.6-2.8,0-2.3-1.8c0.2-0.8,0.3-1.2,0.4-1.5
		c0.3-1.3,0.5-3-0.8-2.9c-1,0.1-1.7,1.3-2,2.5l-1,3.7h-1.3l1.9-7.4h1.3l-0.3,1.1c0.5-0.6,1-1,1.7-1.1c1.1-0.2,2.5,0.7,1.7,4.2
		c-0.1,0.5-0.3,1.2-0.3,1.4c-0.2,0.9,0.4,1.2,0.9,1.1c0.5-0.1,0.9-0.6,1.1-1.3l0.2-0.7C-17.1,560.7-16.6,560.7-16.6,560.7z"/>
	<path class="st4" d="M-6.3,560.7l-0.3,0.8c-0.3,1-0.8,1.6-1.4,1.9c-1.1,0.5-2.4,0.1-2.4-1.3c-0.7,0.9-1.6,1.5-2.4,1.2
		c-1.2-0.4-1.7-2.2-1-4.3c0.9-2.6,2.9-3.4,4.1-2.6c0.3,0.2,0.4,0.5,0.6,0.8l0.3-1.2h1.3l-1.4,5.6c-0.2,0.9,0.4,1.2,0.9,1.1
		c0.4-0.1,0.9-0.6,1.1-1.3l0.2-0.7H-6.3z M-10,560.2l0.2-0.8c0.2-0.9,0.1-1.7-0.5-2c-0.6-0.4-1.8,0.3-2.4,1.8
		c-0.5,1.6-0.4,3.2,0.4,3.4C-11.4,562.9-10.4,561.6-10,560.2z"/>
	<path class="st4" d="M3.1,560.7l-0.3,0.8c-0.3,1-0.8,1.6-1.4,1.9c-1.2,0.6-2.8,0-2.3-1.8c0.1-0.3,0.4-1.5,0.7-2.7
		c0.2-0.8,0.4-1.4-1.1-1.8c-0.5-0.1-0.9-0.2-0.9-0.2l-1.1,3.9h-0.5l1.2-4.1c-0.3-0.2-0.4-0.5-0.3-0.8c0.2-0.6,1.1-0.5,1.1,0.3
		c0,0,0,0,1.6,0.4c1.6,0.4,1.6,1.3,1.4,2.3l-0.7,2.8c-0.2,0.9,0.4,1.2,0.9,1.1c0.5-0.1,0.9-0.6,1.1-1.3l0.2-0.7L3.1,560.7L3.1,560.7
		z"/>
	<path class="st4" d="M13.2,560.7l-0.3,0.8c-0.3,1-0.8,1.6-1.4,1.9c-1.1,0.5-2.4,0.1-2.4-1.2c-0.6,0.9-1.4,1.4-2.2,1.2
		c-1.5-0.4-1.7-2.2-1.3-4c0.4-1.7,1.5-3.3,2.9-3.4c1.1-0.1,1.6,0.6,1.8,1.5l1.3-4.9h1.2l-2.3,9c-0.2,0.9,0.4,1.2,0.9,1.1
		c0.4-0.1,0.9-0.6,1.1-1.3l0.2-0.7H13.2z M8.6,557.2c-0.8,0.1-1.4,1.1-1.7,2.3c-0.3,1.4-0.2,2.9,0.7,3.1C9.2,563,11,556.8,8.6,557.2
		z"/>
	<path class="st4" d="M-168.7,578.8l-2.7,10.6h-1.3l2.5-9.8c-0.4,0-0.9,0.2-1.2,0.6c-0.6,0.8-0.7,2.2-0.6,2.9l-1.1-1.1
		c0-0.6,0.5-1.7,1.1-2.3C-171,578.9-169.8,578.8-168.7,578.8z"/>
	<path class="st4" d="M-158.2,586.7l-0.3,0.8c-0.3,1-0.8,1.6-1.4,1.9c-1.2,0.6-2.8,0-2.3-1.8c0.2-0.8,0.3-1.2,0.4-1.5
		c0.3-1.3,0.5-3-0.8-2.9c-1,0.1-1.7,1.3-2,2.5l-1,3.7h-1.3l1.9-7.4h1.3l-0.3,1.1c0.5-0.6,1-1,1.7-1.1c1.1-0.2,2.5,0.7,1.7,4.2
		c-0.1,0.5-0.3,1.2-0.3,1.4c-0.2,0.9,0.4,1.2,0.9,1.1c0.5-0.1,0.9-0.6,1.1-1.3l0.2-0.7H-158.2z"/>
	<path class="st4" d="M-148.1,586.7l-0.3,0.8c-0.4,1.4-1.7,2-3,2.5l-0.3,1.3c-0.5,2.2-3.3,1.9-2.7,0c0.2-0.7,0.9-1.1,1.8-1.4
		l0.4-1.4c-0.6,0.7-1.3,1.1-2,0.9c-1.4-0.4-1.7-2.2-1.3-4c0.4-1.7,1.5-3.3,2.9-3.4c1,0,1.6,0.5,1.8,1.4l0.4-1.3h1.3l-1.9,7.3
		c1.1-0.4,2.1-1,2.3-1.9l0.2-0.7h0.4V586.7z M-152.6,583.2c-0.8,0.1-1.4,1.1-1.7,2.3c-0.3,1.4-0.2,2.9,0.7,3.1
		C-152,589-150.1,582.8-152.6,583.2z M-152.8,590.6c-0.5,0.2-0.9,0.5-1,0.8c-0.3,0.7,0.4,1.4,0.7,0.4L-152.8,590.6z"/>
	<path class="st4" d="M-140.1,586.7h0.4c-1.2,4.9-7.2,3.6-5.8-1.7c1.2-4.7,5.5-3.4,4.4-0.7c-0.4,1-1.5,1.7-3.2,1.1
		C-145,589.2-141,590-140.1,586.7L-140.1,586.7z M-141.6,584.2c0.7-1.6-1.7-2.4-2.6,0.8C-142.8,585.5-141.9,584.9-141.6,584.2z"/>
	<path class="st4" d="M-121.8,584.2c-0.1,0.2-0.3,0.4-0.6,0.6c-0.2,0.1-0.5,0.2-0.8,0.2c0.2,1.9-1,4.6-3.3,4.6
		c-1.7,0-3.2-1.7-2.9-3.9c0.4-2.5,2-2.4,2.2-2.4c-1.4-1.1-0.9-3.7,1-4.3c1.5-0.5,3.3,0.2,3.1,2.7l-1.4,0.4c0.4-0.6,0.5-2.8-1.2-2.5
		c-0.9,0.2-1.7,1.4-1.2,2.8c0.2,0.6,0.6,1,1.2,1.1c-1.4,0-2.2,1.1-2.4,2.4c-0.3,1.7,0.6,2.9,1.7,2.9c1.8,0,2.9-2.3,2.7-3.7
		c-0.3,0-0.7,0.1-0.9,0.2c-0.3,0.1-0.4,0.3-0.4,0.6v0.2l-0.4-0.3c-0.2-0.6,0-1,0.5-1.2c0.4-0.2,0.8-0.2,1.2-0.2
		c0.3,0,0.8-0.1,1.1-0.2c0.4-0.2,0.4-0.3,0.3-0.4l0,0l0.2-0.3l0.1,0.1C-121.8,583.7-121.7,584-121.8,584.2z"/>
	<path class="st4" d="M-102.5,578.9l-2.7,10.6h-1.3l0.8-3c-0.3-0.8-1.4-2-2.5-2.7c-1.1,2.4-1.6,5.3-1.9,7.8l-1.3-1.4
		c0.4-2.3,1.1-4.9,2.3-6.9c-0.3-0.1-0.6-0.2-0.9-0.3l-0.5-1.4c0.6,0.1,1.2,0.4,1.9,0.9C-107.1,580.2-105.1,578.7-102.5,578.9z
		 M-103.9,579.5c-1.7,0.5-2.9,1.8-3.9,3.5c0.9,0.8,1.8,1.7,2.3,2.6L-103.9,579.5z"/>
	<path class="st4" d="M-92,586.7l-0.3,0.8c-0.3,1-0.8,1.6-1.4,1.9c-1.2,0.6-2.8,0-2.3-1.8c0.2-0.8,0.3-1.2,0.4-1.5
		c0.3-1.3,0.5-3-0.8-2.9c-1,0.1-1.7,1.3-2,2.5l-1,3.7h-1.3l1.9-7.4h1.3l-0.3,1.1c0.5-0.6,1-1,1.7-1.1c1.1-0.2,2.5,0.7,1.7,4.2
		c-0.1,0.5-0.3,1.2-0.3,1.4c-0.2,0.9,0.4,1.2,0.9,1.1c0.5-0.1,0.9-0.6,1.1-1.3l0.2-0.7H-92z"/>
	<path class="st4" d="M-81.8,586.7l-0.3,0.8c-0.3,1-0.8,1.6-1.4,1.9c-1.1,0.5-2.4,0.1-2.4-1.2c-0.6,0.9-1.4,1.4-2.2,1.2
		c-1.5-0.4-1.7-2.2-1.3-4c0.4-1.7,1.5-3.3,2.9-3.4c1.1-0.1,1.6,0.6,1.8,1.5l1.3-4.9h1.2l-2.3,9c-0.2,0.9,0.4,1.2,0.9,1.1
		c0.4-0.1,0.9-0.6,1.1-1.3l0.2-0.7H-81.8L-81.8,586.7z M-86.4,583.2c-0.8,0.1-1.4,1.1-1.7,2.3c-0.3,1.4-0.2,2.9,0.7,3.1
		C-85.8,589-84,582.8-86.4,583.2z"/>
	<path class="st4" d="M-72.4,586.7l-0.3,0.8c-0.3,1-0.8,1.6-1.4,1.9c-1.2,0.6-2.8,0-2.3-1.8c0.1-0.3,0.4-1.5,0.7-2.7
		c0.2-0.8,0.4-1.4-1.1-1.8c-0.5-0.1-0.9-0.2-0.9-0.2l-1.1,3.9h-0.5l1.2-4.1c-0.3-0.2-0.4-0.5-0.3-0.8c0.2-0.6,1.1-0.5,1.1,0.3
		c0,0,0,0,1.6,0.4s1.6,1.3,1.4,2.3l-0.7,2.8c-0.2,0.9,0.4,1.2,0.9,1.1c0.5-0.1,0.9-0.6,1.1-1.3l0.2-0.7L-72.4,586.7L-72.4,586.7z"/>
	<path class="st4" d="M-64.4,586.7h0.4c-1.2,4.9-7.2,3.6-5.8-1.7c1.2-4.7,5.5-3.4,4.4-0.7c-0.4,1-1.5,1.7-3.2,1.1
		C-69.3,589.2-65.3,590-64.4,586.7L-64.4,586.7z M-65.9,584.2c0.7-1.6-1.7-2.4-2.6,0.8C-67.1,585.5-66.2,584.9-65.9,584.2z"/>
	<path class="st4" d="M-48.6,585.8c-1.5,6.4-8.3,4.2-6.6-2.3c0.4-1.7,1.4-3.6,2.9-4.4c1.8-1,3.7-0.1,3.7,1.9l-1.3,1
		c0.5-0.7,0.5-3.4-1.7-2c-0.7,0.4-1.8,1.7-2.3,3.6c-1.4,5.4,3.5,7,4.7,2.2H-48.6z"/>
	<path class="st4" d="M-42.6,586.7l-0.3,0.8c-0.3,1-0.8,1.6-1.4,1.9c-1.2,0.6-2.8,0-2.3-1.8l2.3-9h1.2l-2.3,9
		c-0.2,0.9,0.4,1.2,0.9,1.1c0.5-0.1,0.9-0.6,1.1-1.3l0.2-0.7H-42.6z"/>
	<path class="st4" d="M-32.3,586.7l-0.3,0.8c-0.3,1-0.8,1.6-1.4,1.9c-1.1,0.5-2.4,0.1-2.4-1.3c-0.7,0.9-1.6,1.5-2.4,1.2
		c-1.2-0.4-1.7-2.2-1-4.3c0.9-2.6,2.9-3.4,4.1-2.6c0.3,0.2,0.4,0.5,0.6,0.8l0.3-1.2h1.3l-1.4,5.6c-0.2,0.9,0.4,1.2,0.9,1.1
		c0.4-0.1,0.9-0.6,1.1-1.3l0.2-0.7H-32.3z M-35.9,586.2l0.2-0.8c0.2-0.9,0.1-1.7-0.5-2c-0.6-0.4-1.8,0.3-2.4,1.8
		c-0.5,1.6-0.4,3.2,0.4,3.4C-37.3,588.9-36.4,587.6-35.9,586.2z"/>
	<path class="st4" d="M-24.3,586.7h0.4c-1.2,4.9-7.2,3.6-5.8-1.7c1.2-4.7,5.5-3.4,4.4-0.7c-0.4,1-1.5,1.7-3.2,1.1
		C-29.1,589.2-25.2,590-24.3,586.7L-24.3,586.7z M-25.8,584.2c0.7-1.6-1.7-2.4-2.6,0.8C-27,585.5-26.1,584.9-25.8,584.2z"/>
	<path class="st4" d="M-15.7,586.8c-0.2,0.3-0.5,0.5-0.8,0.6c-0.2,0.1-0.4,0.1-0.6,0.1c-0.1,1.1-1,1.8-2,2c-2,0.2-2.8-1.4-2.3-2.7
		c0.1-0.3,0.3-0.4,0.5-0.5c0.7-0.9,1.6-2.6,1.9-4.2h1.3c-0.4,1.7,0.1,3,0.5,4.6c0.2,0.1,0.3,0.3,0.6,0.2c0.3-0.1,0.5-0.3,0.7-0.4
		C-15.8,586.6-15.8,586.6-15.7,586.8z M-18.6,587c-0.2-0.9-0.4-1.8-0.5-3c-0.4,0.9-0.8,1.7-1.2,2.3c0.2,0.1,0.4,0.2,0.4,0.5
		c0.2,0.6-0.7,1.2-1,0.5c-0.2,0.3,0.1,1.6,1.5,1.4C-18.7,588.6-18.3,588-18.6,587z"/>
	<path class="st4" d="M-246.3,612.7l-0.3,0.8c-0.3,1-0.8,1.6-1.4,1.9c-1.1,0.5-2.4,0.1-2.4-1.3c-0.7,0.9-1.6,1.5-2.4,1.2
		c-1.2-0.4-1.7-2.2-1-4.3c0.9-2.6,2.9-3.4,4.1-2.6c0.3,0.2,0.4,0.5,0.6,0.8l0.3-1.2h1.3l-1.4,5.6c-0.2,0.9,0.4,1.2,0.9,1.1
		c0.4-0.1,0.9-0.6,1.1-1.3l0.2-0.7H-246.3z M-249.9,612.2l0.2-0.8c0.2-0.9,0.1-1.7-0.5-2c-0.6-0.4-1.8,0.3-2.4,1.8
		c-0.5,1.6-0.4,3.2,0.4,3.4C-251.3,614.9-250.3,613.6-249.9,612.2z"/>
	<path class="st4" d="M-236.9,612.7l-0.3,0.8c-0.3,1-0.8,1.6-1.4,1.9c-1.2,0.6-2.8,0-2.3-1.8c0.1-0.3,0.4-1.5,0.7-2.7
		c0.2-0.8,0.4-1.4-1.1-1.8c-0.5-0.1-0.9-0.2-0.9-0.2l-1.1,3.9h-0.5l1.2-4.1c-0.3-0.2-0.4-0.5-0.3-0.8c0.2-0.6,1.1-0.5,1.1,0.3
		c0,0,0,0,1.6,0.4s1.6,1.3,1.4,2.3l-0.7,2.8c-0.2,0.9,0.4,1.2,0.9,1.1c0.5-0.1,0.9-0.6,1.1-1.3l0.2-0.7L-236.9,612.7L-236.9,612.7z"
		/>
	<path class="st4" d="M-228.9,612.7h0.4c-1.2,4.9-7.2,3.6-5.8-1.7c1.2-4.7,5.5-3.4,4.4-0.7c-0.4,1-1.5,1.7-3.2,1.1
		C-233.8,615.2-229.8,616-228.9,612.7L-228.9,612.7z M-230.4,610.2c0.7-1.6-1.7-2.4-2.6,0.8C-231.6,611.5-230.7,610.9-230.4,610.2z"
		/>
	<path class="st4" d="M-212.2,612.7l-0.3,0.8c-0.3,1-0.8,1.6-1.4,1.9c-1.1,0.5-2.4,0.1-2.4-1.2c-0.6,0.9-1.4,1.4-2.2,1.2
		c-1.5-0.4-1.7-2.2-1.3-4c0.4-1.7,1.5-3.3,2.9-3.4c1.1-0.1,1.6,0.6,1.8,1.5l1.3-4.9h1.2l-2.3,9c-0.2,0.9,0.4,1.2,0.9,1.1
		c0.4-0.1,0.9-0.6,1.1-1.3l0.2-0.7H-212.2L-212.2,612.7z M-216.8,609.2c-0.8,0.1-1.4,1.1-1.7,2.3c-0.3,1.4-0.2,2.9,0.7,3.1
		C-216.2,615-214.4,608.8-216.8,609.2z"/>
	<path class="st4" d="M-204.1,612.7h0.4c-1.2,4.9-7.2,3.6-5.8-1.7c1.2-4.7,5.5-3.4,4.4-0.7c-0.4,1-1.5,1.7-3.2,1.1
		C-209,615.2-205.1,616-204.1,612.7L-204.1,612.7z M-205.6,610.2c0.7-1.6-1.7-2.4-2.6,0.8C-206.9,611.5-205.9,610.9-205.6,610.2z"/>
	<path class="st4" d="M-197.5,612.7l-0.3,0.8c-0.3,1-0.8,1.6-1.4,1.9c-1.2,0.6-2.8,0-2.3-1.8l2.3-9h1.2l-2.3,9
		c-0.2,0.9,0.4,1.2,0.9,1.1c0.5-0.1,0.9-0.6,1.1-1.3l0.2-0.7H-197.5z"/>
	<path class="st4" d="M-191.3,612.7c-0.3,1-0.6,2.3-1.7,2.8c-1.2,0.6-2.8,0-2.3-1.8l1.4-5.5h1.3l-1.4,5.6c-0.2,0.9,0.4,1.2,0.9,1.1
		c0.9-0.2,1.1-1.3,1.3-2.1L-191.3,612.7L-191.3,612.7z M-193.7,606.2c0.1-0.4,0.4-0.6,0.9-0.6l0,0c0.6,0,1,0.5,0.9,1.1
		c-0.1,0.4-0.5,0.7-0.9,0.7l0,0C-193.5,607.3-193.9,606.8-193.7,606.2z"/>
	<path class="st4" d="M-181.3,612.7l-0.3,0.8c-0.4,1.4-1.7,2-3,2.5l-0.3,1.3c-0.5,2.2-3.3,1.9-2.7,0c0.2-0.7,0.9-1.1,1.8-1.4
		l0.4-1.4c-0.6,0.7-1.3,1.1-2,0.9c-1.4-0.4-1.7-2.2-1.3-4c0.4-1.7,1.5-3.3,2.9-3.4c1,0,1.6,0.5,1.8,1.4l0.4-1.3h1.3l-1.9,7.3
		c1.1-0.4,2.1-1,2.3-1.9l0.2-0.7h0.4V612.7z M-185.7,609.2c-0.8,0.1-1.4,1.1-1.7,2.3c-0.3,1.4-0.2,2.9,0.7,3.1
		C-185.1,615-183.3,608.8-185.7,609.2z M-185.9,616.6c-0.5,0.2-0.9,0.5-1,0.8c-0.3,0.7,0.4,1.4,0.7,0.4L-185.9,616.6z"/>
	<path class="st4" d="M-170.9,612.7l-0.3,0.8c-0.3,1-0.8,1.6-1.4,1.9c-1.2,0.6-2.8,0-2.3-1.8c0.2-0.8,0.3-1.2,0.4-1.5
		c0.3-1.3,0.5-3-0.8-2.9c-1,0.1-1.7,1.3-2,2.5l-1,3.7h-1.3l2.8-10.8h1.3l-1.2,4.5c0.5-0.6,1-1,1.7-1.1c1.1-0.2,2.5,0.7,1.7,4.2
		c-0.1,0.5-0.3,1.2-0.3,1.4c-0.2,0.9,0.4,1.2,0.9,1.1c0.5-0.1,0.9-0.6,1.1-1.3l0.2-0.7L-170.9,612.7L-170.9,612.7z"/>
	<path class="st4" d="M-164.7,612.7l-0.3,0.8c-0.3,1-0.8,1.6-1.4,1.9c-1.2,0.6-2.8,0-2.3-1.8l1.2-4.7h-0.4l0.1-0.4h0.4l0.5-1.8h1.2
		l-0.4,1.8h0.7l-0.1,0.4h-0.7l-1.2,4.7c-0.2,0.9,0.4,1.2,0.9,1.1c0.5-0.1,0.9-0.6,1.1-1.3l0.2-0.7H-164.7z"/>
	<path class="st4" d="M-156.7,612.7h0.4c-1.2,4.9-7.2,3.6-5.8-1.7c1.2-4.7,5.5-3.4,4.4-0.7c-0.4,1-1.5,1.7-3.2,1.1
		C-161.6,615.2-157.6,616-156.7,612.7L-156.7,612.7z M-158.2,610.2c0.7-1.6-1.7-2.4-2.6,0.8C-159.4,611.5-158.5,610.9-158.2,610.2z"
		/>
	<path class="st4" d="M-146,612.7l-0.3,0.8c-0.3,1-0.8,1.6-1.4,1.9c-1.1,0.5-2.4,0.1-2.4-1.2c-0.6,0.9-1.4,1.4-2.2,1.2
		c-1.5-0.4-1.7-2.2-1.3-4c0.4-1.7,1.5-3.3,2.9-3.4c1.1-0.1,1.6,0.6,1.8,1.5l1.3-4.9h1.2l-2.3,9c-0.2,0.9,0.4,1.2,0.9,1.1
		c0.4-0.1,0.9-0.6,1.1-1.3l0.2-0.7H-146L-146,612.7z M-150.7,609.2c-0.8,0.1-1.4,1.1-1.7,2.3c-0.3,1.4-0.2,2.9,0.7,3.1
		C-150.1,615-148.3,608.8-150.7,609.2z"/>
	<path class="st4" d="M-133.8,612.7l-0.3,0.8c-0.3,1-0.8,1.6-1.4,1.9c-1.2,0.6-2.8,0-2.3-1.8l1.2-4.7h-0.4l0.1-0.4h0.4l0.5-1.8h1.2
		l-0.4,1.8h0.7l-0.1,0.4h-0.7l-1.2,4.7c-0.2,0.9,0.4,1.2,0.9,1.1c0.5-0.1,0.9-0.6,1.1-1.3l0.2-0.7H-133.8z"/>
	<path class="st4" d="M-124.9,612.7c-0.4,0.5-1.3,0.9-2,0.9c-0.6,1.3-1.7,2.2-3,1.9c-1.2-0.3-1.8-2.1-1.3-4.2
		c0.7-2.6,2.7-3.6,3.9-2.8c1.1,0.7,1.2,2.7,0.7,4.4c0.4,0.2,1.1-0.1,1.4-0.5C-125.1,612.5-125,612.5-124.9,612.7z M-127.3,613.4
		c-0.1,0-0.1-0.1-0.2-0.2c-0.2-0.4,0.2-0.9,0.5-0.7c0.4-1.4,0.3-3-0.6-3.2c-0.8-0.2-1.6,0.4-2.1,2c-0.5,1.6-0.2,3.1,0.8,3.3
		C-128.3,614.8-127.7,614.2-127.3,613.4z"/>
	<path class="st4" d="M-112.5,612.7c-0.3,1-0.6,2.3-1.7,2.8c-1.2,0.6-2.8,0-2.3-1.8l1.4-5.5h1.3l-1.4,5.6c-0.2,0.9,0.4,1.2,0.9,1.1
		c0.9-0.2,1.1-1.3,1.3-2.1L-112.5,612.7L-112.5,612.7z M-114.9,606.2c0.1-0.4,0.4-0.6,0.9-0.6l0,0c0.6,0,1,0.5,0.9,1.1
		c-0.1,0.4-0.5,0.7-0.9,0.7l0,0C-114.7,607.3-115.1,606.8-114.9,606.2z"/>
	<path class="st4" d="M-102.2,612.7l-0.3,0.8c-0.3,1-0.8,1.6-1.4,1.9c-1.2,0.6-2.8,0-2.3-1.8c0.2-0.8,0.3-1.2,0.4-1.5
		c0.3-1.3,0.5-3-0.8-2.9c-1,0.1-1.7,1.3-2,2.5l-1,3.7h-1.3l1.9-7.4h1.3l-0.3,1.1c0.5-0.6,1-1,1.7-1.1c1.1-0.2,2.5,0.7,1.7,4.2
		c-0.1,0.5-0.3,1.2-0.3,1.4c-0.2,0.9,0.4,1.2,0.9,1.1c0.5-0.1,0.9-0.6,1.1-1.3l0.2-0.7H-102.2z"/>
	<path class="st4" d="M-97.7,615.4c-1.2,0.6-2.8-0.1-2.3-1.9l1.4-5.4h1.3l-1.4,5.6c-0.2,0.9,0.4,1.1,0.9,1c1.8-0.4,3.7-5.5,2.4-5.5
		c-0.2,0-0.7-0.4-0.3-1.1c0.2-0.3,0.6-0.4,0.9-0.2C-93.7,608.5-94.9,614-97.7,615.4z"/>
	<path class="st4" d="M-86.8,612.7c-0.3,1-0.6,2.3-1.7,2.8c-1.2,0.6-2.8,0-2.3-1.8l1.4-5.5h1.3l-1.4,5.6c-0.2,0.9,0.4,1.2,0.9,1.1
		c0.9-0.2,1.1-1.3,1.3-2.1L-86.8,612.7L-86.8,612.7z M-89.3,606.2c0.1-0.4,0.4-0.6,0.9-0.6l0,0c0.6,0,1,0.5,0.9,1.1
		c-0.1,0.4-0.5,0.7-0.9,0.7l0,0C-89,607.3-89.4,606.8-89.3,606.2z"/>
	<path class="st4" d="M-80.6,612.7l-0.3,0.8c-0.3,1-0.8,1.6-1.4,1.9c-1.2,0.6-2.8,0-2.3-1.8l1.2-4.7h-0.4l0.1-0.4h0.4l0.5-1.8h1.2
		l-0.4,1.8h0.7l-0.1,0.4h-0.7l-1.2,4.7c-0.2,0.9,0.4,1.2,0.9,1.1c0.5-0.1,0.9-0.6,1.1-1.3l0.2-0.7H-80.6z"/>
	<path class="st4" d="M-72.6,612.7h0.4c-1.2,4.9-7.2,3.6-5.8-1.7c1.2-4.7,5.5-3.4,4.4-0.7c-0.4,1-1.5,1.7-3.2,1.1
		C-77.5,615.2-73.5,616-72.6,612.7L-72.6,612.7z M-74.1,610.2c0.7-1.6-1.7-2.4-2.6,0.8C-75.4,611.5-74.4,610.9-74.1,610.2z"/>
	<path class="st4" d="M-56.4,612.7l-0.3,0.8c-0.4,1.4-1.7,2-3,2.5l-0.3,1.3c-0.5,2.2-3.3,1.9-2.7,0c0.2-0.6,0.9-1.1,1.8-1.4l0.4-1.4
		c-0.3,0.4-0.7,0.7-1.1,0.9c-1.2,0.6-2.7-0.1-2.3-1.9l1.4-5.4h1.3l-1.4,5.6c-0.2,0.9,0.4,1.1,0.9,1c0.8-0.2,1.4-1.1,1.6-1.9l1.2-4.7
		h1.3l-1.9,7.3c1.1-0.4,2.1-1,2.3-1.9l0.2-0.7h0.6V612.7z M-61.1,616.6c-0.5,0.2-0.9,0.5-1,0.8c-0.3,0.7,0.4,1.4,0.7,0.4
		L-61.1,616.6z"/>
	<path class="st4" d="M-47.6,612.7c-0.4,0.5-1.3,0.9-2,0.9c-0.6,1.3-1.7,2.2-3,1.9c-1.2-0.3-1.8-2.1-1.3-4.2
		c0.7-2.6,2.7-3.6,3.9-2.8c1.1,0.7,1.2,2.7,0.7,4.4c0.4,0.2,1.1-0.1,1.4-0.5C-47.7,612.5-47.7,612.5-47.6,612.7z M-49.9,613.4
		c-0.1,0-0.1-0.1-0.2-0.2c-0.2-0.4,0.2-0.9,0.5-0.7c0.4-1.4,0.3-3-0.6-3.2c-0.8-0.2-1.6,0.4-2.1,2c-0.5,1.6-0.2,3.1,0.8,3.3
		C-50.9,614.8-50.3,614.2-49.9,613.4z"/>
	<path class="st4" d="M-37.6,612.7c-0.3,1-0.6,2.3-1.7,2.8s-2.4,0.1-2.4-1.1c-0.3,0.5-0.8,0.9-1.2,1.1c-1.2,0.6-2.7-0.1-2.3-1.9
		l1.4-5.4h1.3l-1.4,5.6c-0.2,0.9,0.4,1.1,0.9,1c0.9-0.2,1.5-1.3,1.7-2.1l1.1-4.5h1.3l-1.4,5.6c-0.2,0.9,0.4,1.2,0.9,1.1
		c0.8-0.2,1.1-1.3,1.3-2.1h0.5V612.7z"/>
	<path class="st4" d="M-25.4,612.7l-0.3,0.8c-0.3,1-0.8,1.6-1.4,1.9c-1.2,0.6-2.8,0-2.3-1.8l1.2-4.7h-0.4l0.1-0.4h0.4l0.5-1.8h1.2
		l-0.4,1.8h0.7l-0.1,0.4h-0.7l-1.2,4.7c-0.2,0.9,0.4,1.2,0.9,1.1c0.5-0.1,0.9-0.6,1.1-1.3l0.2-0.7H-25.4z"/>
	<path class="st4" d="M-16.5,612.7c-0.4,0.5-1.3,0.9-2,0.9c-0.6,1.3-1.7,2.2-3,1.9c-1.2-0.3-1.8-2.1-1.3-4.2
		c0.7-2.6,2.7-3.6,3.9-2.8c1.1,0.7,1.2,2.7,0.7,4.4c0.4,0.2,1.1-0.1,1.4-0.5C-16.6,612.5-16.6,612.5-16.5,612.7z M-18.9,613.4
		c-0.1,0-0.1-0.1-0.2-0.2c-0.2-0.4,0.2-0.9,0.5-0.7c0.4-1.4,0.3-3-0.6-3.2c-0.8-0.2-1.6,0.4-2.1,2c-0.5,1.6-0.2,3.1,0.8,3.3
		C-19.8,614.8-19.3,614.2-18.9,613.4z"/>
	<path class="st4" d="M-1.7,612.7c-0.4,1.7-1.7,3.1-3.5,3c-1.9,0-3.5-2-2.3-5c1.5-3.9,4.8-3.1,4.7-1.1l-0.5,0.1
		c0-1.3-1.8-1.4-2.9,1.2c-1,2.4,0.3,3.9,1.6,3.9c1.3,0,2-1,2.4-2.1L-1.7,612.7L-1.7,612.7z"/>
	<path class="st4" d="M6.3,612.7h0.4c-1.2,4.9-7.2,3.6-5.8-1.7c1.2-4.7,5.5-3.4,4.4-0.7c-0.4,1-1.5,1.7-3.2,1.1
		C1.4,615.2,5.3,616,6.3,612.7L6.3,612.7z M4.8,610.2c0.7-1.6-1.7-2.4-2.6,0.8C3.5,611.5,4.5,610.9,4.8,610.2z"/>
	<path class="st4" d="M12.9,612.7l-0.3,0.8c-0.3,1-0.8,1.6-1.4,1.9c-1.2,0.6-2.8,0-2.3-1.8l2.3-9h1.2l-2.3,9
		c-0.2,0.9,0.4,1.2,0.9,1.1c0.5-0.1,0.9-0.6,1.1-1.3l0.2-0.7H12.9z"/>
	<path class="st4" d="M20.9,612.7h0.4c-1.2,4.9-7.2,3.6-5.8-1.7c1.2-4.7,5.5-3.4,4.4-0.7c-0.4,1-1.5,1.7-3.2,1.1
		C16,615.2,20,616,20.9,612.7L20.9,612.7z M19.4,610.2c0.7-1.6-1.7-2.4-2.6,0.8C18.2,611.5,19.1,610.9,19.4,610.2z"/>
	<path class="st4" d="M29.4,612c-0.7,2.6-2.3,3.9-3.6,3.4c-0.6-0.2-0.9-0.7-1.1-1.4l-0.4,1.4H23l2.8-10.8h1.3l-1.2,4.6
		c0.5-0.6,1.1-1,1.7-1.1C28.9,607.9,30.2,609.1,29.4,612z M27.3,609.3c-1.9,0.2-2.9,4.8-1.5,5.3c0.6,0.2,1.9-0.8,2.4-2.6
		C28.7,610.1,28.1,609.2,27.3,609.3z"/>
	<path class="st4" d="M40.7,612.7l-0.3,0.8c-0.3,1-0.8,1.6-1.4,1.9c-1.2,0.6-2.8,0-2.3-1.8c0.1-0.3,0.4-1.5,0.7-2.7
		c0.2-0.8,0.4-1.4-1.1-1.8c-0.5-0.1-0.9-0.2-0.9-0.2l-1.1,3.9h-0.5l1.2-4.1c-0.3-0.2-0.4-0.5-0.3-0.8c0.2-0.6,1.1-0.5,1.1,0.3
		c0,0,0,0,1.6,0.4s1.6,1.3,1.4,2.3l-0.7,2.8c-0.2,0.9,0.4,1.2,0.9,1.1c0.5-0.1,0.9-0.6,1.1-1.3l0.2-0.7L40.7,612.7L40.7,612.7z"/>
	<path class="st4" d="M51,612.7l-0.3,0.8c-0.3,1-0.8,1.6-1.4,1.9c-1.1,0.5-2.4,0.1-2.4-1.3c-0.7,0.9-1.6,1.5-2.4,1.2
		c-1.2-0.4-1.7-2.2-1-4.3c0.9-2.6,2.9-3.4,4.1-2.6c0.3,0.2,0.4,0.5,0.6,0.8l0.3-1.2h1.3l-1.4,5.6c-0.2,0.9,0.4,1.2,0.9,1.1
		c0.4-0.1,0.9-0.6,1.1-1.3l0.2-0.7H51z M47.4,612.2l0.2-0.8c0.2-0.9,0.1-1.7-0.5-2c-0.6-0.4-1.8,0.3-2.4,1.8
		c-0.5,1.6-0.4,3.2,0.4,3.4C46,614.9,46.9,613.6,47.4,612.2z"/>
	<path class="st4" d="M57.2,612.7l-0.3,0.8c-0.3,1-0.8,1.6-1.4,1.9c-1.2,0.6-2.8,0-2.3-1.8l1.2-4.7H54l0.1-0.4h0.4l0.5-1.8h1.2
		l-0.4,1.8h0.7l-0.1,0.4h-0.7l-1.2,4.7c-0.2,0.9,0.4,1.2,0.9,1.1c0.5-0.1,0.9-0.6,1.1-1.3l0.2-0.7H57.2z"/>
	<path class="st4" d="M65.2,612.7h0.4c-1.2,4.9-7.2,3.6-5.8-1.7c1.2-4.7,5.5-3.4,4.4-0.7c-0.4,1-1.5,1.7-3.2,1.1
		C60.3,615.2,64.3,616,65.2,612.7L65.2,612.7z M63.7,610.2c0.7-1.6-1.7-2.4-2.6,0.8C62.5,611.5,63.4,610.9,63.7,610.2z"/>
	<path class="st4" d="M-237.6,630.9l-2.1,10.6h-1.3l1.5-7.7l-3.3,7.7l0,0h-1.4v-7.7l-2.2,7.7h-0.7l2.9-9.8c-0.5,0-0.9,0.2-1.2,0.6
		c-0.6,0.8-0.7,2.2-0.6,2.9l-1.1-1.1c0-0.6,0.5-1.7,1.1-2.3c0.9-1,1.9-1.1,3.1-1.1l0.1,9.2l4-9.1
		C-237.1,630.9-238.9,630.9-237.6,630.9z"/>
	<path class="st4" d="M-226.4,638.7l-0.3,0.8c-0.3,1-0.8,1.6-1.4,1.9c-1.1,0.5-2.4,0.1-2.4-1.3c-0.7,0.9-1.6,1.5-2.4,1.2
		c-1.2-0.4-1.7-2.2-1-4.3c0.9-2.6,2.9-3.4,4.1-2.6c0.3,0.2,0.4,0.5,0.6,0.8l0.3-1.2h1.3l-1.4,5.6c-0.2,0.9,0.4,1.2,0.9,1.1
		c0.4-0.1,0.9-0.6,1.1-1.3l0.2-0.7H-226.4z M-230,638.2l0.2-0.8c0.2-0.9,0.1-1.7-0.5-2c-0.6-0.4-1.8,0.3-2.4,1.8
		c-0.5,1.6-0.4,3.2,0.4,3.4C-231.5,640.9-230.5,639.6-230,638.2z"/>
	<path class="st4" d="M-217,638.7l-0.3,0.8c-0.3,1-0.8,1.6-1.4,1.9c-1.2,0.6-2.8,0-2.3-1.8c0.1-0.3,0.4-1.5,0.7-2.7
		c0.2-0.8,0.4-1.4-1.1-1.8c-0.5-0.1-0.9-0.2-0.9-0.2l-1.1,3.9h-0.6l1.2-4.1c-0.3-0.2-0.4-0.5-0.3-0.8c0.2-0.6,1.1-0.5,1.1,0.3
		c0,0,0,0,1.6,0.4s1.6,1.3,1.4,2.3l-0.7,2.8c-0.2,0.9,0.4,1.2,0.9,1.1c0.5-0.1,0.9-0.6,1.1-1.3l0.2-0.7L-217,638.7L-217,638.7z"/>
	<path class="st4" d="M-210.9,638.7c-0.3,1-0.6,2.3-1.7,2.8c-1.2,0.6-2.8,0-2.3-1.8l1.4-5.5h1.3l-1.4,5.6c-0.2,0.9,0.4,1.2,0.9,1.1
		c0.9-0.2,1.1-1.3,1.3-2.1L-210.9,638.7L-210.9,638.7z M-213.3,632.2c0.1-0.4,0.4-0.6,0.9-0.6l0,0c0.6,0,1,0.5,0.9,1.1
		c-0.1,0.4-0.5,0.7-0.9,0.7l0,0C-213,633.3-213.4,632.8-213.3,632.2z"/>
	<path class="st4" d="M-202.8,638.7h0.4c-1.2,4.9-7.2,3.6-5.8-1.7c1.2-4.7,5.5-3.4,4.4-0.7c-0.4,1-1.5,1.7-3.2,1.1
		C-207.7,641.2-203.8,642-202.8,638.7L-202.8,638.7z M-204.3,636.2c0.7-1.6-1.7-2.4-2.6,0.8C-205.6,637.5-204.6,636.9-204.3,636.2z"
		/>
	<path class="st4" d="M-195.2,637.9h-3.2l0.3-1.3h3.2L-195.2,637.9z"/>
	<path class="st4" d="M-186.1,643.6c-0.6-0.3-1.3-0.9-1.9-1.2c-0.6-0.3-1.5-0.5-2.1-0.4l2.7-10.3c-0.4,0-0.9,0.2-1.2,0.6
		c-0.6,0.8-0.7,2.2-0.6,2.9l-1.1-1.1c0-0.6,0.5-1.7,1.1-2.3c0.9-1,2.1-1.1,3.3-1.1l-1.1,4.3l-0.2,0.6l-1.5,5.8c0.3-0.1,0.7,0,1,0
		c0.6,0.1,1.1,0.5,1.7,0.8c1,0.5,2,0.4,3.2-0.1C-182.8,642.2-183.9,644.7-186.1,643.6z"/>
	<path class="st4" d="M-175.1,638.7l-0.3,0.8c-0.3,1-0.8,1.6-1.4,1.9c-1.1,0.5-2.4,0.1-2.4-1.3c-0.7,0.9-1.6,1.5-2.4,1.2
		c-1.2-0.4-1.7-2.2-1-4.3c0.9-2.6,2.9-3.4,4.1-2.6c0.3,0.2,0.4,0.5,0.6,0.8l0.3-1.2h1.3l-1.4,5.6c-0.2,0.9,0.4,1.2,0.9,1.1
		c0.4-0.1,0.9-0.6,1.1-1.3l0.2-0.7H-175.1z M-178.7,638.2l0.2-0.8c0.2-0.9,0.1-1.7-0.5-2c-0.6-0.4-1.8,0.3-2.4,1.8
		c-0.5,1.6-0.4,3.2,0.4,3.4C-180.1,640.9-179.2,639.6-178.7,638.2z"/>
	<path class="st4" d="M-165.3,638.7c-0.3,1-0.6,2.3-1.7,2.8s-2.4,0.1-2.4-1.1c-0.3,0.5-0.8,0.9-1.2,1.1c-1.2,0.6-2.7-0.1-2.3-1.9
		l1.4-5.4h1.3l-1.4,5.6c-0.2,0.9,0.4,1.1,0.9,1c0.9-0.2,1.5-1.3,1.7-2.1l1.1-4.5h1.3l-1.4,5.6c-0.2,0.9,0.4,1.2,0.9,1.1
		c0.8-0.2,1.1-1.3,1.3-2.1h0.5V638.7z"/>
	<path class="st4" d="M-155.9,638.7l-0.3,0.8c-0.3,1-0.8,1.6-1.4,1.9c-1.2,0.6-2.8,0-2.3-1.8c0.1-0.3,0.4-1.5,0.7-2.7
		c0.2-0.8,0.4-1.4-1.1-1.8c-0.5-0.1-0.9-0.2-0.9-0.2l-1.1,3.9h-0.5l1.2-4.1c-0.3-0.2-0.4-0.5-0.3-0.8c0.2-0.6,1.1-0.5,1.1,0.3
		c0,0,0,0,1.6,0.4s1.6,1.3,1.4,2.3l-0.7,2.8c-0.2,0.9,0.4,1.2,0.9,1.1c0.5-0.1,0.9-0.6,1.1-1.3l0.2-0.7L-155.9,638.7L-155.9,638.7z"
		/>
	<path class="st4" d="M-147.9,638.7h0.4c-1.2,4.9-7.2,3.6-5.8-1.7c1.2-4.7,5.5-3.4,4.4-0.7c-0.4,1-1.5,1.7-3.2,1.1
		C-152.8,641.2-148.8,642-147.9,638.7L-147.9,638.7z M-149.4,636.2c0.7-1.6-1.7-2.4-2.6,0.8C-150.6,637.5-149.7,636.9-149.4,636.2z"
		/>
	<path class="st4" d="M-129.7,636.2c-0.1,0.2-0.3,0.4-0.6,0.6c-0.2,0.1-0.5,0.2-0.8,0.2c0.2,1.9-1,4.6-3.3,4.6
		c-1.7,0-3.2-1.7-2.9-3.9c0.4-2.5,2-2.4,2.2-2.4c-1.4-1.1-0.9-3.7,1-4.3c1.5-0.5,3.3,0.2,3.1,2.7l-1.4,0.4c0.4-0.6,0.5-2.8-1.2-2.5
		c-0.9,0.2-1.7,1.4-1.2,2.8c0.2,0.6,0.6,1,1.2,1.1c-1.4,0-2.2,1.1-2.4,2.4c-0.3,1.7,0.6,2.9,1.7,2.9c1.8,0,2.9-2.3,2.7-3.7
		c-0.3,0-0.7,0.1-0.9,0.2c-0.3,0.1-0.4,0.3-0.4,0.6v0.2l-0.4-0.3c-0.2-0.6,0-1,0.5-1.2c0.4-0.2,0.8-0.2,1.2-0.2
		c0.3,0,0.8-0.1,1.1-0.2c0.4-0.2,0.4-0.3,0.3-0.4l0,0l0.2-0.3l0.1,0.1C-129.6,635.7-129.6,636-129.7,636.2z"/>
	<path class="st4" d="M-117.8,639.3c0.1,1.4,2.5,1.7,3.4,0.3c1.6-2.6-1-4-1.7-5.8c-1.2-3.1,3.4-4.1,4.2-1.1l-1.3,0.8
		c0.4-0.4,0.4-1.2-0.1-1.6c-0.5-0.4-1.3-0.3-1.6,0.2c-0.3,0.4-0.2,1,0,1.5c0.5,1.1,2.6,2.4,2.3,5c-0.3,2.2-2.4,3.4-4.6,2.8
		c-1-0.3-1.8-1.2-1.9-2.2c-0.2-1,0.5-2.1,1.4-2.4l1.5,1C-116.9,637.6-117.9,638.2-117.8,639.3z"/>
	<path class="st4" d="M-102.7,638.7h0.4c-1.2,4.9-7.2,3.6-5.8-1.7c1.2-4.7,5.5-3.4,4.4-0.7c-0.4,1-1.5,1.7-3.2,1.1
		C-107.6,641.2-103.7,642-102.7,638.7L-102.7,638.7z M-104.2,636.2c0.7-1.6-1.7-2.4-2.6,0.8C-105.5,637.5-104.5,636.9-104.2,636.2z"
		/>
	<path class="st4" d="M-94.2,638c-0.7,2.6-2.3,3.9-3.6,3.4c-0.6-0.2-0.9-0.7-1.1-1.4l-0.4,1.4h-1.3l2.8-10.8h1.3l-1.2,4.6
		c0.5-0.6,1.1-1,1.7-1.1C-94.8,633.9-93.5,635.1-94.2,638z M-96.3,635.3c-1.9,0.2-2.9,4.8-1.5,5.3c0.6,0.2,1.9-0.8,2.4-2.6
		C-95,636.1-95.6,635.2-96.3,635.3z"/>
	<path class="st4" d="M-82.1,638.7l-0.3,0.8c-0.3,1-0.8,1.6-1.4,1.9c-1.1,0.5-2.4,0.1-2.4-1.3c-0.7,0.9-1.6,1.5-2.4,1.2
		c-1.2-0.4-1.7-2.2-1-4.3c0.9-2.6,2.9-3.4,4.1-2.6c0.3,0.2,0.4,0.5,0.6,0.8l0.3-1.2h1.3l-1.4,5.6c-0.2,0.9,0.4,1.2,0.9,1.1
		c0.4-0.1,0.9-0.6,1.1-1.3l0.2-0.7H-82.1z M-85.7,638.2l0.2-0.8c0.2-0.9,0.1-1.7-0.5-2c-0.6-0.4-1.8,0.3-2.4,1.8
		c-0.5,1.6-0.4,3.2,0.4,3.4C-87.1,640.9-86.1,639.6-85.7,638.2z"/>
	<path class="st4" d="M-73.9,638.8c-0.2,0.3-0.5,0.5-0.8,0.6c-0.2,0.1-0.4,0.1-0.6,0.1c-0.1,1.1-1,1.8-2,2c-2,0.2-2.8-1.4-2.3-2.7
		c0.1-0.3,0.3-0.4,0.5-0.5c0.7-0.9,1.6-2.6,1.9-4.2h1.3c-0.4,1.7,0.1,3,0.5,4.6c0.2,0.1,0.3,0.3,0.6,0.2c0.3-0.1,0.5-0.3,0.7-0.4
		C-74.1,638.6-74,638.6-73.9,638.8z M-76.8,639c-0.2-0.9-0.4-1.8-0.5-3c-0.4,0.9-0.8,1.7-1.2,2.3c0.2,0.1,0.4,0.2,0.4,0.5
		c0.2,0.6-0.7,1.2-1,0.5c-0.2,0.3,0.1,1.6,1.5,1.4C-76.9,640.6-76.5,640-76.8,639z"/>
	<path class="st4" d="M-67.5,638.7l-0.3,0.8c-0.3,1-0.8,1.6-1.4,1.9c-1.2,0.6-2.8,0-2.3-1.8l1.2-4.7h-0.4l0.1-0.4h0.4l0.5-1.8h1.2
		l-0.4,1.8h0.7l-0.1,0.4H-69l-1.2,4.7c-0.2,0.9,0.4,1.2,0.9,1.1c0.5-0.1,0.9-0.6,1.1-1.3l0.2-0.7H-67.5z"/>
	<path class="st4" d="M-61.3,638.7c-0.3,1-0.6,2.3-1.7,2.8c-1.2,0.6-2.8,0-2.3-1.8l1.4-5.5h1.3l-1.4,5.6c-0.2,0.9,0.4,1.2,0.9,1.1
		c0.9-0.2,1.1-1.3,1.3-2.1L-61.3,638.7L-61.3,638.7z M-63.7,632.2c0.1-0.4,0.4-0.6,0.9-0.6l0,0c0.6,0,1,0.5,0.9,1.1
		c-0.1,0.4-0.5,0.7-0.9,0.7l0,0C-63.5,633.3-63.9,632.8-63.7,632.2z"/>
	<path class="st4" d="M-51,638.7l-0.3,0.8c-0.3,1-0.8,1.6-1.4,1.9c-1.1,0.5-2.4,0.1-2.4-1.3c-0.7,0.9-1.6,1.5-2.4,1.2
		c-1.2-0.4-1.7-2.2-1-4.3c0.9-2.6,2.9-3.4,4.1-2.6c0.3,0.2,0.4,0.5,0.6,0.8l0.3-1.2h1.3l-1.4,5.6c-0.2,0.9,0.4,1.2,0.9,1.1
		c0.4-0.1,0.9-0.6,1.1-1.3l0.2-0.7H-51z M-54.6,638.2l0.2-0.8c0.2-0.9,0.1-1.7-0.5-2c-0.6-0.4-1.8,0.3-2.4,1.8
		c-0.5,1.6-0.4,3.2,0.4,3.4C-56.1,640.9-55.1,639.6-54.6,638.2z"/>
	<path class="st4" d="M-40.8,638.7l-0.3,0.8c-0.3,1-0.8,1.6-1.4,1.9c-1.1,0.5-2.4,0.1-2.4-1.3c-0.7,0.9-1.6,1.5-2.4,1.2
		c-1.2-0.4-1.7-2.2-1-4.3c0.9-2.6,2.9-3.4,4.1-2.6c0.3,0.2,0.4,0.5,0.6,0.8l0.3-1.2h1.3l-1.4,5.6c-0.2,0.9,0.4,1.2,0.9,1.1
		c0.4-0.1,0.9-0.6,1.1-1.3l0.2-0.7H-40.8z M-44.4,638.2l0.2-0.8c0.2-0.9,0.1-1.7-0.5-2c-0.6-0.4-1.8,0.3-2.4,1.8
		c-0.5,1.6-0.4,3.2,0.4,3.4C-45.8,640.9-44.8,639.6-44.4,638.2z"/>
	<path class="st4" d="M-30.4,638.7l-0.3,0.8c-0.3,1-0.8,1.6-1.4,1.9c-1.2,0.6-2.8,0-2.3-1.8c0.2-0.8,0.3-1.2,0.4-1.5
		c0.3-1.3,0.5-3-0.8-2.9c-1,0.1-1.7,1.3-2,2.5l-1,3.7H-39l1.9-7.4h1.3l-0.3,1.1c0.5-0.6,1-1,1.7-1.1c1.1-0.2,2.5,0.7,1.7,4.2
		c-0.1,0.5-0.3,1.2-0.3,1.4c-0.2,0.9,0.4,1.2,0.9,1.1c0.5-0.1,0.9-0.6,1.1-1.3l0.2-0.7H-30.4z"/>
	<path class="st4" d="M-27,632.4c-0.3,0.2-0.5-0.3-0.2-0.4c0.3-0.2,0.6-0.4,0.8-0.6c-0.4-0.1-0.7-0.5-0.6-1c0.1-0.3,0.4-0.6,0.8-0.6
		C-25,629.8-25.2,631.4-27,632.4z"/>
	<path class="st4" d="M-15.7,638.8c-0.2,0.3-0.5,0.5-0.8,0.6c-0.2,0.1-0.4,0.1-0.6,0.1c-0.1,1.1-1,1.8-2,2c-2,0.2-2.8-1.4-2.3-2.7
		c0.1-0.3,0.3-0.4,0.5-0.5c0.7-0.9,1.6-2.6,1.9-4.2h1.3c-0.4,1.7,0.1,3,0.5,4.6c0.2,0.1,0.3,0.3,0.6,0.2c0.3-0.1,0.5-0.3,0.7-0.4
		C-15.8,638.6-15.8,638.6-15.7,638.8z M-18.5,639c-0.2-0.9-0.4-1.8-0.5-3c-0.4,0.9-0.8,1.7-1.2,2.3c0.2,0.1,0.4,0.2,0.4,0.5
		c0.2,0.6-0.7,1.2-1,0.5c-0.2,0.3,0.1,1.6,1.5,1.4C-18.7,640.6-18.2,640-18.5,639z"/>
	<path class="st4" d="M-1.5,641.5c-1,0.5-2.2,0.1-2.4-1c-0.3,0.4-0.6,0.8-1.1,1c-1.2,0.6-2.7-0.1-2.3-1.9l1.4-5.4h1.3l-1.4,5.6
		c-0.2,0.9,0.4,1.1,0.9,1c0.8-0.2,1.2-1.1,1.5-1.9l1.2-4.7h1.3l-1.4,5.6c-0.2,0.9,0.4,1.1,0.9,1c1.8-0.4,3.7-5.5,2.4-5.5
		c-0.3,0-0.8-0.5-0.4-1.1c0.3-0.5,1.1-0.3,1.3,0.2C2.3,635.7,1,640.2-1.5,641.5z"/>
	<path class="st4" d="M11.2,638.7h0.4c-1.2,4.9-7.2,3.6-5.8-1.7c1.2-4.7,5.5-3.4,4.4-0.7c-0.4,1-1.5,1.7-3.2,1.1
		C6.3,641.2,10.3,642,11.2,638.7L11.2,638.7z M9.7,636.2c0.7-1.6-1.7-2.4-2.6,0.8C8.5,637.5,9.4,636.9,9.7,636.2z"/>
	<path class="st4" d="M21.9,638.7l-0.3,0.8c-0.3,1-0.8,1.6-1.4,1.9c-1.1,0.5-2.4,0.1-2.4-1.2c-0.6,0.9-1.4,1.4-2.2,1.2
		c-1.5-0.4-1.7-2.2-1.3-4c0.4-1.7,1.5-3.3,2.9-3.4c1-0.1,1.6,0.6,1.8,1.5l1.3-4.9h1.2l-2.3,9c-0.2,0.9,0.4,1.2,0.9,1.1
		c0.4-0.1,0.9-0.6,1.1-1.3l0.2-0.7H21.9L21.9,638.7z M17.2,635.2c-0.8,0.1-1.4,1.1-1.7,2.3c-0.3,1.4-0.2,2.9,0.7,3.1
		C17.8,641,19.7,634.8,17.2,635.2z"/>
	<path class="st4" d="M32.1,638.7l-0.3,0.8c-0.3,1-0.8,1.6-1.4,1.9c-1.1,0.5-2.4,0.1-2.4-1.2c-0.6,0.9-1.4,1.4-2.2,1.2
		c-1.5-0.4-1.7-2.2-1.3-4c0.4-1.7,1.5-3.3,2.9-3.4c1-0.1,1.6,0.6,1.8,1.5l1.3-4.9h1.2l-2.3,9c-0.2,0.9,0.4,1.2,0.9,1.1
		c0.4-0.1,0.9-0.6,1.1-1.3l0.2-0.7H32.1L32.1,638.7z M27.5,635.2c-0.8,0.1-1.4,1.1-1.7,2.3c-0.3,1.4-0.2,2.9,0.7,3.1
		C28.1,641,29.9,634.8,27.5,635.2z"/>
	<path class="st4" d="M38.3,638.7c-0.3,1-0.6,2.3-1.7,2.8c-1.2,0.6-2.8,0-2.3-1.8l1.4-5.5H37l-1.4,5.6c-0.2,0.9,0.4,1.2,0.9,1.1
		c0.9-0.2,1.1-1.3,1.3-2.1L38.3,638.7L38.3,638.7z M35.9,632.2c0.1-0.4,0.4-0.6,0.9-0.6l0,0c0.6,0,1,0.5,0.9,1.1
		c-0.1,0.4-0.5,0.7-0.9,0.7l0,0C36.2,633.3,35.7,632.8,35.9,632.2z"/>
	<path class="st4" d="M48.6,638.7l-0.3,0.8c-0.3,1-0.8,1.6-1.4,1.9c-1.2,0.6-2.8,0-2.3-1.8c0.2-0.8,0.3-1.2,0.4-1.5
		c0.3-1.3,0.5-3-0.8-2.9c-1,0.1-1.7,1.3-2,2.5l-1,3.7H40l1.9-7.4h1.3l-0.3,1.1c0.5-0.6,1-1,1.7-1.1c1.1-0.2,2.5,0.7,1.7,4.2
		c-0.1,0.5-0.3,1.2-0.3,1.4c-0.2,0.9,0.4,1.2,0.9,1.1c0.5-0.1,0.9-0.6,1.1-1.3l0.2-0.7H48.6z"/>
	<path class="st4" d="M58.7,638.7l-0.3,0.8c-0.4,1.4-1.7,2-3,2.5l-0.3,1.3c-0.5,2.2-3.3,1.9-2.7,0c0.2-0.7,0.9-1.1,1.8-1.4l0.4-1.4
		c-0.6,0.7-1.3,1.1-2,0.9c-1.4-0.4-1.7-2.2-1.3-4c0.4-1.7,1.5-3.3,2.9-3.4c1,0,1.6,0.5,1.8,1.4l0.4-1.3h1.3l-1.9,7.3
		c1.1-0.4,2.1-1,2.3-1.9l0.2-0.7h0.4V638.7z M54.2,635.2c-0.8,0.1-1.4,1.1-1.7,2.3c-0.3,1.4-0.2,2.9,0.7,3.1
		C54.8,641,56.6,634.8,54.2,635.2z M54,642.6c-0.5,0.2-0.9,0.5-1,0.8c-0.3,0.7,0.4,1.4,0.7,0.4L54,642.6z"/>
</g>
<g>
	<path class="st1" d="M-186.9,453.1c0.3,0.1,0.4,0.4,0.3,0.7c-0.1,0.3-0.2,0.6-0.5,0.9c-0.3,0.3-0.4,0.6-0.6,0.8
		c-0.1,0.1-0.1,0.2-0.2,0.2c-1.6,2.2-3,4.6-4.2,7.1s-2.3,5-3.3,7.5c-0.4,1-0.9,2-1.3,3c-1,2.2-1.9,4.3-2.8,6.5
		c-1.5,3.7-3.2,7.5-4.9,11.2c-0.6,1.3-1.3,2.5-2.1,3.8c-0.6,1-1.5,1.5-2.8,1.5c-1,0-1.7-0.5-1.9-1.4c-0.2-0.8-0.3-1.7-0.4-2.6
		c-0.1-3.3-0.1-6.7,0.2-10c0.2-2.3,0.4-4.6,0.5-6.8c0.2-2.5,0.4-4.9,0.6-7.4c0.5-5.6,1-11.2,1.6-16.8c0.7-6.4,1.4-12.8,2.1-19.2
		c1.3-10.8,2.4-21.7,3.4-32.6c0.1-0.7,0.1-1.2,0-1.7s-0.1-0.6-0.3-0.5c-0.2,0.1-0.4,0.6-0.8,1.6c-3.2,9.3-6.2,18.7-8.9,28.1
		c-0.1,0.4-0.2,0.7-0.3,1c-1.6,5.6-3.3,11.2-5,16.8c-0.6,2.2-1.4,4.3-2.2,6.6c-0.8,2.3-1.8,4.3-2.8,6.3c-0.3,0.6-0.8,1-1.3,1.2
		c-0.5,0.2-1.1,0.3-1.8,0.2s-1.2-0.4-1.5-1s-0.4-1.2-0.5-1.8c-0.1-0.8-0.2-1.5-0.2-2.3c-0.2-1.8-0.4-3.5-0.5-5.2
		c-0.4-4.8-0.9-9.7-1.5-14.6c-0.6-4.9-1.4-9.7-2.4-14.4c-0.3-1.2-0.7-1.2-1.2,0.1c-0.5,1.3-1.1,3.4-1.8,6.4s-1.4,6.4-2.1,10.3
		s-1.2,7.4-1.9,11.4s-1.3,7.7-1.9,11c-0.9,5.2-1.5,8.5-1.8,9.9c-0.2,1-0.6,2-1,2.9c-0.2,0.4-0.5,0.7-0.8,0.8s-0.8,0.2-1.2,0.1
		c-0.9-0.1-1.4-0.6-1.6-1.5c-0.1-0.5-0.1-0.9-0.1-1.4c0-0.4,0-0.8,0-1.1c-0.1-1.5-0.1-3-0.2-4.6c-0.2-11.7-0.2-23.5,0.2-35.2
		c0.2-7.4,0.5-14.9,0.7-22.4c0-0.8,0-1.6,0-2.4c0-0.8,0-1.5,0-2.3c0-0.6,0.3-1,0.7-1.3s0.9-0.2,1.5,0c0.2,0.1,0.4,0.2,0.5,0.4
		c0.1,0.2,0.1,0.4,0.2,0.6c0.2,2.1,0.3,4.1,0.2,6.2c0,1.2-0.1,2.5-0.1,3.7c-0.1,3.4-0.2,6.7-0.3,10.1c-0.2,4.3-0.3,8.7-0.3,13
		c-0.1,3.2-0.1,6.4-0.2,9.6c-0.1,3.4-0.1,6.8-0.1,10.2c0,2.3,0,4.7,0,7.1c0,0.1,0,0.3,0,0.6s0.1,0.6,0.1,0.9c0,0.3,0.1,0.6,0.2,0.8
		c0.1,0.2,0.2,0.2,0.2,0.1c0-0.1,0.2-0.4,0.3-0.9c0.2-1.5,0.5-3.2,0.8-5.1c0.7-4.5,1.5-9.4,2.4-14.7c0.9-5.3,2-10.4,3.2-15.2
		c1.2-4.8,2.4-8.5,3.8-11.1c0.6-1,1.3-1.4,2.1-1.4s1.5,0.5,2.1,1.6c0.7,1.6,1.3,3.6,1.7,5.9c0.4,2.3,0.9,4.8,1.2,7.3
		s0.6,4.9,0.8,7.1c0.1,1.2,0.2,2.3,0.3,3.3c0.2,1.6,0.3,3,0.5,4.3c0.3,3.1,0.6,5.5,0.9,7.2c0.3,1.7,0.6,2.6,1.1,2.6s1.1-1.1,1.9-3.2
		s1.9-5.6,3.3-10.2c1.3-4.3,2.4-8.5,3.6-12.5c1.5-5.3,3-10.6,4.6-15.8s3.4-10.7,5.6-16.4c0.6-1.6,1.3-3,2-4.1s1.4-1.6,2-1.7
		c0.2,0,0.5,0,0.7,0.1s0.5,0.4,0.7,0.8c0.2,0.4,0.3,1.2,0.3,2.3c0.1,1.8,0,3.7-0.1,5.5s-0.3,3.7-0.4,5.5c0,0.2,0,0.4,0,0.6
		c-0.9,9.4-1.9,18.7-3,28.1c-0.7,6.1-1.4,12.2-2.1,18.3c0,0.1,0,0.3,0,0.5c-0.6,5.7-1.2,11.4-1.7,17.1c-0.4,5-0.8,10-1.2,15
		c0,0.4-0.1,0.9-0.1,1.4c-0.1,1.3-0.1,2.6-0.2,3.9c0,0.5,0,0.9,0,1.4c0,0.1,0,0.3,0,0.3s0.2,0.1,0.3,0.1s0.1,0,0.2-0.1
		s0.1-0.1,0.1-0.2c1.6-3.4,3.2-6.8,4.8-10.2c1.5-3.3,3-6.5,4.5-9.7s3.2-6.5,4.9-9.7c1.4-2.7,2.7-4.8,3.9-6.4S-187.5,453-186.9,453.1
		z"/>
	<path class="st1" d="M-161.2,453.3c-0.3,1-1,2.2-2,3.6s-2.3,2.2-3.8,2.6s-2.8,0.3-3.9-0.2s-1.7-1.8-1.8-3.9c-1.3,2.4-2.5,4-3.6,4.7
		c-1.1,0.7-2.3,0.9-3.5,0.8c-1.4-0.2-2.3-0.8-2.8-1.6c-0.5-0.8-0.7-1.9-0.5-3c0.2-1.1,0.5-2.2,1-3.2c0.4-0.8,1-1.5,1.7-2.1
		s1.5-1.2,2.3-1.6c1-0.5,2-0.7,3-0.7s2.1,0.4,3.2,1c0,0,0,0,0-0.1s0-0.2,0.1-0.4c0.1-0.2,0.2-0.3,0.3-0.4c0.4-0.3,0.8-0.4,1.3-0.4
		s0.9,0.3,1.2,0.8c0.1,0.7,0,1.5-0.2,2.5c-0.4,2.2-0.4,3.9,0,4.8s1.1,1.4,2.2,1.4s2.4-1.1,4-3.1S-160.9,452.3-161.2,453.3z
		 M-179.6,458.6c0.6,0.4,1.2,0.4,2-0.2s1.4-1.3,2.1-2.2c0.7-0.9,1.3-1.9,1.7-2.9s0.7-1.7,0.8-2.1c-1.4-0.7-2.6-0.9-3.6-0.4
		s-1.8,1.3-2.4,2.4c-0.6,1.1-0.9,2.2-1,3.2S-180,458.2-179.6,458.6z"/>
	<path class="st1" d="M-143.1,454.2c0.2-0.5,0.5-0.8,0.7-0.8s0.3,0.3,0.2,0.8c-0.4,1.3-0.9,2.5-1.5,3.6c-0.6,1.1-1.3,2.3-2.3,3.2
		c-0.7,0.7-1.6,1.2-2.7,1.4c-1.4,0.2-2.5,0-3.5-0.5s-1.6-1.3-2.2-2.3s-0.9-2.1-1.2-3.3c-0.3-1.2-0.3-2.3-0.4-3.4
		c-0.2-2.1-0.3-4.9-0.4-8.3s-0.1-7.1,0.1-10.9c0.2-3.8,0.5-7.4,1.1-10.7s1.5-5.8,2.6-7.6c0.7-0.9,1.4-1.3,2.3-1.3s1.7,0.4,2.3,1.2
		c0.5,0.6,0.8,1.3,1,2c0.2,0.7,0.4,1.4,0.5,2.2c0.2,2.5,0.2,5.2-0.1,8s-0.8,5.8-1.5,9s-1.5,6-2.4,8.4s-1.7,4.3-2.3,5.8
		c-0.3,0.6-0.5,1.4-0.4,2.6c0.1,1.3,0.3,2.6,0.7,3.9c0.4,1.3,0.9,2.4,1.5,3.2c0.6,0.7,1.3,0.9,2.1,0.6s1.5-0.8,2.3-1.6
		c0.8-0.8,1.4-1.7,2-2.6C-144,455.9-143.4,455-143.1,454.2z M-153,435.2c-0.1,0.8-0.2,2.1-0.2,3.7s-0.1,3.3-0.2,5.1
		c-0.1,1.9-0.1,3.4-0.2,4.5c0.6-1.4,1.3-3.4,2.1-6s1.5-5.7,2.2-9.2s1.1-7.4,1.3-11.5c-0.1-2.4-0.4-4-0.9-4.9s-1-0.9-1.5-0.2
		c-0.5,0.7-1,2.2-1.3,4.5c-0.5,3.8-0.9,7.5-1.1,11.3C-152.9,433.3-153,434.2-153,435.2z"/>
	<path class="st1" d="M-123,452.7c0.2-0.2,0.3,0,0.3,0.7c0,0.7-0.6,1.5-1.7,2.7c-1.1,1.2-2.4,1.7-3.7,1.6c-0.3,0-0.5,0-0.7,0.1
		c-0.2,0.1-0.4,0.2-0.5,0.5c-0.1,0.2-0.3,0.4-0.5,0.6l0,0c-0.8,0.8-1.7,1.4-2.7,1.6s-2,0.2-3-0.2c-1-0.4-1.6-1.2-2-2.4
		c-0.3-1.1-0.3-2.1-0.1-3.2c0.2-0.9,0.6-1.8,1-2.6c0.6-1.1,1.3-1.9,2.2-2.3c0.9-0.4,1.9-0.7,3.1-0.8c1.7-0.1,2.8,0.7,3.2,2.4
		c0.3,1,0.3,2,0.2,3c0,0.2-0.1,0.5-0.1,0.7c-0.1,0.2-0.1,0.3-0.1,0.5c-0.1,0.5,0.2,0.8,0.7,0.7C-125.8,456.1-124.4,454.9-123,452.7z
		 M-133.1,459.1c0.9-0.4,1.5-1.1,1.8-2.1c-1.5-0.9-2.5-2.3-3-4c-0.5,0.8-0.7,1.8-0.8,2.9s0,2,0.3,2.7
		C-134.5,459.3-133.9,459.4-133.1,459.1z M-130.6,455.1c0.2-0.4,0.4-0.8,0.4-1.3s0-1-0.1-1.5s-0.2-0.9-0.4-1.2
		c-0.2-0.3-0.3-0.4-0.5-0.3c-0.3,0.3-0.5,0.7-0.6,1.3s0,1.1,0.2,1.7C-131.4,454.4-131,454.8-130.6,455.1z"/>
	<path class="st1" d="M-70.1,447.8c0.2,0.3,0.4,0.7,0.5,1c0.5,1.5,0.9,3.1,1,4.9c0.1,1.8,0.1,3.6-0.3,5.3s-1.1,3.2-2.1,4.5
		s-2.5,2-4.4,2.3c-2.7,0.4-5.2-0.1-7.5-1.4c-1.4-0.8-2.7-1.9-3.9-3.2c-0.4-0.4-0.8-0.9-1.2-1.4c-0.2-0.2-0.4-0.5-0.7-0.7
		c-0.6,0.3-1.1,0.8-1.5,1.3c-0.1,0.2-0.3,0.3-0.4,0.5l-0.1,0.1c-1.2,1.2-2.4,2.4-3.8,3.4c-1.5,1-3.1,1.5-4.9,1.4
		c-1.6-0.1-2.8-0.7-3.7-1.6c-0.9-0.9-1.3-2.3-1.3-3.8c0-1,0.2-1.9,0.5-2.7c0.3-0.8,0.7-1.7,1.2-2.5c0.7-1.2,1.4-2.3,2.3-3.3
		s1.7-2.1,2.6-3.1c0.8-0.9,1.6-1.7,2.5-2.5c0.6-0.6,0.8-1.3,0.7-2.1c-0.5-2.7-0.7-5.5-0.6-8.3c0-1.9,0.4-3.8,1-5.6
		c1.1-3,3.4-4.5,6.6-4.3c1.6,0,3.1,0.5,4.5,1.4c2.5,1.7,3.3,4,2.4,6.8c-0.4,1.2-1.1,2.3-1.8,3.3c-0.8,1-1.6,1.9-2.5,2.8
		c-0.9,0.9-1.8,1.7-2.7,2.5c-0.1,0.1-0.2,0.2-0.3,0.3c-0.8,0.8-1.6,1.5-2.4,2.3c-0.4,0.3-0.5,0.6-0.4,1s0.2,0.7,0.3,1.1
		c0.3,1.1,0.6,2.2,1,3.2s0.9,2.1,1.5,3l0.1,0.1h0.1c0.5-0.3,1-0.7,1.4-1.2c0.1-0.1,0.2-0.3,0.4-0.5c2.7-2.8,5.5-5.5,8.4-8
		c0.4-0.4,0.8-0.7,1.3-1c0.5-0.4,1-0.5,1.6-0.4c0.3,0,0.6,0.2,0.8,0.4c0.1,0.2,0.1,0.3,0,0.5c-0.1,0.2-0.2,0.2-0.3,0.3
		c-0.2,0.3-0.5,0.5-0.8,0.8c-0.2,0.2-0.5,0.5-0.7,0.7c-0.5,0.5-1,1.1-1.5,1.6c-2.8,2.9-5.5,5.8-8.3,8.7c-0.4,0.4-0.6,0.8-0.7,1
		c-0.1,0.2,0.1,0.6,0.5,1c1,1.4,2.1,2.7,3.4,3.9c1,0.9,2.2,1.6,3.4,2.1c1.8,0.5,3.2,0.5,4.3,0s2-1.4,2.5-2.7s0.9-2.7,1-4.2
		s0-3.1-0.3-4.6s-0.7-2.7-1.3-3.8c-0.1-0.1-0.1-0.3-0.2-0.4c-0.1,0-0.1-0.2-0.2-0.3c-0.1-0.2,0-0.3,0.1-0.5c0.1-0.2,0.2-0.2,0.4-0.3
		C-71.6,446.6-70.7,446.9-70.1,447.8z M-90.9,457.2c0.4-0.5,0.5-1,0.1-1.5c-1.1-1.9-1.9-4-2.6-6.1c0-0.1-0.1-0.2-0.2-0.4
		c-0.1-0.1-0.2-0.2-0.2-0.4c-1.3,1.3-2.4,2.5-3.5,3.9c-1.1,1.4-1.9,2.7-2.7,4.2c-0.7,1.4-1.1,2.8-1,4.3c0.1,0.8,0.4,1.5,0.9,2.1
		c0.7,0.8,1.4,0.9,2.3,0.4c0.5-0.2,0.9-0.5,1.4-0.9c1.7-1.4,3.2-3,4.6-4.6C-91.5,457.9-91.2,457.5-90.9,457.2z M-91.4,432
		c-0.3,0.9-0.4,1.9-0.5,2.8c-0.1,0.9-0.1,1.9-0.1,2.9c0,0.4,0.1,0.7,0.1,1.1c0.1,1,0.1,1.9,0.2,2.9c0,0.2,0.1,0.4,0.3,0.4
		s0.4,0,0.6-0.1c1-0.9,2.1-1.8,3-2.8s1.9-2,2.7-3.2c0.6-0.8,1.1-1.8,1.3-2.7c0.5-2.6-0.5-4.3-2.8-5.3c-1.2-0.4-2.2-0.2-3.1,0.7
		c-0.4,0.5-0.8,1-1,1.5S-91.3,431.4-91.4,432z"/>
	<path class="st1" d="M34.2,392.9c3.6,3.3,4.7,7.4,3.2,12.1c-0.3,0.8-0.6,1.6-1,2.4c-0.8,1.4-1.6,2.7-2.6,3.9c-1,1.2-2,2.4-3.1,3.4
		c-0.7,0.8-1.6,1-2.6,0.8c-0.3,0-0.5-0.2-0.5-0.4c-0.1-0.2,0-0.5,0.2-0.6c1.8-1.7,3.3-3.6,4.7-5.7c1-1.4,1.7-2.9,2.1-4.5
		c1.1-4.4-0.1-8-3.6-10.8c-1.6-1.3-3.5-2.2-5.5-2.7c-1.9-0.5-3.8-0.9-5.8-1c-2-0.1-3.9-0.2-5.8,0c-3,0.2-5.9,0.5-8.9,1
		s-5.8,1.1-8.7,1.8c-3.8,0.9-7.5,2.1-11.1,3.4c-3.6,1.3-7.2,3-10.6,4.8c-3.3,1.8-6.4,3.9-9.2,6.4c-2.5,2.2-4.6,4.8-6.2,7.8
		c-2.1,3.9-1.9,7.8,0.5,11.5c1.5,2.2,3.4,4.2,5.5,5.9c3.3,2.7,6.8,5.2,10.5,7.4c3.1,1.9,6.2,3.7,9.3,5.5c2.1,1.2,4.1,2.4,6.1,3.6
		c1.4,0.8,2.9,1.7,4.3,2.6s2.7,1.9,4.1,2.9c0.8,0.7,1.7,0.8,2.6,0.5c3.3-1,6.6-1.6,10-2.1c0.1,0,0.2,0,0.3,0c0.8-0.1,1.5-0.1,2.3,0
		c0.2,0.1,0.4,0.1,0.5,0.3c0.1,0.2,0.2,0.3,0.2,0.6c0,0.3-0.1,0.4-0.2,0.6c-0.1,0.2-0.3,0.2-0.5,0.2c-1.2,0-2.3,0.2-3.4,0.4
		c-1.1,0.2-2.2,0.5-3.3,0.7c-0.9,0.2-1.7,0.4-2.6,0.6C5.2,456,5.1,456,5,456c-0.4,0.1-0.8,0.2-1.2,0.3c-0.4,0.1-0.7,0.3-1,0.6
		c0.2,0.5,0.5,1,0.9,1.4c0.2,0.2,0.3,0.4,0.5,0.6c0.7,0.9,1.3,1.8,1.8,2.8s0.9,2,1.1,3.1c0.6,2.8-0.3,5-2.7,6.5
		c-0.8,0.5-1.7,0.9-2.6,1.2c-3.2,1.1-6.4,1.6-9.8,1.4c-1.3-0.1-2.5-0.4-3.7-1c-1.6-0.8-2.6-2-3.1-3.4s-0.4-3,0.4-4.6
		c0.5-1,1.2-1.9,2.1-2.6c1.1-1,2.2-1.8,3.4-2.6c1.2-0.8,2.5-1.4,3.8-2.1c0.5-0.3,1.1-0.5,1.6-0.8c0.3-0.1,0.5-0.3,0.8-0.4
		c0-0.3,0-0.5-0.1-0.7c-0.1-0.2-0.3-0.3-0.4-0.4c-0.1,0-0.1-0.1-0.2-0.1c-2.2-1.7-4.5-3.2-6.9-4.6c-2.9-1.7-5.9-3.4-8.8-5.1
		c-1.2-0.7-2.5-1.4-3.7-2.2c-4.3-2.5-8.4-5.2-12.3-8.1c-2.4-1.8-4.6-3.9-6.6-6.2c-1-1.2-1.8-2.4-2.4-3.8c-1.4-2.9-1.5-5.9-0.4-9
		c0.6-1.6,1.3-3.1,2.3-4.4c1-1.3,2-2.6,3.2-3.8c2.6-2.7,5.4-4.9,8.5-6.8c5.2-3.2,10.6-5.7,16.4-7.6c7.2-2.4,14.5-4.1,22-5.1
		c2.6-0.4,5.2-0.6,7.8-0.6s5.2,0.1,7.8,0.5c1.6,0.2,3.1,0.5,4.5,1s2.9,1.1,4.2,1.9C32.8,391.7,33.5,392.3,34.2,392.9z M0,458.6
		c-0.4-0.4-0.9-0.5-1.5-0.2c-1.4,0.7-2.9,1.4-4.2,2.2c-1.3,0.8-2.6,1.7-3.9,2.7c-0.7,0.6-1.2,1.2-1.6,2c-0.8,1.6-0.9,3-0.3,4.3
		c0.6,1.3,1.8,2.2,3.5,2.5c0.4,0.1,0.8,0.1,1.1,0.1c0.1,0,0.2,0,0.3,0c2.6-0.1,5-0.6,7.2-1.6c2.7-1.1,3.7-3.1,2.9-5.9
		c-0.3-1.2-0.8-2.3-1.4-3.3S0.8,459.5,0,458.6z"/>
	<path class="st1" d="M37.5,453.9c0.3-0.2,0.5-0.3,0.8-0.4s0.4-0.1,0.5,0s0,0.3-0.3,0.7c-0.9,1.1-2,2-3.3,2.9s-2.6,1.6-4,2.2
		c-1.1,0.5-2.2,0.9-3.4,1.2s-2.4,0.3-3.5,0.2c-1.1-0.1-2.2-0.7-3.2-1.6c-1.4-1.3-2.1-3-1.8-4.9c0.2-1.5,0.8-2.8,1.8-3.9
		c1-1.1,2.2-1.8,3.7-2.2c1.3-0.3,2.5-0.3,3.8-0.1c0.6,0.1,1.1,0.3,1.6,0.6c0.4,0.3,0.7,0.7,0.7,1.2s-0.1,0.9-0.5,1.3
		c-0.8,0.7-1.7,1.1-2.7,1.3c-1.2,0.2-2.4,0.3-3.5,0.4c-0.6,0-1,0.1-1.2,0.3c-0.2,0.2-0.4,0.6-0.4,1.2c-0.2,1.6,0.3,2.8,1.5,3.8
		c0.7,0.6,1.6,0.8,2.7,0.7c1.1-0.1,2.2-0.4,3.3-0.8s2.3-1,3.5-1.7c1.1-0.6,2.2-1.3,3.1-1.8C36.9,454.3,37.2,454.1,37.5,453.9z
		 M24.5,450.6L24.5,450.6c-0.1,0.1-0.2,0.2-0.2,0.2l-0.2,0.2c0,0-0.1,0.1-0.1,0.2c0,0.1,0.3,0.1,0.7,0.1s0.9-0.1,1.4-0.2
		s0.9-0.3,1.3-0.4c0.4-0.1,0.4-0.4,0.3-0.6c-0.1-0.1-0.1-0.2-0.2-0.2s-0.2-0.1-0.3-0.1c-0.5,0-0.9,0.1-1.4,0.3
		C25.3,450.3,24.9,450.3,24.5,450.6z"/>
	<path class="st1" d="M56.3,456c-0.4,0.8-0.8,1.5-1.2,2.1c-1,1.2-2.2,2-3.6,2.3c-1.4,0.3-2.6,0.2-3.7-0.2h-0.1
		c-0.3-0.1-0.5-0.2-0.8-0.3s-0.6,0-0.9,0.2c-0.2,0.1-0.4,0.1-0.6,0.1c-0.1,0-0.1,0-0.1,0c-1,0-1.5-0.5-1.5-1.5s0-2,0-2.9
		c0-1.2-0.1-2.3-0.1-3.5c-0.2-4.5-0.2-8.9-0.1-13.4s0.2-9,0.4-13.5c0-0.4,0-0.9,0-1.3c0-1,0.1-2.3,0.3-3.8s0.5-2.9,0.9-4.3
		s0.8-2.4,1.4-3.1c0.5-0.7,1.1-1.2,1.9-1.4s1.5-0.2,2.2,0.1c0.7,0.3,1.3,0.6,1.6,1.2c0.8,1.3,1.3,3.1,1.3,5.5c0,2.4-0.2,5-0.6,7.9
		c-0.4,2.9-1.1,5.8-1.8,8.7s-1.5,5.6-2.3,7.9c-0.8,2.3-1.5,4.2-2.1,5.5c1.1-0.6,2-1,2.6-1.2c0.6-0.2,1.4-0.2,2.3,0
		c3,0.4,4.7,2.1,5.2,5c0,0.1,0,0.3,0,0.4s0,0.2,0,0.3c0.1,0.4,0.1,0.7,0.2,1c0.1,0.3,0.8,0.2,2.1-0.2s2.3-0.9,2.9-1.4s1-0.8,1.2-0.7
		c0.6,0.7,0.1,1.6-1.5,2.7C60.2,455.1,58.3,455.7,56.3,456z M46.4,444.7c0.1-0.1,0.4-1.2,1-3.2s1.1-4.6,1.7-7.7
		c0.6-3.1,1.1-6.1,1.5-9.2s0.4-5.7,0.2-7.8c-0.1-1.1-0.3-2-0.5-2.7c-0.2-0.7-0.5-0.9-0.9-0.7c-0.4,0.2-0.7,1.1-1,2.7
		c-0.5,2.3-0.9,5.5-1.2,9.5s-0.4,8-0.5,11.8C46.6,440.3,46.5,442.7,46.4,444.7z M53.7,453.4c0.1-1-0.2-1.9-0.7-2.7
		c-0.5-0.8-1.2-1.4-2-1.7s-1.6,0-2.3,0.8c-0.5,0.7-0.9,1.7-1.1,2.9c-0.2,1.2-0.3,2.4-0.2,3.6c0.9-0.5,1.8-0.9,2.7-1.3
		s1.9-0.6,2.8-0.7c0.2,0,0.4-0.1,0.5-0.3S53.7,453.6,53.7,453.4z M49.6,458.1c-0.1,0.4,0,0.5,0.3,0.6c0.3,0.1,0.7-0.1,1.1-0.3
		c0.4-0.2,0.8-0.5,1.2-0.8c0.4-0.3,0.5-0.7,0.5-1c0,0,0-0.1-0.1-0.1s-0.1,0-0.1,0c-0.5,0-0.9,0.1-1.4,0.3c-0.5,0.2-0.8,0.5-1.1,0.8
		C49.8,457.6,49.7,457.8,49.6,458.1z"/>
</g>
<g>
	<path class="st1" d="M-200.9,549l-2.9,15.2h-1.9l2.2-10.9l-4.8,11l0,0h-2l0-10.9l-3.1,10.9h-1l4.1-14c-0.7,0-1.2,0.3-1.7,0.9
		c-0.9,1.2-1,3.1-0.8,4.2l-1.6-1.5c0.1-0.9,0.7-2.4,1.5-3.3c1.3-1.5,2.7-1.6,4.4-1.5l0.2,13.1l5.8-13.1
		C-200.2,549-202.8,549-200.9,549z"/>
	<path class="st1" d="M-190.5,560.2l-0.4,1.2c-0.5,1.4-1.1,2.3-2.1,2.8c-1.8,0.8-4,0-3.3-2.6c0.1-0.4,0.6-2.2,1-3.8
		c0.3-1.2,0.5-2-1.5-2.6c-0.7-0.2-1.3-0.3-1.3-0.3l-1.6,5.5h-0.7l1.7-5.8c-0.4-0.3-0.6-0.7-0.4-1.2c0.3-0.8,1.6-0.7,1.5,0.4
		c0,0-0.1-0.1,2.3,0.6c2.3,0.6,2.3,1.8,2,3.3l-1,4c-0.3,1.2,0.5,1.7,1.3,1.5c0.7-0.2,1.2-0.8,1.5-1.9l0.3-1H-190.5z"/>
	<path class="st1" d="M-187.1,563.4c-0.1,0.5-0.6,0.8-1.1,0.8h-0.1c-0.7,0-1.2-0.7-1.1-1.4c0.1-0.5,0.6-0.8,1.1-0.8h0
		C-187.5,562-186.9,562.7-187.1,563.4z"/>
	<path class="st1" d="M-170.2,560.2l-0.4,1.2c-0.5,1.4-1.1,2.3-2,2.8c-1.6,0.7-3.5,0.2-3.4-1.8c-1,1.3-2.2,2.1-3.5,1.7
		c-1.7-0.6-2.5-3.1-1.4-6.2c1.2-3.8,4.2-4.9,5.9-3.7c0.4,0.3,0.6,0.7,0.8,1.2l0.4-1.7h1.8l-2,8c-0.3,1.2,0.5,1.7,1.3,1.5
		c0.6-0.2,1.2-0.8,1.5-1.9l0.3-1H-170.2z M-175.4,559.5l0.3-1.1c0.2-1.2,0.1-2.4-0.7-2.9c-0.9-0.6-2.6,0.4-3.4,2.6
		c-0.7,2.2-0.5,4.6,0.6,4.9C-177.4,563.3-176,561.5-175.4,559.5z"/>
	<path class="st1" d="M-159.8,560.2l-0.4,1.2c-0.5,1.4-1.1,2.3-2.1,2.8c-1.8,0.8-4,0-3.3-2.6c0.3-1.1,0.4-1.8,0.6-2.1
		c0.5-1.8,0.7-4.3-1.1-4.1c-1.4,0.1-2.4,1.8-2.9,3.6l-1.4,5.3h-1.8l2.7-10.5h1.8l-0.4,1.5c0.7-0.8,1.5-1.4,2.4-1.5
		c1.5-0.3,3.6,1,2.4,6c-0.2,0.7-0.4,1.7-0.5,2c-0.3,1.2,0.5,1.7,1.3,1.5c0.7-0.2,1.2-0.8,1.6-1.9l0.3-1H-159.8z"/>
	<path class="st1" d="M-149.5,560.2l-0.4,1.2c-0.5,1.4-1.1,2.3-2,2.8c-1.6,0.7-3.5,0.2-3.4-1.8c-0.9,1.2-2,2-3.2,1.7
		c-2.1-0.5-2.5-3.2-1.9-5.7c0.6-2.5,2.2-4.7,4.1-4.8c1.5-0.1,2.3,0.8,2.6,2.2l1.8-7.1h1.8l-3.2,12.9c-0.3,1.2,0.5,1.7,1.3,1.5
		c0.6-0.2,1.2-0.8,1.5-1.9l0.3-1H-149.5z M-156.1,555.2c-1.1,0.2-2,1.6-2.4,3.3c-0.5,2-0.3,4.2,1,4.5
		C-155.2,563.5-152.6,554.7-156.1,555.2z"/>
	<path class="st1" d="M-132.3,549l-2.9,15.2h-1.9l2.2-10.9l-4.8,11l0,0h-2l0-10.9l-3.1,10.9h-1l4.1-14c-0.7,0-1.2,0.3-1.7,0.9
		c-0.9,1.2-1,3.1-0.8,4.2l-1.6-1.5c0.1-0.9,0.7-2.4,1.5-3.3c1.3-1.5,2.7-1.6,4.4-1.5l0.2,13.1l5.8-13.1
		C-131.6,549-134.2,549-132.3,549z"/>
	<path class="st1" d="M-121.9,560.2l-0.4,1.2c-0.5,1.4-1.1,2.3-2.1,2.8c-1.8,0.8-4,0-3.3-2.6c0.1-0.4,0.6-2.2,1-3.8
		c0.3-1.2,0.5-2-1.5-2.6c-0.7-0.2-1.3-0.3-1.3-0.3l-1.6,5.5h-0.7l1.7-5.8c-0.4-0.3-0.6-0.7-0.4-1.2c0.3-0.8,1.6-0.7,1.5,0.4
		c0,0-0.1-0.1,2.3,0.6c2.3,0.6,2.3,1.8,2,3.3l-1,4c-0.3,1.2,0.5,1.7,1.3,1.5c0.7-0.2,1.2-0.8,1.5-1.9l0.3-1H-121.9z"/>
	<path class="st1" d="M-114.6,560.3c-0.3,0.4-0.7,0.7-1.1,0.9c-0.3,0.1-0.6,0.2-0.9,0.2c-0.1,1.6-1.4,2.6-2.9,2.8
		c-2.8,0.3-4.1-2-3.2-3.9c0.2-0.4,0.4-0.6,0.7-0.7c1.1-1.2,2.3-3.7,2.8-6h1.8c-0.6,2.4,0.2,4.3,0.7,6.5c0.2,0.2,0.5,0.4,0.8,0.3
		s0.7-0.4,0.9-0.6C-114.9,560-114.8,560.1-114.6,560.3z M-118.7,560.6c-0.3-1.2-0.6-2.6-0.7-4.2c-0.5,1.3-1.1,2.5-1.8,3.3
		c0.3,0.1,0.5,0.3,0.6,0.7c0.2,0.9-1,1.7-1.5,0.7c-0.3,0.4,0.1,2.3,2.2,2.1C-118.9,562.8-118.3,562.1-118.7,560.6z"/>
	<path class="st1" d="M-110.9,563.4c-0.1,0.5-0.6,0.8-1.1,0.8h-0.1c-0.7,0-1.2-0.7-1.1-1.4c0.1-0.5,0.6-0.8,1.1-0.8h0
		C-111.3,562-110.7,562.7-110.9,563.4z"/>
	<path class="st1" d="M-103,564.2h-1.8l3.6-14c-0.6,0-1.2,0.3-1.7,0.9c-0.9,1.2-1,3.1-0.8,4.2l-1.5-1.5c0.1-0.9,0.7-2.4,1.5-3.3
		c2.6-2.9,6.8-0.6,9.2-1.7l-0.3,1c-0.2,0.8-1,1.3-1.8,1.3c-1,0-1.9-0.3-2.8-0.6l-1.2,4.6h2.8l-0.3,0.9h-2.7L-103,564.2z"/>
	<path class="st1" d="M-87.6,560.2l-0.4,1.2c-0.5,1.4-1.1,2.3-2.1,2.8c-1.8,0.8-4,0-3.3-2.6c0.1-0.4,0.6-2.2,1-3.8
		c0.3-1.2,0.5-2-1.5-2.6c-0.7-0.2-1.3-0.3-1.3-0.3l-1.6,5.5h-0.7l1.7-5.8c-0.4-0.3-0.6-0.7-0.4-1.2c0.3-0.8,1.6-0.7,1.5,0.4
		c0,0-0.1-0.1,2.3,0.6c2.3,0.6,2.3,1.8,2,3.3l-1,4c-0.3,1.2,0.5,1.7,1.3,1.5c0.7-0.2,1.2-0.8,1.5-1.9l0.3-1H-87.6z"/>
	<path class="st1" d="M-77.2,560.2l-0.4,1.2c-0.5,1.4-1.1,2.3-2,2.8c-1.6,0.7-3.5,0.2-3.4-1.8c-1,1.3-2.2,2.1-3.5,1.7
		c-1.7-0.6-2.5-3.1-1.4-6.2c1.2-3.8,4.2-4.9,5.9-3.7c0.4,0.3,0.6,0.7,0.8,1.2l0.4-1.7h1.8l-2,8c-0.3,1.2,0.5,1.7,1.3,1.5
		c0.6-0.2,1.2-0.8,1.5-1.9l0.3-1H-77.2z M-82.4,559.5l0.3-1.1c0.2-1.2,0.1-2.4-0.7-2.9c-0.9-0.6-2.6,0.4-3.4,2.6
		c-0.7,2.2-0.5,4.6,0.6,4.9C-84.4,563.3-83.1,561.5-82.4,559.5z"/>
	<path class="st1" d="M-66.8,560.2l-0.4,1.2c-0.5,1.4-1.1,2.3-2.1,2.8c-1.8,0.8-4,0-3.3-2.6c0.3-1.1,0.4-1.8,0.6-2.1
		c0.5-1.8,0.7-4.3-1.1-4.1c-1.4,0.1-2.4,1.8-2.9,3.6l-1.4,5.3h-1.8l2.7-10.5h1.8l-0.4,1.5c0.7-0.8,1.5-1.4,2.4-1.5
		c1.5-0.3,3.6,1,2.4,6c-0.2,0.7-0.4,1.7-0.5,2c-0.3,1.2,0.5,1.7,1.3,1.5c0.7-0.2,1.2-0.8,1.6-1.9l0.3-1H-66.8z"/>
	<path class="st1" d="M-62.7,566.9c-0.2,0.2-0.5,0.3-0.8,0.4c-0.7,0.1-1.4-0.2-1.8-0.7l0.5-0.2c0.3,0.2,0.6,0.3,0.9,0.2
		c0.2-0.1,0.4-0.2,0.5-0.4c0.1-0.2,0-0.5-0.2-0.6c-0.3-0.2-0.6-0.1-0.6-0.1c0-0.1,0.1-0.5,0.2-1.1c-2.6-0.2-4.7-2.9-3-7.1
		c2.2-5.6,6.9-4.4,6.7-1.6l-0.8,0.1c0.1-1.8-2.6-2-4.1,1.7c-1.4,3.5,0.4,5.6,2.3,5.6c1.8,0,2.9-1.4,3.4-3h0.6
		c-0.6,2.2-2.1,4.1-4.3,4.3l-0.1,0.5c0.3,0.1,0.6,0.2,0.7,0.5C-62.3,565.9-62.4,566.5-62.7,566.9z"/>
	<path class="st1" d="M-50.5,560.2c-0.6,0.7-1.9,1.3-2.8,1.2c-0.9,1.8-2.4,3.2-4.2,2.7c-1.8-0.4-2.6-2.9-1.8-6
		c1-3.8,3.8-5.1,5.5-4.1c1.6,1,1.8,3.9,0.9,6.3c0.6,0.3,1.5-0.1,2.1-0.7C-50.7,559.9-50.6,560-50.5,560.2z M-53.9,561.2
		c-0.1-0.1-0.2-0.2-0.2-0.3c-0.3-0.5,0.2-1.3,0.7-1c0.6-2,0.4-4.2-0.9-4.6c-1.1-0.3-2.3,0.6-3,2.9c-0.7,2.2-0.3,4.5,1.1,4.8
		C-55.3,563.2-54.4,562.4-53.9,561.2z"/>
	<path class="st1" d="M-45.7,560.2c-0.4,1.4-0.9,3.2-2.4,4c-1.8,0.8-4,0-3.3-2.6l2-7.9h1.9l-2.1,8c-0.3,1.2,0.5,1.7,1.3,1.5
		c1.2-0.3,1.5-1.8,1.9-2.9H-45.7z M-49.2,550.9c0.1-0.5,0.6-0.9,1.2-0.9h0.1c0.8,0,1.4,0.8,1.2,1.6c-0.2,0.5-0.7,0.9-1.2,0.9H-48
		C-48.8,552.5-49.4,551.7-49.2,550.9z"/>
	<path class="st1" d="M-38.4,560.3c-0.3,0.4-0.7,0.7-1.1,0.9c-0.3,0.1-0.6,0.2-0.9,0.2c-0.1,1.6-1.4,2.6-2.9,2.8
		c-2.8,0.3-4.1-2-3.2-3.9c0.2-0.4,0.4-0.6,0.7-0.7c1.1-1.2,2.3-3.7,2.8-6h1.8c-0.6,2.4,0.2,4.3,0.7,6.5c0.2,0.2,0.5,0.4,0.8,0.3
		s0.7-0.4,0.9-0.6C-38.6,560-38.5,560.1-38.4,560.3z M-42.5,560.6c-0.3-1.2-0.6-2.6-0.7-4.2c-0.5,1.3-1.1,2.5-1.8,3.3
		c0.3,0.1,0.5,0.3,0.6,0.7c0.2,0.9-1,1.7-1.5,0.7c-0.3,0.4,0.1,2.3,2.2,2.1C-42.7,562.8-42.1,562.1-42.5,560.6z"/>
	<path class="st1" d="M-28.6,567.2c-0.9-0.5-1.8-1.3-2.7-1.8c-0.9-0.5-2.1-0.7-3-0.5l3.8-14.7c-0.6,0-1.2,0.3-1.7,0.9
		c-0.9,1.2-1,3.1-0.8,4.2l-1.5-1.5c0.1-0.9,0.7-2.4,1.5-3.3c1.3-1.5,3-1.6,4.7-1.5l-1.6,6.1l-0.2,0.9l-2.1,8.3
		c0.5-0.1,1-0.1,1.4,0.1c0.9,0.2,1.6,0.7,2.4,1.1c1.4,0.7,2.9,0.6,4.6-0.1C-23.9,565.3-25.5,568.8-28.6,567.2z"/>
	<path class="st1" d="M-20.4,560.2h0.6c-1.7,6.9-10.3,5.2-8.3-2.4c1.7-6.6,7.8-4.9,6.3-1c-0.6,1.4-2.2,2.5-4.6,1.6
		C-27.4,563.8-21.7,564.9-20.4,560.2L-20.4,560.2z M-22.5,556.6c0.9-2.3-2.4-3.4-3.7,1.2C-24.3,558.5-22.9,557.6-22.5,556.6z
		 M-21.9,549.9l-1.2,2.5h-0.8l0.7-2.5H-21.9z"/>
	<path class="st1" d="M-11.4,560.2c-0.6,0.7-1.9,1.3-2.8,1.2c-0.9,1.8-2.4,3.2-4.2,2.7c-1.8-0.4-2.6-2.9-1.8-6
		c1-3.8,3.8-5.1,5.5-4.1c1.6,1,1.8,3.9,0.9,6.3c0.6,0.3,1.5-0.1,2.1-0.7C-11.6,559.9-11.5,560-11.4,560.2z M-14.8,561.2
		c-0.1-0.1-0.2-0.2-0.2-0.3c-0.3-0.5,0.2-1.3,0.7-1c0.6-2,0.4-4.2-0.9-4.6c-1.1-0.3-2.3,0.6-3,2.9c-0.7,2.2-0.3,4.5,1.1,4.8
		C-16.2,563.2-15.3,562.4-14.8,561.2z"/>
	<path class="st1" d="M-0.7,560.2l-0.4,1.2c-0.5,1.4-1.1,2.3-2.1,2.8c-1.8,0.8-4,0-3.3-2.6c0.3-1.1,0.4-1.8,0.6-2.1
		c0.5-1.8,0.7-4.3-1.1-4.1c-1.4,0.1-2.4,1.8-2.9,3.6l-1.4,5.3H-13l2.7-10.5h1.8l-0.4,1.5c0.7-0.8,1.5-1.4,2.4-1.5
		c1.5-0.3,3.6,1,2.4,6c-0.2,0.7-0.4,1.7-0.5,2c-0.3,1.2,0.5,1.7,1.3,1.5c0.7-0.2,1.2-0.8,1.6-1.9l0.3-1H-0.7z"/>
	<path class="st1" d="M9.7,560.2l-0.4,1.2c-0.5,1.4-1.1,2.3-2,2.8c-1.6,0.7-3.5,0.2-3.4-1.8c-1,1.3-2.2,2.1-3.5,1.7
		c-1.7-0.6-2.5-3.1-1.4-6.2c1.2-3.8,4.2-4.9,5.9-3.7c0.4,0.3,0.6,0.7,0.8,1.2l0.4-1.7h1.8l-2,8c-0.3,1.2,0.5,1.7,1.3,1.5
		c0.6-0.2,1.2-0.8,1.5-1.9l0.3-1H9.7z M4.5,559.5l0.3-1.1c0.2-1.2,0.1-2.4-0.7-2.9c-0.9-0.6-2.6,0.4-3.4,2.6
		c-0.7,2.2-0.5,4.6,0.6,4.9C2.5,563.3,3.9,561.5,4.5,559.5z"/>
	<path class="st1" d="M18.8,560.2l-0.4,1.2c-0.5,1.4-1.1,2.3-2.1,2.8c-1.8,0.8-4,0-3.3-2.6c0.1-0.4,0.6-2.2,1-3.8
		c0.3-1.2,0.5-2-1.5-2.6c-0.7-0.2-1.3-0.3-1.3-0.3l-1.6,5.5H8.9l1.7-5.8c-0.4-0.3-0.6-0.7-0.4-1.2c0.3-0.8,1.6-0.7,1.5,0.4
		c0,0-0.1-0.1,2.3,0.6c2.3,0.6,2.3,1.8,2,3.3l-1,4c-0.3,1.2,0.5,1.7,1.3,1.5c0.7-0.2,1.2-0.8,1.5-1.9l0.3-1H18.8z"/>
	<path class="st1" d="M29.1,560.2l-0.4,1.2c-0.5,1.4-1.1,2.3-2,2.8c-1.6,0.7-3.5,0.2-3.4-1.8c-0.9,1.2-2,2-3.2,1.7
		c-2.1-0.5-2.5-3.2-1.9-5.7c0.6-2.5,2.2-4.7,4.1-4.8c1.5-0.1,2.3,0.8,2.6,2.2l1.8-7.1h1.8l-3.2,12.9c-0.3,1.2,0.5,1.7,1.3,1.5
		c0.6-0.2,1.2-0.8,1.5-1.9l0.3-1H29.1z M22.4,555.2c-1.1,0.2-2,1.6-2.4,3.3c-0.5,2-0.3,4.2,1,4.5C23.3,563.5,25.9,554.7,22.4,555.2z
		"/>
	<path class="st1" d="M-180.7,583l-2.9,15.2h-1.9l2.2-10.9l-4.8,11l0,0h-2l0-10.9l-3.1,10.9h-1l4.1-14c-0.7,0-1.2,0.3-1.7,0.9
		c-0.9,1.2-1,3.1-0.8,4.2l-1.6-1.5c0.1-0.9,0.7-2.4,1.5-3.3c1.3-1.5,2.7-1.6,4.4-1.5l0.2,13.1l5.8-13.1
		C-180,583-182.6,583-180.7,583z"/>
	<path class="st1" d="M-170.3,594.2l-0.4,1.2c-0.5,1.4-1.1,2.3-2.1,2.8c-1.8,0.8-4,0-3.3-2.6c0.1-0.4,0.6-2.2,1-3.8
		c0.3-1.2,0.5-2-1.5-2.6c-0.7-0.2-1.3-0.3-1.3-0.3l-1.6,5.5h-0.7l1.7-5.8c-0.4-0.3-0.6-0.7-0.4-1.2c0.3-0.8,1.6-0.7,1.5,0.4
		c0,0-0.1-0.1,2.3,0.6c2.3,0.6,2.3,1.8,2,3.3l-1,4c-0.3,1.2,0.5,1.7,1.3,1.5c0.7-0.2,1.2-0.8,1.5-1.9l0.3-1H-170.3z"/>
	<path class="st1" d="M-167,597.4c-0.1,0.5-0.6,0.8-1.1,0.8h-0.1c-0.7,0-1.2-0.7-1.1-1.4c0.1-0.5,0.6-0.8,1.1-0.8h0
		C-167.3,596-166.8,596.7-167,597.4z"/>
	<path class="st1" d="M-150.1,594.2l-0.4,1.2c-0.5,1.4-1.1,2.3-2,2.8c-1.6,0.7-3.5,0.2-3.4-1.8c-1,1.3-2.2,2.1-3.5,1.7
		c-1.7-0.6-2.5-3.1-1.4-6.2c1.2-3.8,4.2-4.9,5.9-3.7c0.4,0.3,0.6,0.7,0.8,1.2l0.4-1.7h1.8l-2,8c-0.3,1.2,0.5,1.7,1.3,1.5
		c0.6-0.2,1.2-0.8,1.5-1.9l0.3-1H-150.1z M-155.2,593.5l0.3-1.1c0.2-1.2,0.1-2.4-0.7-2.9c-0.9-0.6-2.6,0.4-3.4,2.6
		c-0.7,2.2-0.5,4.6,0.6,4.9C-157.2,597.3-155.9,595.5-155.2,593.5z"/>
	<path class="st1" d="M-139.6,594.2l-0.4,1.2c-0.5,1.4-1.1,2.3-2.1,2.8c-1.8,0.8-4,0-3.3-2.6c0.3-1.1,0.4-1.8,0.6-2.1
		c0.5-1.8,0.7-4.3-1.1-4.1c-1.4,0.1-2.4,1.8-2.9,3.6l-1.4,5.3h-1.8l2.7-10.5h1.8l-0.4,1.5c0.7-0.8,1.5-1.4,2.4-1.5
		c1.5-0.3,3.6,1,2.4,6c-0.2,0.7-0.4,1.7-0.5,2c-0.3,1.2,0.5,1.7,1.3,1.5c0.7-0.2,1.2-0.8,1.6-1.9l0.3-1H-139.6z"/>
	<path class="st1" d="M-129.3,594.2l-0.4,1.2c-0.5,1.4-1.1,2.3-2,2.8c-1.6,0.7-3.5,0.2-3.4-1.8c-0.9,1.2-2,2-3.2,1.7
		c-2.1-0.5-2.5-3.2-1.9-5.7c0.6-2.5,2.2-4.7,4.1-4.8c1.5-0.1,2.3,0.8,2.6,2.2l1.8-7.1h1.8l-3.2,12.9c-0.3,1.2,0.5,1.7,1.3,1.5
		c0.6-0.2,1.2-0.8,1.5-1.9l0.3-1H-129.3z M-135.9,589.2c-1.1,0.2-2,1.6-2.4,3.3c-0.5,2-0.3,4.2,1,4.5
		C-135.1,597.5-132.5,588.7-135.9,589.2z"/>
	<path class="st1" d="M-112.1,583l-2.9,15.2h-1.9l2.2-10.9l-4.8,11l0,0h-2l0-10.9l-3.1,10.9h-1l4.1-14c-0.7,0-1.2,0.3-1.7,0.9
		c-0.9,1.2-1,3.1-0.8,4.2l-1.6-1.5c0.1-0.9,0.7-2.4,1.5-3.3c1.3-1.5,2.7-1.6,4.4-1.5l0.2,13.1l5.8-13.1
		C-111.5,583-114,583-112.1,583z"/>
	<path class="st1" d="M-101.8,594.2l-0.4,1.2c-0.5,1.4-1.1,2.3-2.1,2.8c-1.8,0.8-4,0-3.3-2.6c0.1-0.4,0.6-2.2,1-3.8
		c0.3-1.2,0.5-2-1.5-2.6c-0.7-0.2-1.3-0.3-1.3-0.3l-1.6,5.5h-0.7l1.7-5.8c-0.4-0.3-0.6-0.7-0.4-1.2c0.3-0.8,1.6-0.7,1.5,0.4
		c0,0-0.1-0.1,2.3,0.6c2.3,0.6,2.3,1.8,2,3.3l-1,4c-0.3,1.2,0.5,1.7,1.3,1.5c0.7-0.2,1.2-0.8,1.5-1.9l0.3-1H-101.8z"/>
	<path class="st1" d="M-94.5,594.3c-0.3,0.4-0.7,0.7-1.1,0.9c-0.3,0.1-0.6,0.2-0.9,0.2c-0.1,1.6-1.4,2.6-2.9,2.8
		c-2.8,0.3-4.1-2-3.2-3.9c0.2-0.4,0.4-0.6,0.7-0.7c1.1-1.2,2.3-3.7,2.8-6h1.8c-0.6,2.4,0.2,4.3,0.7,6.5c0.2,0.2,0.5,0.4,0.8,0.3
		c0.4-0.1,0.7-0.4,0.9-0.6C-94.7,594-94.6,594.1-94.5,594.3z M-98.6,594.6c-0.3-1.2-0.6-2.6-0.7-4.2c-0.5,1.3-1.1,2.5-1.8,3.3
		c0.3,0.1,0.5,0.3,0.6,0.7c0.2,0.9-1,1.7-1.5,0.7c-0.3,0.4,0.1,2.3,2.2,2.1C-98.7,596.8-98.2,596.1-98.6,594.6z"/>
	<path class="st1" d="M-90.8,597.4c-0.1,0.5-0.6,0.8-1.1,0.8h-0.1c-0.7,0-1.2-0.7-1.1-1.4c0.1-0.5,0.6-0.8,1.1-0.8h0
		C-91.1,596-90.6,596.7-90.8,597.4z"/>
	<path class="st1" d="M-72.4,583l-3.9,15.2h-1.8l1.1-4.3c-0.5-1.2-2-2.8-3.5-3.9c-1.6,3.4-2.3,7.5-2.7,11.1l-1.9-2
		c0.5-3.3,1.6-6.9,3.3-9.9c-0.4-0.2-0.8-0.3-1.2-0.4l-0.8-2.1c0.8,0.2,1.8,0.6,2.7,1.3C-79,584.9-76.1,582.8-72.4,583z M-74.5,584
		c-2.4,0.7-4.2,2.6-5.5,5c1.3,1.1,2.5,2.4,3.3,3.8L-74.5,584z"/>
	<path class="st1" d="M-61.7,594.2l-0.4,1.2c-0.5,1.4-1.1,2.3-2.1,2.8c-1.8,0.8-4,0-3.3-2.6c0.3-1.1,0.4-1.8,0.6-2.1
		c0.5-1.8,0.7-4.3-1.1-4.1c-1.4,0.1-2.4,1.8-2.9,3.6l-1.4,5.3H-74l2.7-10.5h1.8l-0.4,1.5c0.7-0.8,1.5-1.4,2.4-1.5
		c1.5-0.3,3.6,1,2.4,6c-0.2,0.7-0.4,1.7-0.5,2c-0.3,1.2,0.5,1.7,1.3,1.5c0.7-0.2,1.2-0.8,1.6-1.9l0.3-1H-61.7z"/>
	<path class="st1" d="M-51.4,594.2l-0.4,1.2c-0.5,1.4-1.1,2.3-2,2.8c-1.6,0.7-3.5,0.2-3.4-1.8c-0.9,1.2-2,2-3.2,1.7
		c-2.1-0.5-2.5-3.2-1.9-5.7c0.6-2.5,2.2-4.7,4.1-4.8c1.5-0.1,2.3,0.8,2.6,2.2l1.8-7.1h1.8l-3.2,12.9c-0.3,1.2,0.5,1.7,1.3,1.5
		c0.6-0.2,1.2-0.8,1.5-1.9l0.3-1H-51.4z M-58,589.2c-1.1,0.2-2,1.6-2.4,3.3c-0.5,2-0.3,4.2,1,4.5C-57.2,597.5-54.6,588.7-58,589.2z"
		/>
	<path class="st1" d="M-42.3,594.2l-0.4,1.2c-0.5,1.4-1.1,2.3-2.1,2.8c-1.8,0.8-4,0-3.3-2.6c0.1-0.4,0.6-2.2,1-3.8
		c0.3-1.2,0.5-2-1.5-2.6c-0.7-0.2-1.3-0.3-1.3-0.3l-1.6,5.5h-0.7l1.7-5.8c-0.4-0.3-0.6-0.7-0.4-1.2c0.3-0.8,1.6-0.7,1.5,0.4
		c0,0-0.1-0.1,2.3,0.6c2.3,0.6,2.3,1.8,2,3.3l-1,4c-0.3,1.2,0.5,1.7,1.3,1.5c0.7-0.2,1.2-0.8,1.5-1.9l0.3-1H-42.3z"/>
	<path class="st1" d="M-35.2,594.2h0.6c-1.7,6.9-10.3,5.2-8.3-2.4c1.7-6.6,7.8-4.9,6.3-1c-0.6,1.4-2.2,2.5-4.6,1.6
		C-42.1,597.8-36.5,598.9-35.2,594.2L-35.2,594.2z M-37.3,590.6c0.9-2.3-2.4-3.4-3.7,1.2C-39.1,592.5-37.7,591.6-37.3,590.6z
		 M-36.6,583.9l-1.2,2.5h-0.8l0.7-2.5H-36.6z"/>
	<path class="st1" d="M-21.2,593c-2.1,9.1-11.8,6.1-9.5-3.2c0.6-2.4,1.9-5.1,4.1-6.2c2.6-1.4,5.3-0.1,5.3,2.7l-1.9,1.4
		c0.7-1,0.7-4.8-2.4-2.9c-1,0.6-2.5,2.5-3.2,5.2c-2,7.7,5,10,6.7,3.1L-21.2,593z"/>
	<path class="st1" d="M-16.9,594.2l-0.4,1.2c-0.5,1.4-1.1,2.3-2.1,2.8c-1.8,0.8-4,0-3.3-2.6l3.3-12.8h1.7l-3.2,12.9
		c-0.3,1.2,0.5,1.7,1.3,1.5c0.7-0.2,1.2-0.8,1.5-1.9l0.3-1H-16.9z"/>
	<path class="st1" d="M-6.5,594.2l-0.4,1.2c-0.5,1.4-1.1,2.3-2,2.8c-1.6,0.7-3.5,0.2-3.4-1.8c-1,1.3-2.2,2.1-3.5,1.7
		c-1.7-0.6-2.5-3.1-1.4-6.2c1.2-3.8,4.2-4.9,5.9-3.7c0.4,0.3,0.6,0.7,0.8,1.2l0.4-1.7h1.8l-2,8c-0.3,1.2,0.5,1.7,1.3,1.5
		c0.6-0.2,1.2-0.8,1.5-1.9l0.3-1H-6.5z M-11.7,593.5l0.3-1.1c0.2-1.2,0.1-2.4-0.7-2.9c-0.9-0.6-2.6,0.4-3.4,2.6
		c-0.7,2.2-0.5,4.6,0.6,4.9C-13.7,597.3-12.3,595.5-11.7,593.5z"/>
	<path class="st1" d="M0.7,594.2h0.6c-1.7,6.9-10.3,5.2-8.3-2.4c1.7-6.6,7.8-4.9,6.3-1c-0.6,1.4-2.2,2.5-4.6,1.6
		C-6.3,597.8-0.7,598.9,0.7,594.2L0.7,594.2z M-1.5,590.6c0.9-2.3-2.4-3.4-3.7,1.2C-3.2,592.5-1.9,591.6-1.5,590.6z"/>
	<path class="st1" d="M8.6,594.3c-0.3,0.4-0.7,0.7-1.1,0.9c-0.3,0.1-0.6,0.2-0.9,0.2c-0.1,1.6-1.4,2.6-2.9,2.8
		c-2.8,0.3-4.1-2-3.2-3.9c0.2-0.4,0.4-0.6,0.7-0.7c1.1-1.2,2.3-3.7,2.8-6h1.8c-0.6,2.4,0.2,4.3,0.7,6.5c0.2,0.2,0.5,0.4,0.8,0.3
		s0.7-0.4,0.9-0.6C8.4,594,8.5,594.1,8.6,594.3z M4.5,594.6c-0.3-1.2-0.6-2.6-0.7-4.2c-0.5,1.3-1.1,2.5-1.8,3.3
		c0.3,0.1,0.5,0.3,0.6,0.7c0.2,0.9-1,1.7-1.5,0.7c-0.3,0.4,0.1,2.3,2.2,2.1C4.3,596.8,4.9,596.1,4.5,594.6z"/>
	<path class="st1" d="M-226.1,628.2l-0.4,1.2c-0.5,1.4-1.1,2.3-2,2.8c-1.6,0.7-3.5,0.2-3.4-1.8c-1,1.3-2.2,2.1-3.5,1.7
		c-1.7-0.6-2.5-3.1-1.4-6.2c1.2-3.8,4.2-4.9,5.9-3.7c0.4,0.3,0.6,0.7,0.8,1.2l0.4-1.7h1.8l-2,8c-0.3,1.2,0.5,1.7,1.3,1.5
		c0.6-0.2,1.2-0.8,1.5-1.9l0.3-1H-226.1z M-231.2,627.5l0.3-1.1c0.2-1.2,0.1-2.4-0.7-2.9c-0.9-0.6-2.6,0.4-3.4,2.6
		c-0.7,2.2-0.5,4.6,0.6,4.9C-233.3,631.3-231.9,629.5-231.2,627.5z"/>
	<path class="st1" d="M-217,628.2l-0.4,1.2c-0.5,1.4-1.1,2.3-2.1,2.8c-1.8,0.8-4,0-3.3-2.6c0.1-0.4,0.6-2.2,1-3.8
		c0.3-1.2,0.5-2-1.5-2.6c-0.7-0.2-1.3-0.3-1.3-0.3l-1.6,5.5h-0.7l1.7-5.8c-0.4-0.3-0.6-0.7-0.4-1.2c0.3-0.8,1.6-0.7,1.5,0.4
		c0,0-0.1-0.1,2.3,0.6c2.3,0.6,2.3,1.8,2,3.3l-1,4c-0.3,1.2,0.5,1.7,1.3,1.5c0.7-0.2,1.2-0.8,1.5-1.9l0.3-1H-217z"/>
	<path class="st1" d="M-209.8,628.2h0.6c-1.7,6.9-10.3,5.2-8.3-2.4c1.7-6.6,7.8-4.9,6.3-1c-0.6,1.4-2.2,2.5-4.6,1.6
		C-216.8,631.8-211.2,632.9-209.8,628.2L-209.8,628.2z M-212,624.6c0.9-2.3-2.4-3.4-3.7,1.2C-213.7,626.5-212.4,625.6-212,624.6z"/>
	<path class="st1" d="M-194.6,628.2l-0.4,1.2c-0.5,1.4-1.1,2.3-2,2.8c-1.6,0.7-3.5,0.2-3.4-1.8c-0.9,1.2-2,2-3.2,1.7
		c-2.1-0.5-2.5-3.2-1.9-5.7c0.6-2.5,2.2-4.7,4.1-4.8c1.5-0.1,2.3,0.8,2.6,2.2l1.8-7.1h1.8l-3.2,12.9c-0.3,1.2,0.5,1.7,1.3,1.5
		c0.6-0.2,1.2-0.8,1.5-1.9l0.3-1H-194.6z M-201.2,623.2c-1.1,0.2-2,1.6-2.4,3.3c-0.5,2-0.3,4.2,1,4.5
		C-200.3,631.5-197.8,622.7-201.2,623.2z"/>
	<path class="st1" d="M-187.4,628.2h0.6c-1.7,6.9-10.3,5.2-8.3-2.4c1.7-6.6,7.8-4.9,6.3-1c-0.6,1.4-2.2,2.5-4.6,1.6
		C-194.4,631.8-188.7,632.9-187.4,628.2L-187.4,628.2z M-189.6,624.6c0.9-2.3-2.4-3.4-3.7,1.2C-191.3,626.5-190,625.6-189.6,624.6z"
		/>
	<path class="st1" d="M-182.2,628.2l-0.4,1.2c-0.5,1.4-1.1,2.3-2.1,2.8c-1.8,0.8-4,0-3.3-2.6l3.3-12.8h1.7l-3.2,12.9
		c-0.3,1.2,0.5,1.7,1.3,1.5c0.7-0.2,1.2-0.8,1.5-1.9l0.3-1H-182.2z"/>
	<path class="st1" d="M-177.7,628.2c-0.4,1.4-0.9,3.2-2.4,4c-1.8,0.8-4,0-3.3-2.6l2-7.9h1.9l-2.1,8c-0.3,1.2,0.5,1.7,1.3,1.5
		c1.2-0.3,1.5-1.8,1.9-2.9H-177.7z M-181.1,618.9c0.1-0.5,0.6-0.9,1.2-0.9h0.1c0.8,0,1.4,0.8,1.2,1.6c-0.2,0.5-0.7,0.9-1.2,0.9h-0.1
		C-180.7,620.5-181.3,619.7-181.1,618.9z"/>
	<path class="st1" d="M-167.6,628.2l-0.4,1.2c-0.5,2-2.4,2.9-4.2,3.6l-0.5,1.9c-0.8,3.2-4.7,2.8-3.9,0c0.3-0.9,1.3-1.5,2.6-2l0.5-2
		c-0.8,1-1.8,1.6-2.9,1.3c-2.1-0.5-2.5-3.2-1.9-5.7c0.6-2.5,2.2-4.7,4.1-4.8c1.4-0.1,2.2,0.7,2.5,1.9l0.5-1.9h1.9L-172,632
		c1.5-0.6,2.9-1.4,3.3-2.8l0.3-1H-167.6z M-174,623.2c-1.1,0.2-2,1.6-2.4,3.3c-0.5,2-0.3,4.2,1,4.5
		C-173.1,631.5-170.5,622.7-174,623.2z M-174.3,633.8c-0.7,0.3-1.2,0.7-1.4,1.1c-0.4,1,0.6,1.9,1,0.6L-174.3,633.8z"/>
	<path class="st1" d="M-157.2,628.2l-0.4,1.2c-0.5,1.4-1.1,2.3-2.1,2.8c-1.8,0.8-4,0-3.3-2.6c0.3-1.1,0.4-1.8,0.6-2.1
		c0.5-1.8,0.7-4.3-1.1-4.1c-1.4,0.1-2.4,1.8-2.9,3.6l-1.4,5.3h-1.8l4-15.5h1.8l-1.7,6.5c0.7-0.8,1.5-1.4,2.4-1.5
		c1.5-0.3,3.6,1,2.4,6c-0.2,0.7-0.4,1.7-0.5,2c-0.3,1.2,0.5,1.7,1.3,1.5c0.7-0.2,1.2-0.8,1.6-1.9l0.3-1H-157.2z"/>
	<path class="st1" d="M-152.6,628.2l-0.4,1.2c-0.5,1.4-1.1,2.3-2.1,2.8c-1.8,0.8-4,0-3.3-2.6l1.7-6.6l-0.6,0l0.2-0.6h0.5l0.7-2.5
		h1.8l-0.6,2.5h1l-0.1,0.6l-1,0l-1.7,6.7c-0.3,1.2,0.5,1.7,1.3,1.5c0.7-0.2,1.2-0.8,1.5-1.9l0.3-1H-152.6z"/>
	<path class="st1" d="M-145.4,628.2h0.6c-1.7,6.9-10.3,5.2-8.3-2.4c1.7-6.6,7.8-4.9,6.3-1c-0.6,1.4-2.2,2.5-4.6,1.6
		C-152.4,631.8-146.8,632.9-145.4,628.2L-145.4,628.2z M-147.6,624.6c0.9-2.3-2.4-3.4-3.7,1.2C-149.3,626.5-148,625.6-147.6,624.6z"
		/>
	<path class="st1" d="M-134.5,628.2l-0.4,1.2c-0.5,1.4-1.1,2.3-2,2.8c-1.6,0.7-3.5,0.2-3.4-1.8c-0.9,1.2-2,2-3.2,1.7
		c-2.1-0.5-2.5-3.2-1.9-5.7c0.6-2.5,2.2-4.7,4.1-4.8c1.5-0.1,2.3,0.8,2.6,2.2l1.8-7.1h1.8l-3.2,12.9c-0.3,1.2,0.5,1.7,1.3,1.5
		c0.6-0.2,1.2-0.8,1.5-1.9l0.3-1H-134.5z M-141.2,623.2c-1.1,0.2-2,1.6-2.4,3.3c-0.5,2-0.3,4.2,1,4.5
		C-140.3,631.5-137.7,622.7-141.2,623.2z"/>
	<path class="st1" d="M-125.6,628.2l-0.4,1.2c-0.5,1.4-1.1,2.3-2.1,2.8c-1.8,0.8-4,0-3.3-2.6l1.7-6.6l-0.6,0l0.2-0.6h0.5l0.7-2.5
		h1.8l-0.6,2.5h1l-0.1,0.6l-1,0l-1.7,6.7c-0.3,1.2,0.5,1.7,1.3,1.5c0.7-0.2,1.2-0.8,1.5-1.9l0.3-1H-125.6z"/>
	<path class="st1" d="M-117.2,628.2c-0.6,0.7-1.9,1.3-2.8,1.2c-0.9,1.8-2.4,3.2-4.2,2.7c-1.8-0.4-2.6-2.9-1.8-6
		c1-3.8,3.8-5.1,5.5-4.1c1.6,1,1.8,3.9,0.9,6.3c0.6,0.3,1.5-0.1,2.1-0.7C-117.5,627.9-117.4,628-117.2,628.2z M-120.6,629.2
		c-0.1-0.1-0.2-0.2-0.2-0.3c-0.3-0.5,0.2-1.3,0.7-1c0.6-2,0.4-4.2-0.9-4.6c-1.1-0.3-2.3,0.6-3,2.9c-0.7,2.2-0.3,4.5,1.1,4.8
		C-122,631.2-121.2,630.4-120.6,629.2z"/>
	<path class="st1" d="M-108.1,628.2c-0.4,1.4-0.9,3.2-2.4,4c-1.8,0.8-4,0-3.3-2.6l2-7.9h1.9l-2.1,8c-0.3,1.2,0.5,1.7,1.3,1.5
		c1.2-0.3,1.5-1.8,1.9-2.9H-108.1z M-111.6,618.9c0.1-0.5,0.6-0.9,1.2-0.9h0.1c0.8,0,1.4,0.8,1.2,1.6c-0.2,0.5-0.7,0.9-1.2,0.9h-0.1
		C-111.2,620.5-111.8,619.7-111.6,618.9z"/>
	<path class="st1" d="M-97.7,628.2l-0.4,1.2c-0.5,1.4-1.1,2.3-2.1,2.8c-1.8,0.8-4,0-3.3-2.6c0.3-1.1,0.4-1.8,0.6-2.1
		c0.5-1.8,0.7-4.3-1.1-4.1c-1.4,0.1-2.4,1.8-2.9,3.6l-1.4,5.3h-1.8l2.7-10.5h1.8l-0.4,1.5c0.7-0.8,1.5-1.4,2.4-1.5
		c1.5-0.3,3.6,1,2.4,6c-0.2,0.7-0.4,1.7-0.5,2c-0.3,1.2,0.5,1.7,1.3,1.5c0.7-0.2,1.2-0.8,1.6-1.9l0.3-1H-97.7z"/>
	<path class="st1" d="M-95.6,632.1c-1.8,0.9-3.9-0.1-3.2-2.7l1.9-7.7h1.9l-2,8c-0.3,1.2,0.5,1.6,1.3,1.4c2.5-0.6,5.3-7.9,3.4-7.9
		c-0.3,0-1-0.6-0.4-1.5c0.3-0.5,0.9-0.5,1.3-0.3C-89.8,622.2-91.5,630.1-95.6,632.1z"/>
	<path class="st1" d="M-84.3,628.2c-0.4,1.4-0.9,3.2-2.4,4c-1.8,0.8-4,0-3.3-2.6l2-7.9h1.9l-2.1,8c-0.3,1.2,0.5,1.7,1.3,1.5
		c1.2-0.3,1.5-1.8,1.9-2.9H-84.3z M-87.8,618.9c0.1-0.5,0.6-0.9,1.2-0.9h0.1c0.8,0,1.4,0.8,1.2,1.6c-0.2,0.5-0.7,0.9-1.2,0.9h-0.1
		C-87.4,620.5-88,619.7-87.8,618.9z"/>
	<path class="st1" d="M-79.8,628.2l-0.4,1.2c-0.5,1.4-1.1,2.3-2.1,2.8c-1.8,0.8-4,0-3.3-2.6l1.7-6.6l-0.6,0l0.2-0.6h0.5l0.7-2.5h1.8
		l-0.6,2.5h1l-0.1,0.6l-1,0l-1.7,6.7c-0.3,1.2,0.5,1.7,1.3,1.5c0.7-0.2,1.2-0.8,1.5-1.9l0.3-1H-79.8z"/>
	<path class="st1" d="M-72.6,628.2h0.6c-1.7,6.9-10.3,5.2-8.3-2.4c1.7-6.6,7.8-4.9,6.3-1c-0.6,1.4-2.2,2.5-4.6,1.6
		C-79.6,631.8-73.9,632.9-72.6,628.2L-72.6,628.2z M-74.8,624.6c0.9-2.3-2.4-3.4-3.7,1.2C-76.5,626.5-75.2,625.6-74.8,624.6z"/>
	<path class="st1" d="M-58.1,628.2l-0.4,1.2c-0.5,2-2.4,2.9-4.2,3.6l-0.5,1.9c-0.8,3.2-4.7,2.8-3.9,0c0.3-0.9,1.3-1.5,2.6-2l0.5-2
		c-0.4,0.5-0.9,1-1.5,1.2c-1.8,0.8-3.9-0.1-3.2-2.7l2-7.7h1.9l-2.1,8c-0.3,1.2,0.5,1.6,1.3,1.4c1.1-0.3,2-1.6,2.3-2.7l1.7-6.7h1.9
		l-2.7,10.4c1.5-0.6,2.9-1.4,3.3-2.8l0.3-1H-58.1z M-64.8,633.8c-0.7,0.3-1.2,0.7-1.4,1.1c-0.5,1,0.6,1.9,1,0.6L-64.8,633.8z"/>
	<path class="st1" d="M-49.7,628.2c-0.6,0.7-1.9,1.3-2.8,1.2c-0.9,1.8-2.4,3.2-4.2,2.7c-1.8-0.4-2.6-2.9-1.8-6
		c1-3.8,3.8-5.1,5.5-4.1c1.6,1,1.8,3.9,0.9,6.3c0.6,0.3,1.5-0.1,2.1-0.7C-50,627.9-49.9,628-49.7,628.2z M-53.1,629.2
		c-0.1-0.1-0.2-0.2-0.2-0.3c-0.3-0.5,0.2-1.3,0.7-1c0.6-2,0.4-4.2-0.9-4.6c-1.1-0.3-2.3,0.6-3,2.9c-0.7,2.2-0.3,4.5,1.1,4.8
		C-54.5,631.2-53.7,630.4-53.1,629.2z"/>
	<path class="st1" d="M-39.8,628.2c-0.4,1.4-0.8,3.2-2.4,4c-1.5,0.7-3.4,0.2-3.4-1.6c-0.5,0.7-1.1,1.2-1.8,1.5
		c-1.8,0.8-3.9-0.1-3.2-2.7l2-7.7h1.9l-2.1,8c-0.3,1.2,0.5,1.6,1.3,1.4c1.2-0.3,2.1-1.8,2.4-2.9l1.6-6.5h1.9l-2,8
		c-0.3,1.2,0.5,1.7,1.3,1.5c1.2-0.3,1.5-1.8,1.8-2.9H-39.8z"/>
	<path class="st1" d="M-30.9,628.2l-0.4,1.2c-0.5,1.4-1.1,2.3-2.1,2.8c-1.8,0.8-4,0-3.3-2.6l1.7-6.6l-0.6,0l0.2-0.6h0.5l0.7-2.5h1.8
		l-0.6,2.5h1l-0.1,0.6l-1,0l-1.7,6.7c-0.3,1.2,0.5,1.7,1.3,1.5c0.7-0.2,1.2-0.8,1.5-1.9l0.3-1H-30.9z"/>
	<path class="st1" d="M-22.5,628.2c-0.6,0.7-1.9,1.3-2.8,1.2c-0.9,1.8-2.4,3.2-4.2,2.7c-1.8-0.4-2.6-2.9-1.8-6
		c1-3.8,3.8-5.1,5.5-4.1c1.6,1,1.8,3.9,0.9,6.3c0.6,0.3,1.5-0.1,2.1-0.7C-22.8,627.9-22.7,628-22.5,628.2z M-25.9,629.2
		c-0.1-0.1-0.2-0.2-0.2-0.3c-0.3-0.5,0.2-1.3,0.7-1c0.6-2,0.4-4.2-0.9-4.6c-1.1-0.3-2.3,0.6-3,2.9c-0.7,2.2-0.3,4.5,1.1,4.8
		C-27.3,631.2-26.5,630.4-25.9,629.2z"/>
	<path class="st1" d="M-9.9,628.2c-0.6,2.4-2.5,4.4-5,4.3c-2.7-0.1-4.9-2.8-3.2-7.1c2.2-5.6,6.9-4.4,6.7-1.6l-0.8,0.1
		c0.1-1.8-2.6-2-4.1,1.7c-1.4,3.5,0.4,5.6,2.3,5.6c1.8,0,2.9-1.4,3.4-3H-9.9z"/>
	<path class="st1" d="M-2.9,628.2h0.6c-1.7,6.9-10.3,5.2-8.3-2.4c1.7-6.6,7.8-4.9,6.3-1c-0.6,1.4-2.2,2.5-4.6,1.6
		C-9.9,631.8-4.2,632.9-2.9,628.2L-2.9,628.2z M-5.1,624.6c0.9-2.3-2.4-3.4-3.7,1.2C-6.8,626.5-5.5,625.6-5.1,624.6z"/>
	<path class="st1" d="M2.3,628.2l-0.4,1.2c-0.5,1.4-1.1,2.3-2.1,2.8c-1.8,0.8-4,0-3.3-2.6l3.3-12.8h1.7l-3.2,12.9
		c-0.3,1.2,0.5,1.7,1.3,1.5c0.7-0.2,1.2-0.8,1.5-1.9l0.3-1H2.3z"/>
	<path class="st1" d="M9.4,628.2H10c-1.7,6.9-10.3,5.2-8.3-2.4c1.7-6.6,7.8-4.9,6.3-1c-0.6,1.4-2.2,2.5-4.6,1.6
		C2.4,631.8,8.1,632.9,9.4,628.2L9.4,628.2z M7.3,624.6c0.9-2.3-2.4-3.4-3.7,1.2C5.5,626.5,6.9,625.6,7.3,624.6z"/>
	<path class="st1" d="M17.3,627.3c-1,3.7-3.3,5.5-5.1,4.8c-0.8-0.3-1.3-1-1.6-2l-0.5,2.1H8.2l4-15.5H14l-1.7,6.6
		c0.7-0.9,1.5-1.5,2.4-1.6C16.4,621.4,18.4,623.1,17.3,627.3z M14.3,623.3c-2.7,0.2-4.1,6.9-2.2,7.6c0.9,0.3,2.7-1.1,3.4-3.7
		C16.3,624.5,15.4,623.2,14.3,623.3z"/>
	<path class="st1" d="M29.1,628.2l-0.4,1.2c-0.5,1.4-1.1,2.3-2.1,2.8c-1.8,0.8-4,0-3.3-2.6c0.1-0.4,0.6-2.2,1-3.8
		c0.3-1.2,0.5-2-1.5-2.6c-0.7-0.2-1.3-0.3-1.3-0.3l-1.6,5.5h-0.7l1.7-5.8c-0.4-0.3-0.6-0.7-0.4-1.2c0.3-0.8,1.6-0.7,1.5,0.4
		c0,0-0.1-0.1,2.3,0.6c2.3,0.6,2.3,1.8,2,3.3l-1,4c-0.3,1.2,0.5,1.7,1.3,1.5c0.7-0.2,1.2-0.8,1.5-1.9l0.3-1H29.1z"/>
	<path class="st1" d="M39.5,628.2l-0.4,1.2c-0.5,1.4-1.1,2.3-2,2.8c-1.6,0.7-3.5,0.2-3.4-1.8c-1,1.3-2.2,2.1-3.5,1.7
		c-1.7-0.6-2.5-3.1-1.4-6.2c1.2-3.8,4.2-4.9,5.9-3.7c0.4,0.3,0.6,0.7,0.8,1.2l0.4-1.7h1.8l-2,8c-0.3,1.2,0.5,1.7,1.3,1.5
		c0.6-0.2,1.2-0.8,1.5-1.9l0.3-1H39.5z M34.3,627.5l0.3-1.1c0.2-1.2,0.1-2.4-0.7-2.9c-0.9-0.6-2.6,0.4-3.4,2.6
		c-0.7,2.2-0.5,4.6,0.6,4.9C32.3,631.3,33.6,629.5,34.3,627.5z"/>
	<path class="st1" d="M44,628.2l-0.4,1.2c-0.5,1.4-1.1,2.3-2.1,2.8c-1.8,0.8-4,0-3.3-2.6l1.7-6.6l-0.6,0l0.2-0.6h0.5l0.7-2.5h1.8
		l-0.6,2.5h1l-0.1,0.6l-1,0l-1.7,6.7c-0.3,1.2,0.5,1.7,1.3,1.5c0.7-0.2,1.2-0.8,1.5-1.9l0.3-1H44z"/>
	<path class="st1" d="M51.2,628.2h0.6c-1.7,6.9-10.3,5.2-8.3-2.4c1.7-6.6,7.8-4.9,6.3-1c-0.6,1.4-2.2,2.5-4.6,1.6
		C44.2,631.8,49.9,632.9,51.2,628.2L51.2,628.2z M49,624.6c0.9-2.3-2.4-3.4-3.7,1.2C47.3,626.5,48.6,625.6,49,624.6z"/>
	<path class="st1" d="M-226.3,651l-2.9,15.2h-1.9l2.2-10.9l-4.8,11l0,0h-2l0-10.9l-3.1,10.9h-1l4.1-14c-0.7,0-1.2,0.3-1.7,0.9
		c-0.9,1.2-1,3.1-0.8,4.2l-1.6-1.5c0.1-0.9,0.7-2.4,1.5-3.3c1.3-1.5,2.7-1.6,4.4-1.5l0.2,13.1l5.8-13.1
		C-225.6,651-228.2,651-226.3,651z"/>
	<path class="st1" d="M-214.7,662.2l-0.4,1.2c-0.5,1.4-1.1,2.3-2,2.8c-1.6,0.7-3.5,0.2-3.4-1.8c-1,1.3-2.2,2.1-3.5,1.7
		c-1.7-0.6-2.5-3.1-1.4-6.2c1.2-3.8,4.2-4.9,5.9-3.7c0.4,0.3,0.6,0.7,0.8,1.2l0.4-1.7h1.8l-2,8c-0.3,1.2,0.5,1.7,1.3,1.5
		c0.6-0.2,1.2-0.8,1.5-1.9l0.3-1H-214.7z M-219.8,661.5l0.3-1.1c0.2-1.2,0.1-2.4-0.7-2.9c-0.9-0.6-2.6,0.4-3.4,2.6
		c-0.7,2.2-0.5,4.6,0.6,4.9C-221.9,665.3-220.5,663.5-219.8,661.5z"/>
	<path class="st1" d="M-205.6,662.2l-0.4,1.2c-0.5,1.4-1.1,2.3-2.1,2.8c-1.8,0.8-4,0-3.3-2.6c0.1-0.4,0.6-2.2,1-3.8
		c0.3-1.2,0.5-2-1.5-2.6c-0.7-0.2-1.3-0.3-1.3-0.3l-1.6,5.5h-0.7l1.7-5.8c-0.4-0.3-0.6-0.7-0.4-1.2c0.3-0.8,1.6-0.7,1.5,0.4
		c0,0-0.1-0.1,2.3,0.6c2.3,0.6,2.3,1.8,2,3.3l-1,4c-0.3,1.2,0.5,1.7,1.3,1.5c0.7-0.2,1.2-0.8,1.5-1.9l0.3-1H-205.6z"/>
	<path class="st1" d="M-201,662.2c-0.4,1.4-0.9,3.2-2.4,4c-1.8,0.8-4,0-3.3-2.6l2-7.9h1.9l-2.1,8c-0.3,1.2,0.5,1.7,1.3,1.5
		c1.2-0.3,1.5-1.8,1.9-2.9H-201z M-204.5,652.9c0.1-0.5,0.6-0.9,1.2-0.9h0.1c0.8,0,1.4,0.8,1.2,1.6c-0.2,0.5-0.7,0.9-1.2,0.9h-0.1
		C-204.1,654.5-204.7,653.7-204.5,652.9z"/>
	<path class="st1" d="M-193.9,662.2h0.6c-1.7,6.9-10.3,5.2-8.3-2.4c1.7-6.6,7.8-4.9,6.3-1c-0.6,1.4-2.2,2.5-4.6,1.6
		C-200.9,665.8-195.2,666.9-193.9,662.2L-193.9,662.2z M-196,658.6c0.9-2.3-2.4-3.4-3.7,1.2C-197.8,660.5-196.4,659.6-196,658.6z"/>
	<path class="st1" d="M-187.2,661.1h-4.6l0.4-1.8h4.6L-187.2,661.1z"/>
	<path class="st1" d="M-178.6,669.2c-0.9-0.5-1.8-1.3-2.7-1.8c-0.9-0.5-2.1-0.7-3-0.5l3.8-14.7c-0.6,0-1.2,0.3-1.7,0.9
		c-0.9,1.2-1,3.1-0.8,4.2l-1.5-1.5c0.1-0.9,0.7-2.4,1.5-3.3c1.3-1.5,3-1.6,4.7-1.5l-1.6,6.1l-0.2,0.9l-2.1,8.3
		c0.5-0.1,1-0.1,1.4,0.1c0.9,0.2,1.6,0.7,2.4,1.1c1.4,0.7,2.9,0.6,4.6-0.1C-173.9,667.3-175.4,670.8-178.6,669.2z"/>
	<path class="st1" d="M-167.1,662.2l-0.4,1.2c-0.5,1.4-1.1,2.3-2,2.8c-1.6,0.7-3.5,0.2-3.4-1.8c-1,1.3-2.2,2.1-3.5,1.7
		c-1.7-0.6-2.5-3.1-1.4-6.2c1.2-3.8,4.2-4.9,5.9-3.7c0.4,0.3,0.6,0.7,0.8,1.2l0.4-1.7h1.8l-2,8c-0.3,1.2,0.5,1.7,1.3,1.5
		c0.6-0.2,1.2-0.8,1.5-1.9l0.3-1H-167.1z M-172.3,661.5l0.3-1.1c0.2-1.2,0.1-2.4-0.7-2.9c-0.9-0.6-2.6,0.4-3.4,2.6
		c-0.7,2.2-0.5,4.6,0.6,4.9C-174.3,665.3-173,663.5-172.3,661.5z"/>
	<path class="st1" d="M-157.4,662.2c-0.4,1.4-0.8,3.2-2.4,4c-1.5,0.7-3.4,0.2-3.4-1.6c-0.5,0.7-1.1,1.2-1.8,1.5
		c-1.8,0.8-3.9-0.1-3.2-2.7l2-7.7h1.9l-2.1,8c-0.3,1.2,0.5,1.6,1.3,1.4c1.2-0.3,2.1-1.8,2.4-2.9l1.6-6.5h1.9l-2,8
		c-0.3,1.2,0.5,1.7,1.3,1.5c1.2-0.3,1.5-1.8,1.8-2.9H-157.4z"/>
	<path class="st1" d="M-148.3,662.2l-0.4,1.2c-0.5,1.4-1.1,2.3-2.1,2.8c-1.8,0.8-4,0-3.3-2.6c0.1-0.4,0.6-2.2,1-3.8
		c0.3-1.2,0.5-2-1.5-2.6c-0.7-0.2-1.3-0.3-1.3-0.3l-1.6,5.5h-0.7l1.7-5.8c-0.4-0.3-0.6-0.7-0.4-1.2c0.3-0.8,1.6-0.7,1.5,0.4
		c0,0-0.1-0.1,2.3,0.6c2.3,0.6,2.3,1.8,2,3.3l-1,4c-0.3,1.2,0.5,1.7,1.3,1.5c0.7-0.2,1.2-0.8,1.5-1.9l0.3-1H-148.3z"/>
	<path class="st1" d="M-141.2,662.2h0.6c-1.7,6.9-10.3,5.2-8.3-2.4c1.7-6.6,7.8-4.9,6.3-1c-0.6,1.4-2.2,2.5-4.6,1.6
		C-148.2,665.8-142.5,666.9-141.2,662.2L-141.2,662.2z M-143.3,658.6c0.9-2.3-2.4-3.4-3.7,1.2C-145.1,660.5-143.8,659.6-143.3,658.6
		z"/>
	<path class="st1" d="M-123.7,658.7c-0.1,0.3-0.4,0.6-0.9,0.8c-0.3,0.1-0.7,0.2-1.2,0.3c0.3,2.8-1.5,6.6-4.7,6.6
		c-2.4,0-4.6-2.4-4.2-5.5c0.5-3.6,2.8-3.4,3.1-3.4c-2-1.6-1.2-5.3,1.4-6.1c2.2-0.8,4.7,0.3,4.5,3.8l-1.9,0.6c0.6-0.9,0.8-4-1.7-3.6
		c-1.2,0.2-2.4,2-1.8,4c0.2,0.8,0.9,1.4,1.7,1.6c-2,0-3.1,1.6-3.5,3.4c-0.4,2.5,0.8,4.1,2.4,4.1c2.5,0,4.1-3.2,3.8-5.3
		c-0.5,0-0.9,0.1-1.3,0.2c-0.4,0.1-0.5,0.4-0.5,0.8v0.3l-0.5-0.4c-0.2-0.9,0-1.4,0.7-1.7c0.5-0.2,1.2-0.3,1.8-0.3
		c0.4,0,1.1-0.1,1.6-0.3c0.5-0.2,0.5-0.5,0.4-0.6l0-0.1l0.3-0.5l0.1,0.2C-123.7,657.9-123.6,658.3-123.7,658.7z"/>
	<path class="st1" d="M-115.4,663c0.2,2.1,3.5,2.4,4.8,0.4c2.3-3.7-1.5-5.8-2.5-8.3c-1.7-4.5,4.9-5.9,6-1.6l-1.9,1.2
		c0.6-0.6,0.6-1.7-0.1-2.3c-0.7-0.6-1.8-0.4-2.3,0.3c-0.4,0.6-0.3,1.4,0,2.1c0.7,1.5,3.7,3.4,3.3,7.1c-0.4,3.1-3.5,4.8-6.5,4
		c-1.4-0.4-2.5-1.7-2.7-3.1c-0.2-1.4,0.7-3,2-3.4l2.1,1.4C-114.1,660.6-115.6,661.4-115.4,663z"/>
	<path class="st1" d="M-98.2,662.2h0.6c-1.7,6.9-10.3,5.2-8.3-2.4c1.7-6.6,7.8-4.9,6.3-1c-0.6,1.4-2.2,2.5-4.6,1.6
		C-105.2,665.8-99.5,666.9-98.2,662.2L-98.2,662.2z M-100.3,658.6c0.9-2.3-2.4-3.4-3.7,1.2C-102.1,660.5-100.7,659.6-100.3,658.6z"
		/>
	<path class="st1" d="M-90.3,661.3c-1,3.7-3.3,5.5-5.1,4.8c-0.8-0.3-1.3-1-1.6-2l-0.5,2.1h-1.8l4-15.5h1.8l-1.7,6.6
		c0.7-0.9,1.5-1.5,2.4-1.6C-91.2,655.4-89.2,657.1-90.3,661.3z M-93.3,657.3c-2.7,0.2-4.1,6.9-2.2,7.6c0.9,0.3,2.7-1.1,3.4-3.7
		C-91.3,658.5-92.2,657.2-93.3,657.3z"/>
	<path class="st1" d="M-77.2,662.2l-0.4,1.2c-0.5,1.4-1.1,2.3-2,2.8c-1.6,0.7-3.5,0.2-3.4-1.8c-1,1.3-2.2,2.1-3.5,1.7
		c-1.7-0.6-2.5-3.1-1.4-6.2c1.2-3.8,4.2-4.9,5.9-3.7c0.4,0.3,0.6,0.7,0.8,1.2l0.4-1.7h1.8l-2,8c-0.3,1.2,0.5,1.7,1.3,1.5
		c0.6-0.2,1.2-0.8,1.5-1.9l0.3-1H-77.2z M-82.4,661.5l0.3-1.1c0.2-1.2,0.1-2.4-0.7-2.9c-0.9-0.6-2.6,0.4-3.4,2.6
		c-0.7,2.2-0.5,4.6,0.6,4.9C-84.4,665.3-83,663.5-82.4,661.5z"/>
	<path class="st1" d="M-69.9,662.3c-0.3,0.4-0.7,0.7-1.1,0.9c-0.3,0.1-0.6,0.2-0.9,0.2c-0.1,1.6-1.4,2.6-2.9,2.8
		c-2.8,0.3-4.1-2-3.2-3.9c0.2-0.4,0.4-0.6,0.7-0.7c1.1-1.2,2.3-3.7,2.8-6h1.8c-0.6,2.4,0.2,4.3,0.7,6.5c0.2,0.2,0.5,0.4,0.8,0.3
		s0.7-0.4,0.9-0.6C-70.1,662-70,662.1-69.9,662.3z M-74,662.6c-0.3-1.2-0.6-2.6-0.7-4.2c-0.5,1.3-1.1,2.5-1.8,3.3
		c0.3,0.1,0.5,0.3,0.6,0.7c0.2,0.9-1,1.7-1.5,0.7c-0.3,0.4,0.1,2.3,2.2,2.1C-74.2,664.8-73.6,664.1-74,662.6z"/>
	<path class="st1" d="M-65,662.2l-0.4,1.2c-0.5,1.4-1.1,2.3-2.1,2.8c-1.8,0.8-4,0-3.3-2.6l1.7-6.6l-0.6,0l0.2-0.6h0.5l0.7-2.5h1.8
		l-0.6,2.5h1l-0.1,0.6l-1,0l-1.7,6.7c-0.3,1.2,0.5,1.7,1.3,1.5c0.7-0.2,1.2-0.8,1.5-1.9l0.3-1H-65z"/>
	<path class="st1" d="M-60.5,662.2c-0.4,1.4-0.9,3.2-2.4,4c-1.8,0.8-4,0-3.3-2.6l2-7.9h1.9l-2.1,8c-0.3,1.2,0.5,1.7,1.3,1.5
		c1.2-0.3,1.5-1.8,1.9-2.9H-60.5z M-63.9,652.9c0.1-0.5,0.6-0.9,1.2-0.9h0.1c0.8,0,1.4,0.8,1.2,1.6c-0.2,0.5-0.7,0.9-1.2,0.9h-0.1
		C-63.5,654.5-64.1,653.7-63.9,652.9z"/>
	<path class="st1" d="M-50.1,662.2l-0.4,1.2c-0.5,1.4-1.1,2.3-2,2.8c-1.6,0.7-3.5,0.2-3.4-1.8c-1,1.3-2.2,2.1-3.5,1.7
		c-1.7-0.6-2.5-3.1-1.4-6.2c1.2-3.8,4.2-4.9,5.9-3.7c0.4,0.3,0.6,0.7,0.8,1.2l0.4-1.7h1.8l-2,8c-0.3,1.2,0.5,1.7,1.3,1.5
		c0.6-0.2,1.2-0.8,1.5-1.9l0.3-1H-50.1z M-55.3,661.5l0.3-1.1c0.2-1.2,0.1-2.4-0.7-2.9c-0.9-0.6-2.6,0.4-3.4,2.6
		c-0.7,2.2-0.5,4.6,0.6,4.9C-57.3,665.3-55.9,663.5-55.3,661.5z"/>
	<path class="st1" d="M-39.7,662.2l-0.4,1.2c-0.5,1.4-1.1,2.3-2,2.8c-1.6,0.7-3.5,0.2-3.4-1.8c-1,1.3-2.2,2.1-3.5,1.7
		c-1.7-0.6-2.5-3.1-1.4-6.2c1.2-3.8,4.2-4.9,5.9-3.7c0.4,0.3,0.6,0.7,0.8,1.2l0.4-1.7h1.8l-2,8c-0.3,1.2,0.5,1.7,1.3,1.5
		c0.6-0.2,1.2-0.8,1.5-1.9l0.3-1H-39.7z M-44.9,661.5l0.3-1.1c0.2-1.2,0.1-2.4-0.7-2.9c-0.9-0.6-2.6,0.4-3.4,2.6
		c-0.7,2.2-0.5,4.6,0.6,4.9C-46.9,665.3-45.5,663.5-44.9,661.5z"/>
	<path class="st1" d="M-29.3,662.2l-0.4,1.2c-0.5,1.4-1.1,2.3-2.1,2.8c-1.8,0.8-4,0-3.3-2.6c0.3-1.1,0.4-1.8,0.6-2.1
		c0.5-1.8,0.7-4.3-1.1-4.1c-1.4,0.1-2.4,1.8-2.9,3.6l-1.4,5.3h-1.8l2.7-10.5h1.8l-0.4,1.5c0.7-0.8,1.5-1.4,2.4-1.5
		c1.5-0.3,3.6,1,2.4,6c-0.2,0.7-0.4,1.7-0.5,2c-0.3,1.2,0.5,1.7,1.3,1.5c0.7-0.2,1.2-0.8,1.6-1.9l0.3-1H-29.3z"/>
	<path class="st1" d="M-26.9,650.7l-1.2,2.5h-0.8l0.7-2.5H-26.9z"/>
	<path class="st1" d="M-17.3,662.3c-0.3,0.4-0.7,0.7-1.1,0.9c-0.3,0.1-0.6,0.2-0.9,0.2c-0.1,1.6-1.4,2.6-2.9,2.8
		c-2.8,0.3-4.1-2-3.2-3.9c0.2-0.4,0.4-0.6,0.7-0.7c1.1-1.2,2.3-3.7,2.8-6h1.8c-0.6,2.4,0.2,4.3,0.7,6.5c0.2,0.2,0.5,0.4,0.8,0.3
		s0.7-0.4,0.9-0.6C-17.6,662-17.5,662.1-17.3,662.3z M-21.4,662.6c-0.3-1.2-0.6-2.6-0.7-4.2c-0.5,1.3-1.1,2.5-1.8,3.3
		c0.3,0.1,0.5,0.3,0.6,0.7c0.2,0.9-1,1.7-1.5,0.7c-0.3,0.4,0.1,2.3,2.2,2.1C-21.6,664.8-21,664.1-21.4,662.6z"/>
	<path class="st1" d="M-5.7,666.1c-1.4,0.7-3.2,0.2-3.4-1.5c-0.4,0.6-0.9,1.1-1.6,1.4c-1.8,0.8-3.9-0.1-3.2-2.7l2-7.7h1.9l-2.1,8
		c-0.3,1.2,0.5,1.6,1.3,1.4c1.1-0.3,1.7-1.6,2.1-2.7l1.7-6.7H-5l-2.1,8c-0.3,1.3,0.5,1.6,1.3,1.4c2.5-0.6,5.3-7.9,3.4-7.9
		c-0.4,0.1-1.2-0.7-0.6-1.5c0.5-0.7,1.6-0.4,1.9,0.3C-0.3,658-2.1,664.3-5.7,666.1z"/>
	<path class="st1" d="M8.2,662.2h0.6c-1.7,6.9-10.3,5.2-8.3-2.4c1.7-6.6,7.8-4.9,6.3-1c-0.6,1.4-2.2,2.5-4.6,1.6
		C1.2,665.8,6.9,666.9,8.2,662.2L8.2,662.2z M6,658.6c0.9-2.3-2.4-3.4-3.7,1.2C4.3,660.5,5.6,659.6,6,658.6z"/>
	<path class="st1" d="M19.1,662.2l-0.4,1.2c-0.5,1.4-1.1,2.3-2,2.8c-1.6,0.7-3.5,0.2-3.4-1.8c-0.9,1.2-2,2-3.2,1.7
		c-2.1-0.5-2.5-3.2-1.9-5.7c0.6-2.5,2.2-4.7,4.1-4.8c1.5-0.1,2.3,0.8,2.6,2.2l1.8-7.1h1.8l-3.2,12.9c-0.3,1.2,0.5,1.7,1.3,1.5
		c0.6-0.2,1.2-0.8,1.5-1.9l0.3-1H19.1z M12.5,657.2c-1.1,0.2-2,1.6-2.4,3.3c-0.5,2-0.3,4.2,1,4.5C13.3,665.5,15.9,656.7,12.5,657.2z
		"/>
	<path class="st1" d="M29.4,662.2l-0.4,1.2c-0.5,1.4-1.1,2.3-2,2.8c-1.6,0.7-3.5,0.2-3.4-1.8c-0.9,1.2-2,2-3.2,1.7
		c-2.1-0.5-2.5-3.2-1.9-5.7c0.6-2.5,2.2-4.7,4.1-4.8c1.5-0.1,2.3,0.8,2.6,2.2l1.8-7.1h1.8l-3.2,12.9c-0.3,1.2,0.5,1.7,1.3,1.5
		c0.6-0.2,1.2-0.8,1.5-1.9l0.3-1H29.4z M22.8,657.2c-1.1,0.2-2,1.6-2.4,3.3c-0.5,2-0.3,4.2,1,4.5C23.6,665.5,26.2,656.7,22.8,657.2z
		"/>
	<path class="st1" d="M34,662.2c-0.4,1.4-0.9,3.2-2.4,4c-1.8,0.8-4,0-3.3-2.6l2-7.9h1.9l-2.1,8c-0.3,1.2,0.5,1.7,1.3,1.5
		c1.2-0.3,1.5-1.8,1.9-2.9H34z M30.5,652.9c0.1-0.5,0.6-0.9,1.2-0.9h0.1c0.8,0,1.4,0.8,1.2,1.6c-0.2,0.5-0.7,0.9-1.2,0.9h-0.1
		C30.9,654.5,30.3,653.7,30.5,652.9z"/>
	<path class="st1" d="M44.4,662.2l-0.4,1.2c-0.5,1.4-1.1,2.3-2.1,2.8c-1.8,0.8-4,0-3.3-2.6c0.3-1.1,0.4-1.8,0.6-2.1
		c0.5-1.8,0.7-4.3-1.1-4.1c-1.4,0.1-2.4,1.8-2.9,3.6l-1.4,5.3h-1.8l2.7-10.5h1.8l-0.4,1.5c0.7-0.8,1.5-1.4,2.4-1.5
		c1.5-0.3,3.6,1,2.4,6c-0.2,0.7-0.4,1.7-0.5,2c-0.3,1.2,0.5,1.7,1.3,1.5c0.7-0.2,1.2-0.8,1.6-1.9l0.3-1H44.4z"/>
	<path class="st1" d="M54.5,662.2l-0.4,1.2c-0.5,2-2.4,2.9-4.2,3.6l-0.5,1.9c-0.8,3.2-4.7,2.8-3.9,0c0.3-0.9,1.3-1.5,2.6-2l0.5-2
		c-0.8,1-1.8,1.6-2.9,1.3c-2.1-0.5-2.5-3.2-1.9-5.7c0.6-2.5,2.2-4.7,4.1-4.8c1.4-0.1,2.2,0.7,2.5,1.9l0.5-1.9h1.9L50.1,666
		c1.5-0.6,2.9-1.4,3.3-2.8l0.3-1H54.5z M48.1,657.2c-1.1,0.2-2,1.6-2.4,3.3c-0.5,2-0.3,4.2,1,4.5C49,665.5,51.6,656.7,48.1,657.2z
		 M47.8,667.8c-0.7,0.3-1.2,0.7-1.4,1.1c-0.4,1,0.6,1.9,1,0.6L47.8,667.8z"/>
</g>
</svg>
