<?xml version="1.0" encoding="utf-8"?>
<!-- Generator: Adobe Illustrator 19.0.0, SVG Export Plug-In . SVG Version: 6.00 Build 0)  -->
<svg version="1.1" id="Layer_1" width="406px" height="430px" xmlns="http://www.w3.org/2000/svg" xmlns:xlink="http://www.w3.org/1999/xlink" x="0px" y="0px"
	 viewBox="153 -165 406 430" style="enable-background:new 153 -165 406 430;" xml:space="preserve">
<style type="text/css">
	.st0{fill:#323159;}
	.st1{fill:#FFFFFF;}
	.st2{fill:none;stroke:#FFFFFF;stroke-width:0.9015;}
</style>
<title>Group 2</title>
<desc>Created with Sketch.</desc>
<g id="Page-1">
	<g id="Wedding-Invitation_4" transform="translate(-517.000000, -235.000000)">
		<g id="Group-2" transform="translate(517.000000, 235.000000)">
			<rect id="Rectangle" x="153" y="-165" class="st0" width="406" height="430"/>
			<g id="Group-15" transform="translate(81.644444, 72.117400)">
				<path id="Combined-Shape" class="st1" d="M255.3-147.1c0.2-0.6,0.5-1.2,0.9-1.8c-0.4-0.3-0.6-0.6-0.7-0.9
					c-0.1-0.3-0.1-0.6-0.1-0.9c0.1-0.2,0.3-0.5,0.5-0.6c0.3-0.2,0.6-0.3,1.1-0.3c-0.2,0.3-0.2,0.6-0.2,1c0,0.4,0.2,0.7,0.5,0.9
					c0.8-0.4,1.6-0.7,2.5-0.9c0.8-0.2,1.7-0.1,2.7,0.1c0.7,0.2,1.3,0.5,1.7,1c0.4,0.5,0.5,1,0.4,1.5c-0.1,1.2-0.8,1.8-2,1.8
					c-0.5,0-0.9-0.1-1.3-0.4c-0.4-0.3-0.6-0.6-0.6-0.9c-0.1-0.7,0.1-1.4,0.8-2c-1-0.3-2-0.2-2.8,0.2c-0.8,0.4-1.4,0.9-1.8,1.6
					c-0.4,0.7-0.6,1.5-0.5,2.4c0,0.9,0.4,1.7,1.1,2.5c0.2-0.3,0.4-0.6,0.7-0.9c0.3-0.3,0.6-0.5,0.9-0.6c0.2-0.1,0.4-0.1,0.5-0.1
					c0.2,0,0.3,0,0.5,0.1c0.1,0.1,0.2,0.2,0.3,0.3c0,0.1,0,0.3,0,0.5c-0.2,0.4-0.2,0.8-0.1,1.2c0.1,0.4,0.3,0.8,0.7,1.1
					c0.3,0.3,0.7,0.6,1.2,0.8c0.5,0.2,1,0.3,1.5,0.3c0.8,0,1.5-0.2,2.1-0.6c0.6-0.4,1.1-0.8,1.5-1.4c0.4-0.5,0.7-1.1,0.8-1.7
					c0.1-0.6,0.1-1.2,0-1.7c0.3-0.1,0.6,0,0.8,0.1c0.2,0.1,0.4,0.3,0.5,0.6c0.1,0.2,0.2,0.5,0.2,0.9c0,0.3,0,0.6-0.1,1
					c0.6-0.3,1-0.7,1.3-1.2c0.3-0.6,0.4-1.2,0.3-2c-0.1-0.5-0.2-1-0.4-1.4c-0.2-0.4-0.5-0.8-0.8-1.2c-0.3-0.4-0.6-0.7-1-1.1
					c-0.4-0.4-0.7-0.8-1.1-1.2c-0.1-0.2-0.1-0.4,0-0.5c0.1-0.1,0.4-0.1,0.7,0.1c0.4,0.2,0.8,0.4,1.1,0.6c0.4,0.2,0.8,0.4,1.2,0.6
					c0-0.6-0.2-1.2-0.7-1.8c-0.5-0.5-1-1-1.6-1.4c-0.6-0.4-1.3-0.6-1.9-0.7c-0.6-0.1-1.1,0-1.5,0.3c-0.2,0.2-0.3,0.4-0.3,0.6
					c0,0.2,0.2,0.3,0.5,0.3c-0.1,0.8-0.9,1.2-2.2,1.2c-0.4,0-0.7-0.1-1-0.3c-0.3-0.2-0.6-0.4-0.8-0.7c-0.2-0.3-0.4-0.5-0.4-0.9
					c-0.1-0.3,0-0.6,0.2-0.9c-0.4-0.1-0.7-0.4-0.8-0.7c-0.1-0.3-0.2-0.6-0.1-1c0.1-0.6,0.4-1.1,0.8-1.3c0.4-0.3,0.9-0.5,1.5-0.8
					c0-0.5,0-0.8,0.2-1.1c0.2-0.3,0.5-0.5,0.9-0.7c0.4-0.1,0.8-0.2,1.4-0.2c0.5,0,1.1,0,1.7,0.1c0.1-0.2,0-0.4-0.1-0.5
					c-0.1-0.1-0.3-0.2-0.5-0.3c-0.2-0.1-0.4-0.2-0.5-0.3c-0.1-0.1-0.2-0.3-0.1-0.4c0.3-0.9,0.7-1.7,1.2-2.4c0.6-0.7,1.4-1.1,2.6-1.3
					c0.6,0,1.2,0,1.8,0.2c0.6,0.2,1,0.5,1.2,0.9c0.1,0.2,0.1,0.3,0,0.5c-0.1,0.1-0.2,0.3-0.4,0.3c-0.2,0.1-0.4,0.1-0.6,0.1
					c-0.2,0-0.4,0-0.6-0.1c-0.2-0.1-0.3-0.2-0.5-0.3c-0.1-0.1-0.3-0.2-0.4-0.3c-0.1-0.1-0.3-0.2-0.4-0.2c-0.1-0.1-0.3-0.1-0.5,0
					c-0.2,0-0.5,0.2-0.6,0.5c-0.2,0.3-0.3,0.6-0.4,0.9c-0.1,0.3-0.1,0.6-0.1,0.9c0,0.3,0.2,0.4,0.3,0.5c0.3,0,0.5,0,0.6-0.2
					c0.1-0.2,0.3-0.4,0.7-0.7c0.2-0.2,0.4-0.3,0.6-0.2c0.2,0,0.2,0.2,0.1,0.6c-0.1,0.3-0.2,0.6-0.3,1c-0.2,0.4-0.3,0.7-0.4,1
					c-0.1,0.3-0.1,0.6,0,0.9c0.1,0.3,0.3,0.5,0.6,0.6c0.1-0.5,0.3-0.8,0.4-1c0.1-0.2,0.3-0.4,0.7-0.6c0.1-0.1,0.3-0.1,0.5-0.1
					s0.3,0,0.5,0.1c0.1,0.1,0.2,0.2,0.3,0.3s0,0.4-0.2,0.6c-0.4,0.6-0.3,1.5,0.3,2.5c0.5,0.9,1,2,1.3,3.2c0.3,1.2,0.5,2.5,0.5,3.8
					c0,1.3-0.3,2.6-0.9,3.8c-0.6,1.2-1.4,2.3-2.6,3.3c0.4-0.1,0.9-0.1,1.3,0c0.4,0.1,0.8,0.3,1.1,0.5c0.3,0.2,0.5,0.5,0.6,0.8
					c0.1,0.3,0.2,0.7,0.1,1.1c-0.4-0.3-0.8-0.6-1.2-0.7c-0.4-0.1-0.8-0.2-1.2-0.2c-0.6,0-1.2,0.1-1.9,0.2c-0.6,0.2-1.2,0.4-1.9,0.6
					c-0.6,0.2-1.3,0.4-1.9,0.6c-0.6,0.2-1.3,0.3-1.9,0.3c-0.8,0-1.6,0-2.4-0.2c-0.8-0.1-1.5-0.3-2.3-0.7c-0.7-0.3-1.4-0.7-1.9-1.3
					c-0.6-0.5-1-1.2-1.4-2.1c-0.3-0.9-0.5-1.8-0.4-2.8c0-0.1,0-0.1,0-0.2c-1.7,0.1-3.4,0.4-5,0.9c-1.7,0.6-3.4,1.3-4.9,2.2
					c-1,0.5-2.1,1-3.3,1.4c-1.2,0.4-2.4,0.6-3.6,0.7c-1.2,0.1-2.4,0.1-3.6,0c-1.2-0.1-2.2-0.4-3.1-0.8c-1-0.4-1.8-1-2.6-1.7
					c-0.7-0.7-1.3-1.5-1.8-2.4c-0.4-0.9-0.7-1.9-0.9-2.9c-0.2-1.1-0.2-2.2-0.1-3.3c0.1-1,0.3-2,0.6-2.9c0.4-0.9,0.8-1.7,1.4-2.4
					c0.6-0.7,1.3-1.2,2.1-1.6c0.8-0.4,1.8-0.5,2.8-0.3c0.3,0,0.6,0.1,0.9,0.3c0.3,0.1,0.5,0.3,0.7,0.5c0.2,0.2,0.3,0.5,0.5,0.8
					c0.1,0.3,0.1,0.6,0.1,0.9c-0.1,0.6-0.3,1.2-0.8,1.5c-0.5,0.4-1,0.5-1.7,0.5c-0.1,0-0.2-0.1-0.2-0.2c0-0.1-0.1-0.2-0.1-0.3
					c0-0.1,0-0.2,0.1-0.3c0-0.1,0.1-0.2,0.2-0.2c0.5,0,0.7-0.1,0.8-0.5c0-0.1,0-0.2-0.1-0.4c-0.1-0.1-0.2-0.2-0.3-0.3
					c-0.1-0.1-0.2-0.2-0.4-0.3c-0.2-0.1-0.3-0.1-0.5-0.1c-0.9-0.1-1.6,0.1-2.4,0.5c-0.7,0.4-1.4,0.9-1.8,1.6c-0.5,0.7-0.8,1.4-1,2.3
					c-0.2,0.9-0.1,1.7,0.2,2.6c0.3-0.3,0.5-0.7,0.9-1c0.4-0.3,0.8-0.6,1.2-0.8c0.4-0.3,0.9-0.5,1.3-0.6c0.5-0.1,0.9-0.2,1.3-0.2
					c0.3,0,0.6,0,1,0.1c0.4,0.1,0.7,0.2,0.9,0.4c0.3,0.2,0.5,0.4,0.7,0.7c0.2,0.3,0.3,0.6,0.3,0.9c-0.3,0-0.5,0-0.8,0
					c-0.3,0-0.5,0.1-0.8,0.2c-0.3,0.1-0.5,0.1-0.7,0.2c-0.3,0.1-0.5,0.1-0.8,0.1c-0.2,0-0.5,0-0.7-0.1c-0.2-0.1-0.5-0.1-0.8-0.2
					c-0.3,0-0.5-0.1-0.8-0.1s-0.5,0.1-0.7,0.2c-0.3,0.1-0.5,0.4-0.7,0.7c-0.2,0.3-0.4,0.8-0.5,1.4c-0.1,0.5-0.1,1.1,0,1.6
					c0.1,0.6,0.4,1.1,0.7,1.7c0.4,0.5,0.8,1,1.4,1.5c0.5,0.5,1.1,0.8,1.9,1.2c0.8,0.4,1.8,0.6,2.9,0.7c1.1,0.1,2.2,0.1,3.3,0
					c1.2-0.1,2.3-0.4,3.5-0.7c1.2-0.3,2.2-0.8,3.2-1.3c0.8-0.4,1.6-0.8,2.5-1.2c0.9-0.4,1.8-0.7,2.7-1c0.9-0.3,1.9-0.5,2.8-0.7
					C253.6-147.1,254.5-147.1,255.3-147.1z M293.4-147.1c0.8,0,1.7,0,2.5,0.1c1,0.2,1.9,0.4,2.8,0.7c0.9,0.3,1.8,0.6,2.7,1
					c0.9,0.4,1.7,0.8,2.5,1.2c1,0.5,2,1,3.2,1.3c1.2,0.3,2.3,0.6,3.5,0.7c1.2,0.1,2.3,0.1,3.4,0c1.1-0.1,2-0.3,2.9-0.7
					c0.7-0.3,1.3-0.7,1.9-1.2c0.5-0.5,1-1,1.3-1.5c0.4-0.5,0.6-1.1,0.7-1.7c0.1-0.6,0.1-1.1,0-1.6c-0.1-0.6-0.3-1.1-0.5-1.4
					c-0.2-0.3-0.4-0.5-0.7-0.7c-0.2-0.1-0.5-0.2-0.8-0.2c-0.2,0-0.5,0-0.8,0.1c-0.3,0-0.5,0.1-0.8,0.2c-0.3,0.1-0.5,0.1-0.7,0.1
					c-0.3,0-0.5,0-0.8-0.1c-0.2-0.1-0.5-0.2-0.7-0.2c-0.2-0.1-0.5-0.1-0.8-0.2c-0.3-0.1-0.5-0.1-0.8,0c0-0.4,0.1-0.7,0.3-0.9
					c0.2-0.3,0.4-0.5,0.7-0.7c0.3-0.2,0.6-0.3,0.9-0.4c0.4-0.1,0.7-0.1,1-0.1c0.5,0,0.9,0,1.3,0.2c0.5,0.1,0.9,0.3,1.3,0.6
					c0.4,0.2,0.8,0.5,1.2,0.8c0.4,0.3,0.7,0.6,0.9,1c0.3-0.9,0.4-1.8,0.2-2.6c-0.2-0.9-0.5-1.6-1-2.3c-0.5-0.6-1.1-1.2-1.8-1.6
					c-0.7-0.4-1.5-0.5-2.4-0.5c-0.1,0-0.3,0-0.5,0.1c-0.1,0.1-0.3,0.1-0.4,0.3c-0.1,0.1-0.2,0.2-0.3,0.3c-0.1,0.1-0.1,0.3-0.1,0.4
					c0.1,0.4,0.4,0.5,0.9,0.5c0.1,0,0.2,0.1,0.2,0.2c0.1,0.1,0.1,0.2,0.1,0.3c0,0.1,0,0.2-0.1,0.3c0,0.1-0.1,0.2-0.3,0.2
					c-0.7,0-1.2-0.1-1.7-0.5c-0.5-0.4-0.7-0.9-0.8-1.5c0-0.3,0-0.6,0.1-0.9c0.1-0.3,0.3-0.5,0.5-0.8c0.2-0.2,0.4-0.4,0.7-0.5
					c0.3-0.1,0.6-0.2,1-0.3c1-0.1,2,0,2.8,0.3c0.8,0.4,1.5,0.9,2.1,1.6c0.6,0.7,1,1.5,1.4,2.4c0.3,0.9,0.5,1.9,0.6,2.9
					c0.1,1.1,0,2.2-0.1,3.3c-0.2,1.1-0.5,2-0.9,2.9c-0.5,0.9-1,1.7-1.7,2.4c-0.7,0.7-1.6,1.3-2.6,1.7c-0.9,0.4-2,0.7-3.2,0.8
					c-1.2,0.1-2.4,0.1-3.6,0c-1.2-0.1-2.4-0.3-3.6-0.7c-1.2-0.4-2.3-0.8-3.3-1.4c-1.5-0.9-3.2-1.6-4.9-2.2c-1.6-0.5-3.2-0.8-5-0.9
					c0,0.1,0,0.1,0,0.2c0,1-0.1,2-0.4,2.8c-0.3,0.8-0.8,1.5-1.4,2.1c-0.6,0.6-1.2,1-1.9,1.3c-0.7,0.3-1.5,0.5-2.3,0.7
					s-1.6,0.2-2.4,0.2c-0.6,0-1.3-0.1-1.9-0.3c-0.6-0.2-1.3-0.4-1.9-0.6c-0.6-0.2-1.2-0.4-1.9-0.6c-0.6-0.2-1.2-0.2-1.8-0.2
					c-0.4,0-0.8,0.1-1.2,0.2c-0.4,0.1-0.8,0.4-1.2,0.7c-0.1-0.4-0.1-0.8,0-1.1c0.1-0.3,0.4-0.6,0.7-0.8c0.3-0.2,0.6-0.4,1-0.5
					c0.4-0.1,0.8-0.1,1.3,0c-1.1-1-2-2.1-2.6-3.3c-0.6-1.2-0.9-2.5-0.9-3.8c0-1.3,0.2-2.5,0.5-3.8c0.4-1.2,0.8-2.3,1.3-3.2
					c0.3-0.5,0.5-1,0.5-1.4c0-0.4,0-0.8-0.3-1.1c-0.1-0.3-0.2-0.5-0.2-0.6c0-0.1,0.1-0.2,0.2-0.3c0.1,0,0.3-0.1,0.5-0.1
					c0.2,0,0.3,0,0.5,0.1c0.4,0.2,0.6,0.4,0.7,0.6c0.1,0.2,0.2,0.6,0.4,1c0.3-0.2,0.5-0.4,0.6-0.6c0.1-0.3,0-0.5,0-0.9
					c-0.1-0.3-0.2-0.6-0.4-1c-0.1-0.3-0.3-0.7-0.3-1c-0.1-0.4-0.1-0.6,0.1-0.6c0.2,0,0.4,0,0.6,0.2c0.4,0.3,0.6,0.5,0.7,0.7
					c0.1,0.2,0.3,0.2,0.6,0.2c0.2-0.1,0.3-0.2,0.3-0.5c0-0.3,0-0.6,0-0.9c-0.1-0.3-0.2-0.6-0.4-0.9c-0.2-0.3-0.4-0.5-0.7-0.5
					c-0.2,0-0.4,0-0.5,0c-0.1,0-0.3,0.1-0.4,0.2c-0.1,0.1-0.2,0.2-0.4,0.3c-0.1,0.1-0.3,0.2-0.5,0.3c-0.2,0.1-0.4,0.1-0.6,0.1
					c-0.2,0-0.4-0.1-0.6-0.1c-0.2-0.1-0.3-0.2-0.4-0.3c-0.1-0.1-0.1-0.3,0-0.5c0.2-0.4,0.6-0.7,1.2-0.9c0.6-0.2,1.2-0.2,1.8-0.2
					c0.6,0,1.1,0.2,1.5,0.4c0.5,0.2,0.8,0.5,1.1,0.8c0.3,0.3,0.6,0.7,0.8,1.1c0.2,0.4,0.4,0.8,0.5,1.3c0,0.2,0,0.3-0.2,0.4
					c-0.1,0.1-0.3,0.2-0.5,0.3c-0.2,0.1-0.4,0.2-0.5,0.3c-0.1,0.1-0.2,0.3-0.1,0.5c1.2-0.2,2.3-0.2,3.1,0.1s1.2,0.9,1,1.8
					c0.6,0.2,1.1,0.5,1.5,0.8c0.4,0.3,0.7,0.7,0.8,1.3c0.1,0.3,0,0.6-0.1,1c-0.2,0.3-0.5,0.5-0.9,0.7c0.2,0.2,0.2,0.5,0.2,0.9
					c0,0.3-0.2,0.6-0.4,0.9c-0.2,0.3-0.5,0.5-0.8,0.7c-0.3,0.2-0.7,0.3-1,0.3c-1.3,0-2.1-0.4-2.2-1.2c0.3,0,0.5,0,0.5-0.3
					c0-0.2,0-0.4-0.3-0.6c-0.4-0.3-0.9-0.4-1.5-0.3c-0.6,0.1-1.3,0.3-1.9,0.7c-0.6,0.4-1.1,0.8-1.6,1.4c-0.5,0.5-0.7,1.1-0.7,1.8
					c0.4-0.2,0.8-0.4,1.2-0.6c0.4-0.2,0.7-0.4,1.1-0.6c0.4-0.2,0.6-0.2,0.8-0.1c0.1,0.1,0.1,0.3,0,0.5c-0.4,0.4-0.8,0.8-1.1,1.2
					c-0.4,0.4-0.7,0.8-1,1.1c-0.3,0.4-0.6,0.8-0.8,1.2c-0.2,0.4-0.3,0.9-0.4,1.4c-0.1,0.8,0,1.4,0.3,2c0.3,0.5,0.7,1,1.3,1.2
					c-0.1-0.3-0.1-0.6-0.1-1c0-0.3,0.1-0.6,0.2-0.9c0.1-0.3,0.3-0.5,0.5-0.6c0.2-0.1,0.5-0.1,0.8-0.1c-0.2,0.5-0.2,1.1-0.1,1.7
					c0.1,0.6,0.4,1.2,0.8,1.7c0.4,0.5,0.9,1,1.5,1.4c0.6,0.4,1.3,0.6,2.1,0.6c0.5,0,1.1-0.1,1.6-0.3c0.5-0.2,0.9-0.5,1.3-0.8
					c0.3-0.3,0.5-0.7,0.7-1.1c0.1-0.4,0.1-0.8-0.1-1.2c-0.1-0.2-0.1-0.4-0.1-0.5c0-0.1,0.1-0.3,0.3-0.3c0.1-0.1,0.3-0.1,0.5-0.1
					s0.4,0,0.6,0.1c0.3,0.1,0.6,0.3,0.9,0.6c0.3,0.3,0.5,0.5,0.7,0.9c0.7-0.8,1-1.6,1.1-2.5c0-0.9-0.1-1.7-0.5-2.4
					c-0.4-0.7-1-1.3-1.8-1.6c-0.8-0.4-1.7-0.4-2.8-0.2c0.6,0.6,0.9,1.3,0.8,2c0,0.3-0.2,0.6-0.6,0.9c-0.4,0.2-0.8,0.4-1.3,0.4
					c-1.2,0-1.9-0.6-2-1.8c-0.1-0.5,0.1-1.1,0.4-1.5c0.4-0.5,0.9-0.8,1.7-1c1-0.2,1.9-0.3,2.7-0.1c0.8,0.1,1.7,0.4,2.5,0.9
					c0.3-0.2,0.4-0.5,0.5-0.9c0-0.4,0-0.7-0.2-1c0.5,0,0.8,0.1,1.1,0.3c0.3,0.2,0.5,0.4,0.5,0.6c0.1,0.3,0,0.5-0.1,0.9
					c-0.1,0.3-0.4,0.6-0.8,0.9C292.9-148.3,293.3-147.7,293.4-147.1z M272.5-149.4c0.2-0.6,0.3-1.2,0.2-1.9c0-0.6-0.2-1.2-0.4-1.8
					c-0.2-0.6-0.6-1.1-1-1.6c-0.5-0.5-1-0.9-1.6-1.1c-0.6-0.3-1.2-0.5-2-0.7c-0.7-0.1-1.5-0.2-2.3-0.3c-0.8,0-1.5,0-2.2,0.1
					c-0.7,0.1-1.3,0.3-1.7,0.6c-0.4,0.3-0.5,0.5-0.4,0.9c0.1,0.3,0.3,0.4,0.7,0.3c1.1-0.3,2.2-0.4,3.3-0.3c1.1,0.1,2.1,0.4,3.1,0.9
					c1,0.5,1.9,1.1,2.6,2C271.6-151.5,272.2-150.5,272.5-149.4z M270.9-156c0.2,0,0.2,0,0.2-0.2s-0.1-0.2-0.2-0.2
					c-0.1,0-0.2,0.1-0.2,0.2S270.8-156,270.9-156z M271.2-148c0.1,0,0.2,0,0.2-0.2c0-0.1-0.1-0.2-0.2-0.2c-0.1,0-0.2,0.1-0.2,0.2
					C270.9-148,271-148,271.2-148z M282.3-158.7c0.2,0,0.2,0,0.2-0.2c0-0.1-0.1-0.2-0.2-0.2c-0.1,0-0.2,0.1-0.2,0.2
					C282.1-158.8,282.2-158.7,282.3-158.7z M276.2-149.4c0.4-1.1,1-2,1.7-2.9c0.8-0.8,1.6-1.5,2.6-2c1-0.5,2-0.8,3.1-0.9
					c1.1-0.1,2.2,0,3.2,0.3c0.4,0.1,0.6,0,0.7-0.3c0.1-0.3,0-0.6-0.4-0.9c-0.4-0.3-1-0.5-1.7-0.6c-0.7-0.1-1.4-0.1-2.2-0.1
					c-0.8,0-1.5,0.1-2.3,0.3c-0.7,0.1-1.4,0.4-1.9,0.6c-0.6,0.3-1.2,0.7-1.6,1.1c-0.5,0.5-0.8,1-1.1,1.6c-0.2,0.6-0.4,1.2-0.5,1.8
					C275.9-150.7,276-150,276.2-149.4z M286.1-148.9c0.1,0,0.2-0.1,0.2-0.2c0-0.2-0.1-0.2-0.2-0.2c-0.2,0-0.2,0.1-0.2,0.2
					C285.9-149,285.9-148.9,286.1-148.9z M323.9-144.3c0-0.1-0.1-0.1-0.2-0.1c-0.1,0-0.1,0.1-0.1,0.2c0,0.1,0,0.1,0.2,0.1
					C323.9-144.1,323.9-144.2,323.9-144.3z M316.2-152.6c0-0.1-0.1-0.1-0.2-0.1c-0.1,0-0.1,0.1-0.1,0.2c0,0.1,0.1,0.1,0.2,0.1
					C316.2-152.5,316.3-152.5,316.2-152.6z M298.4-141.2c-0.4,0-0.9-0.1-1.3-0.4c-0.5-0.2-0.9-0.5-1.3-0.9c-0.4-0.4-0.7-0.8-1-1.3
					c-0.3-0.5-0.4-1-0.5-1.5c0.2,0.1,0.5,0.1,0.7,0.1c0.3,0,0.5,0.1,0.8,0.1c0.3,0.1,0.5,0.2,0.7,0.3c0.2,0.1,0.4,0.3,0.6,0.6
					c0.1,0.2,0.2,0.4,0.3,0.6c0.1,0.3,0.2,0.5,0.3,0.8c0.1,0.3,0.1,0.5,0.2,0.8C298.2-141.7,298.3-141.4,298.4-141.2z M309.9-137.4
					c0,0.3-0.2,0.5-0.5,0.8c-0.3,0.2-0.6,0.4-1,0.4c-0.4,0-0.8,0-1.2-0.1c-0.4-0.1-0.8-0.3-1.1-0.5c-0.3-0.2-0.6-0.5-0.8-0.8
					c-0.2-0.3-0.3-0.6-0.3-1c0-0.5,0.1-1,0.3-1.3c0.2-0.4,0.6-0.7,1.1-1c0.2-0.1,0.4-0.1,0.5,0c0.2,0,0.3,0.2,0.4,0.3
					c0.1,0.1,0.2,0.3,0.2,0.5c0,0.2,0,0.4-0.1,0.5c0.3,0,0.5,0.1,0.7,0.3c0.2,0.1,0.2,0.3,0.2,0.6c-0.1,0-0.3,0-0.4,0.1
					c-0.1,0-0.2,0.1-0.3,0.2c-0.1,0.1-0.2,0.2-0.2,0.3c-0.1,0.1-0.1,0.2,0,0.4c0,0.3,0.2,0.5,0.3,0.6c0.2,0.1,0.4,0.2,0.6,0.2
					c0.2,0,0.5,0,0.7,0C309.5-137.2,309.7-137.3,309.9-137.4z M299.7-149.9c-0.1,0.3-0.3,0.6-0.6,0.9c-0.3,0.2-0.7,0.5-1.1,0.6
					c-0.4,0.2-0.9,0.3-1.4,0.4c-0.5,0.1-1,0.1-1.4,0.1c-0.5,0-0.9,0-1.2-0.1c-0.3-0.1-0.5-0.2-0.6-0.3c0.4,0,0.7-0.1,0.9-0.3
					c0.3-0.2,0.5-0.4,0.8-0.6c0.3-0.2,0.5-0.4,0.8-0.6c0.3-0.2,0.6-0.2,0.9-0.2c0.1,0.2,0.1,0.4,0,0.5c-0.1,0.1-0.1,0.2-0.2,0.4
					c0.2,0,0.5,0,0.8-0.1c0.3-0.1,0.5-0.1,0.8-0.2c0.3-0.1,0.5-0.1,0.8-0.2C299.3-149.8,299.5-149.9,299.7-149.9z M311.2-145.6
					c-0.3,0.1-0.5,0.1-0.8,0c-0.2-0.1-0.4-0.2-0.6-0.3c-0.2-0.1-0.4-0.3-0.5-0.4c-0.2-0.1-0.3-0.2-0.5-0.1c-0.2,0-0.4,0.1-0.5,0.2
					c-0.2,0.1-0.3,0.2-0.4,0.3c-0.1,0.1-0.2,0.3-0.2,0.4c0,0.1,0,0.3,0.2,0.4c0.1,0,0.3,0.1,0.5,0c0.3,0,0.5,0,0.8,0
					c0.3,0,0.5,0.1,0.7,0.2c0.2,0.1,0.3,0.4,0.4,0.8c-0.1-0.1-0.3-0.2-0.5-0.2c-0.2,0-0.5,0-0.7,0c-0.2,0-0.5,0.1-0.7,0.1
					c-0.2,0-0.3,0.2-0.4,0.3c0,0.2-0.2,0.3-0.4,0.4c-0.2,0-0.5,0-0.7-0.2c-0.3-0.2-0.5-0.4-0.7-0.8c-0.2-0.4-0.3-0.8-0.4-1.3
					c0-0.2,0-0.5,0.1-0.7c0.1-0.2,0.3-0.4,0.5-0.6c0.2-0.2,0.4-0.3,0.7-0.4c0.3-0.1,0.5-0.2,0.8-0.2c0.4,0,0.7,0,1.1,0.1
					c0.4,0.1,0.7,0.2,1,0.4c0.3,0.2,0.6,0.4,0.8,0.7C311.1-146.4,311.2-146,311.2-145.6z M326.6-143.8c-0.2,0.2-0.4,0.3-0.6,0.3
					c-0.2,0-0.5,0-0.7,0.1c-0.2,0-0.4,0-0.6,0c-0.2,0-0.3,0.1-0.3,0.2c-0.1,0.1,0,0.2,0,0.3c0.1,0.1,0.2,0.2,0.3,0.3
					c0.1,0.1,0.2,0.2,0.4,0.3c0.1,0.1,0.2,0.2,0.3,0.3c0.2,0.4,0.3,0.8,0.3,1.2c0,0.4-0.1,0.8-0.3,1.1c-0.2,0.4-0.4,0.7-0.7,1.1
					c-0.3,0.3-0.6,0.6-0.9,0.9c0-0.3,0.1-0.6,0.1-0.9c0.1-0.3,0.2-0.6,0.2-1c0.1-0.3,0.1-0.6,0.1-0.9c0-0.3,0-0.6-0.2-0.9
					c-0.2-0.3-0.5-0.6-0.8-0.7c-0.3-0.2-0.7-0.3-1.1-0.3c-0.4-0.1-0.8-0.1-1.2-0.2c-0.4,0-0.8-0.1-1.2-0.2c0.2-0.5,0.5-0.9,0.9-1.2
					c0.4-0.3,0.8-0.6,1.2-0.8c0.5-0.2,0.9-0.3,1.3-0.3c0.4,0,0.8,0.1,1.2,0.2c0.4,0.1,0.8,0.3,1.2,0.5
					C325.9-144.1,326.2-143.9,326.6-143.8z M327.9-141.3c0.2,0.4,0.4,0.8,0.5,1.2c0.1,0.5,0.1,0.9,0,1.4c0,0.5-0.1,0.9-0.3,1.3
					c-0.1,0.4-0.3,0.8-0.5,1.1c0-0.6-0.1-1.2-0.3-1.8c-0.1-0.6-0.3-1.3-0.5-1.9c-0.2-0.6-0.5-1.2-0.9-1.7c-0.4-0.5-0.8-1-1.3-1.4
					c0.6,0,1.2,0.1,1.7,0.5C327.1-142.2,327.6-141.8,327.9-141.3z M224.8-144.3c0,0.1,0,0.1,0.1,0.2c0.1,0,0.2,0,0.2-0.1
					c0-0.1,0-0.1-0.1-0.2C224.9-144.4,224.8-144.4,224.8-144.3z M232.5-152.6c0,0.1,0,0.2,0.1,0.2c0.1,0,0.1,0,0.2-0.1
					c0-0.1,0-0.2-0.1-0.2C232.5-152.8,232.5-152.7,232.5-152.6z M250.3-141.2c0.1-0.2,0.2-0.5,0.3-0.7c0.1-0.3,0.2-0.5,0.2-0.8
					c0.1-0.3,0.1-0.5,0.2-0.8c0.1-0.2,0.2-0.5,0.3-0.6c0.2-0.2,0.4-0.4,0.6-0.6c0.2-0.1,0.5-0.2,0.7-0.3c0.3-0.1,0.5-0.1,0.8-0.1
					c0.3,0,0.5-0.1,0.7-0.1c0,0.5-0.2,1-0.5,1.5c-0.3,0.5-0.6,0.9-0.9,1.3c-0.4,0.4-0.8,0.7-1.3,0.9
					C251.2-141.3,250.7-141.2,250.3-141.2z M238.8-137.4c0.2,0.1,0.5,0.2,0.7,0.2c0.3,0,0.5,0.1,0.7,0c0.2,0,0.4-0.1,0.6-0.2
					c0.2-0.1,0.3-0.3,0.3-0.6c0-0.1,0-0.3,0-0.4c0-0.1-0.1-0.2-0.2-0.3c-0.1-0.1-0.2-0.1-0.3-0.2c-0.1,0-0.3-0.1-0.4-0.1
					c0-0.2,0-0.4,0.2-0.6c0.2-0.1,0.4-0.2,0.7-0.3c-0.1-0.2-0.1-0.3-0.1-0.5c0-0.2,0.1-0.4,0.2-0.5c0.1-0.1,0.3-0.2,0.4-0.3
					c0.2-0.1,0.4,0,0.5,0c0.5,0.3,0.9,0.6,1.1,1c0.2,0.4,0.3,0.8,0.3,1.3c0,0.3-0.1,0.6-0.3,1c-0.2,0.3-0.5,0.5-0.8,0.8
					c-0.3,0.2-0.7,0.4-1.1,0.5c-0.4,0.1-0.8,0.2-1.2,0.1c-0.4,0-0.7-0.2-1-0.4C239-136.8,238.8-137.1,238.8-137.4z M249-149.9
					c0.2,0,0.5,0.1,0.7,0.2c0.2,0.1,0.5,0.2,0.8,0.2c0.3,0.1,0.5,0.1,0.8,0.2c0.3,0,0.5,0.1,0.8,0.1c-0.1-0.1-0.2-0.3-0.2-0.4
					c0-0.1,0-0.3,0-0.5c0.4-0.1,0.6,0,0.9,0.2s0.5,0.4,0.8,0.6c0.3,0.2,0.5,0.4,0.8,0.6c0.3,0.2,0.6,0.3,0.9,0.3
					c-0.1,0.1-0.3,0.2-0.6,0.3c-0.3,0.1-0.7,0.1-1.2,0.1c-0.5,0-0.9,0-1.4-0.1c-0.5-0.1-1-0.2-1.4-0.4c-0.4-0.2-0.8-0.4-1.1-0.6
					C249.2-149.3,249.1-149.6,249-149.9z M237.5-145.6c0-0.4,0.2-0.7,0.4-1c0.2-0.3,0.5-0.5,0.8-0.7c0.3-0.2,0.7-0.3,1-0.4
					c0.4-0.1,0.7-0.1,1.1-0.1c0.3,0,0.5,0.1,0.8,0.2c0.2,0.1,0.5,0.3,0.7,0.4c0.2,0.2,0.4,0.4,0.5,0.6c0.1,0.2,0.2,0.5,0.1,0.7
					c0,0.5-0.1,0.9-0.4,1.3c-0.2,0.3-0.5,0.6-0.7,0.8c-0.3,0.1-0.5,0.2-0.7,0.2c-0.2,0-0.4-0.1-0.4-0.4c-0.1-0.1-0.2-0.3-0.4-0.3
					c-0.2-0.1-0.4-0.1-0.6-0.1c-0.2,0-0.5,0-0.7,0c-0.2,0-0.4,0.1-0.5,0.2c0-0.4,0.1-0.7,0.3-0.8c0.2-0.1,0.5-0.2,0.7-0.2
					c0.3,0,0.5,0,0.8,0s0.4,0,0.5,0c0.1-0.1,0.2-0.2,0.2-0.4c0-0.1-0.1-0.3-0.2-0.4c-0.1-0.1-0.2-0.2-0.4-0.3
					c-0.2-0.1-0.4-0.2-0.5-0.2c-0.2,0-0.3,0-0.5,0.1c-0.2,0.1-0.3,0.2-0.5,0.4c-0.2,0.1-0.4,0.2-0.6,0.3
					C238-145.5,237.8-145.5,237.5-145.6z M222.1-143.8c0.4-0.1,0.8-0.3,1.1-0.5c0.4-0.2,0.8-0.4,1.2-0.5s0.8-0.2,1.2-0.2
					c0.4,0,0.8,0.1,1.3,0.3c0.5,0.2,0.9,0.5,1.3,0.8c0.3,0.3,0.6,0.7,0.9,1.2c-0.4,0.1-0.8,0.2-1.2,0.2c-0.4,0-0.8,0.1-1.2,0.2
					c-0.4,0.1-0.8,0.2-1.1,0.3c-0.4,0.1-0.6,0.4-0.8,0.7c-0.2,0.3-0.2,0.6-0.2,0.9c0,0.3,0,0.6,0.1,0.9c0.1,0.3,0.2,0.6,0.2,1
					c0.1,0.3,0.1,0.6,0.2,0.9c-0.3-0.3-0.6-0.6-0.9-0.9c-0.3-0.3-0.5-0.7-0.7-1.1c-0.2-0.4-0.2-0.7-0.3-1.1c0-0.4,0.1-0.8,0.3-1.2
					c0.1-0.1,0.2-0.2,0.3-0.3c0.1-0.1,0.2-0.2,0.4-0.3c0.1-0.1,0.2-0.2,0.3-0.3c0.1-0.1,0.1-0.2,0-0.3c0-0.1-0.2-0.2-0.3-0.2
					c-0.2,0-0.4,0-0.6,0c-0.2,0-0.5,0-0.7-0.1C222.5-143.5,222.3-143.6,222.1-143.8z M220.8-141.3c0.4-0.5,0.8-1,1.4-1.3
					c0.5-0.4,1.1-0.5,1.7-0.5c-0.5,0.4-0.9,0.9-1.3,1.4c-0.3,0.5-0.6,1.1-0.9,1.7c-0.2,0.6-0.4,1.2-0.5,1.9
					c-0.1,0.6-0.2,1.2-0.3,1.8c-0.2-0.3-0.3-0.7-0.5-1.1c-0.1-0.4-0.2-0.9-0.3-1.3c0-0.5,0-0.9,0.1-1.4
					C220.4-140.5,220.5-140.9,220.8-141.3z"/>
			</g>
			<rect id="Rectangle_1_" x="189.1" y="-128.9" class="st2" width="333.8" height="357.9"/>
		</g>
	</g>
</g>
<g>
	<path class="st1" d="M266.4,68.4v-8.8c0-2.7,1.4-4.2,4-4.2s4,1.5,4,4.2v8.8c0,2.7-1.4,4.2-4,4.2S266.4,71.1,266.4,68.4z
		 M271.8,68.5v-9.2c0-1.2-0.5-1.7-1.4-1.7c-0.8,0-1.4,0.5-1.4,1.7v9.2c0,1.2,0.5,1.7,1.4,1.7C271.3,70.2,271.8,69.7,271.8,68.5z"/>
	<path class="st1" d="M281.3,68.4v-1.3h2.5v1.5c0,1.2,0.5,1.6,1.4,1.6c0.8,0,1.4-0.4,1.4-1.6v-3.8c0-1.2-0.5-1.7-1.4-1.7
		c-0.8,0-1.4,0.5-1.4,1.7v0.1h-2.5l0.5-9.4h7V58h-4.6l-0.2,4h0c0.5-0.8,1.2-1.2,2.3-1.2c1.9,0,2.9,1.4,2.9,3.8v3.8
		c0,2.7-1.3,4.2-3.9,4.2C282.7,72.6,281.3,71.1,281.3,68.4z"/>
	<path class="st1" d="M305.1,69.8h2.5v2.5h-2.5V69.8z"/>
	<path class="st1" d="M323.6,68.4v-8.8c0-2.7,1.4-4.2,4-4.2s4,1.5,4,4.2v8.8c0,2.7-1.4,4.2-4,4.2S323.6,71.1,323.6,68.4z M329,68.5
		v-9.2c0-1.2-0.5-1.7-1.4-1.7c-0.8,0-1.4,0.5-1.4,1.7v9.2c0,1.2,0.5,1.7,1.4,1.7C328.5,70.2,329,69.7,329,68.5z"/>
	<path class="st1" d="M338.4,68.5v-9c0-2.6,1.3-4.1,3.9-4.1c2.5,0,3.9,1.5,3.9,4.1v1.8h-2.5v-1.9c0-1.1-0.5-1.6-1.3-1.6
		s-1.3,0.5-1.3,1.6v9.4c0,1.1,0.5,1.5,1.3,1.5s1.3-0.4,1.3-1.5v-2.6h2.5v2.4c0,2.6-1.3,4.1-3.9,4.1
		C339.7,72.6,338.4,71.1,338.4,68.5z"/>
	<path class="st1" d="M355,58h-2.8v-2.4h8.2V58h-2.8v14.4H355V58z"/>
	<path class="st1" d="M375.8,69.8h2.5v2.5h-2.5V69.8z"/>
	<path class="st1" d="M394.4,70.5c0-2.4,0.7-3.9,2.6-5.9c2-2.1,2.6-3.4,2.6-5c0-1.5-0.5-1.9-1.4-1.9s-1.4,0.5-1.4,1.7v1.8h-2.5v-1.6
		c0-2.7,1.3-4.2,3.9-4.2c2.6,0,3.9,1.5,3.9,4.2c0,2-0.8,3.8-3.3,6.4c-1.6,1.7-2,2.5-2,3.7V70h5v2.4h-7.6V70.5z"/>
	<path class="st1" d="M409.1,68.4v-8.8c0-2.7,1.4-4.2,4-4.2c2.6,0,4,1.5,4,4.2v8.8c0,2.7-1.4,4.2-4,4.2
		C410.5,72.6,409.1,71.1,409.1,68.4z M414.4,68.5v-9.2c0-1.2-0.5-1.7-1.4-1.7c-0.8,0-1.4,0.5-1.4,1.7v9.2c0,1.2,0.5,1.7,1.4,1.7
		C413.9,70.2,414.4,69.7,414.4,68.5z"/>
	<path class="st1" d="M427.7,59.5h-2.8v-1.9c2.2,0,3-0.5,3.6-2.1h1.8v16.8h-2.6V59.5z"/>
	<path class="st1" d="M438.6,68.4v-0.3h2.5v0.5c0,1.2,0.5,1.7,1.4,1.7c0.9,0,1.5-0.5,1.5-2.1v-3.2h0c-0.5,1-1.2,1.5-2.4,1.5
		c-1.9,0-2.9-1.4-2.9-3.8v-3c0-2.7,1.4-4.2,4-4.2c2.6,0,4,1.5,4,4.2v8.7c0,2.8-1.3,4.4-4,4.4C439.9,72.6,438.6,71.1,438.6,68.4z
		 M443.9,62.3v-3c0-1.1-0.5-1.6-1.4-1.6s-1.4,0.5-1.4,1.6v3c0,1.1,0.5,1.7,1.4,1.7S443.9,63.5,443.9,62.3z"/>
</g>
<g>
	<path class="st1" d="M255.6,109.7l-0.3,0.8c-0.3,1-0.8,1.6-1.4,1.9c-1.2,0.6-2.8,0-2.3-1.8c0.1-0.2,0.6-2.3,0.6-2.5
		c0.3-1-1.1-1.3-2.2-1.2l-1.4,5.6h-1.3l2.5-9.4h1.2l-0.8,3c1.8,0.3,2.6-1.2,2.8-2c0.3-1.8-1.9-2.4-3.4-1.5c-1.3,0.8-1.4,2.7-1.3,3.6
		l-1.1-1.1c0.1-1,0.7-2.4,2-3c2.1-0.9,5.4-0.3,5.1,2c-0.2,1-0.8,1.9-2,2.2c0.8,0.3,1.3,1,1.1,1.8c-0.1,0.3,0,0.1-0.6,2.5
		c-0.2,0.9,0.4,1.2,0.9,1.1c0.4-0.1,0.9-0.6,1.1-1.3l0.2-0.7H255.6z"/>
	<path class="st1" d="M265.5,112.5c-1.9,0.2-2.8-1.4-2.3-2.7c0.5-1.1,1.7-0.6,1.5,0.3c-0.1,0.3-0.4,0.5-0.7,0.4
		c-0.2,0-0.3-0.2-0.4-0.3c-0.2,0.3,0.1,1.7,1.5,1.5c0.7-0.1,1.1-0.6,0.8-1.7c-0.4-1.5-0.6-2.5-0.6-3.3c-0.7,0.8-1.6,1.6-2.3,1.7
		c-0.2,2.2-1.6,4.6-3.6,4.1c-1.2-0.3-1.8-2.1-1.3-4.2c0.7-2.6,2.7-3.6,3.9-2.8c0.6,0.4,0.9,1.2,1,2.1c1,0,2.1-1.6,2.5-2.4h1.3
		c-0.4,1.7,0.1,3.1,0.5,4.8C267.8,111.4,266.8,112.4,265.5,112.5z M262.7,108.3c-0.1,0-0.2-0.1-0.4-0.2c-0.3-0.3-0.1-0.9,0.3-0.8
		c-0.1-0.5-0.4-1-0.8-1.1c-0.8-0.2-1.6,0.4-2.1,2c-0.5,1.6-0.2,3.1,0.8,3.3C261.7,111.9,262.6,109.9,262.7,108.3z"/>
	<path class="st1" d="M277.2,109.7h0.4c-1.2,4.9-7.2,3.6-5.8-1.7c1.2-4.7,5.5-3.4,4.4-0.7c-0.4,1-1.5,1.7-3.2,1.1
		C272.3,112.2,276.3,113,277.2,109.7L277.2,109.7z M275.7,107.2c0.7-1.6-1.7-2.4-2.6,0.8C274.5,108.5,275.4,107.9,275.7,107.2z"/>
	<path class="st1" d="M283.8,109.7l-0.3,0.8c-0.3,1-0.8,1.6-1.4,1.9c-1.2,0.6-2.8,0-2.3-1.8l2.3-9h1.2l-2.3,9
		c-0.2,0.9,0.4,1.2,0.9,1.1c0.5-0.1,0.9-0.6,1.1-1.3l0.2-0.7H283.8z"/>
	<path class="st1" d="M293.5,109.7l-0.3,0.8c-0.4,1.4-1.7,2-3,2.5l-0.4,1.3c-0.5,2.2-3.3,1.9-2.7,0c0.2-0.6,0.9-1,1.8-1.4l0.4-1.4
		c-0.3,0.4-0.7,0.7-1.1,0.9c-1.2,0.6-2.7-0.1-2.3-1.9l1.4-5.4h1.3l-1.4,5.6c-0.2,0.9,0.4,1.1,0.9,1c0.8-0.2,1.4-1.1,1.6-1.9l1.2-4.7
		h1.3l-1.9,7.3c1.1-0.4,2.1-1,2.3-1.9l0.2-0.7H293.5z M288.9,113.6c-0.5,0.2-0.9,0.5-1,0.8c-0.3,0.7,0.4,1.4,0.7,0.4L288.9,113.6z"
		/>
	<path class="st1" d="M303.8,109.7l-0.3,0.8c-0.3,1-0.8,1.6-1.4,1.9c-1.2,0.6-2.8,0-2.3-1.8c0.2-0.8,0.3-1.2,0.4-1.5
		c0.3-1.3,0.5-3-0.8-2.9c-1,0.1-1.7,1.3-2,2.5l-1,3.7h-1.3l1.9-7.4h1.3l-0.3,1.1c0.5-0.6,1-1,1.7-1.1c1.1-0.2,2.5,0.7,1.7,4.2
		c-0.1,0.5-0.3,1.2-0.3,1.4c-0.2,0.9,0.4,1.2,0.9,1.1c0.5-0.1,0.9-0.6,1.1-1.3l0.2-0.7H303.8z"/>
	<path class="st1" d="M321.7,107.2c-0.1,0.2-0.3,0.4-0.6,0.6c-0.2,0.1-0.5,0.2-0.8,0.2c0.2,1.9-1,4.6-3.3,4.6
		c-1.7,0-3.2-1.7-2.9-3.9c0.4-2.5,2-2.4,2.2-2.4c-1.4-1.1-0.9-3.7,1-4.3c1.5-0.5,3.3,0.2,3.1,2.7l-1.4,0.4c0.4-0.6,0.5-2.8-1.2-2.5
		c-0.9,0.2-1.7,1.4-1.2,2.8c0.2,0.6,0.6,1,1.2,1.1c-1.4,0-2.2,1.1-2.4,2.4c-0.3,1.7,0.6,2.9,1.7,2.9c1.8,0,2.9-2.3,2.7-3.7
		c-0.3,0-0.7,0.1-0.9,0.2c-0.3,0.1-0.4,0.3-0.4,0.6v0.2l-0.4-0.3c-0.2-0.6,0-1,0.5-1.2c0.4-0.2,0.8-0.2,1.2-0.2
		c0.3,0,0.8-0.1,1.1-0.2c0.4-0.2,0.4-0.3,0.3-0.4l0,0l0.2-0.3l0.1,0.1C321.7,106.7,321.7,107,321.7,107.2z"/>
	<path class="st1" d="M333.7,112.5h-1.3l2.5-9.8c-0.4,0-0.9,0.2-1.2,0.6c-0.6,0.8-0.7,2.2-0.6,2.9l-1.1-1.1c0-0.6,0.5-1.7,1.1-2.3
		c1.8-2,4.8-0.4,6.5-1.2l-0.2,0.7c-0.2,0.5-0.7,0.9-1.2,0.9c-0.7,0-1.4-0.2-2-0.4l-0.8,3.2h1.9l-0.2,0.6h-1.9L333.7,112.5z"/>
	<path class="st1" d="M347.5,109.7l-0.3,0.8c-0.3,1-0.8,1.6-1.4,1.9c-1.2,0.6-2.8,0-2.3-1.8c0.1-0.3,0.4-1.5,0.7-2.7
		c0.2-0.8,0.4-1.4-1.1-1.8c-0.5-0.1-0.9-0.2-0.9-0.2l-1.1,3.9h-0.5l1.2-4.1c-0.3-0.2-0.4-0.5-0.3-0.8c0.2-0.6,1.1-0.5,1.1,0.3
		c0,0,0,0,1.6,0.4c1.6,0.4,1.6,1.3,1.4,2.3l-0.7,2.8c-0.2,0.9,0.4,1.2,0.9,1.1c0.5-0.1,0.9-0.6,1.1-1.3l0.2-0.7H347.5z"/>
	<path class="st1" d="M357.7,109.7l-0.3,0.8c-0.3,1-0.8,1.6-1.4,1.9c-1.1,0.5-2.4,0.1-2.4-1.3c-0.7,0.9-1.6,1.5-2.4,1.2
		c-1.2-0.4-1.7-2.2-1-4.3c0.9-2.6,2.9-3.4,4.1-2.6c0.3,0.2,0.4,0.5,0.6,0.8l0.3-1.2h1.3l-1.4,5.6c-0.2,0.9,0.4,1.2,0.9,1.1
		c0.4-0.1,0.9-0.6,1.1-1.3l0.2-0.7H357.7z M354.1,109.2l0.2-0.8c0.2-0.9,0.1-1.7-0.5-2c-0.6-0.4-1.8,0.3-2.4,1.8
		c-0.5,1.6-0.4,3.2,0.4,3.4C352.7,111.9,353.7,110.6,354.1,109.2z"/>
	<path class="st1" d="M368.1,109.7l-0.3,0.8c-0.3,1-0.8,1.6-1.4,1.9c-1.2,0.6-2.8,0-2.3-1.8c0.2-0.8,0.3-1.2,0.4-1.5
		c0.3-1.3,0.5-3-0.8-2.9c-1,0.1-1.7,1.3-2,2.5l-1,3.7h-1.3l1.9-7.4h1.3l-0.3,1.1c0.5-0.6,1-1,1.7-1.1c1.1-0.2,2.5,0.7,1.7,4.2
		c-0.1,0.5-0.3,1.2-0.3,1.4c-0.2,0.9,0.4,1.2,0.9,1.1c0.5-0.1,0.9-0.6,1.1-1.3l0.2-0.7H368.1z"/>
	<path class="st1" d="M376.7,109.7c-0.4,1.7-1.7,3.1-3.5,3c-1.9,0-3.5-2-2.3-5c1.5-3.9,4.8-3.1,4.7-1.1l-0.5,0.1
		c0-1.3-1.8-1.4-2.9,1.2c-1,2.4,0.3,3.9,1.6,3.9c1.3,0,2-1,2.4-2.1H376.7z"/>
	<path class="st1" d="M382.8,109.7c-0.3,1-0.6,2.3-1.7,2.8c-1.2,0.6-2.8,0-2.3-1.8l1.4-5.5h1.3l-1.4,5.6c-0.2,0.9,0.4,1.2,0.9,1.1
		c0.9-0.2,1.1-1.3,1.3-2.1H382.8z M380.4,103.2c0.1-0.4,0.4-0.6,0.9-0.6h0c0.6,0,1,0.5,0.9,1.1c-0.1,0.4-0.5,0.7-0.9,0.7h0
		C380.7,104.3,380.2,103.8,380.4,103.2z"/>
	<path class="st1" d="M390.9,109.8c-0.2,0.3-0.5,0.5-0.8,0.6c-0.2,0.1-0.4,0.1-0.6,0.1c-0.1,1.1-1,1.8-2,2c-2,0.2-2.8-1.4-2.3-2.7
		c0.1-0.3,0.3-0.4,0.5-0.5c0.7-0.9,1.6-2.6,1.9-4.2h1.3c-0.4,1.7,0.1,3,0.5,4.6c0.2,0.1,0.3,0.3,0.6,0.2c0.3-0.1,0.5-0.3,0.7-0.4
		C390.8,109.6,390.8,109.6,390.9,109.8z M388.1,110c-0.2-0.9-0.4-1.8-0.5-3c-0.4,0.9-0.8,1.7-1.2,2.3c0.2,0.1,0.4,0.2,0.4,0.5
		c0.2,0.6-0.7,1.2-1,0.5c-0.2,0.3,0.1,1.6,1.5,1.4C388,111.6,388.4,111,388.1,110z"/>
	<path class="st1" d="M403.8,114.6c-0.6-0.3-1.3-0.9-1.9-1.2c-0.6-0.3-1.5-0.5-2.1-0.4l2.7-10.3c-0.4,0-0.9,0.2-1.2,0.6
		c-0.6,0.8-0.7,2.2-0.6,2.9l-1.1-1.1c0-0.6,0.5-1.7,1-2.3c0.9-1,2.1-1.1,3.3-1l-1.1,4.3l-0.2,0.6l-1.5,5.8c0.3-0.1,0.7,0,1,0
		c0.6,0.1,1.1,0.5,1.7,0.8c1,0.5,2,0.4,3.2-0.1C407.1,113.2,406,115.7,403.8,114.6z"/>
	<path class="st1" d="M412.6,109.7h0.4c-1.2,4.9-7.2,3.6-5.8-1.7c1.2-4.7,5.5-3.4,4.4-0.7c-0.4,1-1.5,1.7-3.2,1.1
		C407.7,112.2,411.7,113,412.6,109.7L412.6,109.7z M411.1,107.2c0.7-1.6-1.7-2.4-2.6,0.8C409.9,108.5,410.8,107.9,411.1,107.2z"/>
	<path class="st1" d="M421.9,109.7c-0.4,0.5-1.3,0.9-2,0.9c-0.6,1.3-1.7,2.2-3,1.9c-1.2-0.3-1.8-2.1-1.3-4.2
		c0.7-2.6,2.7-3.6,3.9-2.8c1.1,0.7,1.2,2.7,0.7,4.4c0.4,0.2,1.1-0.1,1.4-0.5C421.7,109.5,421.8,109.5,421.9,109.7z M419.5,110.4
		c-0.1,0-0.1-0.1-0.2-0.2c-0.2-0.4,0.2-0.9,0.5-0.7c0.4-1.4,0.3-3-0.6-3.2c-0.8-0.2-1.6,0.4-2.1,2c-0.5,1.6-0.2,3.1,0.8,3.3
		C418.6,111.8,419.1,111.2,419.5,110.4z"/>
	<path class="st1" d="M432.4,109.7l-0.3,0.8c-0.3,1-0.8,1.6-1.4,1.9c-1.2,0.6-2.8,0-2.3-1.8c0.2-0.8,0.3-1.2,0.4-1.5
		c0.3-1.3,0.5-3-0.8-2.9c-1,0.1-1.7,1.3-2,2.5l-1,3.7h-1.3l1.9-7.4h1.3l-0.3,1.1c0.5-0.6,1-1,1.7-1.1c1.1-0.2,2.5,0.7,1.7,4.2
		c-0.1,0.5-0.3,1.2-0.3,1.4c-0.2,0.9,0.4,1.2,0.9,1.1c0.5-0.1,0.9-0.6,1.1-1.3l0.2-0.7H432.4z"/>
	<path class="st1" d="M442.7,109.7l-0.3,0.8c-0.3,1-0.8,1.6-1.4,1.9c-1.1,0.5-2.4,0.1-2.4-1.3c-0.7,0.9-1.6,1.5-2.4,1.2
		c-1.2-0.4-1.7-2.2-1-4.3c0.9-2.6,2.9-3.4,4.1-2.6c0.3,0.2,0.4,0.5,0.6,0.8l0.3-1.2h1.3l-1.4,5.6c-0.2,0.9,0.4,1.2,0.9,1.1
		c0.4-0.1,0.9-0.6,1.1-1.3l0.2-0.7H442.7z M439,109.2l0.2-0.8c0.2-0.9,0.1-1.7-0.5-2c-0.6-0.4-1.8,0.3-2.4,1.8
		c-0.5,1.6-0.4,3.2,0.4,3.4C437.6,111.9,438.6,110.6,439,109.2z"/>
	<path class="st1" d="M452.1,109.7l-0.3,0.8c-0.3,1-0.8,1.6-1.4,1.9c-1.2,0.6-2.8,0-2.3-1.8c0.1-0.3,0.4-1.5,0.7-2.7
		c0.2-0.8,0.4-1.4-1.1-1.8c-0.5-0.1-0.9-0.2-0.9-0.2l-1.1,3.9h-0.5l1.2-4.1c-0.3-0.2-0.4-0.5-0.3-0.8c0.2-0.6,1.1-0.5,1.1,0.3
		c0,0,0,0,1.6,0.4c1.6,0.4,1.6,1.3,1.4,2.3l-0.7,2.8c-0.2,0.9,0.4,1.2,0.9,1.1c0.5-0.1,0.9-0.6,1.1-1.3l0.2-0.7H452.1z"/>
	<path class="st1" d="M462.2,109.7l-0.3,0.8c-0.3,1-0.8,1.6-1.4,1.9c-1.1,0.5-2.4,0.1-2.4-1.2c-0.6,0.9-1.4,1.4-2.2,1.2
		c-1.5-0.4-1.7-2.2-1.3-4c0.4-1.7,1.5-3.3,2.9-3.4c1.1-0.1,1.6,0.6,1.8,1.5l1.3-4.9h1.2l-2.3,9c-0.2,0.9,0.4,1.2,0.9,1.1
		c0.4-0.1,0.9-0.6,1.1-1.3l0.2-0.7H462.2z M457.6,106.2c-0.8,0.1-1.4,1.1-1.7,2.3c-0.3,1.4-0.2,2.9,0.7,3.1
		C458.2,112,460,105.8,457.6,106.2z"/>
	<path class="st1" d="M280.3,127.8l-2.7,10.6h-1.3l2.5-9.8c-0.4,0-0.9,0.2-1.2,0.6c-0.6,0.8-0.7,2.2-0.6,2.9l-1.1-1.1
		c0-0.6,0.5-1.7,1.1-2.3C278,127.9,279.2,127.8,280.3,127.8z"/>
	<path class="st1" d="M290.8,135.7l-0.3,0.8c-0.3,1-0.8,1.6-1.4,1.9c-1.2,0.6-2.8,0-2.3-1.8c0.2-0.8,0.3-1.2,0.4-1.5
		c0.3-1.3,0.5-3-0.8-2.9c-1,0.1-1.7,1.3-2,2.5l-1,3.7h-1.3l1.9-7.4h1.3l-0.3,1.1c0.5-0.6,1-1,1.7-1.1c1.1-0.2,2.5,0.7,1.7,4.2
		c-0.1,0.5-0.3,1.2-0.3,1.4c-0.2,0.9,0.4,1.2,0.9,1.1c0.5-0.1,0.9-0.6,1.1-1.3l0.2-0.7H290.8z"/>
	<path class="st1" d="M300.9,135.7l-0.3,0.8c-0.4,1.4-1.7,2-3,2.5l-0.3,1.3c-0.5,2.2-3.3,1.9-2.7,0c0.2-0.7,0.9-1.1,1.8-1.4l0.4-1.4
		c-0.6,0.7-1.3,1.1-2,0.9c-1.4-0.4-1.7-2.2-1.3-4c0.4-1.7,1.5-3.3,2.9-3.4c1,0,1.6,0.5,1.8,1.4l0.4-1.3h1.3l-1.9,7.3
		c1.1-0.4,2.1-1,2.3-1.9l0.2-0.7H300.9z M296.4,132.2c-0.8,0.1-1.4,1.1-1.7,2.3c-0.3,1.4-0.2,2.9,0.7,3.1
		C297,138,298.9,131.8,296.4,132.2z M296.2,139.6c-0.5,0.2-0.9,0.5-1,0.8c-0.3,0.7,0.4,1.4,0.7,0.4L296.2,139.6z"/>
	<path class="st1" d="M308.9,135.7h0.4c-1.2,4.9-7.2,3.6-5.8-1.7c1.2-4.7,5.5-3.4,4.4-0.7c-0.4,1-1.5,1.7-3.2,1.1
		C304,138.2,308,139,308.9,135.7L308.9,135.7z M307.4,133.2c0.7-1.6-1.7-2.4-2.6,0.8C306.2,134.5,307.1,133.9,307.4,133.2z"/>
	<path class="st1" d="M327.2,133.2c-0.1,0.2-0.3,0.4-0.6,0.6c-0.2,0.1-0.5,0.2-0.8,0.2c0.2,1.9-1,4.6-3.3,4.6
		c-1.7,0-3.2-1.7-2.9-3.9c0.4-2.5,2-2.4,2.2-2.4c-1.4-1.1-0.9-3.7,1-4.3c1.5-0.5,3.3,0.2,3.1,2.7l-1.4,0.4c0.4-0.6,0.5-2.8-1.2-2.5
		c-0.9,0.2-1.7,1.4-1.2,2.8c0.2,0.6,0.6,1,1.2,1.1c-1.4,0-2.2,1.1-2.4,2.4c-0.3,1.7,0.6,2.9,1.7,2.9c1.8,0,2.9-2.3,2.7-3.7
		c-0.3,0-0.7,0.1-0.9,0.2c-0.3,0.1-0.4,0.3-0.4,0.6v0.2l-0.4-0.3c-0.2-0.6,0-1,0.5-1.2c0.4-0.2,0.8-0.2,1.2-0.2
		c0.3,0,0.8-0.1,1.1-0.2c0.4-0.2,0.4-0.3,0.3-0.4l0,0l0.2-0.3l0.1,0.1C327.2,132.7,327.3,133,327.2,133.2z"/>
	<path class="st1" d="M346.5,127.9l-2.7,10.6h-1.3l0.8-3c-0.3-0.8-1.4-2-2.5-2.7c-1.1,2.4-1.6,5.3-1.9,7.8l-1.3-1.4
		c0.4-2.3,1.1-4.9,2.3-6.9c-0.3-0.1-0.6-0.2-0.9-0.3l-0.5-1.4c0.6,0.1,1.2,0.4,1.9,0.9C341.9,129.2,343.9,127.7,346.5,127.9z
		 M345.1,128.5c-1.7,0.5-2.9,1.8-3.9,3.5c0.9,0.8,1.8,1.7,2.3,2.6L345.1,128.5z"/>
	<path class="st1" d="M357,135.7l-0.3,0.8c-0.3,1-0.8,1.6-1.4,1.9c-1.2,0.6-2.8,0-2.3-1.8c0.2-0.8,0.3-1.2,0.4-1.5
		c0.3-1.3,0.5-3-0.8-2.9c-1,0.1-1.7,1.3-2,2.5l-1,3.7h-1.3l1.9-7.4h1.3l-0.3,1.1c0.5-0.6,1-1,1.7-1.1c1.1-0.2,2.5,0.7,1.7,4.2
		c-0.1,0.5-0.3,1.2-0.3,1.4c-0.2,0.9,0.4,1.2,0.9,1.1c0.5-0.1,0.9-0.6,1.1-1.3l0.2-0.7H357z"/>
	<path class="st1" d="M367.2,135.7l-0.3,0.8c-0.3,1-0.8,1.6-1.4,1.9c-1.1,0.5-2.4,0.1-2.4-1.2c-0.6,0.9-1.4,1.4-2.2,1.2
		c-1.5-0.4-1.7-2.2-1.3-4c0.4-1.7,1.5-3.3,2.9-3.4c1.1-0.1,1.6,0.6,1.8,1.5l1.3-4.9h1.2l-2.3,9c-0.2,0.9,0.4,1.2,0.9,1.1
		c0.4-0.1,0.9-0.6,1.1-1.3l0.2-0.7H367.2z M362.6,132.2c-0.8,0.1-1.4,1.1-1.7,2.3c-0.3,1.4-0.2,2.9,0.7,3.1
		C363.2,138,365,131.8,362.6,132.2z"/>
	<path class="st1" d="M376.6,135.7l-0.3,0.8c-0.3,1-0.8,1.6-1.4,1.9c-1.2,0.6-2.8,0-2.3-1.8c0.1-0.3,0.4-1.5,0.7-2.7
		c0.2-0.8,0.4-1.4-1.1-1.8c-0.5-0.1-0.9-0.2-0.9-0.2l-1.1,3.9h-0.5l1.2-4.1c-0.3-0.2-0.4-0.5-0.3-0.8c0.2-0.6,1.1-0.5,1.1,0.3
		c0,0,0,0,1.6,0.4c1.6,0.4,1.6,1.3,1.4,2.3l-0.7,2.8c-0.2,0.9,0.4,1.2,0.9,1.1c0.5-0.1,0.9-0.6,1.1-1.3l0.2-0.7H376.6z"/>
	<path class="st1" d="M384.6,135.7h0.4c-1.2,4.9-7.2,3.6-5.8-1.7c1.2-4.7,5.5-3.4,4.4-0.7c-0.4,1-1.5,1.7-3.2,1.1
		C379.7,138.2,383.7,139,384.6,135.7L384.6,135.7z M383.1,133.2c0.7-1.6-1.7-2.4-2.6,0.8C381.9,134.5,382.8,133.9,383.1,133.2z"/>
	<path class="st1" d="M400.4,134.8c-1.5,6.4-8.3,4.2-6.6-2.3c0.4-1.7,1.4-3.6,2.9-4.4c1.8-1,3.7-0.1,3.7,1.9l-1.3,1
		c0.5-0.7,0.5-3.4-1.7-2c-0.7,0.4-1.8,1.7-2.3,3.6c-1.4,5.4,3.5,7,4.7,2.2L400.4,134.8z"/>
	<path class="st1" d="M406.4,135.7l-0.3,0.8c-0.3,1-0.8,1.6-1.4,1.9c-1.2,0.6-2.8,0-2.3-1.8l2.3-9h1.2l-2.3,9
		c-0.2,0.9,0.4,1.2,0.9,1.1c0.5-0.1,0.9-0.6,1.1-1.3l0.2-0.7H406.4z"/>
	<path class="st1" d="M416.7,135.7l-0.3,0.8c-0.3,1-0.8,1.6-1.4,1.9c-1.1,0.5-2.4,0.1-2.4-1.3c-0.7,0.9-1.6,1.5-2.4,1.2
		c-1.2-0.4-1.7-2.2-1-4.3c0.9-2.6,2.9-3.4,4.1-2.6c0.3,0.2,0.4,0.5,0.6,0.8l0.3-1.2h1.3l-1.4,5.6c-0.2,0.9,0.4,1.2,0.9,1.1
		c0.4-0.1,0.9-0.6,1.1-1.3l0.2-0.7H416.7z M413.1,135.2l0.2-0.8c0.2-0.9,0.1-1.7-0.5-2c-0.6-0.4-1.8,0.3-2.4,1.8
		c-0.5,1.6-0.4,3.2,0.4,3.4C411.7,137.9,412.6,136.6,413.1,135.2z"/>
	<path class="st1" d="M424.7,135.7h0.4c-1.2,4.9-7.2,3.6-5.8-1.7c1.2-4.7,5.5-3.4,4.4-0.7c-0.4,1-1.5,1.7-3.2,1.1
		C419.9,138.2,423.8,139,424.7,135.7L424.7,135.7z M423.2,133.2c0.7-1.6-1.7-2.4-2.6,0.8C422,134.5,422.9,133.9,423.2,133.2z"/>
	<path class="st1" d="M433.3,135.8c-0.2,0.3-0.5,0.5-0.8,0.6c-0.2,0.1-0.4,0.1-0.6,0.1c-0.1,1.1-1,1.8-2,2c-2,0.2-2.8-1.4-2.3-2.7
		c0.1-0.3,0.3-0.4,0.5-0.5c0.7-0.9,1.6-2.6,1.9-4.2h1.3c-0.4,1.7,0.1,3,0.5,4.6c0.2,0.1,0.3,0.3,0.6,0.2c0.3-0.1,0.5-0.3,0.7-0.4
		C433.2,135.6,433.2,135.6,433.3,135.8z M430.4,136c-0.2-0.9-0.4-1.8-0.5-3c-0.4,0.9-0.8,1.7-1.2,2.3c0.2,0.1,0.4,0.2,0.4,0.5
		c0.2,0.6-0.7,1.2-1,0.5c-0.2,0.3,0.1,1.6,1.5,1.4C430.3,137.6,430.7,137,430.4,136z"/>
	<path class="st1" d="M202.7,161.7l-0.3,0.8c-0.3,1-0.8,1.6-1.4,1.9c-1.1,0.5-2.4,0.1-2.4-1.3c-0.7,0.9-1.6,1.5-2.4,1.2
		c-1.2-0.4-1.7-2.2-1-4.3c0.9-2.6,2.9-3.4,4.1-2.6c0.3,0.2,0.4,0.5,0.6,0.8l0.3-1.2h1.3l-1.4,5.6c-0.2,0.9,0.4,1.2,0.9,1.1
		c0.4-0.1,0.9-0.6,1.1-1.3l0.2-0.7H202.7z M199.1,161.2l0.2-0.8c0.2-0.9,0.1-1.7-0.5-2c-0.6-0.4-1.8,0.3-2.4,1.8
		c-0.5,1.6-0.4,3.2,0.4,3.4C197.7,163.9,198.7,162.6,199.1,161.2z"/>
	<path class="st1" d="M212.1,161.7l-0.3,0.8c-0.3,1-0.8,1.6-1.4,1.9c-1.2,0.6-2.8,0-2.3-1.8c0.1-0.3,0.4-1.5,0.7-2.7
		c0.2-0.8,0.4-1.4-1.1-1.8c-0.5-0.1-0.9-0.2-0.9-0.2l-1.1,3.9h-0.5l1.2-4.1c-0.3-0.2-0.4-0.5-0.3-0.8c0.2-0.6,1.1-0.5,1.1,0.3
		c0,0,0,0,1.6,0.4c1.6,0.4,1.6,1.3,1.4,2.3l-0.7,2.8c-0.2,0.9,0.4,1.2,0.9,1.1c0.5-0.1,0.9-0.6,1.1-1.3l0.2-0.7H212.1z"/>
	<path class="st1" d="M220.1,161.7h0.4c-1.2,4.9-7.2,3.6-5.8-1.7c1.2-4.7,5.5-3.4,4.4-0.7c-0.4,1-1.5,1.7-3.2,1.1
		C215.2,164.2,219.2,165,220.1,161.7L220.1,161.7z M218.6,159.2c0.7-1.6-1.7-2.4-2.6,0.8C217.4,160.5,218.3,159.9,218.6,159.2z"/>
	<path class="st1" d="M236.8,161.7l-0.3,0.8c-0.3,1-0.8,1.6-1.4,1.9c-1.1,0.5-2.4,0.1-2.4-1.2c-0.6,0.9-1.4,1.4-2.2,1.2
		c-1.5-0.4-1.7-2.2-1.3-4c0.4-1.7,1.5-3.3,2.9-3.4c1.1-0.1,1.6,0.6,1.8,1.5l1.3-4.9h1.2l-2.3,9c-0.2,0.9,0.4,1.2,0.9,1.1
		c0.4-0.1,0.9-0.6,1.1-1.3l0.2-0.7H236.8z M232.2,158.2c-0.8,0.1-1.4,1.1-1.7,2.3c-0.3,1.4-0.2,2.9,0.7,3.1
		C232.8,164,234.6,157.8,232.2,158.2z"/>
	<path class="st1" d="M244.9,161.7h0.4c-1.2,4.9-7.2,3.6-5.8-1.7c1.2-4.7,5.5-3.4,4.4-0.7c-0.4,1-1.5,1.7-3.2,1.1
		C240,164.2,243.9,165,244.9,161.7L244.9,161.7z M243.4,159.2c0.7-1.6-1.7-2.4-2.6,0.8C242.1,160.5,243.1,159.9,243.4,159.2z"/>
	<path class="st1" d="M251.5,161.7l-0.3,0.8c-0.3,1-0.8,1.6-1.4,1.9c-1.2,0.6-2.8,0-2.3-1.8l2.3-9h1.2l-2.3,9
		c-0.2,0.9,0.4,1.2,0.9,1.1c0.5-0.1,0.9-0.6,1.1-1.3l0.2-0.7H251.5z"/>
	<path class="st1" d="M257.7,161.7c-0.3,1-0.6,2.3-1.7,2.8c-1.2,0.6-2.8,0-2.3-1.8l1.4-5.5h1.3l-1.4,5.6c-0.2,0.9,0.4,1.2,0.9,1.1
		c0.9-0.2,1.1-1.3,1.3-2.1H257.7z M255.3,155.2c0.1-0.4,0.4-0.6,0.9-0.6h0c0.6,0,1,0.5,0.9,1.1c-0.1,0.4-0.5,0.7-0.9,0.7h0
		C255.5,156.3,255.1,155.8,255.3,155.2z"/>
	<path class="st1" d="M267.7,161.7l-0.3,0.8c-0.4,1.4-1.7,2-3,2.5l-0.3,1.3c-0.5,2.2-3.3,1.9-2.7,0c0.2-0.7,0.9-1.1,1.8-1.4l0.4-1.4
		c-0.6,0.7-1.3,1.1-2,0.9c-1.4-0.4-1.7-2.2-1.3-4c0.4-1.7,1.5-3.3,2.9-3.4c1,0,1.6,0.5,1.8,1.4l0.4-1.3h1.3l-1.9,7.3
		c1.1-0.4,2.1-1,2.3-1.9l0.2-0.7H267.7z M263.3,158.2c-0.8,0.1-1.4,1.1-1.7,2.3c-0.3,1.4-0.2,2.9,0.7,3.1
		C263.9,164,265.7,157.8,263.3,158.2z M263.1,165.6c-0.5,0.2-0.9,0.5-1,0.8c-0.3,0.7,0.4,1.4,0.7,0.4L263.1,165.6z"/>
	<path class="st1" d="M278.1,161.7l-0.3,0.8c-0.3,1-0.8,1.6-1.4,1.9c-1.2,0.6-2.8,0-2.3-1.8c0.2-0.8,0.3-1.2,0.4-1.5
		c0.3-1.3,0.5-3-0.8-2.9c-1,0.1-1.7,1.3-2,2.5l-1,3.7h-1.3l2.8-10.8h1.3l-1.2,4.5c0.5-0.6,1-1,1.7-1.1c1.1-0.2,2.5,0.7,1.7,4.2
		c-0.1,0.5-0.3,1.2-0.3,1.4c-0.2,0.9,0.4,1.2,0.9,1.1c0.5-0.1,0.9-0.6,1.1-1.3l0.2-0.7H278.1z"/>
	<path class="st1" d="M284.3,161.7l-0.3,0.8c-0.3,1-0.8,1.6-1.4,1.9c-1.2,0.6-2.8,0-2.3-1.8l1.2-4.7l-0.4,0l0.1-0.4h0.4l0.5-1.8h1.2
		l-0.4,1.8h0.7l-0.1,0.4l-0.7,0l-1.2,4.7c-0.2,0.9,0.4,1.2,0.9,1.1c0.5-0.1,0.9-0.6,1.1-1.3l0.2-0.7H284.3z"/>
	<path class="st1" d="M292.3,161.7h0.4c-1.2,4.9-7.2,3.6-5.8-1.7c1.2-4.7,5.5-3.4,4.4-0.7c-0.4,1-1.5,1.7-3.2,1.1
		C287.4,164.2,291.4,165,292.3,161.7L292.3,161.7z M290.8,159.2c0.7-1.6-1.7-2.4-2.6,0.8C289.6,160.5,290.5,159.9,290.8,159.2z"/>
	<path class="st1" d="M303,161.7l-0.3,0.8c-0.3,1-0.8,1.6-1.4,1.9c-1.1,0.5-2.4,0.1-2.4-1.2c-0.6,0.9-1.4,1.4-2.2,1.2
		c-1.5-0.4-1.7-2.2-1.3-4c0.4-1.7,1.5-3.3,2.9-3.4c1.1-0.1,1.6,0.6,1.8,1.5l1.3-4.9h1.2l-2.3,9c-0.2,0.9,0.4,1.2,0.9,1.1
		c0.4-0.1,0.9-0.6,1.1-1.3l0.2-0.7H303z M298.3,158.2c-0.8,0.1-1.4,1.1-1.7,2.3c-0.3,1.4-0.2,2.9,0.7,3.1
		C298.9,164,300.7,157.8,298.3,158.2z"/>
	<path class="st1" d="M315.2,161.7l-0.3,0.8c-0.3,1-0.8,1.6-1.4,1.9c-1.2,0.6-2.8,0-2.3-1.8l1.2-4.7l-0.4,0l0.1-0.4h0.4l0.5-1.8h1.2
		l-0.4,1.8h0.7l-0.1,0.4l-0.7,0l-1.2,4.7c-0.2,0.9,0.4,1.2,0.9,1.1c0.5-0.1,0.9-0.6,1.1-1.3l0.2-0.7H315.2z"/>
	<path class="st1" d="M324.1,161.7c-0.4,0.5-1.3,0.9-2,0.9c-0.6,1.3-1.7,2.2-3,1.9c-1.2-0.3-1.8-2.1-1.3-4.2
		c0.7-2.6,2.7-3.6,3.9-2.8c1.1,0.7,1.2,2.7,0.7,4.4c0.4,0.2,1.1-0.1,1.4-0.5C323.9,161.5,324,161.5,324.1,161.7z M321.7,162.4
		c-0.1,0-0.1-0.1-0.2-0.2c-0.2-0.4,0.2-0.9,0.5-0.7c0.4-1.4,0.3-3-0.6-3.2c-0.8-0.2-1.6,0.4-2.1,2c-0.5,1.6-0.2,3.1,0.8,3.3
		C320.7,163.8,321.3,163.2,321.7,162.4z"/>
	<path class="st1" d="M336.5,161.7c-0.3,1-0.6,2.3-1.7,2.8c-1.2,0.6-2.8,0-2.3-1.8l1.4-5.5h1.3l-1.4,5.6c-0.2,0.9,0.4,1.2,0.9,1.1
		c0.9-0.2,1.1-1.3,1.3-2.1H336.5z M334.1,155.2c0.1-0.4,0.4-0.6,0.9-0.6h0c0.6,0,1,0.5,0.9,1.1c-0.1,0.4-0.5,0.7-0.9,0.7h0
		C334.3,156.3,333.9,155.8,334.1,155.2z"/>
	<path class="st1" d="M346.8,161.7l-0.3,0.8c-0.3,1-0.8,1.6-1.4,1.9c-1.2,0.6-2.8,0-2.3-1.8c0.2-0.8,0.3-1.2,0.4-1.5
		c0.3-1.3,0.5-3-0.8-2.9c-1,0.1-1.7,1.3-2,2.5l-1,3.7h-1.3l1.9-7.4h1.3l-0.3,1.1c0.5-0.6,1-1,1.7-1.1c1.1-0.2,2.5,0.7,1.7,4.2
		c-0.1,0.5-0.3,1.2-0.3,1.4c-0.2,0.9,0.4,1.2,0.9,1.1c0.5-0.1,0.9-0.6,1.1-1.3l0.2-0.7H346.8z"/>
	<path class="st1" d="M351.3,164.4c-1.2,0.6-2.8-0.1-2.3-1.9l1.4-5.4h1.3l-1.4,5.6c-0.2,0.9,0.4,1.1,0.9,1c1.8-0.4,3.7-5.5,2.4-5.5
		c-0.2,0-0.7-0.4-0.3-1.1c0.2-0.3,0.6-0.4,0.9-0.2C355.3,157.5,354.1,163,351.3,164.4z"/>
	<path class="st1" d="M362.2,161.7c-0.3,1-0.6,2.3-1.7,2.8c-1.2,0.6-2.8,0-2.3-1.8l1.4-5.5h1.3l-1.4,5.6c-0.2,0.9,0.4,1.2,0.9,1.1
		c0.9-0.2,1.1-1.3,1.3-2.1H362.2z M359.7,155.2c0.1-0.4,0.4-0.6,0.9-0.6h0c0.6,0,1,0.5,0.9,1.1c-0.1,0.4-0.5,0.7-0.9,0.7h0
		C360,156.3,359.6,155.8,359.7,155.2z"/>
	<path class="st1" d="M368.4,161.7l-0.3,0.8c-0.3,1-0.8,1.6-1.4,1.9c-1.2,0.6-2.8,0-2.3-1.8l1.2-4.7l-0.4,0l0.1-0.4h0.4l0.5-1.8h1.2
		l-0.4,1.8h0.7l-0.1,0.4l-0.7,0l-1.2,4.7c-0.2,0.9,0.4,1.2,0.9,1.1c0.5-0.1,0.9-0.6,1.1-1.3l0.2-0.7H368.4z"/>
	<path class="st1" d="M376.4,161.7h0.4c-1.2,4.9-7.2,3.6-5.8-1.7c1.2-4.7,5.5-3.4,4.4-0.7c-0.4,1-1.5,1.7-3.2,1.1
		C371.5,164.2,375.5,165,376.4,161.7L376.4,161.7z M374.9,159.2c0.7-1.6-1.7-2.4-2.6,0.8C373.6,160.5,374.6,159.9,374.9,159.2z"/>
	<path class="st1" d="M392.6,161.7l-0.3,0.8c-0.4,1.4-1.7,2-3,2.5l-0.3,1.3c-0.5,2.2-3.3,1.9-2.7,0c0.2-0.6,0.9-1.1,1.8-1.4l0.4-1.4
		c-0.3,0.4-0.7,0.7-1.1,0.9c-1.2,0.6-2.7-0.1-2.3-1.9l1.4-5.4h1.3l-1.4,5.6c-0.2,0.9,0.4,1.1,0.9,1c0.8-0.2,1.4-1.1,1.6-1.9l1.2-4.7
		h1.3l-1.9,7.3c1.1-0.4,2.1-1,2.3-1.9l0.2-0.7H392.6z M387.9,165.6c-0.5,0.2-0.9,0.5-1,0.8c-0.3,0.7,0.4,1.4,0.7,0.4L387.9,165.6z"
		/>
	<path class="st1" d="M401.4,161.7c-0.4,0.5-1.3,0.9-2,0.9c-0.6,1.3-1.7,2.2-3,1.9c-1.2-0.3-1.8-2.1-1.3-4.2
		c0.7-2.6,2.7-3.6,3.9-2.8c1.1,0.7,1.2,2.7,0.7,4.4c0.4,0.2,1.1-0.1,1.4-0.5C401.3,161.5,401.3,161.5,401.4,161.7z M399.1,162.4
		c-0.1,0-0.1-0.1-0.2-0.2c-0.2-0.4,0.2-0.9,0.5-0.7c0.4-1.4,0.3-3-0.6-3.2c-0.8-0.2-1.6,0.4-2.1,2c-0.5,1.6-0.2,3.1,0.8,3.3
		C398.1,163.8,398.7,163.2,399.1,162.4z"/>
	<path class="st1" d="M411.4,161.7c-0.3,1-0.6,2.3-1.7,2.8c-1.1,0.5-2.4,0.1-2.4-1.1c-0.3,0.5-0.8,0.9-1.2,1.1
		c-1.2,0.6-2.7-0.1-2.3-1.9l1.4-5.4h1.3l-1.4,5.6c-0.2,0.9,0.4,1.1,0.9,1c0.9-0.2,1.5-1.3,1.7-2.1l1.1-4.5h1.3l-1.4,5.6
		c-0.2,0.9,0.4,1.2,0.9,1.1c0.8-0.2,1.1-1.3,1.3-2.1H411.4z"/>
	<path class="st1" d="M423.6,161.7l-0.3,0.8c-0.3,1-0.8,1.6-1.4,1.9c-1.2,0.6-2.8,0-2.3-1.8l1.2-4.7l-0.4,0l0.1-0.4h0.4l0.5-1.8h1.2
		l-0.4,1.8h0.7l-0.1,0.4l-0.7,0l-1.2,4.7c-0.2,0.9,0.4,1.2,0.9,1.1c0.5-0.1,0.9-0.6,1.1-1.3l0.2-0.7H423.6z"/>
	<path class="st1" d="M432.5,161.7c-0.4,0.5-1.3,0.9-2,0.9c-0.6,1.3-1.7,2.2-3,1.9c-1.2-0.3-1.8-2.1-1.3-4.2
		c0.7-2.6,2.7-3.6,3.9-2.8c1.1,0.7,1.2,2.7,0.7,4.4c0.4,0.2,1.1-0.1,1.4-0.5C432.4,161.5,432.4,161.5,432.5,161.7z M430.1,162.4
		c-0.1,0-0.1-0.1-0.2-0.2c-0.2-0.4,0.2-0.9,0.5-0.7c0.4-1.4,0.3-3-0.6-3.2c-0.8-0.2-1.6,0.4-2.1,2c-0.5,1.6-0.2,3.1,0.8,3.3
		C429.2,163.8,429.7,163.2,430.1,162.4z"/>
	<path class="st1" d="M447.3,161.7c-0.4,1.7-1.7,3.1-3.5,3c-1.9,0-3.5-2-2.3-5c1.5-3.9,4.8-3.1,4.7-1.1l-0.5,0.1
		c0-1.3-1.8-1.4-2.9,1.2c-1,2.4,0.3,3.9,1.6,3.9c1.3,0,2-1,2.4-2.1H447.3z"/>
	<path class="st1" d="M455.3,161.7h0.4c-1.2,4.9-7.2,3.6-5.8-1.7c1.2-4.7,5.5-3.4,4.4-0.7c-0.4,1-1.5,1.7-3.2,1.1
		C450.4,164.2,454.3,165,455.3,161.7L455.3,161.7z M453.8,159.2c0.7-1.6-1.7-2.4-2.6,0.8C452.5,160.5,453.5,159.9,453.8,159.2z"/>
	<path class="st1" d="M461.9,161.7l-0.3,0.8c-0.3,1-0.8,1.6-1.4,1.9c-1.2,0.6-2.8,0-2.3-1.8l2.3-9h1.2l-2.3,9
		c-0.2,0.9,0.4,1.2,0.9,1.1c0.5-0.1,0.9-0.6,1.1-1.3l0.2-0.7H461.9z"/>
	<path class="st1" d="M469.9,161.7h0.4c-1.2,4.9-7.2,3.6-5.8-1.7c1.2-4.7,5.5-3.4,4.4-0.7c-0.4,1-1.5,1.7-3.2,1.1
		C465,164.2,469,165,469.9,161.7L469.9,161.7z M468.4,159.2c0.7-1.6-1.7-2.4-2.6,0.8C467.2,160.5,468.1,159.9,468.4,159.2z"/>
	<path class="st1" d="M478.4,161c-0.7,2.6-2.3,3.9-3.6,3.4c-0.6-0.2-0.9-0.7-1.1-1.4l-0.4,1.4h-1.3l2.8-10.8h1.3l-1.2,4.6
		c0.5-0.6,1.1-1,1.7-1.1C477.9,156.9,479.2,158.1,478.4,161z M476.3,158.3c-1.9,0.2-2.9,4.8-1.5,5.3c0.6,0.2,1.9-0.8,2.4-2.6
		C477.7,159.1,477.1,158.2,476.3,158.3z"/>
	<path class="st1" d="M489.7,161.7l-0.3,0.8c-0.3,1-0.8,1.6-1.4,1.9c-1.2,0.6-2.8,0-2.3-1.8c0.1-0.3,0.4-1.5,0.7-2.7
		c0.2-0.8,0.4-1.4-1.1-1.8c-0.5-0.1-0.9-0.2-0.9-0.2l-1.1,3.9h-0.5l1.2-4.1c-0.3-0.2-0.4-0.5-0.3-0.8c0.2-0.6,1.1-0.5,1.1,0.3
		c0,0,0,0,1.6,0.4c1.6,0.4,1.6,1.3,1.4,2.3l-0.7,2.8c-0.2,0.9,0.4,1.2,0.9,1.1c0.5-0.1,0.9-0.6,1.1-1.3l0.2-0.7H489.7z"/>
	<path class="st1" d="M500,161.7l-0.3,0.8c-0.3,1-0.8,1.6-1.4,1.9c-1.1,0.5-2.4,0.1-2.4-1.3c-0.7,0.9-1.6,1.5-2.4,1.2
		c-1.2-0.4-1.7-2.2-1-4.3c0.9-2.6,2.9-3.4,4.1-2.6c0.3,0.2,0.4,0.5,0.6,0.8l0.3-1.2h1.3l-1.4,5.6c-0.2,0.9,0.4,1.2,0.9,1.1
		c0.4-0.1,0.9-0.6,1.1-1.3l0.2-0.7H500z M496.4,161.2l0.2-0.8c0.2-0.9,0.1-1.7-0.5-2c-0.6-0.4-1.8,0.3-2.4,1.8
		c-0.5,1.6-0.4,3.2,0.4,3.4C495,163.9,495.9,162.6,496.4,161.2z"/>
	<path class="st1" d="M506.2,161.7l-0.3,0.8c-0.3,1-0.8,1.6-1.4,1.9c-1.2,0.6-2.8,0-2.3-1.8l1.2-4.7l-0.4,0l0.1-0.4h0.4l0.5-1.8h1.2
		l-0.4,1.8h0.7l-0.1,0.4l-0.7,0l-1.2,4.7c-0.2,0.9,0.4,1.2,0.9,1.1c0.5-0.1,0.9-0.6,1.1-1.3l0.2-0.7H506.2z"/>
	<path class="st1" d="M514.2,161.7h0.4c-1.2,4.9-7.2,3.6-5.8-1.7c1.2-4.7,5.5-3.4,4.4-0.7c-0.4,1-1.5,1.7-3.2,1.1
		C509.3,164.2,513.3,165,514.2,161.7L514.2,161.7z M512.7,159.2c0.7-1.6-1.7-2.4-2.6,0.8C511.5,160.5,512.4,159.9,512.7,159.2z"/>
	<path class="st1" d="M211.4,179.9l-2.1,10.6H208l1.5-7.7l-3.3,7.7l0,0h-1.4l0-7.7l-2.2,7.7h-0.7l2.9-9.8c-0.5,0-0.9,0.2-1.2,0.6
		c-0.6,0.8-0.7,2.2-0.6,2.9l-1.1-1.1c0-0.6,0.5-1.7,1.1-2.3c0.9-1,1.9-1.1,3.1-1.1l0.1,9.2l4-9.1
		C211.9,179.9,210.1,179.9,211.4,179.9z"/>
	<path class="st1" d="M222.6,187.7l-0.3,0.8c-0.3,1-0.8,1.6-1.4,1.9c-1.1,0.5-2.4,0.1-2.4-1.3c-0.7,0.9-1.6,1.5-2.4,1.2
		c-1.2-0.4-1.7-2.2-1-4.3c0.9-2.6,2.9-3.4,4.1-2.6c0.3,0.2,0.4,0.5,0.6,0.8l0.3-1.2h1.3l-1.4,5.6c-0.2,0.9,0.4,1.2,0.9,1.1
		c0.4-0.1,0.9-0.6,1.1-1.3l0.2-0.7H222.6z M219,187.2l0.2-0.8c0.2-0.9,0.1-1.7-0.5-2c-0.6-0.4-1.8,0.3-2.4,1.8
		c-0.5,1.6-0.4,3.2,0.4,3.4C217.5,189.9,218.5,188.6,219,187.2z"/>
	<path class="st1" d="M232,187.7l-0.3,0.8c-0.3,1-0.8,1.6-1.4,1.9c-1.2,0.6-2.8,0-2.3-1.8c0.1-0.3,0.4-1.5,0.7-2.7
		c0.2-0.8,0.4-1.4-1.1-1.8c-0.5-0.1-0.9-0.2-0.9-0.2l-1.1,3.9H225l1.2-4.1c-0.3-0.2-0.4-0.5-0.3-0.8c0.2-0.6,1.1-0.5,1.1,0.3
		c0,0,0,0,1.6,0.4c1.6,0.4,1.6,1.3,1.4,2.3l-0.7,2.8c-0.2,0.9,0.4,1.2,0.9,1.1c0.5-0.1,0.9-0.6,1.1-1.3l0.2-0.7H232z"/>
	<path class="st1" d="M238.1,187.7c-0.3,1-0.6,2.3-1.7,2.8c-1.2,0.6-2.8,0-2.3-1.8l1.4-5.5h1.3l-1.4,5.6c-0.2,0.9,0.4,1.2,0.9,1.1
		c0.9-0.2,1.1-1.3,1.3-2.1H238.1z M235.7,181.2c0.1-0.4,0.4-0.6,0.9-0.6h0c0.6,0,1,0.5,0.9,1.1c-0.1,0.4-0.5,0.7-0.9,0.7h0
		C236,182.3,235.6,181.8,235.7,181.2z"/>
	<path class="st1" d="M246.2,187.7h0.4c-1.2,4.9-7.2,3.6-5.8-1.7c1.2-4.7,5.5-3.4,4.4-0.7c-0.4,1-1.5,1.7-3.2,1.1
		C241.3,190.2,245.2,191,246.2,187.7L246.2,187.7z M244.7,185.2c0.7-1.6-1.7-2.4-2.6,0.8C243.4,186.5,244.4,185.9,244.7,185.2z"/>
	<path class="st1" d="M253.8,186.9h-3.2l0.3-1.3h3.2L253.8,186.9z"/>
	<path class="st1" d="M262.9,192.6c-0.6-0.3-1.3-0.9-1.9-1.2c-0.6-0.3-1.5-0.5-2.1-0.4l2.7-10.3c-0.4,0-0.9,0.2-1.2,0.6
		c-0.6,0.8-0.7,2.2-0.6,2.9l-1.1-1.1c0-0.6,0.5-1.7,1.1-2.3c0.9-1,2.1-1.1,3.3-1.1l-1.1,4.3l-0.2,0.6l-1.5,5.8c0.3-0.1,0.7,0,1,0
		c0.6,0.1,1.1,0.5,1.7,0.8c1,0.5,2,0.4,3.2-0.1C266.2,191.2,265.1,193.7,262.9,192.6z"/>
	<path class="st1" d="M273.9,187.7l-0.3,0.8c-0.3,1-0.8,1.6-1.4,1.9c-1.1,0.5-2.4,0.1-2.4-1.3c-0.7,0.9-1.6,1.5-2.4,1.2
		c-1.2-0.4-1.7-2.2-1-4.3c0.9-2.6,2.9-3.4,4.1-2.6c0.3,0.2,0.4,0.5,0.6,0.8l0.3-1.2h1.3l-1.4,5.6c-0.2,0.9,0.4,1.2,0.9,1.1
		c0.4-0.1,0.9-0.6,1.1-1.3l0.2-0.7H273.9z M270.3,187.2l0.2-0.8c0.2-0.9,0.1-1.7-0.5-2c-0.6-0.4-1.8,0.3-2.4,1.8
		c-0.5,1.6-0.4,3.2,0.4,3.4C268.9,189.9,269.8,188.6,270.3,187.2z"/>
	<path class="st1" d="M283.7,187.7c-0.3,1-0.6,2.3-1.7,2.8c-1.1,0.5-2.4,0.1-2.4-1.1c-0.3,0.5-0.8,0.9-1.2,1.1
		c-1.2,0.6-2.7-0.1-2.3-1.9l1.4-5.4h1.3l-1.4,5.6c-0.2,0.9,0.4,1.1,0.9,1c0.9-0.2,1.5-1.3,1.7-2.1l1.1-4.5h1.3l-1.4,5.6
		c-0.2,0.9,0.4,1.2,0.9,1.1c0.8-0.2,1.1-1.3,1.3-2.1H283.7z"/>
	<path class="st1" d="M293.1,187.7l-0.3,0.8c-0.3,1-0.8,1.6-1.4,1.9c-1.2,0.6-2.8,0-2.3-1.8c0.1-0.3,0.4-1.5,0.7-2.7
		c0.2-0.8,0.4-1.4-1.1-1.8c-0.5-0.1-0.9-0.2-0.9-0.2l-1.1,3.9h-0.5l1.2-4.1c-0.3-0.2-0.4-0.5-0.3-0.8c0.2-0.6,1.1-0.5,1.1,0.3
		c0,0,0,0,1.6,0.4c1.6,0.4,1.6,1.3,1.4,2.3l-0.7,2.8c-0.2,0.9,0.4,1.2,0.9,1.1c0.5-0.1,0.9-0.6,1.1-1.3l0.2-0.7H293.1z"/>
	<path class="st1" d="M301.1,187.7h0.4c-1.2,4.9-7.2,3.6-5.8-1.7c1.2-4.7,5.5-3.4,4.4-0.7c-0.4,1-1.5,1.7-3.2,1.1
		C296.2,190.2,300.2,191,301.1,187.7L301.1,187.7z M299.6,185.2c0.7-1.6-1.7-2.4-2.6,0.8C298.4,186.5,299.3,185.9,299.6,185.2z"/>
	<path class="st1" d="M319.3,185.2c-0.1,0.2-0.3,0.4-0.6,0.6c-0.2,0.1-0.5,0.2-0.8,0.2c0.2,1.9-1,4.6-3.3,4.6
		c-1.7,0-3.2-1.7-2.9-3.9c0.4-2.5,2-2.4,2.2-2.4c-1.4-1.1-0.9-3.7,1-4.3c1.5-0.5,3.3,0.2,3.1,2.7l-1.4,0.4c0.4-0.6,0.5-2.8-1.2-2.5
		c-0.9,0.2-1.7,1.4-1.2,2.8c0.2,0.6,0.6,1,1.2,1.1c-1.4,0-2.2,1.1-2.4,2.4c-0.3,1.7,0.6,2.9,1.7,2.9c1.8,0,2.9-2.3,2.7-3.7
		c-0.3,0-0.7,0.1-0.9,0.2c-0.3,0.1-0.4,0.3-0.4,0.6v0.2l-0.4-0.3c-0.2-0.6,0-1,0.5-1.2c0.4-0.2,0.8-0.2,1.2-0.2
		c0.3,0,0.8-0.1,1.1-0.2c0.4-0.2,0.4-0.3,0.3-0.4l0,0l0.2-0.3l0.1,0.1C319.4,184.7,319.4,185,319.3,185.2z"/>
	<path class="st1" d="M331.2,188.3c0.1,1.4,2.5,1.7,3.4,0.3c1.6-2.6-1-4-1.7-5.8c-1.2-3.1,3.4-4.1,4.2-1.1l-1.3,0.8
		c0.4-0.4,0.4-1.2-0.1-1.6c-0.5-0.4-1.3-0.3-1.6,0.2c-0.3,0.4-0.2,1,0,1.5c0.5,1.1,2.6,2.4,2.3,5c-0.3,2.2-2.4,3.4-4.6,2.8
		c-1-0.3-1.8-1.2-1.9-2.2c-0.2-1,0.5-2.1,1.4-2.4l1.5,1C332.1,186.6,331.1,187.2,331.2,188.3z"/>
	<path class="st1" d="M346.3,187.7h0.4c-1.2,4.9-7.2,3.6-5.8-1.7c1.2-4.7,5.5-3.4,4.4-0.7c-0.4,1-1.5,1.7-3.2,1.1
		C341.4,190.2,345.3,191,346.3,187.7L346.3,187.7z M344.8,185.2c0.7-1.6-1.7-2.4-2.6,0.8C343.5,186.5,344.5,185.9,344.8,185.2z"/>
	<path class="st1" d="M354.8,187c-0.7,2.6-2.3,3.9-3.6,3.4c-0.6-0.2-0.9-0.7-1.1-1.4l-0.4,1.4h-1.3l2.8-10.8h1.3l-1.2,4.6
		c0.5-0.6,1.1-1,1.7-1.1C354.2,182.9,355.5,184.1,354.8,187z M352.7,184.3c-1.9,0.2-2.9,4.8-1.5,5.3c0.6,0.2,1.9-0.8,2.4-2.6
		C354,185.1,353.4,184.2,352.7,184.3z"/>
	<path class="st1" d="M366.9,187.7l-0.3,0.8c-0.3,1-0.8,1.6-1.4,1.9c-1.1,0.5-2.4,0.1-2.4-1.3c-0.7,0.9-1.6,1.5-2.4,1.2
		c-1.2-0.4-1.7-2.2-1-4.3c0.9-2.6,2.9-3.4,4.1-2.6c0.3,0.2,0.4,0.5,0.6,0.8l0.3-1.2h1.3l-1.4,5.6c-0.2,0.9,0.4,1.2,0.9,1.1
		c0.4-0.1,0.9-0.6,1.1-1.3l0.2-0.7H366.9z M363.3,187.2l0.2-0.8c0.2-0.9,0.1-1.7-0.5-2c-0.6-0.4-1.8,0.3-2.4,1.8
		c-0.5,1.6-0.4,3.2,0.4,3.4C361.9,189.9,362.9,188.6,363.3,187.2z"/>
	<path class="st1" d="M375.1,187.8c-0.2,0.3-0.5,0.5-0.8,0.6c-0.2,0.1-0.4,0.1-0.6,0.1c-0.1,1.1-1,1.8-2,2c-2,0.2-2.8-1.4-2.3-2.7
		c0.1-0.3,0.3-0.4,0.5-0.5c0.7-0.9,1.6-2.6,1.9-4.2h1.3c-0.4,1.7,0.1,3,0.5,4.6c0.2,0.1,0.3,0.3,0.6,0.2c0.3-0.1,0.5-0.3,0.7-0.4
		C374.9,187.6,375,187.6,375.1,187.8z M372.2,188c-0.2-0.9-0.4-1.8-0.5-3c-0.4,0.9-0.8,1.7-1.2,2.3c0.2,0.1,0.4,0.2,0.4,0.5
		c0.2,0.6-0.7,1.2-1,0.5c-0.2,0.3,0.1,1.6,1.5,1.4C372.1,189.6,372.5,189,372.2,188z"/>
	<path class="st1" d="M381.5,187.7l-0.3,0.8c-0.3,1-0.8,1.6-1.4,1.9c-1.2,0.6-2.8,0-2.3-1.8l1.2-4.7l-0.4,0l0.1-0.4h0.4l0.5-1.8h1.2
		l-0.4,1.8h0.7l-0.1,0.4l-0.7,0l-1.2,4.7c-0.2,0.9,0.4,1.2,0.9,1.1c0.5-0.1,0.9-0.6,1.1-1.3l0.2-0.7H381.5z"/>
	<path class="st1" d="M387.7,187.7c-0.3,1-0.6,2.3-1.7,2.8c-1.2,0.6-2.8,0-2.3-1.8l1.4-5.5h1.3l-1.4,5.6c-0.2,0.9,0.4,1.2,0.9,1.1
		c0.9-0.2,1.1-1.3,1.3-2.1H387.7z M385.3,181.2c0.1-0.4,0.4-0.6,0.9-0.6h0c0.6,0,1,0.5,0.9,1.1c-0.1,0.4-0.5,0.7-0.9,0.7h0
		C385.5,182.3,385.1,181.8,385.3,181.2z"/>
	<path class="st1" d="M398,187.7l-0.3,0.8c-0.3,1-0.8,1.6-1.4,1.9c-1.1,0.5-2.4,0.1-2.4-1.3c-0.7,0.9-1.6,1.5-2.4,1.2
		c-1.2-0.4-1.7-2.2-1-4.3c0.9-2.6,2.9-3.4,4.1-2.6c0.3,0.2,0.4,0.5,0.6,0.8l0.3-1.2h1.3l-1.4,5.6c-0.2,0.9,0.4,1.2,0.9,1.1
		c0.4-0.1,0.9-0.6,1.1-1.3l0.2-0.7H398z M394.4,187.2l0.2-0.8c0.2-0.9,0.1-1.7-0.5-2c-0.6-0.4-1.8,0.3-2.4,1.8
		c-0.5,1.6-0.4,3.2,0.4,3.4C392.9,189.9,393.9,188.6,394.4,187.2z"/>
	<path class="st1" d="M408.2,187.7l-0.3,0.8c-0.3,1-0.8,1.6-1.4,1.9c-1.1,0.5-2.4,0.1-2.4-1.3c-0.7,0.9-1.6,1.5-2.4,1.2
		c-1.2-0.4-1.7-2.2-1-4.3c0.9-2.6,2.9-3.4,4.1-2.6c0.3,0.2,0.4,0.5,0.6,0.8l0.3-1.2h1.3l-1.4,5.6c-0.2,0.9,0.4,1.2,0.9,1.1
		c0.4-0.1,0.9-0.6,1.1-1.3l0.2-0.7H408.2z M404.6,187.2l0.2-0.8c0.2-0.9,0.1-1.7-0.5-2c-0.6-0.4-1.8,0.3-2.4,1.8
		c-0.5,1.6-0.4,3.2,0.4,3.4C403.2,189.9,404.2,188.6,404.6,187.2z"/>
	<path class="st1" d="M418.6,187.7l-0.3,0.8c-0.3,1-0.8,1.6-1.4,1.9c-1.2,0.6-2.8,0-2.3-1.8c0.2-0.8,0.3-1.2,0.4-1.5
		c0.3-1.3,0.5-3-0.8-2.9c-1,0.1-1.7,1.3-2,2.5l-1,3.7H410l1.9-7.4h1.3l-0.3,1.1c0.5-0.6,1-1,1.7-1.1c1.1-0.2,2.5,0.7,1.7,4.2
		c-0.1,0.5-0.3,1.2-0.3,1.4c-0.2,0.9,0.4,1.2,0.9,1.1c0.5-0.1,0.9-0.6,1.1-1.3l0.2-0.7H418.6z"/>
	<path class="st1" d="M422,181.4c-0.3,0.2-0.5-0.3-0.2-0.4c0.3-0.2,0.6-0.4,0.8-0.6c-0.4-0.1-0.7-0.5-0.6-1c0.1-0.3,0.4-0.6,0.8-0.6
		C424,178.8,423.8,180.4,422,181.4z"/>
	<path class="st1" d="M433.3,187.8c-0.2,0.3-0.5,0.5-0.8,0.6c-0.2,0.1-0.4,0.1-0.6,0.1c-0.1,1.1-1,1.8-2,2c-2,0.2-2.8-1.4-2.3-2.7
		c0.1-0.3,0.3-0.4,0.5-0.5c0.7-0.9,1.6-2.6,1.9-4.2h1.3c-0.4,1.7,0.1,3,0.5,4.6c0.2,0.1,0.3,0.3,0.6,0.2c0.3-0.1,0.5-0.3,0.7-0.4
		C433.2,187.6,433.2,187.6,433.3,187.8z M430.5,188c-0.2-0.9-0.4-1.8-0.5-3c-0.4,0.9-0.8,1.7-1.2,2.3c0.2,0.1,0.4,0.2,0.4,0.5
		c0.2,0.6-0.7,1.2-1,0.5c-0.2,0.3,0.1,1.6,1.5,1.4C430.3,189.6,430.8,189,430.5,188z"/>
	<path class="st1" d="M447.5,190.5c-1,0.5-2.2,0.1-2.4-1c-0.3,0.4-0.6,0.8-1.1,1c-1.2,0.6-2.7-0.1-2.3-1.9l1.4-5.4h1.3l-1.4,5.6
		c-0.2,0.9,0.4,1.1,0.9,1c0.8-0.2,1.2-1.1,1.5-1.9l1.2-4.7h1.3l-1.4,5.6c-0.2,0.9,0.4,1.1,0.9,1c1.8-0.4,3.7-5.5,2.4-5.5
		c-0.3,0-0.8-0.5-0.4-1.1c0.3-0.5,1.1-0.3,1.3,0.2C451.3,184.7,450,189.2,447.5,190.5z"/>
	<path class="st1" d="M460.2,187.7h0.4c-1.2,4.9-7.2,3.6-5.8-1.7c1.2-4.7,5.5-3.4,4.4-0.7c-0.4,1-1.5,1.7-3.2,1.1
		C455.3,190.2,459.3,191,460.2,187.7L460.2,187.7z M458.7,185.2c0.7-1.6-1.7-2.4-2.6,0.8C457.5,186.5,458.4,185.9,458.7,185.2z"/>
	<path class="st1" d="M470.9,187.7l-0.3,0.8c-0.3,1-0.8,1.6-1.4,1.9c-1.1,0.5-2.4,0.1-2.4-1.2c-0.6,0.9-1.4,1.4-2.2,1.2
		c-1.5-0.4-1.7-2.2-1.3-4c0.4-1.7,1.5-3.3,2.9-3.4c1-0.1,1.6,0.6,1.8,1.5l1.3-4.9h1.2l-2.3,9c-0.2,0.9,0.4,1.2,0.9,1.1
		c0.4-0.1,0.9-0.6,1.1-1.3l0.2-0.7H470.9z M466.2,184.2c-0.8,0.1-1.4,1.1-1.7,2.3c-0.3,1.4-0.2,2.9,0.7,3.1
		C466.8,190,468.7,183.8,466.2,184.2z"/>
	<path class="st1" d="M481.1,187.7l-0.3,0.8c-0.3,1-0.8,1.6-1.4,1.9c-1.1,0.5-2.4,0.1-2.4-1.2c-0.6,0.9-1.4,1.4-2.2,1.2
		c-1.5-0.4-1.7-2.2-1.3-4c0.4-1.7,1.5-3.3,2.9-3.4c1-0.1,1.6,0.6,1.8,1.5l1.3-4.9h1.2l-2.3,9c-0.2,0.9,0.4,1.2,0.9,1.1
		c0.4-0.1,0.9-0.6,1.1-1.3l0.2-0.7H481.1z M476.5,184.2c-0.8,0.1-1.4,1.1-1.7,2.3c-0.3,1.4-0.2,2.9,0.7,3.1
		C477.1,190,478.9,183.8,476.5,184.2z"/>
	<path class="st1" d="M487.3,187.7c-0.3,1-0.6,2.3-1.7,2.8c-1.2,0.6-2.8,0-2.3-1.8l1.4-5.5h1.3l-1.4,5.6c-0.2,0.9,0.4,1.2,0.9,1.1
		c0.9-0.2,1.1-1.3,1.3-2.1H487.3z M484.9,181.2c0.1-0.4,0.4-0.6,0.9-0.6h0c0.6,0,1,0.5,0.9,1.1c-0.1,0.4-0.5,0.7-0.9,0.7h0
		C485.2,182.3,484.7,181.8,484.9,181.2z"/>
	<path class="st1" d="M497.6,187.7l-0.3,0.8c-0.3,1-0.8,1.6-1.4,1.9c-1.2,0.6-2.8,0-2.3-1.8c0.2-0.8,0.3-1.2,0.4-1.5
		c0.3-1.3,0.5-3-0.8-2.9c-1,0.1-1.7,1.3-2,2.5l-1,3.7H489l1.9-7.4h1.3l-0.3,1.1c0.5-0.6,1-1,1.7-1.1c1.1-0.2,2.5,0.7,1.7,4.2
		c-0.1,0.5-0.3,1.2-0.3,1.4c-0.2,0.9,0.4,1.2,0.9,1.1c0.5-0.1,0.9-0.6,1.1-1.3l0.2-0.7H497.6z"/>
	<path class="st1" d="M507.7,187.7l-0.3,0.8c-0.4,1.4-1.7,2-3,2.5l-0.3,1.3c-0.5,2.2-3.3,1.9-2.7,0c0.2-0.7,0.9-1.1,1.8-1.4l0.4-1.4
		c-0.6,0.7-1.3,1.1-2,0.9c-1.4-0.4-1.7-2.2-1.3-4c0.4-1.7,1.5-3.3,2.9-3.4c1,0,1.6,0.5,1.8,1.4l0.4-1.3h1.3l-1.9,7.3
		c1.1-0.4,2.1-1,2.3-1.9l0.2-0.7H507.7z M503.2,184.2c-0.8,0.1-1.4,1.1-1.7,2.3c-0.3,1.4-0.2,2.9,0.7,3.1
		C503.8,190,505.6,183.8,503.2,184.2z M503,191.6c-0.5,0.2-0.9,0.5-1,0.8c-0.3,0.7,0.4,1.4,0.7,0.4L503,191.6z"/>
</g>
<g>
	<path class="st1" d="M262.1,2.1c0.3,0.1,0.4,0.4,0.3,0.7s-0.2,0.6-0.5,0.9s-0.4,0.6-0.6,0.8c-0.1,0.1-0.1,0.2-0.2,0.2
		c-1.6,2.2-3,4.6-4.2,7.1s-2.3,5-3.3,7.5c-0.4,1-0.9,2-1.3,3c-1,2.2-1.9,4.3-2.8,6.5c-1.5,3.7-3.2,7.5-4.9,11.2
		c-0.6,1.3-1.3,2.5-2.1,3.8c-0.6,1-1.5,1.5-2.8,1.5c-1,0-1.7-0.5-1.9-1.4c-0.2-0.8-0.3-1.7-0.4-2.6c-0.1-3.3-0.1-6.7,0.2-10
		c0.2-2.3,0.4-4.6,0.5-6.8c0.2-2.5,0.4-4.9,0.6-7.4c0.5-5.6,1-11.2,1.6-16.8c0.7-6.4,1.4-12.8,2.1-19.2c1.3-10.8,2.4-21.7,3.4-32.6
		c0.1-0.7,0.1-1.2,0-1.7s-0.1-0.6-0.3-0.5s-0.4,0.6-0.8,1.6c-3.2,9.3-6.2,18.7-8.9,28.1c-0.1,0.4-0.2,0.7-0.3,1
		c-1.6,5.6-3.3,11.2-5,16.8c-0.6,2.2-1.4,4.3-2.2,6.6s-1.8,4.3-2.8,6.3c-0.3,0.6-0.8,1-1.3,1.2s-1.1,0.3-1.8,0.2
		c-0.7-0.1-1.2-0.4-1.5-1c-0.3-0.6-0.4-1.2-0.5-1.8c-0.1-0.8-0.2-1.5-0.2-2.3c-0.2-1.8-0.4-3.5-0.5-5.2c-0.4-4.8-0.9-9.7-1.5-14.6
		s-1.4-9.7-2.4-14.4c-0.3-1.2-0.7-1.2-1.2,0.1s-1.1,3.4-1.8,6.4s-1.4,6.4-2.1,10.3S209.5-7,208.8-3s-1.3,7.7-1.9,11
		c-0.9,5.2-1.5,8.5-1.8,9.9c-0.2,1-0.6,2-1,2.9c-0.2,0.4-0.5,0.7-0.8,0.8s-0.8,0.2-1.2,0.1c-0.9-0.1-1.4-0.6-1.6-1.5
		c-0.1-0.5-0.1-0.9-0.1-1.4c0-0.4,0-0.8,0-1.1c-0.1-1.5-0.1-3-0.2-4.6c-0.2-11.7-0.2-23.5,0.2-35.2c0.2-7.4,0.5-14.9,0.7-22.4
		c0-0.8,0-1.6,0-2.4c0-0.8,0-1.5,0-2.3c0-0.6,0.3-1,0.7-1.3s0.9-0.2,1.5,0c0.2,0.1,0.4,0.2,0.5,0.4s0.1,0.4,0.2,0.6
		c0.2,2.1,0.3,4.1,0.2,6.2c0,1.2-0.1,2.5-0.1,3.7c-0.1,3.4-0.2,6.7-0.3,10.1c-0.2,4.3-0.3,8.7-0.3,13c-0.1,3.2-0.1,6.4-0.2,9.6
		c-0.1,3.4-0.1,6.8-0.1,10.2c0,2.3,0,4.7,0,7.1c0,0.1,0,0.3,0,0.6s0.1,0.6,0.1,0.9s0.1,0.6,0.2,0.8s0.2,0.2,0.2,0.1s0.2-0.4,0.3-0.9
		c0.2-1.5,0.5-3.2,0.8-5.1c0.7-4.5,1.5-9.4,2.4-14.7s2-10.4,3.2-15.2s2.4-8.5,3.8-11.1c0.6-1,1.3-1.4,2.1-1.4s1.5,0.5,2.1,1.6
		c0.7,1.6,1.3,3.6,1.7,5.9s0.9,4.8,1.2,7.3s0.6,4.9,0.8,7.1c0.1,1.2,0.2,2.3,0.3,3.3c0.2,1.6,0.3,3,0.5,4.3c0.3,3.1,0.6,5.5,0.9,7.2
		s0.6,2.6,1.1,2.6s1.1-1.1,1.9-3.2s1.9-5.6,3.3-10.2c1.3-4.3,2.4-8.5,3.6-12.5c1.5-5.3,3-10.6,4.6-15.8s3.4-10.7,5.6-16.4
		c0.6-1.6,1.3-3,2-4.1s1.4-1.6,2-1.7c0.2,0,0.5,0,0.7,0.1s0.5,0.4,0.7,0.8s0.3,1.2,0.3,2.3c0.1,1.8,0,3.7-0.1,5.5s-0.3,3.7-0.4,5.5
		c0,0.2,0,0.4,0,0.6c-0.9,9.4-1.9,18.7-3,28.1c-0.7,6.1-1.4,12.2-2.1,18.3c0,0.1,0,0.3,0,0.5c-0.6,5.7-1.2,11.4-1.7,17.1
		c-0.4,5-0.8,10-1.2,15c0,0.4-0.1,0.9-0.1,1.4c-0.1,1.3-0.1,2.6-0.2,3.9c0,0.5,0,0.9,0,1.4c0,0.1,0,0.3,0,0.3s0.2,0.1,0.3,0.1
		c0.1,0,0.1,0,0.2-0.1s0.1-0.1,0.1-0.2c1.6-3.4,3.2-6.8,4.8-10.2c1.5-3.3,3-6.5,4.5-9.7s3.2-6.5,4.9-9.7c1.4-2.7,2.7-4.8,3.9-6.4
		S261.5,2,262.1,2.1z"/>
	<path class="st1" d="M287.8,2.3c-0.3,1-1,2.2-2,3.6s-2.3,2.2-3.8,2.6s-2.8,0.3-3.9-0.2s-1.7-1.8-1.8-3.9c-1.3,2.4-2.5,4-3.6,4.7
		s-2.3,0.9-3.5,0.8c-1.4-0.2-2.3-0.8-2.8-1.6s-0.7-1.9-0.5-3s0.5-2.2,1-3.2c0.4-0.8,1-1.5,1.7-2.1s1.5-1.2,2.3-1.6
		c1-0.5,2-0.7,3-0.7s2.1,0.4,3.2,1c0,0,0,0,0-0.1c0-0.1,0-0.2,0.1-0.4s0.2-0.3,0.3-0.4c0.4-0.3,0.8-0.4,1.3-0.4s0.9,0.3,1.2,0.8
		c0.1,0.7,0,1.5-0.2,2.5c-0.4,2.2-0.4,3.9,0,4.8s1.1,1.4,2.2,1.4s2.4-1.1,4-3.1S288.1,1.3,287.8,2.3z M269.4,7.6
		c0.6,0.4,1.2,0.4,2-0.2s1.4-1.3,2.1-2.2s1.3-1.9,1.7-2.9s0.7-1.7,0.8-2.1c-1.4-0.7-2.6-0.9-3.6-0.4s-1.8,1.3-2.4,2.4
		s-0.9,2.2-1,3.2S269,7.2,269.4,7.6z"/>
	<path class="st1" d="M305.9,3.2c0.2-0.5,0.5-0.8,0.7-0.8s0.3,0.3,0.2,0.8c-0.4,1.3-0.9,2.5-1.5,3.6S304,9.1,303,10
		c-0.7,0.7-1.6,1.2-2.7,1.4c-1.4,0.2-2.5,0-3.5-0.5s-1.6-1.3-2.2-2.3s-0.9-2.1-1.2-3.3S293.1,3,293,1.9c-0.2-2.1-0.3-4.9-0.4-8.3
		s-0.1-7.1,0.1-10.9s0.5-7.4,1.1-10.7s1.5-5.8,2.6-7.6c0.7-0.9,1.4-1.3,2.3-1.3s1.7,0.4,2.3,1.2c0.5,0.6,0.8,1.3,1,2
		s0.4,1.4,0.5,2.2c0.2,2.5,0.2,5.2-0.1,8s-0.8,5.8-1.5,9s-1.5,6-2.4,8.4s-1.7,4.3-2.3,5.8c-0.3,0.6-0.5,1.4-0.4,2.6
		c0.1,1.3,0.3,2.6,0.7,3.9s0.9,2.4,1.5,3.2c0.6,0.7,1.3,0.9,2.1,0.6s1.5-0.8,2.3-1.6s1.4-1.7,2-2.6S305.6,4,305.9,3.2z M296-15.8
		c-0.1,0.8-0.2,2.1-0.2,3.7s-0.1,3.3-0.2,5.1c-0.1,1.9-0.1,3.4-0.2,4.5c0.6-1.4,1.3-3.4,2.1-6s1.5-5.7,2.2-9.2s1.1-7.4,1.3-11.5
		c-0.1-2.4-0.4-4-0.9-4.9s-1-0.9-1.5-0.2s-1,2.2-1.3,4.5c-0.5,3.8-0.9,7.5-1.1,11.3C296.1-17.7,296-16.8,296-15.8z"/>
	<path class="st1" d="M326,1.7c0.2-0.2,0.3,0,0.3,0.7s-0.6,1.5-1.7,2.7s-2.4,1.7-3.7,1.6c-0.3,0-0.5,0-0.7,0.1s-0.4,0.2-0.5,0.5
		c-0.1,0.2-0.3,0.4-0.5,0.6l0,0c-0.8,0.8-1.7,1.4-2.7,1.6s-2,0.2-3-0.2s-1.6-1.2-2-2.4c-0.3-1.1-0.3-2.1-0.1-3.2
		c0.2-0.9,0.6-1.8,1-2.6c0.6-1.1,1.3-1.9,2.2-2.3s1.9-0.7,3.1-0.8c1.7-0.1,2.8,0.7,3.2,2.4c0.3,1,0.3,2,0.2,3c0,0.2-0.1,0.5-0.1,0.7
		c-0.1,0.2-0.1,0.3-0.1,0.5c-0.1,0.5,0.2,0.8,0.7,0.7C323.2,5.1,324.6,3.9,326,1.7z M315.9,8.1c0.9-0.4,1.5-1.1,1.8-2.1
		c-1.5-0.9-2.5-2.3-3-4c-0.5,0.8-0.7,1.8-0.8,2.9s0,2,0.3,2.7S315.1,8.4,315.9,8.1z M318.4,4.1c0.2-0.4,0.4-0.8,0.4-1.3s0-1-0.1-1.5
		s-0.2-0.9-0.4-1.2s-0.3-0.4-0.5-0.3c-0.3,0.3-0.5,0.7-0.6,1.3s0,1.1,0.2,1.7S318,3.8,318.4,4.1z"/>
	<path class="st1" d="M378.9-3.2c0.2,0.3,0.4,0.7,0.5,1c0.5,1.5,0.9,3.1,1,4.9s0.1,3.6-0.3,5.3s-1.1,3.2-2.1,4.5s-2.5,2-4.4,2.3
		c-2.7,0.4-5.2-0.1-7.5-1.4c-1.4-0.8-2.7-1.9-3.9-3.2c-0.4-0.4-0.8-0.9-1.2-1.4c-0.2-0.2-0.4-0.5-0.7-0.7c-0.6,0.3-1.1,0.8-1.5,1.3
		c-0.1,0.2-0.3,0.3-0.4,0.5c0,0-0.1,0.1-0.1,0.1c-1.2,1.2-2.4,2.4-3.8,3.4c-1.5,1-3.1,1.5-4.9,1.4c-1.6-0.1-2.8-0.7-3.7-1.6
		s-1.3-2.3-1.3-3.8c0-1,0.2-1.9,0.5-2.7s0.7-1.7,1.2-2.5c0.7-1.2,1.4-2.3,2.3-3.3s1.7-2.1,2.6-3.1c0.8-0.9,1.6-1.7,2.5-2.5
		c0.6-0.6,0.8-1.3,0.7-2.1c-0.5-2.7-0.7-5.5-0.6-8.3c0-1.9,0.4-3.8,1-5.6c1.1-3,3.4-4.5,6.6-4.3c1.6,0,3.1,0.5,4.5,1.4
		c2.5,1.7,3.3,4,2.4,6.8c-0.4,1.2-1.1,2.3-1.8,3.3c-0.8,1-1.6,1.9-2.5,2.8s-1.8,1.7-2.7,2.5c-0.1,0.1-0.2,0.2-0.3,0.3
		c-0.8,0.8-1.6,1.5-2.4,2.3c-0.4,0.3-0.5,0.6-0.4,1c0.1,0.4,0.2,0.7,0.3,1.1c0.3,1.1,0.6,2.2,1,3.2s0.9,2.1,1.5,3
		c0,0,0.1,0.1,0.1,0.1c0,0,0.1,0,0.1,0c0.5-0.3,1-0.7,1.4-1.2c0.1-0.1,0.2-0.3,0.4-0.5c2.7-2.8,5.5-5.5,8.4-8c0.4-0.4,0.8-0.7,1.3-1
		c0.5-0.4,1-0.5,1.6-0.4c0.3,0,0.6,0.2,0.8,0.4c0.1,0.2,0.1,0.3,0,0.5s-0.2,0.2-0.3,0.3c-0.2,0.3-0.5,0.5-0.8,0.8
		c-0.2,0.2-0.5,0.5-0.7,0.7c-0.5,0.5-1,1.1-1.5,1.6c-2.8,2.9-5.5,5.8-8.3,8.7c-0.4,0.4-0.6,0.8-0.7,1s0.1,0.6,0.5,1
		c1,1.4,2.1,2.7,3.4,3.9c1,0.9,2.2,1.6,3.4,2.1c1.8,0.5,3.2,0.5,4.3,0s2-1.4,2.5-2.7s0.9-2.7,1-4.2s0-3.1-0.3-4.6s-0.7-2.7-1.3-3.8
		c-0.1-0.1-0.1-0.3-0.2-0.4C376-3,376-3.2,375.9-3.3c-0.1-0.2,0-0.3,0.1-0.5s0.2-0.2,0.4-0.3C377.4-4.4,378.3-4.1,378.9-3.2z
		 M358.1,6.2c0.4-0.5,0.5-1,0.1-1.5c-1.1-1.9-1.9-4-2.6-6.1c0-0.1-0.1-0.2-0.2-0.4c-0.1-0.1-0.2-0.2-0.2-0.4
		c-1.3,1.3-2.4,2.5-3.5,3.9s-1.9,2.7-2.7,4.2c-0.7,1.4-1.1,2.8-1,4.3c0.1,0.8,0.4,1.5,0.9,2.1c0.7,0.8,1.4,0.9,2.3,0.4
		c0.5-0.2,0.9-0.5,1.4-0.9c1.7-1.4,3.2-3,4.6-4.6C357.5,6.9,357.8,6.5,358.1,6.2z M357.6-19c-0.3,0.9-0.4,1.9-0.5,2.8
		s-0.1,1.9-0.1,2.9c0,0.4,0.1,0.7,0.1,1.1c0.1,1,0.1,1.9,0.2,2.9c0,0.2,0.1,0.4,0.3,0.4s0.4,0,0.6-0.1c1-0.9,2.1-1.8,3-2.8
		s1.9-2,2.7-3.2c0.6-0.8,1.1-1.8,1.3-2.7c0.5-2.6-0.5-4.3-2.8-5.3c-1.2-0.4-2.2-0.2-3.1,0.7c-0.4,0.5-0.8,1-1,1.5
		S357.7-19.6,357.6-19z"/>
	<path class="st1" d="M483.2-58.1c3.6,3.3,4.7,7.4,3.2,12.1c-0.3,0.8-0.6,1.6-1,2.4c-0.8,1.4-1.6,2.7-2.6,3.9s-2,2.4-3.1,3.4
		c-0.7,0.8-1.6,1-2.6,0.8c-0.3,0-0.5-0.2-0.5-0.4c-0.1-0.2,0-0.5,0.2-0.6c1.8-1.7,3.3-3.6,4.7-5.7c1-1.4,1.7-2.9,2.1-4.5
		c1.1-4.4-0.1-8-3.6-10.8c-1.6-1.3-3.5-2.2-5.5-2.7c-1.9-0.5-3.8-0.9-5.8-1s-3.9-0.2-5.8,0c-3,0.2-5.9,0.5-8.9,1s-5.8,1.1-8.7,1.8
		c-3.8,0.9-7.5,2.1-11.1,3.4s-7.2,3-10.6,4.8c-3.3,1.8-6.4,3.9-9.2,6.4c-2.5,2.2-4.6,4.8-6.2,7.8c-2.1,3.9-1.9,7.8,0.5,11.5
		c1.5,2.2,3.4,4.2,5.5,5.9c3.3,2.7,6.8,5.2,10.5,7.4c3.1,1.9,6.2,3.7,9.3,5.5c2.1,1.2,4.1,2.4,6.1,3.6c1.4,0.8,2.9,1.7,4.3,2.6
		s2.7,1.9,4.1,2.9c0.8,0.7,1.7,0.8,2.6,0.5c3.3-1,6.6-1.6,10-2.1c0.1,0,0.2,0,0.3,0c0.8-0.1,1.5-0.1,2.3,0c0.2,0.1,0.4,0.1,0.5,0.3
		s0.2,0.3,0.2,0.6s-0.1,0.4-0.2,0.6s-0.3,0.2-0.5,0.2c-1.2,0-2.3,0.2-3.4,0.4s-2.2,0.5-3.3,0.7c-0.9,0.2-1.7,0.4-2.6,0.6
		C454.2,5,454.1,5,454,5c-0.4,0.1-0.8,0.2-1.2,0.3s-0.7,0.3-1,0.6c0.2,0.5,0.5,1,0.9,1.4c0.2,0.2,0.3,0.4,0.5,0.6
		c0.7,0.9,1.3,1.8,1.8,2.8s0.9,2,1.1,3.1c0.6,2.8-0.3,5-2.7,6.5c-0.8,0.5-1.7,0.9-2.6,1.2c-3.2,1.1-6.4,1.6-9.8,1.4
		c-1.3-0.1-2.5-0.4-3.7-1c-1.6-0.8-2.6-2-3.1-3.4s-0.4-3,0.4-4.6c0.5-1,1.2-1.9,2.1-2.6c1.1-1,2.2-1.8,3.4-2.6s2.5-1.4,3.8-2.1
		c0.5-0.3,1.1-0.5,1.6-0.8c0.3-0.1,0.5-0.3,0.8-0.4c0-0.3,0-0.5-0.1-0.7s-0.3-0.3-0.4-0.4c-0.1,0-0.1-0.1-0.2-0.1
		c-2.2-1.7-4.5-3.2-6.9-4.6c-2.9-1.7-5.9-3.4-8.8-5.1c-1.2-0.7-2.5-1.4-3.7-2.2c-4.3-2.5-8.4-5.2-12.3-8.1c-2.4-1.8-4.6-3.9-6.6-6.2
		c-1-1.2-1.8-2.4-2.4-3.8c-1.4-2.9-1.5-5.9-0.4-9c0.6-1.6,1.3-3.1,2.3-4.4s2-2.6,3.2-3.8c2.6-2.7,5.4-4.9,8.5-6.8
		c5.2-3.2,10.6-5.7,16.4-7.6c7.2-2.4,14.5-4.1,22-5.1c2.6-0.4,5.2-0.6,7.8-0.6s5.2,0.1,7.8,0.5c1.6,0.2,3.1,0.5,4.5,1
		s2.9,1.1,4.2,1.9C481.8-59.3,482.5-58.7,483.2-58.1z M449,7.6c-0.4-0.4-0.9-0.5-1.5-0.2c-1.4,0.7-2.9,1.4-4.2,2.2s-2.6,1.7-3.9,2.7
		c-0.7,0.6-1.2,1.2-1.6,2c-0.8,1.6-0.9,3-0.3,4.3s1.8,2.2,3.5,2.5c0.4,0.1,0.8,0.1,1.1,0.1c0.1,0,0.2,0,0.3,0c2.6-0.1,5-0.6,7.2-1.6
		c2.7-1.1,3.7-3.1,2.9-5.9c-0.3-1.2-0.8-2.3-1.4-3.3S449.8,8.5,449,7.6z"/>
	<path class="st1" d="M486.5,2.9c0.3-0.2,0.5-0.3,0.8-0.4s0.4-0.1,0.5,0s0,0.3-0.3,0.7c-0.9,1.1-2,2-3.3,2.9c-1.3,0.9-2.6,1.6-4,2.2
		c-1.1,0.5-2.2,0.9-3.4,1.2s-2.4,0.3-3.5,0.2s-2.2-0.7-3.2-1.6c-1.4-1.3-2.1-3-1.8-4.9c0.2-1.5,0.8-2.8,1.8-3.9s2.2-1.8,3.7-2.2
		c1.3-0.3,2.5-0.3,3.8-0.1c0.6,0.1,1.1,0.3,1.6,0.6c0.4,0.3,0.7,0.7,0.7,1.2s-0.1,0.9-0.5,1.3c-0.8,0.7-1.7,1.1-2.7,1.3
		c-1.2,0.2-2.4,0.3-3.5,0.4c-0.6,0-1,0.1-1.2,0.3s-0.4,0.6-0.4,1.2c-0.2,1.6,0.3,2.8,1.5,3.8c0.7,0.6,1.6,0.8,2.7,0.7
		s2.2-0.4,3.3-0.8s2.3-1,3.5-1.7c1.1-0.6,2.2-1.3,3.1-1.8C485.9,3.3,486.2,3.1,486.5,2.9z M473.5-0.4C473.5-0.4,473.5-0.4,473.5-0.4
		c-0.1,0.1-0.2,0.2-0.2,0.2S473.1,0,473.1,0S473,0.1,473,0.2c0,0.1,0.3,0.1,0.7,0.1s0.9-0.1,1.4-0.2s0.9-0.3,1.3-0.4
		s0.4-0.4,0.3-0.6c-0.1-0.1-0.1-0.2-0.2-0.2s-0.2-0.1-0.3-0.1c-0.5,0-0.9,0.1-1.4,0.3S473.9-0.7,473.5-0.4z"/>
	<path class="st1" d="M505.3,5c-0.4,0.8-0.8,1.5-1.2,2.1c-1,1.2-2.2,2-3.6,2.3s-2.6,0.2-3.7-0.2c0,0-0.1,0-0.1,0
		c-0.3-0.1-0.5-0.2-0.8-0.3s-0.6,0-0.9,0.2c-0.2,0.1-0.4,0.1-0.6,0.1c-0.1,0-0.1,0-0.1,0c-1,0-1.5-0.5-1.5-1.5s0-2,0-2.9
		c0-1.2-0.1-2.3-0.1-3.5c-0.2-4.5-0.2-8.9-0.1-13.4s0.2-9,0.4-13.5c0-0.4,0-0.9,0-1.3c0-1,0.1-2.3,0.3-3.8s0.5-2.9,0.9-4.3
		s0.8-2.4,1.4-3.1c0.5-0.7,1.1-1.2,1.9-1.4s1.5-0.2,2.2,0.1s1.3,0.6,1.6,1.2c0.8,1.3,1.3,3.1,1.3,5.5s-0.2,5-0.6,7.9
		s-1.1,5.8-1.8,8.7s-1.5,5.6-2.3,7.9s-1.5,4.2-2.1,5.5c1.1-0.6,2-1,2.6-1.2s1.4-0.2,2.3,0c3,0.4,4.7,2.1,5.2,5c0,0.1,0,0.3,0,0.4
		c0,0.1,0,0.2,0,0.3c0.1,0.4,0.1,0.7,0.2,1s0.8,0.2,2.1-0.2s2.3-0.9,2.9-1.4s1-0.8,1.2-0.7c0.6,0.7,0.1,1.6-1.5,2.7
		C509.2,4.1,507.3,4.7,505.3,5z M495.4-6.3c0.1-0.1,0.4-1.2,1-3.2s1.1-4.6,1.7-7.7s1.1-6.1,1.5-9.2s0.4-5.7,0.2-7.8
		c-0.1-1.1-0.3-2-0.5-2.7s-0.5-0.9-0.9-0.7s-0.7,1.1-1,2.7c-0.5,2.3-0.9,5.5-1.2,9.5s-0.4,8-0.5,11.8
		C495.6-10.7,495.5-8.3,495.4-6.3z M502.7,2.4c0.1-1-0.2-1.9-0.7-2.7s-1.2-1.4-2-1.7s-1.6,0-2.3,0.8c-0.5,0.7-0.9,1.7-1.1,2.9
		s-0.3,2.4-0.2,3.6c0.9-0.5,1.8-0.9,2.7-1.3s1.9-0.6,2.8-0.7c0.2,0,0.4-0.1,0.5-0.3S502.7,2.6,502.7,2.4z M498.6,7.1
		c-0.1,0.4,0,0.5,0.3,0.6s0.7-0.1,1.1-0.3s0.8-0.5,1.2-0.8s0.5-0.7,0.5-1c0,0,0-0.1-0.1-0.1s-0.1,0-0.1,0c-0.5,0-0.9,0.1-1.4,0.3
		s-0.8,0.5-1.1,0.8C498.8,6.6,498.7,6.8,498.6,7.1z"/>
</g>
</svg>
